<svg width="205" height="101" viewBox="0 0 205 101" fill="none" xmlns="http://www.w3.org/2000/svg">
<g clip-path="url(#clip0_713_16644)">
<path d="M185.264 7.12438C187.175 9.98136 189.01 13.5058 188.108 17.2828C184.994 15.5004 182.489 12.5904 180.503 9.71764C178.503 6.82555 176.426 3.7502 175.715 0.185547C179.643 1.1902 183.159 3.97903 185.264 7.12438Z" fill="#FF9F38"/>
<path d="M16.4385 17.2766C15.5385 13.499 17.3771 9.97594 19.2922 7.12059C21.4003 3.97711 24.9178 1.19083 28.8461 0.188965C28.1324 3.75292 26.0524 6.82711 24.0503 9.71734C22.0617 12.5887 19.5536 15.4969 16.4385 17.2766Z" fill="#FF9F38"/>
<path d="M13.7005 24.5234C14.403 21.5318 14.3874 18.2567 13.7186 15.4506C13.1305 12.9846 12.2747 9.49854 9.45791 8.32227C7.41046 11.6065 6.58744 16.0788 7.7807 19.4299C8.64349 21.8539 10.1951 25.0588 13.413 25.5548C16.3658 26.2355 19.3516 24.6604 21.7098 23.3599C24.3319 21.9141 26.9002 19.6139 28.4607 16.8792C25.5981 15.4344 22.3381 16.6069 19.8856 17.7306C17.2419 18.942 14.8133 21.5411 13.7005 24.5234Z" fill="#FF9F38"/>
<path d="M128.25 46.2358C128.25 42.8025 126.069 40.9981 120.982 40.4467C120.155 40.3465 117.724 40.0958 116.195 39.9704C112.26 39.5444 111.083 39.319 111.083 38.3165C111.083 37.4144 112.01 36.9883 115.543 36.9883C118.05 36.9883 119.453 37.4644 120.004 38.1911C120.28 38.5421 120.38 38.8176 120.405 39.0935H127.623C127.548 38.4918 127.297 37.6397 126.896 36.8881C125.593 34.3818 122.46 32.377 115.719 32.377C108.125 32.377 103.965 35.0586 103.965 38.5672C103.965 41.9504 106.321 43.9302 112.686 44.5067C113.406 44.5684 114.952 44.7144 116.218 44.8339L116.296 44.8414L116.31 44.8428L116.315 44.8432L116.997 44.9076C120.33 45.2586 121.232 45.4839 121.232 46.5367C121.232 47.5139 120.355 48.0402 116.671 48.0402C113.814 48.0402 112.135 47.6142 111.534 46.8874C111.283 46.5867 111.108 46.1356 111.058 45.8349H103.84C103.915 46.336 104.04 47.1381 104.316 47.7897C105.544 50.5465 108.752 52.6516 116.195 52.6516C124.19 52.6516 128.25 50.396 128.25 46.2358Z" fill="#FF9F38"/>
<path fill-rule="evenodd" clip-rule="evenodd" d="M77.0831 50.3461C77.8349 49.4689 78.2107 48.1405 78.2107 46.7873C78.2107 45.6345 77.9101 44.5317 77.2835 43.8049C76.5317 42.8275 75.2033 42.1259 73.8 41.9505C74.7524 41.8252 75.6545 41.324 76.1807 40.6724C76.8324 39.8954 77.1331 38.8429 77.1331 37.5647C77.1331 36.2866 76.7572 35.1589 75.9052 34.3068C74.9528 33.3294 73.2235 32.6777 70.517 32.6777H53.5254V52.351H70.9931C73.7749 52.351 75.9303 51.7494 77.0831 50.3461ZM70.1661 38.7426C70.1661 39.2189 70.0156 39.6198 69.7652 39.8954C69.4142 40.2212 68.7626 40.3466 67.9105 40.3466H60.0914V37.1387H67.7352C68.6875 37.1387 69.3391 37.264 69.6898 37.5898C70.0156 37.8654 70.1661 38.2663 70.1661 38.7426ZM70.9179 47.3638C70.517 47.7396 69.8152 47.8901 68.6373 47.8901H60.0914V44.607H68.7126C69.8152 44.607 70.4668 44.7573 70.8426 45.0831C71.1435 45.3838 71.2686 45.7598 71.2686 46.261C71.2686 46.7373 71.1684 47.1131 70.9179 47.3638Z" fill="#FF9F38"/>
<path d="M101.81 47.464V52.351H81.084V32.6777H101.634V37.5898H87.7V40.121H101.233V44.9077H87.7V47.464H101.81Z" fill="#FF9F38"/>
<path d="M152.634 37.6149V32.6777H129.152V37.6149H137.448V52.351H144.313V37.6149H152.634Z" fill="#FF9F38"/>
<path d="M128.72 69.7597H127.616L127.536 68.696C127.199 69.2344 126.485 69.8807 124.978 69.8807C122.432 69.8807 121.248 68.3458 121.248 64.4269C121.248 61.3972 122.002 58.96 125.111 58.96C127.806 58.96 128.627 60.7241 128.667 62.6228H127.32C127.281 61.3839 126.727 60.2393 125.139 60.2393C123.227 60.2393 122.674 61.3839 122.674 64.4676C122.674 67.686 123.362 68.696 125.167 68.696C126.432 68.696 127.171 67.9958 127.415 67.1609V65.1544H124.695V63.9288H128.706V67.0262C128.706 67.9516 128.716 68.9393 128.718 69.4358L128.72 69.6721V69.7597Z" fill="#FF9F38"/>
<path d="M86.5842 59.0942H87.877L85.3588 69.7591H83.7563C83.7563 69.7591 81.9654 61.4642 81.9654 61.114C81.9519 61.4642 80.1205 69.7591 80.1205 69.7591H78.5181L76 59.0942H77.4542C77.4542 59.0942 79.4068 67.5373 79.4068 67.874C79.4068 67.5373 81.1977 59.0942 81.1977 59.0942H82.8002C82.8002 59.0942 84.5912 67.5508 84.5912 67.874C84.5912 67.5508 86.5842 59.0942 86.5842 59.0942Z" fill="#FF9F38"/>
<path d="M90.2598 59.0942V69.7591H88.8594V59.0942H90.2598Z" fill="#FF9F38"/>
<path d="M99.0247 59.0942V69.7591H97.4761L93.5035 61.491V69.7591H92.1973V59.0942H93.8268L97.7049 67.241V59.0942H99.0247Z" fill="#FF9F38"/>
<path d="M107.755 59.0942V69.7591H106.206L102.234 61.491V69.7591H100.928V59.0942H102.557L106.436 67.241V59.0942H107.755Z" fill="#FF9F38"/>
<path d="M111.062 59.0942V69.7591H109.662V59.0942H111.062Z" fill="#FF9F38"/>
<path d="M119.828 59.0942V69.7591H118.279L114.307 61.491V69.7591H113V59.0942H114.63L118.509 67.241V59.0942H119.828Z" fill="#FF9F38"/>
<path d="M68.9411 90.7791L67.3981 86.0298L65.8548 90.7791H60.8613L64.9011 93.7144L63.3581 98.4637L67.3981 95.5284L71.4381 98.4637L69.8948 93.7144L73.9348 90.7791H68.9411Z" fill="#FF9F38"/>
<path d="M86.7839 90.7801L85.2093 86.0308L83.6346 90.7801H78.5391L82.6616 93.7152L81.087 98.4645L85.2093 95.5294L89.3319 98.4645L87.7572 93.7152L91.8795 90.7801H86.7839Z" fill="#FF9F38"/>
<path d="M104.458 90.7806L102.883 86.0312L101.308 90.7806H96.2129L100.335 93.7157L98.7606 98.465L102.883 95.5299L107.005 98.465L105.431 93.7157L109.553 90.7806H104.458Z" fill="#FF9F38"/>
<path d="M122.132 90.7806L120.557 86.0312L118.982 90.7806H113.887L118.009 93.7157L116.434 98.465L120.557 95.5299L124.679 98.465L123.105 93.7157L127.227 90.7806H122.132Z" fill="#FF9F38"/>
<path d="M139.917 90.7806L138.375 86.0312L136.831 90.7806H131.838L135.877 93.7157L134.336 98.465L138.375 95.5299L142.415 98.465L140.87 93.7157L144.912 90.7806H139.917Z" fill="#FF9F38"/>
<path d="M4.60556 32.5962C6.05765 34.8115 8.30463 37.5864 11.5809 37.5073C14.5602 37.6562 17.1342 35.6229 19.1611 33.926C21.3442 32.0983 23.3146 29.4255 24.1465 26.536C21.0993 25.6494 18.1818 27.2918 16.0063 28.8408C13.7344 30.4587 11.9872 33.4197 11.6118 36.4599C11.5837 33.4141 10.7593 30.2683 9.43021 27.7341C8.21509 25.4173 6.52184 22.2857 3.50091 21.6597C2.31068 25.2646 2.69044 29.6753 4.60556 32.5962Z" fill="#FF9F38"/>
<path d="M12.5502 49.4388C9.50952 49.9483 6.54348 48.0853 4.6172 45.8939C2.1372 43.0725 0.661612 39.2876 0.962542 35.4985C4.08626 35.5778 6.45208 38.2781 8.20068 40.3199C10.0839 42.519 11.627 45.4123 12.3672 48.3969C12.0416 45.4225 13.0402 42.2106 14.8939 40.226C16.6832 38.3102 19.1898 36.2223 22.3084 36.5574C22.2411 39.5734 20.7293 42.4469 19.17 44.599C17.7165 46.6046 15.4774 49.0853 12.5502 49.4388Z" fill="#FF9F38"/>
<path d="M6.93322 59.4608C9.73369 61.2841 13.1302 63.0887 16.6997 61.7229C19.6281 60.6869 21.49 57.7392 22.6351 55.0336C23.8481 52.1669 24.6583 48.8613 24.0974 45.7236C20.8795 46.0092 18.2111 48.3115 16.7939 51.122C15.3123 54.0601 15.0281 57.5574 16.1662 60.6378C14.4846 57.4688 12.0253 54.9046 9.4202 52.5353C7.05206 50.3815 3.64089 48.1127 0.205078 48.5394C0.858799 52.7871 3.45089 57.1939 6.93322 59.4608Z" fill="#FF9F38"/>
<path d="M23.9164 73.2062C26.6723 71.5587 27.7813 68.0922 28.2346 65.1218C28.7232 61.9183 28.7023 58.3853 27.3718 55.3462C24.1746 56.2392 21.9799 59.1169 21.2553 62.2687C20.4897 65.5987 21.1357 69.1478 22.9981 71.9832C20.5225 69.1429 17.2306 66.7978 14.076 65.1534C11.0288 63.565 7.29039 61.6492 3.63086 62.8062C5.39551 67.1129 9.17039 71.1227 13.3541 72.7813C16.5941 74.0655 20.5357 75.3355 23.9164 73.2062Z" fill="#FF9F38"/>
<path d="M36.9759 74.3208C37.3804 77.4129 37.369 81.3348 34.9683 83.7148C31.9683 86.7855 27.3255 86.1929 23.7445 85.5174C18.9371 84.6097 13.5255 81.3308 10.625 76.965C14.1673 75.0146 18.4997 76.2622 22.0066 77.2722L22.2069 77.3297C26.1215 78.456 30.2931 80.2699 33.782 82.7485C30.9978 80.2327 28.9692 76.5401 28.8699 72.8183C28.7806 69.4894 30.2255 65.9281 33.3348 64.3413C35.5055 67.1904 36.522 70.8483 36.9759 74.3208Z" fill="#FF9F38"/>
<path d="M50.9141 92.4701C52.682 89.1047 50.9304 85.1549 49.5345 82.2356C47.8843 78.7845 45.6297 75.2673 42.4029 72.7412C39.3045 75.4114 39.5992 79.2321 40.5204 82.5526C41.6157 86.5007 45.4131 89.8663 49.3455 91.7842C44.7913 90.0859 39.8176 89.0666 35.0855 88.7656L34.6062 88.7347C30.8045 88.487 25.8555 88.1647 22.8262 90.9468C27.4064 94.8405 33.9122 97.087 39.6462 96.9703C43.4887 96.8921 48.7608 96.4375 50.9141 92.4701Z" fill="#FF9F38"/>
<path d="M190.845 24.5341C189.736 21.5497 187.308 18.9474 184.666 17.7337C182.213 16.6081 178.955 15.4334 176.092 16.8758C177.65 19.6116 180.215 21.9137 182.836 23.3616C185.192 24.6634 188.176 26.2407 191.129 25.5628C194.348 25.0697 195.903 21.8655 196.769 19.4416C197.966 16.092 197.148 11.6188 195.103 8.33252C192.285 9.50717 191.424 12.9923 190.836 15.4581C190.164 18.2648 190.145 21.5411 190.845 24.5341Z" fill="#FF9F38"/>
<path d="M188.53 28.8466C190.8 30.4652 192.541 33.4245 192.916 36.4627C192.948 33.4185 193.776 30.2757 195.107 27.7441C196.323 25.428 198.02 22.2978 201.041 21.6738C202.227 25.2799 201.844 29.6903 199.925 32.6096C198.474 34.821 196.227 37.5901 192.958 37.5159C189.974 37.6682 187.397 35.6301 185.369 33.9296C183.188 32.1001 181.22 29.4259 180.393 26.5359C183.439 25.6513 186.355 27.2959 188.53 28.8466Z" fill="#FF9F38"/>
<path d="M192.147 48.4166C192.479 45.4396 191.484 42.221 189.628 40.2324C187.842 38.3152 185.337 36.2254 182.219 36.5582C182.282 39.5742 183.791 42.4491 185.349 44.6024C186.8 46.6082 189.035 49.0889 191.961 49.4463C195.002 49.9614 197.972 48.0993 199.902 45.9082C202.384 43.0889 203.863 39.3052 203.568 35.5156C200.442 35.5928 198.075 38.291 196.323 40.3314C194.435 42.5319 192.889 45.4284 192.147 48.4166Z" fill="#FF9F38"/>
<path d="M187.72 51.1276C189.199 54.0674 189.481 57.5653 188.339 60.6448C190.022 57.4762 192.485 54.9136 195.092 52.546C197.462 50.3939 200.876 48.1281 204.311 48.5571C203.655 52.8046 201.057 57.2095 197.574 59.4736C194.774 61.2922 191.381 63.0932 187.815 61.7329C184.883 60.6988 183.02 57.745 181.876 55.0348C180.664 52.1671 179.857 48.8611 180.422 45.7236C183.639 46.0118 186.306 48.3162 187.72 51.1276Z" fill="#FF9F38"/>
<path d="M181.505 71.9775C183.366 69.1449 184.015 65.5993 183.254 62.271C182.533 59.1184 180.34 56.2391 177.143 55.3438C175.81 58.3814 175.787 61.9142 176.27 65.1184C176.722 68.083 177.824 71.5426 180.564 73.1961C183.947 75.3421 187.898 74.0728 191.143 72.7891C195.329 71.1335 199.108 67.1265 200.875 62.8207C197.217 61.6614 193.477 63.5744 190.429 65.1605C187.275 66.8017 183.982 69.1419 181.505 71.9775Z" fill="#FF9F38"/>
<path d="M167.512 74.3117C167.105 77.4031 167.112 81.3247 169.512 83.7068C172.507 86.7798 177.151 86.1905 180.733 85.5173C185.542 84.6133 190.956 81.338 193.861 76.9747C190.321 75.0219 185.986 76.2659 182.479 77.2731L182.277 77.3308C178.363 78.4535 174.191 80.2638 170.7 82.7387C173.486 80.2249 175.517 76.5354 175.619 72.8149C175.712 69.4863 174.27 65.9238 171.163 64.3345C168.989 67.1819 167.97 70.8394 167.512 74.3117Z" fill="#FF9F38"/>
<path d="M164.829 96.9587C160.987 96.8776 155.715 96.4192 153.566 92.4499L153.536 92.3955C151.819 89.0403 153.564 85.1189 154.954 82.2169C156.608 78.7669 158.866 75.2513 162.094 72.728C165.191 75.4004 164.891 79.2208 163.968 82.5403C162.868 86.4878 159.068 89.851 155.133 91.7657C159.689 90.0708 164.664 89.0552 169.396 88.7576L169.878 88.7269C173.68 88.4822 178.629 88.1641 181.654 90.9478C177.071 94.8376 170.564 97.0797 164.829 96.9587Z" fill="#FF9F38"/>
<path d="M67.1723 6.9375V18.1871C67.1723 23.135 62.6912 25.5156 55.8994 25.5156C49.5512 25.5156 45 23.1585 45 17.6037V6.9375H51.325V17.6037C51.325 19.5875 53.0287 20.8244 56.1562 20.8244C59.1437 20.8244 60.9175 19.5408 60.9175 17.6269V6.9375H67.1723Z" fill="#FF9F38"/>
<path d="M88.2409 20.381V25.2588H70.7598V6.9375H77.0848V20.381H88.2409Z" fill="#FF9F38"/>
<path d="M107.037 11.5354V6.9375H85.168V11.5354H92.8934V25.2588H99.2884V11.5354H107.037Z" fill="#FF9F38"/>
<path fill-rule="evenodd" clip-rule="evenodd" d="M129.472 8.80481C130.312 9.66827 130.71 10.8587 130.71 12.5156C130.71 13.9394 130.36 15.1531 129.776 15.9698C129.122 16.8567 128.118 17.6037 126.881 17.7904L132.414 25.2588H125.458L120.906 18.7938H115.236V25.2588H109.004V6.9375H123.591C126.485 6.9375 128.376 7.63769 129.472 8.80481ZM124.431 14.0562C124.595 13.776 124.641 13.4025 124.641 13.0992C124.641 12.749 124.595 12.3756 124.431 12.1423C124.104 11.5354 123.451 11.3721 122.47 11.3721H115.259V14.7096H122.587C123.591 14.7096 124.199 14.5229 124.431 14.0562Z" fill="#FF9F38"/>
<path fill-rule="evenodd" clip-rule="evenodd" d="M140.835 21.8748H150.731L152.341 25.2588H159.087L149.845 6.9375H142.306L132.527 25.2588H139.131L140.835 21.8748ZM148.747 17.7669H142.889L145.2 13.356L145.9 11.6754L146.554 13.3325L148.747 17.7669Z" fill="#FF9F38"/>
</g>
<defs>
<clipPath id="clip0_713_16644">
<rect width="204.651" height="100" fill="white" transform="translate(0.205078 0.185547)"/>
</clipPath>
</defs>
</svg>
