<svg width="205" height="101" viewBox="0 0 205 101" fill="none" xmlns="http://www.w3.org/2000/svg">
<g clip-path="url(#clip0_713_16477)">
<path d="M185.203 7.12438C187.115 9.98136 188.95 13.5058 188.047 17.2828C184.933 15.5004 182.429 12.5904 180.443 9.71764C178.443 6.82555 176.366 3.7502 175.654 0.185547C179.582 1.1902 183.098 3.97903 185.203 7.12438Z" fill="#C00D49"/>
<path d="M16.3779 17.2766C15.4779 13.499 17.3165 9.97594 19.2316 7.12059C21.3398 3.97711 24.8572 1.19083 28.7856 0.188965C28.0719 3.75292 25.9919 6.82711 23.9898 9.71734C22.0012 12.5887 19.493 15.4969 16.3779 17.2766Z" fill="#C00D49"/>
<path d="M13.6399 24.5234C14.3425 21.5318 14.3269 18.2567 13.6581 15.4506C13.0699 12.9846 12.2141 9.49854 9.39736 8.32227C7.34992 11.6065 6.5269 16.0788 7.72015 19.4299C8.58294 21.8539 10.1346 25.0588 13.3525 25.5548C16.3053 26.2355 19.2911 24.6604 21.6492 23.3599C24.2713 21.9141 26.8397 19.6139 28.4001 16.8792C25.5376 15.4344 22.2776 16.6069 19.825 17.7306C17.1813 18.942 14.7527 21.5411 13.6399 24.5234Z" fill="#C00D49"/>
<path d="M70.9457 27.3974V12.3774H65.8178V17.8498H58.126V12.3774H52.998V27.3974H58.126V21.9444H65.8178V27.3974H70.9457Z" fill="#C00D49"/>
<path d="M87.9483 12.3774H93.6118L85.5757 22.4419V27.3974H80.4287V22.4609L72.4883 12.3774H78.3239L83.0692 18.3853L87.9483 12.3774Z" fill="#C00D49"/>
<path fill-rule="evenodd" clip-rule="evenodd" d="M111.471 13.6593C112.485 14.463 113.059 15.8216 113.059 17.7923C113.059 19.3995 112.657 20.6049 111.892 21.447C110.858 22.6333 109.156 23.1688 106.936 23.1881C106.247 23.2072 100.354 23.1881 100.354 23.1881V27.3974H95.207V12.3774H106.86C108.926 12.3774 110.495 12.7984 111.471 13.6593ZM107.663 18.9595C107.816 18.6916 107.893 18.3472 107.893 17.8688C107.893 17.3714 107.797 16.9505 107.625 16.7209C107.3 16.2426 106.687 16.0128 105.692 16.0128H100.316V19.6865H105.654C106.726 19.6865 107.357 19.4379 107.663 18.9595Z" fill="#C00D49"/>
<path d="M130.93 23.6663V27.3974H115.107V12.3774H130.798V16.1277H120.159V18.0602H130.491V21.7146H120.159V23.6663H130.93Z" fill="#C00D49"/>
<path fill-rule="evenodd" clip-rule="evenodd" d="M150.14 13.9076C150.831 14.6156 151.154 15.5914 151.154 16.95C151.154 18.1172 150.868 19.1121 150.389 19.7818C149.854 20.5088 149.031 21.1211 148.017 21.2742L152.552 27.397H146.85L143.119 22.097H138.471V27.397H133.361V12.377H145.319C147.692 12.377 149.243 12.9509 150.14 13.9076ZM146.008 18.2128C146.143 17.9832 146.18 17.677 146.18 17.4283C146.18 17.1414 146.143 16.8351 146.008 16.6437C145.74 16.1463 145.206 16.0123 144.401 16.0123H138.489V18.7486H144.496C145.319 18.7486 145.817 18.5956 146.008 18.2128Z" fill="#C00D49"/>
<path d="M128.19 46.2358C128.19 42.8025 126.009 40.9981 120.921 40.4467C120.094 40.3465 117.663 40.0958 116.134 39.9704C112.2 39.5444 111.022 39.319 111.022 38.3165C111.022 37.4144 111.949 36.9883 115.483 36.9883C117.989 36.9883 119.393 37.4644 119.944 38.1911C120.22 38.5421 120.32 38.8176 120.345 39.0935H127.563C127.487 38.4918 127.237 37.6397 126.836 36.8881C125.533 34.3818 122.4 32.377 115.658 32.377C108.065 32.377 103.905 35.0586 103.905 38.5672C103.905 41.9504 106.26 43.9302 112.626 44.5067C113.346 44.5684 114.891 44.7144 116.157 44.8339L116.235 44.8414L116.249 44.8428L116.255 44.8432L116.937 44.9076C120.27 45.2586 121.172 45.4839 121.172 46.5367C121.172 47.5139 120.295 48.0402 116.611 48.0402C113.754 48.0402 112.075 47.6142 111.473 46.8874C111.223 46.5867 111.047 46.1356 110.997 45.8349H103.779C103.854 46.336 103.98 47.1381 104.255 47.7897C105.483 50.5465 108.691 52.6516 116.134 52.6516C124.129 52.6516 128.19 50.396 128.19 46.2358Z" fill="#C00D49"/>
<path fill-rule="evenodd" clip-rule="evenodd" d="M77.0225 50.3461C77.7744 49.4689 78.1502 48.1405 78.1502 46.7873C78.1502 45.6345 77.8495 44.5317 77.223 43.8049C76.4711 42.8275 75.1428 42.1259 73.7395 41.9505C74.6918 41.8252 75.5939 41.324 76.1202 40.6724C76.7718 39.8954 77.0725 38.8429 77.0725 37.5647C77.0725 36.2866 76.6967 35.1589 75.8446 34.3068C74.8923 33.3294 73.163 32.6777 70.4565 32.6777H53.4648V52.351H70.9325C73.7144 52.351 75.8697 51.7494 77.0225 50.3461ZM70.1055 38.7426C70.1055 39.2189 69.9551 39.6198 69.7046 39.8954C69.3537 40.2212 68.7021 40.3466 67.85 40.3466H60.0309V37.1387H67.6746C68.6269 37.1387 69.2786 37.264 69.6293 37.5898C69.9551 37.8654 70.1055 38.2663 70.1055 38.7426ZM70.8574 47.3638C70.4565 47.7396 69.7546 47.8901 68.5767 47.8901H60.0309V44.607H68.6521C69.7546 44.607 70.4062 44.7573 70.782 45.0831C71.083 45.3838 71.2081 45.7598 71.2081 46.261C71.2081 46.7373 71.1079 47.1131 70.8574 47.3638Z" fill="#C00D49"/>
<path d="M101.749 47.464V52.351H81.0234V32.6777H101.574V37.5898H87.6395V40.121H101.173V44.9077H87.6395V47.464H101.749Z" fill="#C00D49"/>
<path d="M152.573 37.6149V32.6777H129.092V37.6149H137.387V52.351H144.252V37.6149H152.573Z" fill="#C00D49"/>
<path d="M151.98 69.7597H150.875L150.796 68.696C150.459 69.2344 149.745 69.8807 148.238 69.8807C145.692 69.8807 144.508 68.3458 144.508 64.4269C144.508 61.3972 145.261 58.96 148.371 58.96C151.066 58.96 151.887 60.7241 151.926 62.6228H150.58C150.54 61.3839 149.987 60.2393 148.399 60.2393C146.487 60.2393 145.933 61.3839 145.933 64.4676C145.933 67.686 146.622 68.696 148.426 68.696C149.692 68.696 150.431 67.9958 150.675 67.1609V65.1544H147.954V63.9288H151.966V67.0262C151.966 67.9516 151.975 68.9393 151.978 69.4358L151.98 69.6721V69.7597Z" fill="#C00D49"/>
<path fill-rule="evenodd" clip-rule="evenodd" d="M53.7201 67.0794H57.4906L58.2715 69.7591H59.699L56.5748 59.0942H54.8378L51.498 69.7591H52.912L53.7201 67.0794ZM57.1539 65.881H54.0836C54.0836 65.881 55.4167 61.5719 55.4436 61.4777C55.4571 61.4103 55.6727 60.4542 55.6727 60.4542L55.8218 61.1614L55.8881 61.4777C55.9015 61.5449 57.1539 65.881 57.1539 65.881Z" fill="#C00D49"/>
<path d="M69.9182 59.0947H71.2109L68.6928 69.7596H67.0903C67.0903 69.7596 65.2993 61.4647 65.2993 61.1145C65.2858 61.4647 63.4544 69.7596 63.4544 69.7596H61.8521L59.334 59.0947H60.7882C60.7882 59.0947 62.7407 67.5378 62.7407 67.8745C62.7407 67.5378 64.5319 59.0947 64.5319 59.0947H66.1342C66.1342 59.0947 67.9251 67.5512 67.9251 67.8745C67.9251 67.5512 69.9182 59.0947 69.9182 59.0947Z" fill="#C00D49"/>
<path fill-rule="evenodd" clip-rule="evenodd" d="M76.7404 67.0798H72.9699L72.162 69.7596H70.748L74.0876 59.0947H75.8248L78.949 69.7596H77.5215L76.7404 67.0798ZM73.3336 65.8815H76.4039C76.4039 65.8815 75.1515 61.5454 75.1381 61.4782L75.0362 60.9929L74.9225 60.4547C74.9225 60.4547 74.7071 61.4108 74.6936 61.4782C74.6667 61.5724 73.3336 65.8815 73.3336 65.8815Z" fill="#C00D49"/>
<path fill-rule="evenodd" clip-rule="evenodd" d="M84.1391 59.0947C85.7819 59.0947 86.6707 59.8622 86.6707 62.0975C86.6707 63.9964 85.957 64.6291 85.2163 64.8445L87.2633 69.7596H85.7819L83.8833 65.114H81.2979V69.7596H79.9512V59.0947H84.1391ZM83.9372 63.9019C85.0009 63.9019 85.2568 63.3498 85.2568 62.138C85.2568 60.7645 84.8528 60.3471 83.8698 60.3471H81.3112V63.9019H83.9372Z" fill="#C00D49"/>
<path fill-rule="evenodd" clip-rule="evenodd" d="M95.6346 64.2522C95.6346 66.7703 95.4462 67.7936 94.9076 68.5612C94.369 69.3019 93.5207 69.7596 92.1469 69.7596H88.4844V59.0947H92.0527C93.3995 59.0947 94.4497 59.4987 94.9346 60.2259C95.4732 61.0068 95.6346 61.9764 95.6346 64.2522ZM91.8644 68.4938C92.6858 68.4938 93.3725 68.2785 93.7225 67.8071C94.0997 67.2954 94.2074 66.2584 94.2074 64.2522C94.2074 62.5689 94.113 61.6666 93.7225 61.0875C93.359 60.5894 92.6588 60.3738 91.8374 60.3738H89.8444V68.4938H91.8644Z" fill="#C00D49"/>
<path d="M109.844 59.0942H111.137L108.619 69.7591H107.016C107.016 69.7591 105.225 61.4642 105.225 61.114C105.212 61.4642 103.38 69.7591 103.38 69.7591H101.778L99.2598 59.0942H100.714C100.714 59.0942 102.667 67.5373 102.667 67.874C102.667 67.5373 104.457 59.0942 104.457 59.0942H106.06C106.06 59.0942 107.851 67.5508 107.851 67.874C107.851 67.5508 109.844 59.0942 109.844 59.0942Z" fill="#C00D49"/>
<path d="M113.52 59.0942V69.7591H112.119V59.0942H113.52Z" fill="#C00D49"/>
<path d="M122.284 59.0942V69.7591H120.736L116.763 61.491V69.7591H115.457V59.0942H117.087L120.965 67.241V59.0942H122.284Z" fill="#C00D49"/>
<path d="M131.014 59.0942V69.7591H129.466L125.494 61.491V69.7591H124.188V59.0942H125.817L129.696 67.241V59.0942H131.014Z" fill="#C00D49"/>
<path d="M134.322 59.0942V69.7591H132.922V59.0942H134.322Z" fill="#C00D49"/>
<path d="M143.088 59.0942V69.7591H141.539L137.567 61.491V69.7591H136.26V59.0942H137.89L141.769 67.241V59.0942H143.088Z" fill="#C00D49"/>
<path d="M68.8805 90.7791L67.3375 86.0298L65.7943 90.7791H60.8008L64.8405 93.7144L63.2975 98.4637L67.3375 95.5284L71.3775 98.4637L69.8343 93.7144L73.8743 90.7791H68.8805Z" fill="#C00D49"/>
<path d="M86.7234 90.7801L85.1488 86.0308L83.5741 90.7801H78.4785L82.6011 93.7152L81.0264 98.4645L85.1488 95.5294L89.2713 98.4645L87.6967 93.7152L91.819 90.7801H86.7234Z" fill="#C00D49"/>
<path d="M104.397 90.7806L102.823 86.0312L101.248 90.7806H96.1523L100.275 93.7157L98.7 98.465L102.823 95.5299L106.945 98.465L105.37 93.7157L109.493 90.7806H104.397Z" fill="#C00D49"/>
<path d="M122.071 90.7806L120.496 86.0312L118.922 90.7806H113.826L117.948 93.7157L116.374 98.465L120.496 95.5299L124.619 98.465L123.044 93.7157L127.167 90.7806H122.071Z" fill="#C00D49"/>
<path d="M139.856 90.7806L138.315 86.0312L136.77 90.7806H131.777L135.817 93.7157L134.275 98.465L138.315 95.5299L142.354 98.465L140.81 93.7157L144.852 90.7806H139.856Z" fill="#C00D49"/>
<path d="M4.54501 32.5962C5.99711 34.8115 8.24408 37.5864 11.5204 37.5073C14.4997 37.6562 17.0736 35.6229 19.1006 33.926C21.2836 32.0983 23.2541 29.4255 24.0859 26.536C21.0387 25.6494 18.1213 27.2918 15.9457 28.8408C13.6739 30.4587 11.9266 33.4197 11.5513 36.4599C11.5232 33.4141 10.6987 30.2683 9.36966 27.7341C8.15455 25.4173 6.46129 22.2857 3.44036 21.6597C2.25013 25.2646 2.6299 29.6753 4.54501 32.5962Z" fill="#C00D49"/>
<path d="M12.4897 49.4388C9.44897 49.9483 6.48293 48.0853 4.55665 45.8939C2.07665 43.0725 0.601065 39.2876 0.901995 35.4985C4.02572 35.5778 6.39153 38.2781 8.14013 40.3199C10.0234 42.519 11.5664 45.4123 12.3066 48.3969C11.9811 45.4225 12.9797 42.2106 14.8334 40.226C16.6227 38.3102 19.1292 36.2223 22.2478 36.5574C22.1806 39.5734 20.6687 42.4469 19.1094 44.599C17.656 46.6046 15.4169 49.0853 12.4897 49.4388Z" fill="#C00D49"/>
<path d="M6.87267 59.4608C9.67314 61.2841 13.0697 63.0887 16.6392 61.7229C19.5676 60.6869 21.4294 57.7392 22.5745 55.0336C23.7876 52.1669 24.5978 48.8613 24.0369 45.7236C20.819 46.0092 18.1506 48.3115 16.7334 51.122C15.2517 54.0601 14.9676 57.5574 16.1057 60.6378C14.4241 57.4688 11.9648 54.9046 9.35965 52.5353C6.99151 50.3815 3.58035 48.1127 0.144531 48.5394C0.798252 52.7871 3.39035 57.1939 6.87267 59.4608Z" fill="#C00D49"/>
<path d="M23.8559 73.2062C26.6117 71.5587 27.7208 68.0922 28.174 65.1218C28.6626 61.9183 28.6417 58.3853 27.3113 55.3462C24.114 56.2392 21.9194 59.1169 21.1947 62.2687C20.4292 65.5987 21.0752 69.1478 22.9375 71.9832C20.4619 69.1429 17.1701 66.7978 14.0154 65.1534C10.9682 63.565 7.22985 61.6492 3.57031 62.8062C5.33496 67.1129 9.10985 71.1227 13.2936 72.7813C16.5336 74.0655 20.4752 75.3355 23.8559 73.2062Z" fill="#C00D49"/>
<path d="M36.9154 74.3208C37.3198 77.4129 37.3084 81.3348 34.9077 83.7148C31.9077 86.7855 27.2649 86.1929 23.684 85.5174C18.8765 84.6097 13.4649 81.3308 10.5645 76.965C14.1068 75.0146 18.4391 76.2622 21.9461 77.2722L22.1463 77.3297C26.061 78.456 30.2326 80.2699 33.7214 82.7485C30.9372 80.2327 28.9086 76.5401 28.8093 72.8183C28.72 69.4894 30.1649 65.9281 33.2742 64.3413C35.4449 67.1904 36.4614 70.8483 36.9154 74.3208Z" fill="#C00D49"/>
<path d="M50.8535 92.4701C52.6214 89.1047 50.8698 85.1549 49.474 82.2356C47.8238 78.7845 45.5691 75.2673 42.3424 72.7412C39.244 75.4114 39.5386 79.2321 40.4598 82.5526C41.5552 86.5007 45.3526 89.8663 49.2849 91.7842C44.7307 90.0859 39.757 89.0666 35.0249 88.7656L34.5456 88.7347C30.744 88.487 25.7949 88.1647 22.7656 90.9468C27.3459 94.8405 33.8517 97.087 39.5856 96.9703C43.4282 96.8921 48.7003 96.4375 50.8535 92.4701Z" fill="#C00D49"/>
<path d="M190.785 24.5341C189.675 21.5497 187.248 18.9474 184.606 17.7337C182.152 16.6081 178.894 15.4334 176.031 16.8758C177.589 19.6116 180.155 21.9137 182.775 23.3616C185.131 24.6634 188.115 26.2407 191.068 25.5628C194.287 25.0697 195.843 21.8655 196.708 19.4416C197.906 16.092 197.087 11.6188 195.043 8.33252C192.224 9.50717 191.364 12.9923 190.775 15.4581C190.103 18.2648 190.085 21.5411 190.785 24.5341Z" fill="#C00D49"/>
<path d="M188.469 28.8466C190.739 30.4652 192.481 33.4245 192.855 36.4627C192.888 33.4185 193.716 30.2757 195.046 27.7441C196.262 25.428 197.96 22.2978 200.981 21.6738C202.167 25.2799 201.783 29.6903 199.865 32.6096C198.413 34.821 196.167 37.5901 192.897 37.5159C189.913 37.6682 187.337 35.6301 185.309 33.9296C183.127 32.1001 181.16 29.4259 180.332 26.5359C183.379 25.6513 186.295 27.2959 188.469 28.8466Z" fill="#C00D49"/>
<path d="M192.086 48.4166C192.419 45.4396 191.423 42.221 189.568 40.2324C187.781 38.3152 185.277 36.2254 182.158 36.5582C182.221 39.5742 183.73 42.4491 185.288 44.6024C186.74 46.6082 188.974 49.0889 191.9 49.4463C194.942 49.9614 197.912 48.0993 199.842 45.9082C202.323 43.0889 203.802 39.3052 203.507 35.5156C200.381 35.5928 198.014 38.291 196.263 40.3314C194.374 42.5319 192.828 45.4284 192.086 48.4166Z" fill="#C00D49"/>
<path d="M187.66 51.1276C189.139 54.0674 189.42 57.5653 188.278 60.6448C189.962 57.4762 192.425 54.9136 195.032 52.546C197.401 50.3939 200.815 48.1281 204.25 48.5571C203.594 52.8046 200.997 57.2095 197.513 59.4736C194.713 61.2922 191.32 63.0932 187.755 61.7329C184.822 60.6988 182.96 57.745 181.815 55.0348C180.604 52.1671 179.797 48.8611 180.362 45.7236C183.578 46.0118 186.246 48.3162 187.66 51.1276Z" fill="#C00D49"/>
<path d="M181.445 71.9775C183.305 69.1449 183.954 65.5993 183.194 62.271C182.473 59.1184 180.28 56.2391 177.082 55.3438C175.749 58.3814 175.726 61.9142 176.21 65.1184C176.661 68.083 177.763 71.5426 180.503 73.1961C183.887 75.3421 187.838 74.0728 191.082 72.7891C195.268 71.1335 199.047 67.1265 200.815 62.8207C197.156 61.6614 193.417 63.5744 190.368 65.1605C187.215 66.8017 183.922 69.1419 181.445 71.9775Z" fill="#C00D49"/>
<path d="M167.451 74.3117C167.044 77.4031 167.051 81.3247 169.451 83.7068C172.447 86.7798 177.091 86.1905 180.672 85.5173C185.482 84.6133 190.896 81.338 193.8 76.9747C190.261 75.0219 185.926 76.2659 182.419 77.2731L182.216 77.3308C178.303 78.4535 174.13 80.2638 170.64 82.7387C173.426 80.2249 175.456 76.5354 175.558 72.8149C175.651 69.4863 174.21 65.9238 171.103 64.3345C168.928 67.1819 167.91 70.8394 167.451 74.3117Z" fill="#C00D49"/>
<path d="M164.768 96.9587C160.926 96.8776 155.654 96.4192 153.505 92.4499L153.475 92.3955C151.759 89.0403 153.503 85.1189 154.894 82.2169C156.547 78.7669 158.805 75.2513 162.033 72.728C165.131 75.4004 164.831 79.2208 163.908 82.5403C162.808 86.4878 159.008 89.851 155.073 91.7657C159.629 90.0708 164.603 89.0552 169.336 88.7576L169.817 88.7269C173.619 88.4822 178.568 88.1641 181.594 90.9478C177.01 94.8376 170.503 97.0797 164.768 96.9587Z" fill="#C00D49"/>
</g>
<defs>
<clipPath id="clip0_713_16477">
<rect width="204.651" height="100" fill="white" transform="translate(0.144531 0.185547)"/>
</clipPath>
</defs>
</svg>
