<svg width="584" height="428" viewBox="0 0 584 428" fill="none" xmlns="http://www.w3.org/2000/svg">
<g clip-path="url(#clip0_713_15335)">
<path d="M81.4708 360.515H32.6396C30.061 360.513 27.5888 359.487 25.7662 357.662C23.9437 355.838 22.9199 353.365 22.9199 350.786C22.9199 348.209 23.944 345.736 25.7668 343.914C27.5896 342.091 30.0618 341.067 32.6396 341.067H81.4708C84.0495 341.067 86.5226 342.09 88.3469 343.913C90.1711 345.736 91.1971 348.208 91.1995 350.786C91.1995 352.064 90.9478 353.329 90.4589 354.509C89.97 355.69 89.2534 356.762 88.35 357.666C87.4466 358.569 86.3742 359.286 85.1938 359.775C84.0135 360.263 82.7484 360.515 81.4708 360.515Z" stroke="#062A44" stroke-opacity="0.25" stroke-miterlimit="10"/>
<path d="M207.29 148.615H180.717C173.713 148.615 168.035 154.293 168.035 161.297V161.306C168.035 168.31 173.713 173.988 180.717 173.988H207.29C214.294 173.988 219.972 168.31 219.972 161.306V161.297C219.972 154.293 214.294 148.615 207.29 148.615Z" stroke="#062A44" stroke-opacity="0.25" stroke-miterlimit="10"/>
<path d="M306.742 45.5198H257.911C255.333 45.5198 252.861 44.4958 251.038 42.673C249.215 40.8502 248.191 38.378 248.191 35.8001C248.19 34.523 248.441 33.2581 248.929 32.0778C249.417 30.8975 250.132 29.825 251.035 28.9215C251.938 28.018 253.01 27.3012 254.189 26.8122C255.369 26.3232 256.634 26.0715 257.911 26.0715H306.742C308.021 26.0703 309.287 26.3211 310.468 26.8095C311.649 27.2978 312.723 28.0143 313.627 28.9178C314.532 29.8213 315.249 30.8942 315.738 32.0751C316.228 33.256 316.48 34.5218 316.48 35.8001C316.479 37.0777 316.226 38.3426 315.736 39.5224C315.246 40.7023 314.528 41.7741 313.624 42.6767C312.72 43.5793 311.647 44.2949 310.466 44.7827C309.285 45.2705 308.02 45.521 306.742 45.5198Z" stroke="#062A44" stroke-opacity="0.25" stroke-miterlimit="10"/>
<path d="M458.105 310.422H418.725C417.555 310.422 416.432 309.957 415.605 309.13C414.777 308.302 414.313 307.18 414.312 306.01C414.312 304.839 414.777 303.717 415.605 302.89C416.432 302.062 417.555 301.597 418.725 301.597H458.105C459.275 301.597 460.397 302.062 461.225 302.89C462.052 303.717 462.517 304.839 462.517 306.01C462.517 307.18 462.052 308.302 461.225 309.13C460.397 309.957 459.275 310.422 458.105 310.422Z" stroke="#062A44" stroke-opacity="0.25" stroke-miterlimit="10"/>
<path d="M133.183 81.3377H93.803C92.6327 81.3377 91.5104 80.8728 90.683 80.0454C89.8555 79.2179 89.3906 78.0956 89.3906 76.9254C89.3906 76.3459 89.5048 75.7722 89.7265 75.2368C89.9482 74.7015 90.2732 74.2151 90.683 73.8054C91.0927 73.3956 91.5791 73.0706 92.1144 72.8489C92.6498 72.6271 93.2235 72.513 93.803 72.513H133.183C133.762 72.513 134.336 72.6271 134.871 72.8489C135.407 73.0706 135.893 73.3956 136.303 73.8054C136.713 74.2151 137.038 74.7015 137.259 75.2368C137.481 75.7722 137.595 76.3459 137.595 76.9254C137.595 78.0956 137.13 79.2179 136.303 80.0454C135.475 80.8728 134.353 81.3377 133.183 81.3377Z" stroke="#062A44" stroke-opacity="0.25" stroke-miterlimit="10"/>
<path d="M522.186 11.2682C534.143 16.9872 542.028 10.3731 548.955 7.06165C551.869 5.6568 555.181 5.30823 558.324 6.07555C561.467 6.84288 564.245 8.67842 566.184 11.2682L565.647 37.0263C565.647 37.0263 555.865 33.5537 550.298 37.0263C544.731 40.4989 538.072 49.055 522.168 37.5006L522.186 11.2682Z" fill="#EDEDED" stroke="#062A44" stroke-opacity="0.25" stroke-width="2" stroke-linecap="round" stroke-linejoin="round"/>
<path d="M568.216 118.14C567.555 118.14 566.921 117.878 566.453 117.412C565.985 116.946 565.721 116.313 565.719 115.652V6.64998C565.719 6.32248 565.783 5.99821 565.909 5.69575C566.035 5.3933 566.219 5.11862 566.451 4.88746C566.683 4.6563 566.958 4.47322 567.261 4.3487C567.564 4.22419 567.888 4.1607 568.216 4.16188C568.543 4.1607 568.868 4.22419 569.171 4.3487C569.474 4.47322 569.749 4.6563 569.981 4.88746C570.213 5.11862 570.397 5.3933 570.523 5.69575C570.648 5.99821 570.713 6.32248 570.713 6.64998V115.652C570.71 116.313 570.446 116.946 569.978 117.412C569.51 117.878 568.877 118.14 568.216 118.14Z" fill="#F9F9F9" stroke="#EDEDED" stroke-width="2" stroke-linecap="round" stroke-linejoin="round"/>
<path d="M549.395 118.964H587.235" stroke="#062A44" stroke-opacity="0.25" stroke-width="2" stroke-linecap="round" stroke-linejoin="round"/>
<path d="M520.002 161.297H504.795V193.624H466.096V230.928" stroke="#062A44" stroke-opacity="0.25" stroke-width="2" stroke-linecap="round" stroke-linejoin="round"/>
<path d="M216.812 371.398H178.103V403.475H120.564V424.517H2.76367" stroke="#062A44" stroke-opacity="0.25" stroke-width="2" stroke-linecap="round" stroke-linejoin="round"/>
<path d="M369.678 262.289V288.987H321.115V317.752H272.669V346.589H224.348V371.398" stroke="#EDEDED" stroke-width="2" stroke-linecap="round" stroke-linejoin="round"/>
<path d="M455.151 231.492H414.634V262.289H384.025" stroke="#062A44" stroke-opacity="0.25" stroke-width="2" stroke-linecap="round" stroke-linejoin="round"/>
<path d="M81.4708 360.515H32.6396C30.061 360.513 27.5888 359.487 25.7662 357.662C23.9437 355.838 22.9199 353.365 22.9199 350.786C22.9199 348.209 23.944 345.736 25.7668 343.914C27.5896 342.091 30.0618 341.067 32.6396 341.067H81.4708C84.0495 341.067 86.5226 342.09 88.3469 343.913C90.1711 345.736 91.1971 348.208 91.1995 350.786C91.1995 352.064 90.9478 353.329 90.4589 354.509C89.97 355.69 89.2534 356.762 88.35 357.666C87.4466 358.569 86.3742 359.286 85.1938 359.775C84.0135 360.263 82.7484 360.515 81.4708 360.515Z" stroke="#062A44" stroke-opacity="0.25" stroke-miterlimit="10"/>
<path d="M207.29 148.615H180.717C173.713 148.615 168.035 154.293 168.035 161.297V161.306C168.035 168.31 173.713 173.988 180.717 173.988H207.29C214.294 173.988 219.972 168.31 219.972 161.306V161.297C219.972 154.293 214.294 148.615 207.29 148.615Z" stroke="#062A44" stroke-opacity="0.25" stroke-miterlimit="10"/>
<path d="M306.742 45.5198H257.911C255.333 45.5198 252.861 44.4958 251.038 42.673C249.215 40.8502 248.191 38.378 248.191 35.8001C248.19 34.523 248.441 33.2581 248.929 32.0778C249.417 30.8975 250.132 29.825 251.035 28.9215C251.938 28.018 253.01 27.3012 254.189 26.8122C255.369 26.3232 256.634 26.0715 257.911 26.0715H306.742C308.021 26.0703 309.287 26.3211 310.468 26.8095C311.649 27.2978 312.723 28.0143 313.627 28.9178C314.532 29.8213 315.249 30.8942 315.738 32.0751C316.228 33.256 316.48 34.5218 316.48 35.8001C316.479 37.0777 316.226 38.3426 315.736 39.5224C315.246 40.7023 314.528 41.7741 313.624 42.6767C312.72 43.5793 311.647 44.2949 310.466 44.7827C309.285 45.2705 308.02 45.521 306.742 45.5198Z" stroke="#062A44" stroke-opacity="0.25" stroke-miterlimit="10"/>
<path d="M458.105 310.422H418.725C417.555 310.422 416.432 309.957 415.605 309.13C414.777 308.302 414.313 307.18 414.312 306.01C414.312 304.839 414.777 303.717 415.605 302.89C416.432 302.062 417.555 301.597 418.725 301.597H458.105C459.275 301.597 460.397 302.062 461.225 302.89C462.052 303.717 462.517 304.839 462.517 306.01C462.517 307.18 462.052 308.302 461.225 309.13C460.397 309.957 459.275 310.422 458.105 310.422Z" stroke="#062A44" stroke-opacity="0.25" stroke-miterlimit="10"/>
<path d="M133.183 81.3377H93.803C92.6327 81.3377 91.5104 80.8728 90.683 80.0454C89.8555 79.2179 89.3906 78.0956 89.3906 76.9254C89.3906 76.3459 89.5048 75.7722 89.7265 75.2368C89.9482 74.7015 90.2732 74.2151 90.683 73.8054C91.0927 73.3956 91.5791 73.0706 92.1144 72.8489C92.6498 72.6271 93.2235 72.513 93.803 72.513H133.183C133.762 72.513 134.336 72.6271 134.871 72.8489C135.407 73.0706 135.893 73.3956 136.303 73.8054C136.713 74.2151 137.038 74.7015 137.259 75.2368C137.481 75.7722 137.595 76.3459 137.595 76.9254C137.595 78.0956 137.13 79.2179 136.303 80.0454C135.475 80.8728 134.353 81.3377 133.183 81.3377Z" stroke="#062A44" stroke-opacity="0.25" stroke-miterlimit="10"/>
<path d="M522.186 11.2682C534.143 16.9872 542.028 10.3731 548.955 7.06165C551.869 5.6568 555.181 5.30823 558.324 6.07555C561.467 6.84288 564.245 8.67842 566.184 11.2682L565.647 37.0263C565.647 37.0263 555.865 33.5537 550.298 37.0263C544.731 40.4989 538.072 49.055 522.168 37.5006L522.186 11.2682Z" fill="#6C5DD3" stroke="#6153C4" stroke-width="2" stroke-linecap="round" stroke-linejoin="round"/>
<path d="M568.216 118.14C567.555 118.14 566.921 117.878 566.453 117.412C565.985 116.946 565.721 116.313 565.719 115.652V6.64998C565.719 6.32248 565.783 5.99821 565.909 5.69575C566.035 5.3933 566.219 5.11862 566.451 4.88746C566.683 4.6563 566.958 4.47322 567.261 4.3487C567.564 4.22419 567.888 4.1607 568.216 4.16188C568.543 4.1607 568.868 4.22419 569.171 4.3487C569.474 4.47322 569.749 4.6563 569.981 4.88746C570.213 5.11862 570.397 5.3933 570.523 5.69575C570.648 5.99821 570.713 6.32248 570.713 6.64998V115.652C570.71 116.313 570.446 116.946 569.978 117.412C569.51 117.878 568.877 118.14 568.216 118.14Z" fill="#6C5DD3" stroke="#6153C3" stroke-width="2" stroke-linecap="round" stroke-linejoin="round"/>
<path d="M549.395 118.964H587.235" stroke="#062A44" stroke-opacity="0.25" stroke-width="2" stroke-linecap="round" stroke-linejoin="round"/>
<path d="M520.002 161.297H504.795V193.624H466.096V230.928" stroke="#062A44" stroke-opacity="0.25" stroke-width="2" stroke-linecap="round" stroke-linejoin="round"/>
<path d="M216.812 371.398H178.103V403.475H120.564V424.517H2.76367" stroke="#062A44" stroke-opacity="0.25" stroke-width="2" stroke-linecap="round" stroke-linejoin="round"/>
<path d="M369.678 262.289V288.987H321.115V317.752H272.669V346.589H224.348V371.398" stroke="#062A44" stroke-opacity="0.25" stroke-width="2" stroke-linecap="round" stroke-linejoin="round"/>
<path d="M455.151 231.492H414.634V262.289H384.025" stroke="#062A44" stroke-opacity="0.25" stroke-width="2" stroke-linecap="round" stroke-linejoin="round"/>
<path d="M436.079 27.3334C436.079 27.3334 435.9 27.7451 435.578 28.4432C435.255 29.1413 434.942 29.7589 434.477 30.636C434.164 31.2446 433.814 31.8979 433.421 32.5871C433.188 33.0077 432.937 33.482 432.669 33.8848L432.409 34.3054C431.819 35.281 431.165 36.2924 430.449 37.2858C429.948 37.9839 429.42 38.682 428.865 39.3532C424.515 44.6248 420.864 42.4141 420.864 42.4141C419.844 43.3011 418.997 44.3693 418.367 45.5646C417.483 47.2018 416.844 48.9598 416.469 50.7824C406.204 58.2646 399.688 48.4017 402.74 39.6307C406.893 35.7194 410.597 31.3577 413.784 26.6263C410.473 22.2229 415.986 18.3834 418.519 20.9073L424.005 18.3655C435.569 15.3046 436.079 27.3334 436.079 27.3334Z" fill="#FEBD9D"/>
<path d="M415.262 22.0171C416.712 22.0171 417.947 22.6078 417.669 24.8363" stroke="#EF8A66" stroke-width="0.75" stroke-linecap="round" stroke-linejoin="round"/>
<path d="M416.719 25.8925C414.616 24.5858 416.46 22.8674 417.614 23.9503" stroke="#EF8A66" stroke-width="0.75" stroke-linecap="round" stroke-linejoin="round"/>
<path d="M427.013 37.0262C425.501 36.5519 424.847 34.6366 425.223 32.9808C421.196 35.7911 424.203 39.1205 427.013 37.0262Z" fill="white" stroke="#EF8A66" stroke-width="0.75" stroke-linecap="round" stroke-linejoin="round"/>
<path d="M428.051 34.6903C429.411 34.6903 430.602 34.923 430.924 32.3543C431.004 31.6229 431.259 30.9218 431.669 30.3108C432.079 29.6998 432.631 29.1972 433.278 28.8459" stroke="#EF8A66" stroke-width="0.75" stroke-linecap="round" stroke-linejoin="round"/>
<path d="M413.785 26.6263C414.279 27.3179 414.972 27.8424 415.772 28.1299" stroke="#EF8A66" stroke-width="0.75" stroke-linecap="round" stroke-linejoin="round"/>
<path d="M427.943 29.92C427.943 30.097 427.996 30.27 428.094 30.4172C428.193 30.5644 428.332 30.6791 428.496 30.7468C428.659 30.8146 428.839 30.8323 429.013 30.7978C429.187 30.7632 429.346 30.678 429.471 30.5528C429.596 30.4277 429.682 30.2682 429.716 30.0946C429.751 29.921 429.733 29.741 429.665 29.5775C429.597 29.4139 429.483 29.2741 429.336 29.1758C429.188 29.0775 429.015 29.025 428.838 29.025C428.601 29.025 428.373 29.1193 428.206 29.2871C428.038 29.4549 427.943 29.6826 427.943 29.92Z" fill="#683F1D"/>
<path d="M433.42 32.6049C433.188 33.0256 432.937 33.4999 432.669 33.9027H432.606C432.369 33.9027 432.141 33.8084 431.973 33.6405C431.805 33.4727 431.711 33.245 431.711 33.0077C431.711 32.7703 431.805 32.5427 431.973 32.3748C432.141 32.207 432.369 32.1127 432.606 32.1127C432.774 32.1098 432.94 32.1545 433.084 32.2416C433.228 32.3287 433.345 32.4546 433.42 32.6049Z" fill="#683F1D"/>
<path d="M441.387 26.4832C441.315 27.942 439.973 29.4008 437.708 29.4366C435.605 29.4366 434.057 27.0649 434.406 24.7289C434.406 24.7289 430.826 25.5613 430.226 20.8983C430.226 20.8983 427.308 23.279 425.751 19.4127C423.988 20.9701 422.376 22.6901 420.936 24.5499C419.146 27.0559 418.251 26.7069 418.197 25.6418C418.143 24.5768 419.262 22.8136 419.396 22.5988C419.272 21.9588 418.961 21.3701 418.501 20.9073C420.189 18.5268 422.021 16.2523 423.988 14.0963C427.416 10.2926 430.7 10.57 430.172 13.4519C433.699 11.2681 438.603 14.0874 436.285 18.4639C439.552 17.5689 443.114 21.5069 439.695 23.8966C440.209 24.101 440.648 24.4591 440.95 24.9221C441.253 25.3851 441.405 25.9303 441.387 26.4832Z" fill="#604730"/>
<path d="M427.602 25.445C427.173 26.7427 431.182 28.13 431.782 26.7875C432.382 25.445 428.148 23.7534 427.602 25.445Z" fill="#604730"/>
<path d="M435.577 28.4432C435.309 29.0071 434.942 29.7589 434.476 30.636C433.68 29.741 432.946 28.5596 433.205 28.1031C433.617 27.3782 434.736 27.8883 435.577 28.4432Z" fill="#604730"/>
<path d="M420.864 42.45C419.845 43.3369 418.998 44.4051 418.367 45.6004C413.176 41.6892 416.479 37.2321 416.479 37.2321C417.384 39.3719 418.912 41.19 420.864 42.45Z" fill="#F4A789"/>
<path d="M441.387 26.4831C441.315 27.942 439.973 29.4008 437.708 29.4366C435.605 29.4366 434.057 27.0649 434.406 24.7289C434.406 24.7289 430.826 25.5613 430.226 20.8983C430.226 20.8983 427.308 23.279 425.751 19.4126C423.988 20.9701 422.376 22.6901 420.936 24.5499C419.146 27.0559 418.251 26.7069 418.197 25.6418C418.143 24.5768 419.262 22.8136 419.396 22.5988C420.558 21.8882 421.529 20.9052 422.225 19.7348C424.498 16.3428 426.834 14.2485 428.848 16.7545C430.861 19.2605 433.188 16.7545 434.074 19.7885C434.916 22.6973 436.813 27.1812 441.387 26.4831Z" fill="#473526"/>
<path d="M428.354 12.548C428.47 15.1703 426.152 18.3207 426.152 18.3207" stroke="#896442" stroke-width="0.75" stroke-linecap="round" stroke-linejoin="round"/>
<path d="M430.951 19.887C431.427 19.0175 432.088 18.2631 432.888 17.677C433.687 17.0909 434.606 16.6874 435.578 16.4949" stroke="#896442" stroke-width="0.75" stroke-linecap="round" stroke-linejoin="round"/>
<path d="M434.854 23.9414C436.148 23.1509 437.653 22.7732 439.167 22.8584" stroke="#896442" stroke-width="0.75" stroke-linecap="round" stroke-linejoin="round"/>
<path d="M420.703 19.1799C421.185 19.3895 421.608 19.7148 421.934 20.1269C422.261 20.5391 422.48 21.0254 422.574 21.5427" stroke="#896442" stroke-width="0.75" stroke-linecap="round" stroke-linejoin="round"/>
<path d="M424.506 31.3251C423.316 31.6562 422.018 30.6717 421.598 29.1413C421.177 27.6108 421.804 26.0983 422.994 25.7761C424.184 25.4539 425.491 26.4294 425.903 27.9599C426.314 29.4903 425.67 31.0029 424.506 31.3251Z" fill="#F4AF90"/>
<path d="M432.409 34.3055C431.818 35.281 431.165 36.2924 430.449 37.2858C430.37 37.1254 430.319 36.953 430.297 36.7757C430.298 36.1801 430.511 35.6044 430.898 35.1517C431.285 34.6991 431.821 34.3991 432.409 34.3055Z" fill="#F4AF90"/>
<path d="M449.47 148.552C448.154 160.626 439.187 154.817 426.665 153.153L419.72 152.875L373.529 151.085L369.672 150.933L383.097 113.074C412.784 121.881 451.135 133.176 449.47 148.552Z" fill="#4361EE"/>
<path d="M419.72 152.875L373.529 151.085L374.908 140.99L381.217 124.79C381.217 124.79 391.868 124.146 388.628 133.463C385.388 142.78 386.686 149.385 403.512 144.99C413.679 142.314 417.939 147.979 419.72 152.875Z" fill="#2542C9"/>
<path d="M394.803 98.835C386.936 109.083 382.676 131.288 381.691 144.614C380.984 154.209 379.543 178.92 375.936 199.585C363.487 226.283 346.33 213.672 347.296 194.86V194.761C348.97 180.978 348.191 169.182 346.661 164.251C344.585 157.699 339.456 135.861 338.606 126.902C336.691 107.212 341.121 90.422 347.556 80.8365L394.803 98.835Z" fill="#4361EE"/>
<path d="M381.217 151.363C381.405 148.678 381.566 146.413 381.691 144.65C382.32 136.942 383.559 129.295 385.396 121.783" stroke="#2542C9" stroke-width="0.75" stroke-linecap="round" stroke-linejoin="round"/>
<path d="M352.282 95.085C345.033 143.845 358.977 162.21 356.856 189.525C356.091 197.054 354.712 204.508 352.73 211.811" stroke="#2542C9" stroke-width="0.75" stroke-linecap="round" stroke-linejoin="round"/>
<path d="M350.232 118.14C355.54 112.51 358.621 105.144 358.905 97.412" stroke="#2542C9" stroke-width="0.75" stroke-linecap="round" stroke-linejoin="round"/>
<path d="M381.915 106.201C381.915 106.201 379.641 116.672 378.729 119.626C378.729 119.626 381.915 120.136 383.051 118.131C384.188 116.126 386.318 107.391 386.318 107.391" stroke="#2542C9" stroke-width="0.75" stroke-linecap="round" stroke-linejoin="round"/>
<path d="M434.862 85.6516L430.297 105.073C429.044 111.49 428.704 116.708 427.997 120.503C427.021 125.801 425.312 128.486 419.575 128.182L419.342 128.119L418.519 127.896L417.973 127.734L417.257 127.493C416.944 127.376 416.639 127.26 416.362 127.135C415.843 126.926 415.335 126.69 414.84 126.428L414.303 126.132C413.509 125.687 412.756 125.168 412.057 124.584C411.919 124.478 411.788 124.365 411.663 124.244C410.627 123.338 409.737 122.279 409.023 121.103C408.824 120.784 408.642 120.455 408.477 120.118C408.042 119.262 407.7 118.362 407.457 117.433C407.412 117.272 407.376 117.12 407.34 116.968C407.305 116.815 407.26 116.61 407.233 116.44C407.206 116.269 407.179 116.135 407.152 115.983C407.028 115.199 406.995 114.403 407.054 113.611C407.358 110.336 411.413 76.5404 411.413 76.5404L412.898 72.871L414.885 67.9574L434.862 85.6516Z" fill="#F72585"/>
<path d="M427.997 120.503C427.022 125.801 425.312 128.486 419.575 128.182L419.325 128.119L418.501 127.896L417.955 127.734L417.239 127.493C416.926 127.376 416.622 127.26 416.344 127.135C415.825 126.926 415.317 126.69 414.823 126.428L414.286 126.132C413.491 125.687 412.739 125.168 412.039 124.584C411.902 124.478 411.77 124.365 411.646 124.244C410.61 123.338 409.719 122.279 409.005 121.103C408.806 120.784 408.624 120.455 408.459 120.118C408.024 119.262 407.682 118.362 407.439 117.433C407.394 117.272 407.359 117.12 407.323 116.968C407.287 116.815 407.242 116.61 407.215 116.44C407.189 116.27 407.162 116.135 407.135 115.983C407.01 115.199 406.977 114.403 407.036 113.611C407.341 110.336 411.395 76.5405 411.395 76.5405L412.881 72.871C416.094 79.0196 419.898 88.981 415.467 95.7561C408.647 106.192 409.65 123.125 423.173 120.924C424.768 120.659 426.381 120.519 427.997 120.503Z" fill="#CA0861"/>
<path d="M421.606 70.2665C420.413 71.1973 419.22 72.1997 418.026 73.2737C406.606 83.6468 396.233 100.124 393.306 101.914C389.091 104.438 379.21 102.988 369.732 100.58C362.6 98.8072 355.611 96.5005 348.825 93.6797C343.088 90.9947 341.665 89.339 342.623 87.2089C343.58 85.0788 349.281 71.7701 349.281 71.7701L347.876 70.3829L332.33 55.0604C341.54 48.1152 353.595 40.3556 364.666 36.0417C372.175 33.124 379.219 31.7994 384.616 33.3567L421.606 70.2665Z" fill="#F72585"/>
<path d="M421.606 70.2665C420.413 71.1973 419.22 72.1997 418.026 73.2737C406.016 73.4706 394.56 81.6509 384.437 72.862C371.907 61.9878 383.247 53.9328 375.487 43.327C372.752 39.8091 368.973 37.2466 364.693 36.0059C372.202 33.0882 379.246 31.7636 384.643 33.3209L421.606 70.2665Z" fill="#F6559F"/>
<path d="M369.742 100.562C362.61 98.7893 355.621 96.4827 348.835 93.6618C343.098 90.9768 341.675 89.3211 342.632 87.191C343.59 85.0609 349.291 71.7522 349.291 71.7522L347.886 70.365C352.361 65.6573 358.563 59.1238 358.903 58.73C359.449 58.0856 372.543 62.4532 372.543 62.4532C372.543 62.4532 372.105 77.1043 360.121 78.5005C348.137 79.8967 350.276 89.4374 360.899 90.7352C367.728 91.5496 369.411 96.848 369.742 100.562Z" fill="#CA0861"/>
<path d="M333.19 54.4071C314.207 65.4246 330.308 103.059 372.15 65.4783C376.562 44.3294 352.791 41.6713 333.19 54.4071Z" fill="#CA0861"/>
<path d="M421.607 70.2665C418.134 73.0287 414.906 76.0861 411.959 79.4045" stroke="#C6065E" stroke-width="0.75" stroke-linecap="round" stroke-linejoin="round"/>
<path d="M329.906 269.941C329.906 269.941 321.851 280.457 322.996 288.987H361.356C361.356 288.987 344.297 279.016 343.411 271.713L329.906 269.941Z" fill="#6C5DD3"/>
<path d="M376.321 197.33C376.196 198.099 376.071 198.86 375.936 199.612C374.54 207.667 372.813 215.06 370.674 220.743C363.022 241.059 350.089 272.841 350.089 272.841L325.432 270.791C327.222 265.985 336.172 245.57 344.755 208.974C345.851 204.305 346.685 199.577 347.252 194.815C347.296 194.475 347.332 194.126 347.368 193.786C349.221 182.696 372.697 172.019 376.321 197.33Z" fill="#4361EE"/>
<path d="M357.077 183.054C357.077 185.167 357.032 187.315 356.862 189.525C354.732 216.859 333.145 270.371 332.975 271.427" stroke="#2542C9" stroke-width="0.75" stroke-linecap="round" stroke-linejoin="round"/>
<path d="M423.701 212.437C423.701 212.437 420.049 222.962 421.15 231.492H455.16C455.16 231.492 438.11 221.522 437.26 214.209L423.701 212.437Z" fill="#6C5DD3"/>
<path d="M449.755 155.73C446.954 176.691 441.593 215.409 441.593 215.409H419.316L426.664 153.153C426.763 142.314 434.12 130.778 441.638 135.825C451.993 142.824 450.301 151.64 449.755 155.73Z" fill="#4361EE"/>
<path d="M467.074 129.462C467.074 129.462 458.124 129.784 447.626 129.784C438.971 129.784 429.278 129.569 422.772 128.764C422.271 128.701 421.787 128.629 421.313 128.54C421.098 128.54 420.883 128.468 420.677 128.424C420.472 128.379 420.319 128.361 420.14 128.316C419.827 128.254 419.523 128.173 419.245 128.101L418.35 127.842L418.145 127.779L417.384 127.52L417.25 127.475L416.355 127.135C416.322 127.127 416.291 127.112 416.265 127.09C406.116 120.628 405.812 113.531 411.352 109.19C415.245 106.093 422.038 104.357 430.335 105.118L465.526 112.161L467.074 129.462Z" fill="#F72585"/>
<path d="M447.626 129.784C438.971 129.784 429.278 129.569 422.772 128.764C422.271 128.701 421.787 128.629 421.313 128.54C421.098 128.54 420.883 128.468 420.677 128.424C420.472 128.379 420.319 128.361 420.14 128.316C419.827 128.254 419.523 128.173 419.245 128.101L418.35 127.842L418.145 127.779L417.384 127.52L417.25 127.475L416.355 127.135C416.322 127.127 416.291 127.112 416.265 127.09C406.116 120.628 405.812 113.531 411.352 109.19C411.262 116.35 414.833 122.32 423.183 120.959C434.622 119.044 444.511 123.591 447.626 129.784Z" fill="#CA0861"/>
<path d="M430.308 105.1C427.937 104.702 425.548 104.424 423.148 104.268" stroke="#C6065E" stroke-width="0.75" stroke-linecap="round" stroke-linejoin="round"/>
<path d="M520.005 161.297L509.721 157.261L494.166 151.139C494.166 151.139 415.316 73.0858 377.547 35.5943C367.156 25.2749 359.871 18.0344 358.197 16.3339C352.631 10.6596 365.814 -4.25114 372.858 1.96016C373.404 2.45241 380.716 9.54081 391.706 20.2361C429.466 56.9311 510.741 136.192 510.741 136.192L516.183 150.906L520.005 161.297Z" fill="#4895EF" stroke="#4361EE" stroke-width="2" stroke-linecap="round" stroke-linejoin="round"/>
<path d="M398.195 36.4445L499.563 134.51" stroke="#4361EE" stroke-linecap="round" stroke-linejoin="round"/>
<path d="M393.873 43.0765L494.346 140.282" stroke="#4361EE" stroke-linecap="round" stroke-linejoin="round"/>
<path d="M516.156 150.906C513.341 152.216 511.067 154.462 509.721 157.261L494.166 151.139C494.166 151.139 494.596 145.957 500.341 146.753C499.106 143.397 501.586 139.593 505.828 142.332C505.828 142.332 504.933 136.864 510.715 136.192L516.156 150.906Z" fill="#F9F9F9" stroke="#4361EE" stroke-width="2" stroke-linecap="round" stroke-linejoin="round"/>
<path d="M520.004 161.297L509.721 157.261C511.066 154.462 513.34 152.216 516.156 150.906L520.004 161.297Z" fill="#4895EF" stroke="#4361EE" stroke-width="2" stroke-linecap="round" stroke-linejoin="round"/>
<path d="M391.706 20.2361C386.99 25.3465 381.817 30.9761 377.547 35.5943C367.156 25.2749 359.871 18.0344 358.197 16.3339C352.631 10.6596 365.814 -4.25114 372.858 1.96016C373.404 2.45241 380.716 9.54081 391.706 20.2361Z" stroke="#4361EE" stroke-width="2" stroke-linecap="round" stroke-linejoin="round"/>
<path d="M386.533 15.2062L372.043 30.1348" stroke="#4361EE" stroke-width="2" stroke-linecap="round" stroke-linejoin="round"/>
<path d="M459.045 118.14C466.859 111.589 468.631 111.669 469.356 112.528C470.081 113.388 466.841 117.147 465.776 118.14C465.776 118.14 472.39 113.182 474.305 114.372C476.22 115.562 473.705 118.14 473.705 118.14C473.705 118.14 477.393 118.077 475.021 122.042C475.021 122.042 476.936 122.042 475.818 124.02C474.699 125.998 467.825 130.715 465.319 129.516C462.813 128.316 455.268 121.317 459.045 118.14Z" fill="#FEBD9D"/>
<path d="M462.438 115.419C467.414 111.633 468.702 111.839 469.356 112.528C470.009 113.218 466.841 117.147 465.776 118.14C465.776 118.14 472.39 113.182 474.305 114.372C476.221 115.562 473.706 118.14 473.706 118.14C473.706 118.14 477.393 118.077 475.021 122.042C475.021 122.042 476.937 122.042 475.818 124.02" stroke="#EF8A66" stroke-width="0.75" stroke-linecap="round" stroke-linejoin="round"/>
<path d="M473.715 118.14L466.734 122.651" stroke="#EF8A66" stroke-width="0.75" stroke-linecap="round" stroke-linejoin="round"/>
<path d="M468.586 126.052L475.03 122.042" stroke="#EF8A66" stroke-width="0.75" stroke-linecap="round" stroke-linejoin="round"/>
<path d="M465.786 118.14L463.764 119.796" stroke="#EF8A66" stroke-width="0.75" stroke-linecap="round" stroke-linejoin="round"/>
<path d="M383.892 62.3996C384.738 58.7688 384.639 54.9819 383.606 51.4L375.721 55.159C375.721 55.159 378.594 63.035 383.892 62.3996Z" fill="#CA0861"/>
<path d="M375.614 41.3849C377.828 41.1626 380.025 40.7979 382.192 40.293C382.667 40.0245 386.068 37.3037 387.562 36.3192C389.057 35.3347 395.134 31.4057 395.707 31.7726C396.28 32.1396 396.485 33.9206 395.394 35.2273C395.394 35.2273 402.026 32.4081 404.89 32.068C407.225 31.7905 406.769 33.9922 405.203 35.0036C407.709 33.8938 410.689 35.0036 407.297 37.4201C409.588 37.0263 410.779 38.7894 407.19 41.3849C409.177 40.293 410.528 41.7787 408.702 43.6314C405.731 46.6565 399.618 49.0014 397.685 49.7353C395.752 50.4692 383.499 53.19 378.747 55.875C378.747 55.875 374.656 48.527 375.614 41.3849Z" fill="#FEBD9D"/>
<path d="M387.57 36.3192C389.083 35.3347 395.142 31.4057 395.715 31.7726C396.288 32.1396 396.493 33.9206 395.402 35.2273C395.402 35.2273 402.033 32.4081 404.897 32.068C407.233 31.7905 406.777 33.9922 405.211 35.0036C407.717 33.8938 410.697 35.0036 407.305 37.4201C409.596 37.0263 410.787 38.7894 407.198 41.3849C409.185 40.293 410.536 41.7787 408.71 43.6314" stroke="#EF8A66" stroke-width="0.75" stroke-linecap="round" stroke-linejoin="round"/>
<path d="M395.402 35.2274L391.975 36.91" stroke="#EF8A66" stroke-width="0.75" stroke-linecap="round" stroke-linejoin="round"/>
<path d="M405.212 35.0036L398.195 38.2614" stroke="#EF8A66" stroke-width="0.75" stroke-linecap="round" stroke-linejoin="round"/>
<path d="M407.306 37.4201L399.689 41.385" stroke="#EF8A66" stroke-width="0.75" stroke-linecap="round" stroke-linejoin="round"/>
<path d="M407.198 41.3849L401.229 44.777" stroke="#EF8A66" stroke-width="0.75" stroke-linecap="round" stroke-linejoin="round"/>
<path d="M379.131 38.9416C366.878 40.1856 344.772 43.8551 328.196 55.8481C321.779 60.4842 321.878 80.0131 339.393 78.3932C356.908 76.7732 383.919 62.3995 383.919 62.3995C383.919 62.3995 376.974 60.8691 379.131 38.9416Z" fill="#F72585"/>
<path d="M350.23 76.2452C366.242 71.7702 383.891 62.3995 383.891 62.3995C383.891 62.3995 376.973 60.8691 379.103 38.9416C369.731 39.8484 360.477 41.7108 351.483 44.4995" stroke="#C6065E" stroke-width="0.75" stroke-linecap="round" stroke-linejoin="round"/>
<path d="M261.598 232.387C261.598 232.387 236.207 289.551 223.614 313.17C202.635 327.955 199.369 312.74 202.707 300.496C204.157 297.471 208.417 283.957 212.874 268.697C216.651 255.755 220.562 241.57 223.023 231.492L251.744 232.154L261.598 232.387Z" fill="#F72585"/>
<path d="M252.515 235.77C249.991 253.867 227.884 243.395 225.745 253.867C224.68 259.103 220.626 264.338 212.875 268.733C216.652 255.791 220.563 241.605 223.024 231.528L251.745 232.19C252.456 233.238 252.732 234.522 252.515 235.77Z" fill="#CA0861"/>
<path d="M233.828 244.971C231.492 246.045 232.933 247.36 233.595 249.311C234.257 251.262 230.794 250.788 230.91 253.428C231.026 256.069 232.306 254.592 230.91 258.566C229.558 262.405 214.236 300.98 208.982 309.411" stroke="#C6065E" stroke-width="0.75" stroke-linecap="round" stroke-linejoin="round"/>
<path d="M292.746 232.718C292.746 232.718 261.421 239.162 240.137 241.149C227.133 242.375 218.398 238.106 214.138 231.689C212.789 229.636 211.857 227.338 211.396 224.926C210.936 222.513 210.955 220.034 211.453 217.628C222.032 205.098 234.374 201.393 244.639 200.99C251.916 200.714 259.169 201.98 265.922 204.705C291.716 202.512 306.126 203.604 313.885 206.951C327.221 222.882 311.317 228.744 292.746 232.718Z" fill="#F72585"/>
<path d="M226.39 208.07C225.907 217.02 229.558 220.125 248.819 219.848C270.012 219.544 299.574 217.61 301.158 217.888C304.389 218.452 298.106 223.571 300.326 223.652C303.253 223.768 306.412 224.198 304.801 226.202C303.19 228.207 301.454 229.022 302.644 230.266" stroke="#C6065E" stroke-width="0.75" stroke-linecap="round" stroke-linejoin="round"/>
<path d="M221.047 237.963C225.764 240.576 232.145 241.901 240.137 241.158C248.667 240.361 258.798 238.849 267.882 237.318" stroke="#C6065E" stroke-width="0.75" stroke-linecap="round" stroke-linejoin="round"/>
<path d="M299.861 193.705C299.244 196.175 297.525 198.493 294.124 200.364C293.721 200.489 293.31 200.605 292.898 200.713C292.486 200.82 292.137 200.883 291.752 200.955L291.036 201.053L290.544 201.107H290.303C289.891 201.107 289.479 201.151 289.067 201.151C282.418 201.151 275.24 196.9 269.861 185.337C269.861 185.337 266.478 191.763 265.547 195.889C265.409 196.437 265.328 196.998 265.305 197.562C265.265 199.966 265.488 202.367 265.968 204.722C265.968 204.722 252.713 204.866 243.879 207.461C235.045 210.057 225.138 214.863 211.498 217.646C211.498 217.646 212.169 211.381 214.478 208.141C213.61 207.824 212.874 207.225 212.387 206.44C211.9 205.654 211.691 204.728 211.793 203.81C212.097 201.25 214.639 200.104 217.861 195.137C218.903 193.515 219.831 191.823 220.636 190.071C225.719 179.125 224.565 176.333 223.903 175.277L217.808 181.828C206.862 193.58 184.863 217.163 183.359 218.604C181.336 220.528 178.186 221.289 177.04 220.519C176.342 220.054 171.67 223.777 168.09 226.784C165.754 228.753 163.875 230.418 163.875 230.418L150.521 222.363C150.521 222.363 154.28 219.248 158.165 215.946C162.273 212.464 166.524 208.786 166.658 208.338C166.945 207.443 166.077 205.233 167.992 203.228C169.701 201.438 202.252 164.868 213.512 151.909C214.97 150.226 216.08 148.946 216.707 148.185C222.193 141.571 225.496 138.34 233.39 136.38L271.937 137.213C271.937 137.213 283.026 135.181 285.362 142.126C285.693 143.146 286.042 144.543 286.4 146.198C288.477 155.918 290.634 174.409 290.634 174.409C290.634 174.409 302.009 184.988 299.861 193.705Z" fill="#4361EE"/>
<path d="M168.036 226.82C165.7 228.789 163.82 230.454 163.82 230.454L150.467 222.399C150.467 222.399 154.226 219.284 158.11 215.982C162.169 218.828 165.557 222.527 168.036 226.82Z" fill="#B25E47"/>
<path d="M233.658 164.653C233.658 169.227 231.295 175.787 228.538 178.239C225.173 181.211 230.239 191.996 224.609 195.101C223.594 195.739 222.42 196.078 221.222 196.078C220.023 196.078 218.849 195.739 217.834 195.101C218.876 193.48 219.803 191.787 220.608 190.036C225.692 179.09 224.538 176.297 223.875 175.241C227.715 171.276 231.304 167.294 233.658 164.653Z" fill="#2542C9"/>
<path d="M299.86 193.705C299.242 196.175 297.524 198.493 294.123 200.364C293.72 200.489 293.308 200.605 292.897 200.713C292.485 200.82 292.136 200.883 291.751 200.955L291.035 201.053L290.543 201.107H290.301C289.889 201.107 289.478 201.151 289.066 201.151C282.416 201.151 275.238 196.9 269.859 185.337C275.811 172.359 276.08 165.897 274.692 159.74C276.13 160.08 277.449 160.801 278.511 161.828C279.573 162.855 280.337 164.15 280.725 165.575C283.061 173.424 271.64 182.911 277.691 188.72C283.061 193.83 292.503 185.874 295.904 191.79C296.257 192.503 296.837 193.079 297.553 193.426C298.27 193.773 299.081 193.871 299.86 193.705Z" fill="#2542C9"/>
<path d="M286.319 146.172C282.641 145.876 277.96 146.655 275.364 151.542C270.648 160.492 254.976 172.127 243.994 158.353C235.411 147.613 227.652 146.825 213.457 151.846C214.916 150.163 216.026 148.883 216.652 148.123C222.139 141.509 225.441 138.278 233.335 136.318L271.883 137.15C271.883 137.15 282.972 135.118 285.308 142.064C285.612 143.12 285.961 144.48 286.319 146.172Z" fill="#4895EF"/>
<path d="M161.072 218.237L169.181 211.462" stroke="#2542C9" stroke-width="0.75" stroke-linecap="round" stroke-linejoin="round"/>
<path d="M164.043 221.226L171.874 214.55" stroke="#2542C9" stroke-width="0.75" stroke-linecap="round" stroke-linejoin="round"/>
<path d="M166.389 224.18L173.388 218.917" stroke="#2542C9" stroke-width="0.75" stroke-linecap="round" stroke-linejoin="round"/>
<path d="M215.783 216.653L217.833 208.616" stroke="#2542C9" stroke-width="0.75" stroke-linecap="round" stroke-linejoin="round"/>
<path d="M219.488 215.677L221.359 207.399" stroke="#2542C9" stroke-width="0.75" stroke-linecap="round" stroke-linejoin="round"/>
<path d="M223.025 214.621L224.61 207.399" stroke="#2542C9" stroke-width="0.75" stroke-linecap="round" stroke-linejoin="round"/>
<path d="M227.23 213.243L228.528 206.853" stroke="#2542C9" stroke-width="0.75" stroke-linecap="round" stroke-linejoin="round"/>
<path d="M231.348 211.793L232.189 206.038" stroke="#2542C9" stroke-width="0.75" stroke-linecap="round" stroke-linejoin="round"/>
<path d="M235.098 210.424L235.438 206.584" stroke="#2542C9" stroke-width="0.75" stroke-linecap="round" stroke-linejoin="round"/>
<path d="M236.387 161.485C236.387 161.485 235.349 162.693 233.657 164.618C231.303 167.303 227.715 171.241 223.875 175.223" stroke="#2542C9" stroke-width="0.75" stroke-linecap="round" stroke-linejoin="round"/>
<path d="M269.842 185.328C275.794 172.35 276.062 165.888 274.675 159.731C274.102 157.108 273.216 154.558 272.357 151.577" stroke="#2542C9" stroke-width="0.75" stroke-linecap="round" stroke-linejoin="round"/>
<path d="M230.461 143.012L236.386 139.038" stroke="#2542C9" stroke-width="0.75" stroke-linecap="round" stroke-linejoin="round"/>
<path d="M236.896 146.449L240.092 141.177" stroke="#2542C9" stroke-width="0.75" stroke-linecap="round" stroke-linejoin="round"/>
<path d="M242.463 147.774L243.993 142.672" stroke="#2542C9" stroke-width="0.75" stroke-linecap="round" stroke-linejoin="round"/>
<path d="M246.178 148.302L247.279 143.46" stroke="#2542C9" stroke-width="0.75" stroke-linecap="round" stroke-linejoin="round"/>
<path d="M249.83 149.089L250.492 143.943" stroke="#2542C9" stroke-width="0.75" stroke-linecap="round" stroke-linejoin="round"/>
<path d="M255.969 149.089V144.301" stroke="#2542C9" stroke-width="0.75" stroke-linecap="round" stroke-linejoin="round"/>
<path d="M260.633 144.301L261.34 149.089" stroke="#2542C9" stroke-width="0.75" stroke-linecap="round" stroke-linejoin="round"/>
<path d="M263.943 143.71L265.143 149.089" stroke="#2542C9" stroke-width="0.75" stroke-linecap="round" stroke-linejoin="round"/>
<path d="M266.934 143.012L268.589 147.38" stroke="#2542C9" stroke-width="0.75" stroke-linecap="round" stroke-linejoin="round"/>
<path d="M269.34 141.813L271.506 146.449" stroke="#2542C9" stroke-width="0.75" stroke-linecap="round" stroke-linejoin="round"/>
<path d="M272.035 141.813L274.756 143.943" stroke="#2542C9" stroke-width="0.75" stroke-linecap="round" stroke-linejoin="round"/>
<path d="M273.395 139.352L276.742 141.025" stroke="#2542C9" stroke-width="0.75" stroke-linecap="round" stroke-linejoin="round"/>
<path d="M264.507 132.711C263.845 132.406 263.12 132.093 262.341 131.816C260.454 131.112 258.446 130.789 256.434 130.867C249.525 130.948 233.334 136.398 233.334 136.398C233.683 136.881 237.916 141.58 246.544 143.361C255.172 145.142 264.015 144.256 267.8 142.753C268.907 142.274 269.868 141.511 270.584 140.541C271.301 139.571 271.749 138.429 271.882 137.231C271.882 137.231 270.083 135.253 264.507 132.711Z" fill="#B25E47"/>
<path d="M305.784 302.725C310.59 299.279 315.056 304.202 303.994 307.066" stroke="#4895EF" stroke-width="0.75" stroke-linecap="round" stroke-linejoin="round"/>
<path d="M301.264 305.58C303.528 300.103 306.857 295.502 308.424 296.684C310.339 298.143 303 306.028 303 306.028" stroke="#4895EF" stroke-width="0.75" stroke-linecap="round" stroke-linejoin="round"/>
<path d="M311.7 317.752H281.485C281.368 313.626 286.022 304.39 286.532 301.382C286.532 301.32 286.532 301.257 286.532 301.177C287.096 297.838 288.68 285.505 288.68 285.505L304.889 286.525L300.53 301.32C302.077 303.579 303.813 305.702 305.721 307.665C309.176 311.308 315.969 311.827 316.604 314.387C317.24 316.947 313.552 317.752 311.7 317.752Z" fill="#4CC9F0"/>
<path d="M304.915 286.525L300.556 301.32C300.556 301.32 291.767 301.248 286.559 301.177C287.122 297.838 288.707 285.505 288.707 285.505L304.915 286.525Z" fill="#B25E47"/>
<path d="M321.893 223.159C320.049 237.086 307.323 288.987 307.323 288.987H286.451L292.716 232.834C292.727 232.796 292.727 232.756 292.716 232.718C292.6 231.993 288.823 208.311 309.22 205.421C310.811 205.802 312.367 206.314 313.874 206.951C321.848 210.37 322.815 216.134 321.893 223.159Z" fill="#F72585"/>
<path d="M293.818 218.103C297.98 217.906 300.71 217.807 301.157 217.888C304.388 218.452 298.105 223.571 300.325 223.652C303.252 223.768 306.411 224.198 304.8 226.202C303.01 228.368 301.336 229.075 302.786 230.409C305.534 232.924 300.844 235.314 300.522 238.204C300.2 241.095 294.937 284.601 294.937 284.601" stroke="#C6065E" stroke-width="0.75" stroke-linecap="round" stroke-linejoin="round"/>
<path d="M317.5 142.994C316.175 146.574 314.752 149.734 314.752 149.734L314.609 150.298L311.924 161.208C311.924 161.208 314.036 161.771 313.983 163.624C313.929 165.477 310.027 180.692 306.259 189.275C306.098 189.66 305.901 190.035 305.704 190.42C305.507 190.805 305.409 190.975 305.247 191.244C304.913 191.805 304.555 192.351 304.173 192.882C303.994 193.132 303.815 193.374 303.628 193.607C303.44 193.839 303.216 194.117 302.992 194.358C302.768 194.6 302.571 194.833 302.357 195.065C301.9 195.54 301.462 195.96 300.916 196.426L300.155 197.052C298.887 198.06 297.501 198.91 296.029 199.585H295.966L295.071 199.961C294.767 200.077 294.463 200.194 294.176 200.292C287.992 198.708 285.96 194.654 285.817 190.215C285.575 182.822 290.614 174.355 290.614 174.355C290.61 174.34 290.61 174.325 290.614 174.31C290.91 173.469 295.769 159.919 296.763 158.8C297.756 157.681 299.725 158.415 299.725 158.415L303.207 147.344L303.968 144.919C303.968 144.919 303.69 144.337 303.314 143.487C302.5 141.742 301.899 139.906 301.524 138.018C301.318 135.861 303.314 134.51 304.925 134.259C304.925 134.259 305.077 130.554 306.313 129.05C306.505 128.747 306.778 128.505 307.102 128.352C307.426 128.198 307.787 128.14 308.143 128.183C308.499 128.226 308.835 128.369 309.113 128.595C309.391 128.822 309.599 129.122 309.714 129.462C310.098 128.173 312.918 127.994 312.989 130.536C313.097 130.094 313.37 129.71 313.751 129.462C314.132 129.213 314.594 129.12 315.042 129.199C315.49 129.279 315.89 129.526 316.163 129.891C316.435 130.256 316.558 130.71 316.507 131.162C316.507 131.162 318.574 129.158 319.648 132.952C320.14 134.939 318.878 139.235 317.5 142.994Z" fill="#4361EE"/>
<path d="M305.793 149.089C305.793 149.089 302.938 158.558 302.938 158.388" stroke="#2542C9" stroke-width="0.75" stroke-linecap="round" stroke-linejoin="round"/>
<path d="M308.023 149.984L306.045 158.2" stroke="#2542C9" stroke-width="0.75" stroke-linecap="round" stroke-linejoin="round"/>
<path d="M311.351 150.477L309.588 158.97" stroke="#2542C9" stroke-width="0.75" stroke-linecap="round" stroke-linejoin="round"/>
<path d="M290.524 174.382C288.734 179.546 287.535 183.386 287.749 184.692" stroke="#2542C9" stroke-width="0.75" stroke-linecap="round" stroke-linejoin="round"/>
<path d="M305.74 190.42C305.597 190.698 305.445 190.975 305.284 191.244C304.95 191.805 304.592 192.351 304.21 192.882C304.031 193.132 303.852 193.374 303.664 193.607C303.476 193.839 303.252 194.117 303.029 194.358C302.805 194.6 302.608 194.833 302.393 195.065C301.937 195.54 301.498 195.96 300.952 196.426L300.191 197.052C298.926 198.064 297.54 198.915 296.065 199.585H296.003L295.108 199.961C294.804 200.077 294.499 200.194 294.213 200.292C288.028 198.708 285.997 194.654 285.854 190.215C289.944 189.57 293.998 188.299 295.985 191.754C298.178 195.764 302.867 192.81 305.74 190.42Z" fill="#2542C9"/>
<path d="M314.753 149.734L314.61 150.298C312.79 150.585 310.935 150.564 309.123 150.235C306.927 149.796 304.877 148.811 303.162 147.371L303.923 144.945C303.923 144.945 301.668 140.202 301.462 138.045C301.256 135.888 303.252 134.537 304.863 134.286C304.863 134.286 305.015 130.581 306.25 129.077C306.442 128.774 306.716 128.532 307.04 128.379C307.364 128.225 307.725 128.166 308.081 128.209C308.437 128.253 308.773 128.396 309.051 128.622C309.329 128.848 309.537 129.149 309.651 129.489C310.036 128.2 312.855 128.012 312.927 130.563C313.035 130.121 313.308 129.737 313.689 129.488C314.07 129.24 314.532 129.146 314.979 129.226C315.427 129.306 315.828 129.553 316.1 129.918C316.372 130.283 316.495 130.737 316.444 131.189C316.444 131.189 318.512 129.184 319.586 132.979C320.66 136.774 314.753 149.734 314.753 149.734Z" fill="#B25E47"/>
<path d="M302.939 142.69C302.261 141.197 301.766 139.629 301.462 138.018C301.256 135.852 303.252 134.51 304.863 134.259C304.863 134.259 305.015 130.554 306.25 129.05C306.442 128.747 306.716 128.505 307.04 128.352C307.364 128.198 307.725 128.14 308.081 128.183C308.437 128.226 308.773 128.369 309.051 128.595C309.329 128.822 309.537 129.122 309.651 129.462C310.036 128.173 312.855 127.985 312.927 130.536C313.035 130.094 313.308 129.71 313.689 129.462C314.07 129.213 314.532 129.12 314.979 129.199C315.427 129.279 315.828 129.526 316.1 129.891C316.372 130.256 316.495 130.71 316.444 131.162C316.444 131.162 318.512 129.158 319.586 132.952" stroke="#934735" stroke-width="0.75" stroke-linecap="round" stroke-linejoin="round"/>
<path d="M304.844 134.286C307.663 133.776 310.071 134.044 310.151 135.002C310.232 135.96 306.875 137.32 306.875 137.32C306.875 137.32 311.162 137.893 309.713 143.012" stroke="#934735" stroke-width="0.75" stroke-linecap="round" stroke-linejoin="round"/>
<path d="M309.588 129.31C309.588 129.31 308.98 133.328 308.693 134.116" stroke="#934735" stroke-width="0.75" stroke-linecap="round" stroke-linejoin="round"/>
<path d="M310.312 135.02C311.395 135.315 312.434 134.214 312.997 130.223" stroke="#934735" stroke-width="0.75" stroke-linecap="round" stroke-linejoin="round"/>
<path d="M311.646 134.51C311.743 134.996 312.014 135.43 312.407 135.732C312.801 136.033 313.291 136.181 313.786 136.148" stroke="#934735" stroke-width="0.75" stroke-linecap="round" stroke-linejoin="round"/>
<path d="M316.479 131.189C315.584 131.878 313.257 136.076 314.492 137.114C315.933 138.313 317.088 135.324 317.088 135.324" stroke="#934735" stroke-width="0.75" stroke-linecap="round" stroke-linejoin="round"/>
<path d="M155.674 382.478C159.827 379.838 163.729 379.337 164.624 379.981C165.886 380.966 162.055 383.615 158.932 384.036" stroke="#4895EF" stroke-width="0.75" stroke-linecap="round" stroke-linejoin="round"/>
<path d="M151.979 385.029C158.19 382.693 164.509 385.029 163.801 387.132C163.005 389.558 153.196 386.058 153.196 386.058" stroke="#4895EF" stroke-width="0.75" stroke-linecap="round" stroke-linejoin="round"/>
<path d="M154.69 395.08C156.525 396.915 160.06 400.871 159.568 402.016C159.076 403.162 157.205 403.511 157.205 403.511H143.959C143.959 403.511 141.829 402.24 141.749 401.023C141.668 399.806 137.488 375.354 138.169 373.224C138.75 371.434 147.065 368.132 150.994 365.939C151.544 365.643 152.068 365.302 152.56 364.919C154.995 362.869 162.459 355.244 162.459 355.244L171.758 366.673C166.388 369.671 160.374 373.752 157.59 377.413C156.843 378.305 156.321 379.364 156.069 380.5C155.379 384.609 152.864 393.218 154.69 395.08Z" fill="#4CC9F0"/>
<path d="M171.758 366.637C166.388 369.635 160.374 373.716 157.59 377.377L150.994 365.903C151.544 365.608 152.068 365.266 152.56 364.883C154.995 362.833 162.459 355.208 162.459 355.208L171.758 366.637Z" fill="#B25E47"/>
<path d="M223.614 313.17C222.144 316.044 220.515 318.834 218.737 321.529C209.974 333.853 171.212 370.476 171.212 370.476L158.172 353.677L202.716 300.487C210.35 290.66 230.291 292.996 223.614 313.17Z" fill="#F72585"/>
<path d="M206.215 313.053C196.316 324.921 163.461 360.488 163.461 360.488" stroke="#C6065E" stroke-width="0.75" stroke-linecap="round" stroke-linejoin="round"/>
<path d="M216.016 294.974C213.954 299.913 211.617 304.732 209.018 309.411" stroke="#C6065E" stroke-width="0.75" stroke-linecap="round" stroke-linejoin="round"/>
<path d="M276.554 129.883C273.457 128.988 273.395 131.404 274.854 132.389C276.312 133.373 275.57 136.443 271.936 136.864C271.605 136.908 270.746 137.034 269.707 137.141C267.765 137.338 265.232 137.499 264.481 137.078C263.729 136.658 263.684 135.485 263.952 134.25C263.997 134 264.078 133.749 264.149 133.48C264.567 132.175 265.103 130.911 265.751 129.704C267.475 129.666 269.159 129.172 270.629 128.272C273.95 126.061 274.039 121.631 272.697 117.012C272.36 115.858 271.954 114.725 271.479 113.62C271.112 112.725 270.701 111.83 270.262 110.998C266.217 103.113 260.48 103.122 260.48 103.122C263.022 107.472 260.605 110.425 259.12 111.177C257.634 111.929 256.014 112.439 256.094 115.428C256.175 118.418 254.832 118.865 253.937 118.713C251.118 118.194 249.113 120.333 250.357 122.678C251.601 125.023 255.092 124.289 256.13 123.179C256.13 123.179 258.198 124.566 258.314 126.222C258.43 127.878 255.235 129.865 256.748 132.442C257.035 132.895 257.192 133.419 257.201 133.956C257.21 134.492 257.071 135.021 256.799 135.483C256.527 135.946 256.132 136.324 255.659 136.577C255.186 136.83 254.652 136.948 254.116 136.917C252.807 136.761 251.479 136.965 250.277 137.508C249.987 137.649 249.712 137.817 249.453 138.009C249.27 138.146 249.097 138.296 248.934 138.457C247.574 139.835 246.563 141.527 243.323 140.784C240.083 140.041 239.51 135.53 239.51 135.53C234.919 135.736 231.849 136.291 231.553 132.55C231.312 129.578 234.641 128.513 236.404 128.191C236.75 128.145 237.075 127.998 237.338 127.77C237.602 127.541 237.793 127.241 237.888 126.905C237.983 126.569 237.978 126.213 237.873 125.88C237.769 125.548 237.569 125.253 237.299 125.032C235.59 123.725 236.87 121.702 239.367 120.843C241.864 119.984 240.933 114.435 241.157 111.732C241.506 106.899 245.981 102.692 251.986 102.406C251.986 102.406 255.092 95.6846 262.61 96.8392C270.128 97.9937 273.538 105.261 273.189 108.608C272.84 111.956 272.795 115.518 276.42 115.688C280.045 115.858 282.085 118.086 280.778 120.315C279.472 122.544 278.541 124.217 281.289 126.052C284.036 127.887 279.651 130.751 276.554 129.883Z" fill="#604730"/>
<path d="M260.472 103.077C263.013 107.427 260.597 110.381 259.111 111.132C257.626 111.884 256.006 112.394 256.086 115.384C256.167 118.373 254.824 118.82 253.929 118.668C251.11 118.149 249.105 120.288 250.349 122.633C251.593 124.978 255.084 124.244 256.122 123.134C256.122 123.134 258.189 124.522 258.306 126.177C258.422 127.833 255.227 129.82 256.739 132.398C257.027 132.851 257.183 133.374 257.192 133.911C257.201 134.447 257.062 134.976 256.79 135.438C256.518 135.901 256.124 136.28 255.651 136.533C255.178 136.786 254.644 136.903 254.108 136.873C252.798 136.716 251.471 136.92 250.269 137.463C249.979 137.604 249.704 137.772 249.445 137.964C244.773 135.906 241.22 132.666 243.109 130.142C245.579 126.849 247.288 128.656 245.874 123.403C244.46 118.149 245.829 114.784 249.275 114.453C252.721 114.122 255.979 111.768 254.26 108.304C252.542 104.84 258.019 97.403 265 100.518C268.67 102.155 270.012 106.46 270.317 110.918C266.209 103.068 260.472 103.077 260.472 103.077Z" fill="#473526"/>
<path d="M270.63 128.245C270.281 130.876 268.652 133.445 263.953 134.232C263.998 133.982 264.078 133.731 264.15 133.463C264.568 132.157 265.104 130.893 265.752 129.686C267.477 129.646 269.16 129.148 270.63 128.245Z" fill="#473526"/>
<path d="M264.15 133.463C263.694 134.975 263.559 136.488 264.481 137.043C265.197 137.463 267.766 137.302 269.708 137.105C262.467 143.066 256.444 142.153 250.242 137.499C251.444 136.956 252.772 136.752 254.081 136.908C254.617 136.939 255.151 136.821 255.624 136.568C256.097 136.315 256.491 135.937 256.763 135.474C257.035 135.012 257.175 134.483 257.166 133.947C257.157 133.41 257 132.886 256.713 132.433C255.2 129.856 258.395 127.878 258.279 126.213C258.163 124.548 256.095 123.17 256.095 123.17C255.057 124.28 251.54 125.014 250.322 122.669C249.105 120.324 251.11 118.194 253.902 118.704C254.797 118.856 256.149 118.409 256.059 115.419C255.97 112.43 257.599 111.974 259.084 111.168C260.57 110.363 262.987 107.427 260.445 103.113C260.445 103.113 266.191 103.113 270.236 111.007C270.675 111.857 271.086 112.734 271.453 113.629C271.927 114.734 272.334 115.867 272.67 117.021C274.46 123.286 273.673 129.202 265.725 129.712C265.077 130.92 264.541 132.184 264.123 133.489L264.15 133.463Z" fill="#B25E47"/>
<path d="M272.697 116.986C272.357 117.11 271.988 117.133 271.635 117.052C271.283 116.971 270.961 116.789 270.71 116.529C270.119 115.768 270.459 114.48 271.479 113.585C271.952 114.693 272.359 115.829 272.697 116.986Z" fill="#A0503D"/>
<path d="M263.746 114.515C263.746 114.637 263.771 114.757 263.818 114.869C263.866 114.98 263.936 115.081 264.024 115.165C264.112 115.248 264.216 115.313 264.33 115.356C264.443 115.398 264.565 115.417 264.686 115.41C264.861 115.402 265.029 115.342 265.17 115.238C265.311 115.135 265.419 114.992 265.48 114.828C265.541 114.664 265.553 114.486 265.513 114.315C265.474 114.144 265.385 113.989 265.258 113.868C265.132 113.748 264.972 113.667 264.8 113.636C264.628 113.605 264.45 113.625 264.289 113.694C264.128 113.763 263.991 113.877 263.894 114.023C263.798 114.169 263.746 114.34 263.746 114.515Z" fill="#683F1D"/>
<path d="M267.747 112.573C267.747 112.811 267.842 113.038 268.009 113.206C268.177 113.374 268.405 113.468 268.642 113.468C268.764 113.468 268.884 113.444 268.995 113.396C269.107 113.348 269.208 113.278 269.291 113.191C269.375 113.103 269.44 112.999 269.482 112.885C269.525 112.771 269.543 112.65 269.537 112.529C269.537 112.291 269.443 112.063 269.275 111.896C269.107 111.728 268.88 111.634 268.642 111.634C268.521 111.633 268.401 111.658 268.289 111.706C268.177 111.753 268.077 111.823 267.993 111.911C267.909 111.999 267.844 112.103 267.802 112.217C267.76 112.331 267.741 112.452 267.747 112.573Z" fill="#683F1D"/>
<path d="M265.752 129.677C265.104 130.884 264.567 132.148 264.15 133.454C263.194 133.128 262.379 132.483 261.843 131.627C261.306 130.772 261.081 129.757 261.205 128.755C262.666 129.288 264.199 129.599 265.752 129.677Z" fill="#914839"/>
<path d="M251.986 121.684C252.604 120.091 254.671 120.387 255.566 121.317" stroke="#934735" stroke-width="0.75" stroke-linecap="round" stroke-linejoin="round"/>
<path d="M253.49 122.49C253.431 122.29 253.42 122.08 253.457 121.875C253.494 121.67 253.579 121.477 253.704 121.311C253.829 121.145 253.992 121.011 254.178 120.918C254.365 120.826 254.57 120.779 254.778 120.78" stroke="#934735" stroke-width="0.75" stroke-linecap="round" stroke-linejoin="round"/>
<path d="M256.104 123.17C256.414 122.787 256.637 122.341 256.757 121.863" stroke="#934735" stroke-width="0.75" stroke-linecap="round" stroke-linejoin="round"/>
<path d="M264.57 119.044C265.227 119.599 266.032 119.947 266.886 120.044C267.74 120.141 268.603 119.983 269.367 119.59" stroke="#934735" stroke-width="0.75" stroke-linecap="round" stroke-linejoin="round"/>
<path d="M270.253 116.869C270.664 115.545 270.396 114.596 268.866 114.345C268.128 114.177 267.475 113.753 267.021 113.148C266.567 112.544 266.342 111.798 266.386 111.043" stroke="#934735" stroke-width="0.75" stroke-linecap="round" stroke-linejoin="round"/>
<path d="M260.426 111.365C260.426 112.43 264.4 111.938 264.731 110.756C264.999 109.826 260.399 109.36 260.426 111.365Z" fill="#604730"/>
<path d="M268.214 106.496C267.247 106.04 265.922 109.879 267.122 110.175C267.712 110.327 270.478 107.579 268.214 106.496Z" fill="#604730"/>
<path d="M251.934 102.415C253.433 102.523 254.897 102.918 256.248 103.579" stroke="#896442" stroke-width="0.75" stroke-linecap="round" stroke-linejoin="round"/>
<path d="M254.456 109.333C251.484 110.434 247.913 112.296 247.806 115.867C247.698 119.438 249.229 122.678 244.503 125.005C239.778 127.332 244.253 133.293 244.253 133.293" stroke="#896442" stroke-width="0.75" stroke-linecap="round" stroke-linejoin="round"/>
<path d="M249.516 134.268C252.398 131.914 249.265 128.952 252.398 126.741" stroke="#896442" stroke-width="0.75" stroke-linecap="round" stroke-linejoin="round"/>
<path d="M257.571 106.747C252.738 104.84 247.153 107.239 245.936 109.28" stroke="#896442" stroke-width="0.75" stroke-linecap="round" stroke-linejoin="round"/>
<path d="M263.73 117.63C263.533 118.632 262.208 119.205 260.794 118.91C259.38 118.615 258.387 117.576 258.583 116.583C258.78 115.589 260.105 115.008 261.528 115.303C262.951 115.598 263.936 116.654 263.73 117.63Z" fill="#A0503D"/>
<path d="M34.6362 396.986C28.1653 403.932 26.5812 409.463 25.543 413.096L40.0778 424.499H61.2714C61.2714 424.499 60.8955 419.379 56.7964 418.538C52.6973 417.697 50.236 417.321 50.236 417.321L46.1906 408.586L34.6362 396.986Z" fill="#6C5DD3"/>
<path d="M96.5878 300.989C97.1695 341.174 99.7113 349.507 91.4863 363.415C83.2612 377.323 46.1903 408.586 46.1903 408.586L30.5547 396.87C30.5547 396.87 49.3497 376.017 58.1296 364.901C66.9096 353.785 68.2073 349.265 67.9746 342.427C67.7419 335.589 61.2532 283.581 61.2532 283.581L96.5878 300.989Z" fill="#4361EE"/>
<path d="M199.353 356.38C199.353 356.38 213.253 364.838 216.009 366.279C218.766 367.72 219.151 371.398 219.151 371.398H185.588C185.588 371.398 183.995 362.994 184.845 357.973L199.353 356.38Z" fill="#6C5DD3"/>
<path d="M199.353 356.38L182.393 359.736L160.752 301.633C155.713 288.154 150.289 276.152 161.396 271.919C173.845 272.349 179.779 276.313 184.863 290.553C190.197 305.58 199.353 356.38 199.353 356.38Z" fill="#4361EE"/>
<path d="M160.751 301.633C160.751 301.633 111.087 306.153 95.7737 306.726C80.4602 307.298 65.5406 305.58 58.7207 281.531L97.7874 267.936L102.791 271.874C125.121 272.232 145.393 271.803 159.301 271.874C160.026 271.874 160.724 271.874 161.404 271.919C181.703 275.302 174.024 297.57 160.751 301.633Z" fill="#4361EE"/>
<path d="M93.1952 306.788C81.9898 306.985 71.2498 305.329 63.9824 293.945" stroke="#2542C9" stroke-width="0.75" stroke-linecap="round" stroke-linejoin="round"/>
<path d="M126.186 242.169L114.9 251.826L105.413 272.009C105.413 272.009 91.1553 271.507 82.6797 277.611C74.204 283.715 61.9067 286.346 57.1543 286.266C56.812 276.466 57.4929 266.658 59.1859 256.999C61.9873 241.57 68.8609 218.049 68.8609 218.049C68.7803 217.315 68.7445 216.581 68.7177 215.865C68.3328 203.586 74.8126 193.866 85.3915 194.502C96.588 195.191 108.035 199.335 108.035 199.335C108.035 199.335 120.422 201.295 126.946 204.937C129.909 206.593 131.932 209.412 132.388 214.272C132.943 220.108 131.216 228.896 126.186 242.169Z" fill="#F72585"/>
<path d="M101.259 253.831L97.5 248.64C100.328 247.414 102.682 246.304 103.613 245.857C102.378 240.164 101.232 235.161 100.113 230.91C102.145 231.286 105 233.166 105.788 240.317C106.378 245.767 114.335 237.068 117.253 244.165C120.17 251.262 101.259 253.831 101.259 253.831Z" fill="#CA0861"/>
<path d="M125.111 221.226C123.563 222.846 121.352 231.635 118.166 242.053" stroke="#C6065E" stroke-width="0.75" stroke-linecap="round" stroke-linejoin="round"/>
<path d="M168.85 229.29C168.715 232.423 163.157 231.635 163.157 231.635C164.571 234.123 160.472 235.743 158.45 235.86C157.092 235.896 155.74 235.671 154.467 235.197C154.467 235.197 134.571 252.891 127.134 259.55C119.696 266.209 105.913 276.555 96.5962 275.284C87.2792 274.013 84.6927 264.544 80.5488 253.804C82.7545 253.628 84.9372 253.232 87.0644 252.623C92.5687 251.092 101.572 246.85 103.613 245.875C103.873 247.092 104.15 248.354 104.418 249.643C121.101 240.227 139.664 228.163 141.221 226.668C142.778 225.173 149.374 220.018 151.325 217.906C153.277 215.794 156.964 217.754 155.478 218.926C153.993 220.099 153.277 221.262 159.255 224.949C166.782 229.586 169.002 225.531 168.85 229.29Z" fill="#FEBD9D"/>
<path d="M132.389 214.29C129.292 212.339 125.497 211.533 121.649 214.648C112.52 222.005 103.749 221.656 91.3886 207.416C79.3687 193.58 69.3 214.666 68.7272 215.883C68.3423 203.604 74.8221 193.884 85.401 194.519C96.5975 195.209 108.045 199.352 108.045 199.352C108.045 199.352 120.431 201.313 126.956 204.955C129.909 206.593 131.932 209.412 132.389 214.29Z" fill="#F6559F"/>
<path d="M105.35 213.878C105.35 214.252 105.46 214.617 105.668 214.927C105.875 215.238 106.17 215.48 106.515 215.623C106.86 215.766 107.24 215.803 107.606 215.73C107.973 215.658 108.309 215.478 108.573 215.214C108.837 214.95 109.017 214.613 109.09 214.247C109.163 213.88 109.126 213.501 108.983 213.156C108.84 212.811 108.598 212.516 108.287 212.308C107.977 212.101 107.612 211.99 107.238 211.99C106.737 211.99 106.257 212.189 105.903 212.543C105.549 212.897 105.35 213.377 105.35 213.878Z" fill="white"/>
<path d="M68.6914 217.87C68.6914 217.87 75.4039 248.488 77.6414 253.67C78.5994 253.802 79.5694 253.823 80.5323 253.733C82.738 253.556 84.9206 253.16 87.0479 252.551C90.6063 251.45 94.0918 250.126 97.4836 248.586C100.312 247.36 102.666 246.25 103.596 245.803C102.361 240.111 101.216 235.108 100.097 230.856C97.5373 221.128 95.1029 215.391 91.9435 214.496" stroke="#C6065E" stroke-width="0.75" stroke-linecap="round" stroke-linejoin="round"/>
<path d="M104.419 249.625C99.5685 252.712 98.7988 255.236 98.7988 255.236" stroke="#EF8A66" stroke-width="0.75" stroke-linecap="round" stroke-linejoin="round"/>
<path d="M163.149 231.635C159.569 231.322 157.904 231.062 157.904 231.062" stroke="#EF8A66" stroke-width="0.75" stroke-linecap="round" stroke-linejoin="round"/>
<path d="M154.485 235.188C155.76 235.667 157.115 235.895 158.477 235.86C160.517 235.743 164.598 234.132 163.175 231.635C163.175 231.635 168.742 232.414 168.877 229.29C169.029 225.531 166.8 229.586 159.282 224.932C153.304 221.244 154.02 220.099 155.505 218.917C156.991 217.736 153.312 215.776 151.352 217.888C150.35 218.971 148.139 220.859 145.982 222.631" stroke="#EF8A66" stroke-width="0.75" stroke-linecap="round" stroke-linejoin="round"/>
<path d="M144.327 220.161C146.493 217.136 149.465 219.266 149.527 221.799C149.59 224.332 144.524 227.617 143.083 226.274C141.642 224.932 143.11 221.853 144.327 220.161Z" fill="#B25E47"/>
<path d="M150.011 237.963C147.711 236.817 146.082 238.553 147.997 240.648C149.913 242.742 153.421 241.793 154.083 239.708L150.011 237.963Z" fill="#B25E47"/>
<path d="M150.011 237.963C147.711 236.817 146.082 238.553 147.997 240.648C149.913 242.742 153.421 241.793 154.083 239.708L150.011 237.963Z" stroke="#934735" stroke-width="0.75" stroke-linecap="round" stroke-linejoin="round"/>
<path d="M152.955 235.77C150.547 235.323 148.533 236.119 149.294 238.034C150.055 239.95 155.559 242.107 157.904 238.034L152.955 235.77Z" fill="#B25E47"/>
<path d="M152.955 235.77C150.547 235.323 148.533 236.119 149.294 238.034C150.055 239.95 155.559 242.107 157.904 238.034L152.955 235.77Z" stroke="#934735" stroke-width="0.75" stroke-linecap="round" stroke-linejoin="round"/>
<path d="M144.327 220.161C146.493 217.136 149.465 219.266 149.527 221.799C149.59 224.332 144.524 227.617 143.083 226.274C141.642 224.932 143.11 221.853 144.327 220.161Z" stroke="#934735" stroke-width="0.75" stroke-linecap="round" stroke-linejoin="round"/>
<path d="M152.847 236.665C151.236 235.054 152.185 232.727 154.368 233.282C156.552 233.837 157 235.135 160.759 235.358C163.256 235.466 157.17 240.997 152.847 236.665Z" fill="#B25E47"/>
<path d="M152.847 236.665C151.236 235.054 152.185 232.727 154.368 233.282C156.552 233.837 157 235.135 160.759 235.358C163.256 235.466 157.17 240.997 152.847 236.665Z" stroke="#934735" stroke-width="0.75" stroke-linecap="round" stroke-linejoin="round"/>
<path d="M115.392 180.898L112.295 182.07L107.551 183.815C106.007 182.263 104.641 180.543 103.479 178.687C101.626 175.671 100.696 172.467 103.748 171.527C100.212 171.527 99.8006 168.538 102.691 167.947C98.6908 167.848 100.203 163.902 104.338 164.367C104.338 164.367 101.779 160.903 108.536 160.187C113.306 159.686 117.02 160.876 119.276 162.514L119.455 162.657C120.374 163.297 121.096 164.18 121.54 165.208C122.525 167.804 115.392 180.898 115.392 180.898Z" fill="#D39933"/>
<path d="M115.393 180.898L112.296 182.07L107.553 183.815C106.008 182.263 104.642 180.543 103.48 178.687C105.19 176.852 107.955 177.192 108.385 175.912C109.012 174.122 104.25 165.575 112.081 165.772C116.494 165.879 118.534 164.161 119.465 162.64C120.384 163.279 121.106 164.163 121.551 165.19C122.526 167.804 115.393 180.898 115.393 180.898Z" fill="#C4892A"/>
<path d="M104.365 164.322C104.365 164.322 110.738 164.6 112.716 164.922C115.401 165.36 115.776 166.408 115.776 166.408" stroke="#EDB65F" stroke-width="0.75" stroke-linecap="round" stroke-linejoin="round"/>
<path d="M110.612 169.907L108.115 169.647" stroke="#EDB65F" stroke-width="0.75" stroke-linecap="round" stroke-linejoin="round"/>
<path d="M102.691 167.857C104.553 168.01 106.2 168.305 106.2 168.305" stroke="#EDB65F" stroke-width="0.75" stroke-linecap="round" stroke-linejoin="round"/>
<path d="M103.748 171.482C104.742 171.47 105.735 171.53 106.719 171.661" stroke="#EDB65F" stroke-width="0.75" stroke-linecap="round" stroke-linejoin="round"/>
<path d="M112.16 175.886C109.153 175.778 105.269 175.787 104.92 175.187" stroke="#EDB65F" stroke-width="0.75" stroke-linecap="round" stroke-linejoin="round"/>
<path d="M118.686 192.685C118.095 194.448 117.596 196.24 117.191 198.055C117.119 198.371 117.048 198.693 116.976 199.021C115.616 203.067 113.951 207.873 108.42 207.184C104.912 206.754 100.866 204.373 98.8524 198.538C98.0738 196.274 100.258 194.108 100.535 193.696C102.683 190.581 104.688 187.351 105.368 184.934C105.368 184.934 103.694 182.831 104.849 180.629C105.022 180.307 105.233 180.007 105.475 179.734C107.31 177.693 110.72 178.633 111.857 180.208C112.136 180.009 112.392 179.778 112.618 179.519C112.829 179.337 113.002 179.114 113.126 178.864C113.251 178.614 113.323 178.341 113.34 178.062C113.356 177.784 113.317 177.504 113.224 177.241C113.13 176.978 112.985 176.736 112.797 176.53C112.588 176.291 112.382 176.068 112.179 175.859L112.098 175.778C110.684 174.284 109.485 173.093 110.094 171.044C110.209 170.629 110.39 170.237 110.631 169.88C111.57 168.556 113.316 168.385 115.929 168.735C119.214 169.164 120.86 168.224 121.568 165.155C121.657 165.289 122.373 166.443 123.358 168.278C123.644 168.806 123.948 169.388 124.253 170.023C124.986 171.473 125.792 173.192 126.544 175.053C126.842 175.763 127.12 176.488 127.376 177.228C127.657 177.995 127.893 178.778 128.083 179.573C129.694 186.106 128.674 194.036 118.686 192.685Z" fill="#FEBD9D"/>
<path d="M117.629 179.045C117.226 180.208 115.445 180.647 113.628 180.029C113.268 179.909 112.922 179.746 112.599 179.546C112.811 179.364 112.984 179.141 113.108 178.891C113.232 178.641 113.305 178.368 113.321 178.089C113.338 177.811 113.299 177.531 113.205 177.268C113.112 177.005 112.967 176.763 112.778 176.557C112.545 176.288 112.313 176.038 112.08 175.805C113.042 175.436 114.107 175.436 115.069 175.805C116.895 176.44 118.032 177.881 117.629 179.045Z" fill="#F4AF90"/>
<path d="M117.084 175.187C117.084 175.364 117.136 175.538 117.235 175.685C117.333 175.832 117.473 175.947 117.636 176.014C117.8 176.082 117.98 176.1 118.154 176.065C118.327 176.031 118.487 175.945 118.612 175.82C118.737 175.695 118.822 175.536 118.857 175.362C118.891 175.188 118.874 175.008 118.806 174.845C118.738 174.681 118.623 174.542 118.476 174.443C118.329 174.345 118.156 174.292 117.979 174.292C117.742 174.292 117.514 174.387 117.346 174.555C117.178 174.722 117.084 174.95 117.084 175.187Z" fill="#683F1D"/>
<path d="M123.643 174.337C124.148 174.337 124.556 173.928 124.556 173.424C124.556 172.92 124.148 172.511 123.643 172.511C123.139 172.511 122.73 172.92 122.73 173.424C122.73 173.928 123.139 174.337 123.643 174.337Z" fill="#683F1D"/>
<path d="M118.686 192.685C118.096 194.448 117.597 196.24 117.191 198.055C109.691 196.506 112.815 189.311 112.815 189.311C112.815 189.311 116.493 192.103 118.686 192.685Z" fill="#F4A789"/>
<path d="M105.35 184.943C106.719 186.867 110.236 186.814 111.427 185.838" stroke="#EF8A66" stroke-width="0.75" stroke-linecap="round" stroke-linejoin="round"/>
<path d="M106.719 182.464C108.178 180.745 110.173 181.569 111.283 183.6" stroke="#EF8A66" stroke-width="0.75" stroke-linecap="round" stroke-linejoin="round"/>
<path d="M110.005 184.576C107.624 184.513 108.385 181.685 110.613 182.625" stroke="#EF8A66" stroke-width="0.75" stroke-linecap="round" stroke-linejoin="round"/>
<path d="M118.891 179.582C119.83 181.193 120.86 182.007 123.142 181.524" stroke="#EF8A66" stroke-width="0.75" stroke-linecap="round" stroke-linejoin="round"/>
<path d="M121.192 171.088C120.878 173.075 120.673 174.803 122.785 175.778C124.897 176.754 124.485 178.687 122.507 179.278" stroke="#EF8A66" stroke-width="0.75" stroke-linecap="round" stroke-linejoin="round"/>
<path d="M113.754 172.225C114.55 173.299 118.641 171.393 117.907 169.952C117.45 169.048 112.349 170.301 113.754 172.225Z" fill="#D39933"/>
<path d="M124.253 170.05C123.179 170.498 121.004 170.175 121.004 169.522C121.004 168.869 122.275 168.341 123.349 168.305C123.635 168.833 123.94 169.415 124.253 170.05Z" fill="#D39933"/>
<path d="M128.083 179.6C127.747 179.824 127.353 179.947 126.949 179.955C126.544 179.963 126.146 179.855 125.801 179.645C124.835 178.902 124.978 177.067 126.141 175.537C126.275 175.375 126.41 175.214 126.544 175.08C126.842 175.79 127.12 176.515 127.376 177.255C127.657 178.022 127.893 178.805 128.083 179.6Z" fill="#F4AF90"/>
<path d="M100.517 193.705C98.2709 193.213 95.3622 194.278 95.031 195.683C94.6999 197.088 94.3239 208.795 96.9373 208.831C99.5507 208.866 103.909 203.541 106.183 207.739C109.002 212.939 109.888 206.083 113.513 209.6C114.793 210.844 116.332 213.359 117.916 211.39C119.5 209.421 120.682 202.44 120.189 201.295C119.697 200.149 118.48 198.744 116.941 199.03C115.902 199.218 114.256 206.369 108.698 206.665C107.552 206.727 99.8192 198.61 99.3538 196.954C98.8884 195.298 100.517 193.705 100.517 193.705Z" fill="white"/>
</g>
<defs>
<clipPath id="clip0_713_15335">
<rect width="591" height="428" fill="white"/>
</clipPath>
</defs>
</svg>
