<svg width="360" height="360" viewBox="0 0 360 360" fill="none" xmlns="http://www.w3.org/2000/svg">
<path d="M360 275H0V275.18H360V275Z" fill="#EBEBEB"/>
<g opacity="0.2">
<path d="M173.426 167.213H165.441L180.475 60.7896H188.46L173.426 167.213Z" fill="white"/>
<path d="M318.093 54.4966H154.805V173.505H318.093V54.4966Z" fill="#D6D6D6"/>
<path d="M312.507 60.7896H160.393V167.206H312.507V60.7896Z" fill="#BAB9B9"/>
<path d="M193.123 167.213H177.16L192.194 60.7896H208.156L193.123 167.213Z" fill="#CCCBCB"/>
<path d="M232.573 167.213H216.604L231.637 60.7896H247.607L232.573 167.213Z" fill="#CCCBCB"/>
<path d="M246.612 167.213H238.627L253.661 60.7896H261.645L246.612 167.213Z" fill="#CCCBCB"/>
<path d="M211.383 60.7896H203.859V167.206H211.383V60.7896Z" fill="#EBEBEB"/>
<path d="M211.385 167.213H213.062V60.7969H211.385V167.213Z" fill="#E0E0E0"/>
<path d="M318.094 173.506H319.297V54.4971H318.094V173.506Z" fill="#CCCBCB"/>
</g>
<g opacity="0.75">
<path d="M91.1152 275.514H62.3008L70.84 201.404H91.1152V275.514Z" fill="#BAB9B9"/>
<path d="M139.744 275.514H75.6642L68.9034 188.775H132.983L139.744 275.514Z" fill="#E0E0E0"/>
<path d="M144.361 275.514H77.6749L70.9141 188.775H137.593L144.361 275.514Z" fill="#D6D6D6"/>
<path d="M83.9747 268.674L78.2795 195.608H131.293L136.988 268.674H83.9747Z" fill="#BAB9B9"/>
</g>
<path d="M179.999 307.844C257.099 307.844 319.6 304.195 319.6 299.693C319.6 295.192 257.099 291.543 179.999 291.543C102.9 291.543 40.3984 295.192 40.3984 299.693C40.3984 304.195 102.9 307.844 179.999 307.844Z" fill="#BAB9B9" fill-opacity="0.5"/>
<path d="M146.369 278.863L137.24 273.593L131.667 284.746L139.292 289.166L146.369 278.863Z" fill="#FFC3BD"/>
<path opacity="0.2" d="M146.361 278.863L137.232 273.593L134.114 279.842L142.401 284.638L146.361 278.863Z" fill="black"/>
<path d="M143.087 242.892C136.607 227.916 125.972 210.492 130.336 194.45L159.395 189.856C159.395 189.856 165.4 225.756 164.212 240.48C162.973 255.787 144.901 282.96 144.901 282.96L134.497 276.854C134.497 276.854 139.019 253.627 143.087 242.892Z" fill="#F72585"/>
<g opacity="0.4">
<path d="M143.087 242.892C136.607 227.916 125.972 210.492 130.336 194.451L159.395 189.857C159.395 189.857 165.4 225.756 164.212 240.48C162.973 255.787 144.901 282.96 144.901 282.96L134.497 276.855C134.497 276.855 139.019 253.627 143.087 242.892Z" fill="black"/>
</g>
<path d="M133.447 276.732L145.334 283.752L149.121 278.834L135.11 271.411L133.447 276.732Z" fill="#F72585"/>
<path opacity="0.2" d="M140.961 238.161C137.462 230.58 133.43 222.501 131.147 214.401C138.009 215.553 143.827 221.126 140.961 238.161Z" fill="black"/>
<path d="M131.971 282.103C132.013 282.045 132.069 281.999 132.134 281.969C132.198 281.938 132.27 281.924 132.341 281.927C132.412 281.931 132.482 281.952 132.543 281.989C132.604 282.026 132.655 282.077 132.691 282.139C134.189 284.709 138.502 287.179 140.172 288.057C140.56 288.269 140.852 288.622 140.986 289.044C141.799 291.549 145.018 295.293 145.018 295.293C144.886 295.87 144.691 296.43 144.434 296.964C144.354 297.129 144.238 297.274 144.095 297.389C143.951 297.503 143.783 297.584 143.604 297.625C143.425 297.665 143.239 297.665 143.06 297.625C142.881 297.584 142.713 297.503 142.57 297.389L129.314 286.589C129.201 286.498 129.108 286.384 129.042 286.255C128.976 286.125 128.938 285.983 128.932 285.838C128.925 285.693 128.949 285.548 129.003 285.413C129.056 285.278 129.138 285.156 129.242 285.055C130.218 284.134 131.129 283.147 131.971 282.103Z" fill="#263238"/>
<path d="M129.227 283.946L118.693 284.047L119.651 296.489L128.456 296.417L129.227 283.946Z" fill="#FFC3BD"/>
<path d="M118.709 294.574C118.7 294.507 118.71 294.439 118.735 294.377C118.761 294.315 118.802 294.261 118.855 294.22C118.908 294.178 118.971 294.151 119.037 294.142C119.104 294.132 119.171 294.139 119.234 294.163C122.114 295.215 126.945 294.415 128.767 294.048C129.208 293.967 129.664 294.057 130.041 294.3C132.374 295.74 136.521 296.604 136.521 296.604C136.811 297.106 137.052 297.634 137.241 298.181C137.302 298.363 137.318 298.558 137.289 298.748C137.259 298.938 137.185 299.118 137.073 299.274C136.961 299.43 136.813 299.557 136.642 299.645C136.471 299.733 136.282 299.779 136.089 299.779H119.846C119.708 299.779 119.571 299.752 119.444 299.698C119.316 299.644 119.201 299.565 119.105 299.465C119.009 299.366 118.934 299.248 118.884 299.119C118.835 298.99 118.812 298.852 118.817 298.714C118.878 297.333 118.842 295.949 118.709 294.574Z" fill="#263238"/>
<path opacity="0.2" d="M129.227 283.954L118.686 284.047L119.226 291.017L128.795 290.93L129.227 283.954Z" fill="black"/>
<path d="M112.019 242.035C108.735 226.389 102.824 206.035 106.979 197.971L141.027 192.701C141.027 192.701 136.801 225.101 135.685 240.156C134.526 255.83 129.925 288.223 129.925 288.223H118.527C118.527 288.223 110.571 260.697 112.019 242.035Z" fill="#F72585"/>
<path opacity="0.4" d="M112.019 242.035C108.735 226.389 102.824 206.035 106.979 197.971L141.027 192.701C141.027 192.701 136.801 225.101 135.685 240.156C134.526 255.83 129.925 288.223 129.925 288.223H118.527C118.527 288.223 110.571 260.697 112.019 242.035Z" fill="black"/>
<path d="M117.269 288.684H130.985L131.201 282.967L116.088 283.212L117.269 288.684Z" fill="#F72585"/>
<path d="M132.027 143.28L132.891 144L133.697 144.633C134.237 145.044 134.777 145.433 135.325 145.829C136.405 146.613 137.521 147.341 138.637 148.075C140.906 149.53 143.249 150.867 145.657 152.078C148.143 153.348 150.717 154.435 153.361 155.333C156.211 156.338 159.173 156.995 162.181 157.291L162.764 157.349C164.255 157.494 165.745 157.067 166.933 156.153C169.006 154.531 170.656 152.431 171.742 150.033C172.214 149.046 172.6 148.02 172.894 146.966C173.192 145.995 173.432 145.007 173.614 144.007C173.763 143.047 173.878 142.087 173.96 141.127C174.025 140.184 174.039 139.248 174.039 138.319C174.039 137.39 173.967 136.476 173.888 135.569L173.722 134.193L173.485 132.753C173.353 131.955 172.965 131.22 172.38 130.66C171.795 130.1 171.045 129.745 170.241 129.647C169.437 129.55 168.623 129.716 167.922 130.12C167.22 130.524 166.668 131.145 166.349 131.889L166.047 132.609C165.939 132.876 165.809 133.286 165.68 133.632L165.305 134.705C165.061 135.425 164.787 136.145 164.521 136.865C164.023 138.202 163.448 139.51 162.8 140.781C162.276 141.864 161.625 142.882 160.863 143.813C160.461 144.372 159.902 144.8 159.257 145.044L164.009 143.899C162.115 143.437 160.269 142.798 158.494 141.991C157.537 141.573 156.572 141.091 155.614 140.587C154.657 140.083 153.67 139.565 152.734 139.003C150.805 137.88 148.861 136.685 146.974 135.403C146.017 134.777 145.073 134.121 144.13 133.481L142.733 132.494L141.445 131.58L141.149 131.371C139.57 130.161 137.575 129.629 135.603 129.89C133.631 130.151 131.844 131.185 130.634 132.764C129.424 134.343 128.891 136.339 129.153 138.311C129.414 140.283 130.448 142.07 132.027 143.28Z" fill="#FFC3BD"/>
<path d="M166.335 132.437L170.057 134.863C174.615 135.864 174.889 129.78 174.889 129.78L176.199 126.9C176.4 126.378 176.408 125.801 176.222 125.273C176.036 124.745 175.668 124.301 175.184 124.02L172.599 122.307C172.089 121.921 171.448 121.749 170.813 121.829C170.179 121.908 169.6 122.232 169.201 122.731L167.66 125.021C167.214 125.686 166.937 126.45 166.853 127.246L166.335 132.437Z" fill="#FFC3BD"/>
<path d="M132.273 128.16C139.401 127.735 154.053 136.929 154.053 136.929C155.737 142.301 152.8 152.481 148.501 155.001C148.501 155.001 137.593 150.314 132.467 145.757C126.261 140.263 117.851 129.024 132.273 128.16Z" fill="#263238"/>
<path d="M131.609 128.16C121.826 128.743 112.136 130.401 102.716 133.106C97.2798 134.748 93.8958 138.816 96.3294 150.091C101.269 172.965 100.865 191.649 105.092 199.497C105.092 199.497 154.541 202.55 161.158 191.145C159.819 162.9 146.283 141.379 140.278 132.48C139.327 131.075 138.029 129.939 136.511 129.182C134.992 128.426 133.304 128.073 131.609 128.16Z" fill="#263238"/>
<path d="M128.787 131.307C127.513 130.392 126.455 131.199 125.663 129.651C125.216 128.406 125.216 127.044 125.663 125.799L111.378 120.723C112.386 125.532 113.178 129.363 111.327 131.595C111.263 135.303 119.838 138.694 127.081 137.319C133.511 136.08 130.645 132.624 128.787 131.307Z" fill="#FFC3BD"/>
<path opacity="0.2" d="M125.584 126.238L114.784 125.244C118.053 128.974 123.143 130.507 125.534 129.111C125.307 128.164 125.325 127.176 125.584 126.238Z" fill="black"/>
<path d="M126.628 112.701C127.197 107.165 121.804 100.159 117.268 102.578C112.732 104.997 126.628 112.701 126.628 112.701Z" fill="#263238"/>
<path d="M107.612 115.863C110.492 122.163 112.552 126.389 117.34 127.685C126.844 130.27 129.976 125.05 129.061 117.994C128.233 111.651 123.697 102.399 116.404 102.298C114.789 102.276 113.195 102.663 111.771 103.425C110.347 104.186 109.139 105.297 108.261 106.652C107.383 108.007 106.862 109.563 106.749 111.174C106.636 112.784 106.933 114.398 107.612 115.863Z" fill="#FFC3BD"/>
<path d="M109.26 120.909C112.522 120.441 114.912 114.552 111.5 111.47C108.087 108.388 109.26 105.436 111.737 104.558C114.214 103.68 118.714 104.313 119.744 102.11C120.773 99.9068 113.912 98.3084 109.93 100.843C105.948 103.377 106.15 101.844 106.15 101.844C106.035 101.982 105.961 102.151 105.937 102.33C105.913 102.509 105.941 102.691 106.016 102.855C106.091 103.019 106.211 103.159 106.363 103.257C106.514 103.356 106.69 103.41 106.87 103.413C103.738 105.494 100.268 110.505 103.5 112.557C99.4541 114.854 105.747 120.297 109.26 120.909Z" fill="#263238"/>
<path d="M104.531 112.212C103.988 112.447 103.379 112.482 102.812 112.31C102.245 112.139 101.758 111.773 101.435 111.276C101.435 111.276 100.751 113.954 104.531 112.212Z" fill="#263238"/>
<path d="M120.514 118.894C120.205 118.762 119.909 118.603 119.629 118.418C119.613 118.403 119.6 118.384 119.592 118.364C119.583 118.344 119.578 118.322 119.578 118.3C119.578 118.277 119.583 118.255 119.592 118.235C119.6 118.215 119.613 118.196 119.629 118.181C119.659 118.143 119.701 118.116 119.749 118.107C119.796 118.098 119.846 118.106 119.888 118.13C120.516 118.55 121.23 118.822 121.978 118.928C122.726 119.034 123.488 118.971 124.208 118.742C124.249 118.726 124.295 118.727 124.335 118.744C124.376 118.762 124.408 118.795 124.424 118.836C124.44 118.877 124.439 118.923 124.422 118.963C124.404 119.004 124.371 119.036 124.33 119.052C123.083 119.48 121.721 119.423 120.514 118.894Z" fill="#263238"/>
<path opacity="0.2" d="M116.676 113.926C115.866 113.756 115.022 113.914 114.329 114.365C115.132 114.372 115.929 114.222 116.676 113.926Z" fill="black"/>
<path opacity="0.2" d="M116.742 114.479C116.369 114.48 116 114.562 115.662 114.72C115.324 114.878 115.024 115.108 114.784 115.394C115.494 115.232 116.162 114.921 116.742 114.479Z" fill="black"/>
<path d="M108.015 122.688C108.655 123.263 109.403 123.705 110.215 123.988C111.027 124.271 111.887 124.39 112.746 124.337C115.05 124.179 114.747 122.364 113.466 120.593C112.328 118.988 110.463 116.705 108.426 117.713C106.388 118.721 106.467 121.256 108.015 122.688Z" fill="#FFC3BD"/>
<path d="M117.989 113.76C118.19 114.286 118.637 114.602 118.975 114.48C119.314 114.358 119.436 113.81 119.234 113.285C119.033 112.759 118.594 112.442 118.248 112.565C117.902 112.687 117.816 113.198 117.989 113.76Z" fill="#263238"/>
<path d="M124.1 111.355C124.294 111.881 124.74 112.198 125.079 112.075C125.417 111.953 125.54 111.406 125.338 110.88C125.136 110.354 124.697 110.038 124.359 110.16C124.02 110.282 123.898 110.83 124.1 111.355Z" fill="#263238"/>
<path d="M122.199 112.212L123.732 116.82C124.285 116.96 124.866 116.938 125.407 116.758C125.948 116.578 126.426 116.248 126.785 115.805C125.259 113.436 122.199 112.212 122.199 112.212Z" fill="#ED847E"/>
<path d="M115.214 110.657C115.161 110.675 115.102 110.675 115.049 110.657C114.963 110.639 114.887 110.589 114.839 110.516C114.79 110.443 114.772 110.354 114.789 110.268C114.878 109.749 115.088 109.258 115.404 108.836C115.719 108.414 116.131 108.073 116.604 107.842C116.644 107.824 116.687 107.815 116.731 107.814C116.775 107.814 116.818 107.823 116.858 107.839C116.899 107.856 116.935 107.881 116.966 107.912C116.996 107.944 117.02 107.981 117.036 108.022C117.067 108.103 117.066 108.193 117.033 108.274C116.999 108.354 116.936 108.419 116.856 108.454C116.479 108.639 116.152 108.911 115.902 109.248C115.651 109.585 115.485 109.976 115.416 110.39C115.409 110.449 115.387 110.504 115.351 110.551C115.316 110.598 115.268 110.634 115.214 110.657Z" fill="#263238"/>
<path d="M126.384 108.893C126.331 108.908 126.276 108.909 126.223 108.896C126.17 108.884 126.121 108.858 126.081 108.821C125.78 108.536 125.415 108.328 125.017 108.212C124.618 108.097 124.198 108.079 123.792 108.158C123.75 108.17 123.706 108.174 123.664 108.169C123.621 108.163 123.579 108.15 123.541 108.128C123.504 108.107 123.471 108.078 123.445 108.044C123.418 108.009 123.399 107.97 123.388 107.928C123.376 107.886 123.373 107.842 123.378 107.798C123.383 107.755 123.397 107.713 123.418 107.675C123.44 107.637 123.468 107.603 123.503 107.576C123.537 107.549 123.577 107.529 123.619 107.518C124.128 107.414 124.655 107.434 125.156 107.574C125.657 107.714 126.117 107.971 126.499 108.324C126.561 108.386 126.596 108.47 126.596 108.558C126.596 108.646 126.561 108.73 126.499 108.792C126.469 108.834 126.43 108.869 126.384 108.893Z" fill="#263238"/>
<path d="M202.631 150.48L205.755 159.012C206.012 159.748 206.462 160.4 207.059 160.901C207.656 161.402 208.377 161.732 209.147 161.856L250.669 168.141C253.347 168.552 254.931 171.302 254.204 174.283L239.667 234.144C238.947 237.132 236.183 239.22 233.504 238.817L134.67 223.848C131.991 223.437 130.407 220.694 131.127 217.706L148.645 145.569C149.365 142.581 152.13 140.493 154.808 140.897L199.239 147.6C200.013 147.727 200.737 148.062 201.334 148.57C201.932 149.077 202.38 149.737 202.631 150.48Z" fill="#F72585"/>
<path opacity="0.3" d="M202.631 150.48L205.755 159.012C206.012 159.748 206.462 160.4 207.059 160.901C207.656 161.402 208.377 161.732 209.147 161.856L250.669 168.141C253.347 168.552 254.931 171.302 254.204 174.283L239.667 234.144C238.947 237.132 236.183 239.22 233.504 238.817L134.67 223.848C131.991 223.437 130.407 220.694 131.127 217.706L148.645 145.569C149.365 142.581 152.13 140.493 154.808 140.897L199.239 147.6C200.013 147.727 200.737 148.062 201.334 148.57C201.932 149.077 202.38 149.737 202.631 150.48Z" fill="black"/>
<path d="M223.936 62.9351C222.962 62.9368 221.989 62.9897 221.02 63.0935C217.334 57.9858 212.34 53.966 206.562 51.457C200.785 48.9481 194.438 48.0428 188.189 48.8364C181.94 49.63 176.021 52.0931 171.054 55.9667C166.087 59.8402 162.256 64.9809 159.964 70.8479C154.013 71.867 148.662 75.0842 144.971 79.8621C141.279 84.64 139.517 90.63 140.034 96.6456C140.55 102.661 143.307 108.263 147.758 112.343C152.209 116.422 158.03 118.68 164.068 118.67H223.936C231.249 118.553 238.224 115.565 243.354 110.352C248.484 105.138 251.359 98.117 251.359 90.8027C251.359 83.4884 248.484 76.4672 243.354 71.2538C238.224 66.0404 231.249 63.0527 223.936 62.9351Z" fill="#F72585"/>
<path d="M221.35 108.921V178.401H170.402V124.049L185.522 108.921H221.35Z" fill="#F72585"/>
<path opacity="0.6" d="M221.35 108.921V178.401H170.402V124.049L185.522 108.921H221.35Z" fill="white"/>
<path opacity="0.4" d="M185.523 124.049V108.921L170.403 124.049H185.523Z" fill="#F72585"/>
<path d="M219.709 238.557L223.318 239.103L223.21 239.822L219.6 239.276L219.709 238.557Z" fill="#F72585"/>
<path d="M203.07 236.054L215.678 237.959L215.569 238.678L202.961 236.773L203.07 236.054Z" fill="#F72585"/>
<path d="M184.458 157.298L189.16 165.139C189.574 165.829 190.132 166.421 190.797 166.874C191.463 167.326 192.218 167.628 193.012 167.76L234.527 174.052C235.851 174.282 237.048 174.98 237.899 176.019C238.75 177.058 239.199 178.369 239.164 179.712L236.752 234.316C236.743 234.939 236.6 235.553 236.331 236.115C236.063 236.678 235.676 237.175 235.197 237.574C234.718 237.973 234.159 238.263 233.558 238.425C232.956 238.588 232.326 238.618 231.712 238.514L132.878 223.538C131.554 223.309 130.357 222.611 129.506 221.571C128.655 220.532 128.206 219.222 128.241 217.879L131.121 152.085C131.13 151.462 131.273 150.849 131.542 150.286C131.81 149.724 132.197 149.226 132.676 148.828C133.155 148.429 133.714 148.138 134.315 147.976C134.917 147.814 135.547 147.784 136.161 147.888L180.628 154.648C181.421 154.784 182.175 155.091 182.837 155.549C183.498 156.007 184.052 156.604 184.458 157.298Z" fill="#F72585"/>
<path d="M183.011 98.8487C183.188 98.8497 183.362 98.7978 183.509 98.6998C183.657 98.6017 183.772 98.4619 183.84 98.2982C183.908 98.1345 183.926 97.9543 183.891 97.7805C183.856 97.6067 183.77 97.4472 183.644 97.3223C181.234 94.9033 179.594 91.8242 178.932 88.4739C178.27 85.1235 178.616 81.6522 179.926 78.4981C181.235 75.3441 183.45 72.6489 186.29 70.7528C189.131 68.8567 192.469 67.8448 195.884 67.8448C199.3 67.8448 202.638 68.8567 205.478 70.7528C208.319 72.6489 210.534 75.3441 211.843 78.4981C213.153 81.6522 213.499 85.1235 212.837 88.4739C212.175 91.8242 210.535 94.9033 208.124 97.3223C208.041 97.4053 207.974 97.504 207.929 97.6128C207.884 97.7215 207.861 97.8382 207.861 97.9559C207.861 98.0737 207.884 98.1904 207.929 98.2991C207.974 98.4078 208.041 98.5065 208.124 98.5895C208.294 98.7549 208.521 98.8475 208.758 98.8475C208.995 98.8475 209.222 98.7549 209.392 98.5895C212.061 95.9202 213.879 92.5192 214.616 88.8166C215.352 85.114 214.974 81.2762 213.53 77.7884C212.085 74.3006 209.638 71.3196 206.5 69.2222C203.361 67.1248 199.67 66.0054 195.895 66.0054C192.12 66.0054 188.43 67.1248 185.291 69.2222C182.152 71.3196 179.705 74.3006 178.261 77.7884C176.816 81.2762 176.438 85.114 177.175 88.8166C177.911 92.5192 179.729 95.9202 182.399 98.5895C182.562 98.7515 182.781 98.8443 183.011 98.8487Z" fill="white"/>
<path d="M188.223 104.198V84.276C188.223 83.4148 188.565 82.5889 189.174 81.9799C189.783 81.3709 190.609 81.0288 191.47 81.0288H200.283C201.144 81.0288 201.97 81.3709 202.579 81.9799C203.188 82.5889 203.53 83.4148 203.53 84.276V104.198H206.85L195.877 113.652L184.911 104.198H188.223Z" fill="white"/>
<path d="M99.4117 153.698L99.8509 154.685L100.261 155.585C100.542 156.182 100.837 156.758 101.125 157.342C101.708 158.501 102.342 159.624 102.976 160.754C104.267 163.016 105.673 165.21 107.188 167.328C107.965 168.394 108.757 169.488 109.607 170.503C110.456 171.518 111.356 172.562 112.307 173.57C114.276 175.693 116.471 177.595 118.852 179.244L119.348 179.582C119.603 179.753 119.876 179.896 120.162 180.007C122.697 180.936 125.369 181.437 128.068 181.49C130.339 181.571 132.613 181.482 134.872 181.224C137.025 180.973 139.163 180.612 141.28 180.144C143.385 179.68 145.462 179.096 147.5 178.394C148.316 178.107 149.009 177.548 149.463 176.812C149.917 176.076 150.106 175.206 149.997 174.348C149.889 173.49 149.49 172.694 148.867 172.095C148.243 171.495 147.433 171.126 146.572 171.05H146.42L140.581 170.554C138.637 170.381 136.722 170.194 134.864 169.942C133.936 169.819 133.021 169.697 132.136 169.546C131.25 169.394 130.386 169.207 129.565 169.027C128.215 168.759 126.913 168.293 125.699 167.645L127.002 168.408C125.594 167.106 124.298 165.687 123.128 164.167C122.495 163.368 121.883 162.518 121.285 161.647C120.688 160.776 120.083 159.883 119.5 158.976C118.355 157.14 117.217 155.246 116.152 153.31C115.604 152.345 115.093 151.358 114.568 150.386L113.128 147.564L112.955 147.226C112.051 145.508 110.516 144.208 108.674 143.598C106.831 142.988 104.824 143.116 103.074 143.955C101.324 144.794 99.9667 146.278 99.2879 148.096C98.609 149.915 98.6611 151.925 99.4333 153.706L99.4117 153.698Z" fill="#FFC3BD"/>
<path d="M97.1058 140.969C93.6426 153.41 102.434 165.78 102.434 165.78C107.092 167.112 119.368 162.331 121.975 157.752C121.975 157.752 117.691 145.987 112.615 139.752C107.906 133.92 99.1434 133.675 97.1058 140.969Z" fill="#263238"/>
<path d="M145.123 171.36L144.403 175.752C145.368 180.316 151.027 178.07 151.027 178.07H154.181C154.738 178.037 155.265 177.808 155.668 177.423C156.072 177.038 156.325 176.522 156.384 175.968L156.888 172.9C157.03 172.277 156.923 171.622 156.589 171.076C156.256 170.53 155.722 170.136 155.102 169.977L152.388 169.516C151.598 169.381 150.787 169.443 150.026 169.696L145.123 171.36Z" fill="#FFC3BD"/>
<path d="M267.988 260.74C263.934 260.827 256.993 257.083 254.265 253.425C251.536 249.767 259.261 251.985 258.455 249.105C257.649 246.225 248.08 248.385 246.301 244.195C244.523 240.004 251.435 240.962 251.154 238.823C250.873 236.685 243.717 237.139 241.405 232.703C239.094 228.268 245.401 230.731 244.408 228.895C243.414 227.059 235.501 219.319 238.799 217.691C242.097 216.064 249.513 224.121 251.997 225.021C254.481 225.921 255.042 220.334 258.268 222.991C261.493 225.647 259.125 237.326 262.926 238.831C265.756 239.968 264.539 234.633 267.793 235.951C273.467 238.305 269.601 260.704 267.988 260.74Z" fill="#F72585"/>
<g opacity="0.2">
<path d="M267.988 260.74C263.934 260.827 256.993 257.083 254.265 253.425C251.536 249.767 259.261 251.985 258.455 249.105C257.649 246.225 248.08 248.385 246.301 244.195C244.523 240.004 251.435 240.962 251.154 238.823C250.873 236.685 243.717 237.139 241.405 232.703C239.094 228.268 245.401 230.731 244.408 228.895C243.414 227.059 235.501 219.319 238.799 217.691C242.097 216.064 249.513 224.121 251.997 225.021C254.481 225.921 255.042 220.334 258.268 222.991C261.493 225.647 259.125 237.326 262.926 238.831C265.756 239.968 264.539 234.633 267.793 235.951C273.467 238.305 269.601 260.704 267.988 260.74Z" fill="white"/>
</g>
<path d="M273.783 255.593C273.848 255.708 273.243 256.313 275.223 256.363C280.155 256.565 288.903 256.233 292.151 251.748C296.831 245.347 286.045 245.937 287.111 242.388C288.176 238.838 299.747 241.74 302.007 236.7C304.268 231.66 295.837 232.646 296.247 230.047C296.658 227.448 305.478 230.817 308.394 225.468C311.31 220.118 303.584 222.984 304.794 220.766C306.003 218.548 315.882 209.347 311.907 207.288C307.933 205.228 298.724 214.862 295.686 215.928C292.647 216.993 291.942 207.518 287.953 210.679C283.964 213.84 286.578 228.089 281.919 229.86C278.449 231.177 280.343 226.065 276.059 226.26C270.248 226.497 268.333 246.485 273.783 255.593Z" fill="#AD1A5D"/>
<g opacity="0.3">
<path d="M273.783 255.593C273.848 255.708 273.243 256.313 275.223 256.363C280.155 256.565 288.903 256.233 292.151 251.748C296.831 245.347 286.045 245.937 287.111 242.388C288.176 238.838 299.747 241.74 302.007 236.7C304.268 231.66 295.837 232.646 296.247 230.047C296.658 227.448 305.478 230.817 308.394 225.468C311.31 220.118 303.584 222.984 304.794 220.766C306.003 218.548 315.882 209.347 311.907 207.288C307.933 205.228 298.724 214.862 295.686 215.928C292.647 216.993 291.942 207.518 287.953 210.679C283.964 213.84 286.578 228.089 281.919 229.86C278.449 231.177 280.343 226.065 276.059 226.26C270.248 226.497 268.333 246.485 273.783 255.593Z" fill="white"/>
</g>
<path d="M270.091 273.045C270.048 273.041 270.007 273.028 269.97 273.007C269.933 272.986 269.9 272.958 269.874 272.925C269.847 272.891 269.828 272.853 269.817 272.811C269.806 272.77 269.804 272.727 269.81 272.685C273.856 239.565 292.943 226.087 293.138 225.957C293.172 225.933 293.211 225.917 293.252 225.908C293.293 225.9 293.335 225.899 293.376 225.907C293.418 225.914 293.457 225.93 293.492 225.953C293.527 225.976 293.557 226.005 293.581 226.04C293.604 226.074 293.621 226.113 293.63 226.154C293.638 226.195 293.639 226.237 293.631 226.278C293.623 226.32 293.608 226.359 293.585 226.394C293.562 226.429 293.532 226.459 293.498 226.483C293.311 226.619 274.461 239.939 270.458 272.764C270.453 272.807 270.439 272.848 270.417 272.886C270.396 272.923 270.367 272.956 270.333 272.982C270.299 273.008 270.26 273.027 270.218 273.038C270.177 273.049 270.133 273.051 270.091 273.045Z" fill="#263238"/>
<path d="M288.762 230.558C288.698 230.556 288.635 230.535 288.584 230.496C288.532 230.457 288.494 230.403 288.474 230.342C288.447 230.261 288.452 230.172 288.49 230.095C288.528 230.018 288.595 229.959 288.676 229.931C288.798 229.895 291.642 228.995 296.293 229.982C296.376 230.001 296.449 230.051 296.496 230.122C296.543 230.193 296.56 230.28 296.545 230.363C296.528 230.447 296.478 230.521 296.407 230.568C296.335 230.616 296.248 230.632 296.164 230.615C291.685 229.665 288.906 230.536 288.877 230.543C288.84 230.556 288.801 230.561 288.762 230.558Z" fill="#263238"/>
<path d="M285.268 234.583C285.185 234.581 285.106 234.547 285.049 234.487C284.991 234.428 284.958 234.349 284.958 234.266C284.858 224.244 290.661 216.417 290.718 216.338C290.771 216.273 290.846 216.23 290.929 216.218C291.012 216.206 291.096 216.226 291.165 216.273C291.199 216.299 291.227 216.331 291.249 216.367C291.271 216.404 291.285 216.444 291.291 216.487C291.297 216.529 291.295 216.572 291.284 216.613C291.274 216.654 291.255 216.693 291.23 216.727C291.172 216.799 285.47 224.467 285.599 234.259C285.599 234.343 285.566 234.425 285.507 234.485C285.448 234.546 285.367 234.581 285.282 234.583H285.268Z" fill="#263238"/>
<path d="M279.552 243.064C279.511 243.063 279.47 243.054 279.433 243.037C279.396 243.019 279.363 242.994 279.336 242.964C279.306 242.934 279.282 242.899 279.265 242.86C279.249 242.821 279.24 242.779 279.24 242.737C279.24 242.694 279.249 242.653 279.265 242.614C279.282 242.575 279.306 242.539 279.336 242.51C279.379 242.474 283.656 238.5 289.301 240.516C289.37 240.552 289.425 240.612 289.453 240.685C289.482 240.758 289.483 240.839 289.457 240.912C289.431 240.986 289.378 241.048 289.31 241.086C289.241 241.125 289.161 241.137 289.085 241.12C283.829 239.234 279.818 242.942 279.782 242.978C279.752 243.007 279.716 243.03 279.676 243.045C279.636 243.06 279.594 243.066 279.552 243.064Z" fill="#263238"/>
<path d="M276.579 248.982C276.519 248.979 276.461 248.958 276.412 248.924C276.363 248.89 276.323 248.843 276.299 248.788C274.875 244.807 274.52 240.522 275.269 236.361C275.275 236.319 275.29 236.279 275.311 236.243C275.333 236.206 275.362 236.175 275.396 236.15C275.431 236.125 275.469 236.108 275.511 236.098C275.552 236.089 275.595 236.087 275.636 236.094C275.72 236.109 275.795 236.155 275.844 236.224C275.894 236.292 275.915 236.378 275.903 236.462C275.19 240.504 275.53 244.662 276.889 248.536C276.906 248.574 276.915 248.615 276.915 248.657C276.916 248.699 276.908 248.74 276.893 248.779C276.878 248.818 276.855 248.853 276.826 248.883C276.796 248.913 276.762 248.937 276.723 248.954C276.678 248.973 276.629 248.983 276.579 248.982Z" fill="#263238"/>
<path d="M270.214 284.882C270.134 284.878 270.058 284.844 270.002 284.787C269.946 284.729 269.913 284.653 269.912 284.572L269.494 275.796C268.263 246.614 248.254 226.771 248.052 226.576C248.005 226.515 247.981 226.438 247.985 226.36C247.989 226.282 248.021 226.208 248.076 226.152C248.13 226.096 248.203 226.062 248.28 226.055C248.358 226.048 248.436 226.07 248.499 226.116C248.7 226.317 268.896 246.326 270.135 275.796L270.552 284.572C270.554 284.657 270.523 284.739 270.465 284.801C270.407 284.863 270.328 284.9 270.243 284.904L270.214 284.882Z" fill="#263238"/>
<path d="M256.302 237.528H256.251C256.217 237.525 256.185 237.513 256.158 237.492L256.05 237.456C253.447 236.368 250.648 235.824 247.827 235.857C247.743 235.859 247.661 235.828 247.599 235.77C247.537 235.712 247.5 235.632 247.496 235.548C247.495 235.505 247.503 235.463 247.518 235.423C247.533 235.383 247.557 235.347 247.586 235.316C247.615 235.286 247.651 235.261 247.69 235.244C247.728 235.227 247.77 235.217 247.813 235.216C250.729 235.182 253.622 235.74 256.316 236.858L256.417 236.901H256.475C256.538 236.932 256.59 236.984 256.62 237.048C256.65 237.112 256.657 237.185 256.64 237.254C256.629 237.334 256.588 237.407 256.525 237.458C256.462 237.509 256.382 237.534 256.302 237.528Z" fill="#263238"/>
<path d="M259.131 241.293C259.089 241.29 259.048 241.279 259.01 241.26C258.973 241.241 258.94 241.215 258.913 241.182C258.886 241.15 258.866 241.112 258.854 241.072C258.842 241.032 258.838 240.989 258.843 240.947C259.613 232.307 255.157 225.244 255.106 225.179C255.065 225.107 255.054 225.022 255.074 224.941C255.095 224.86 255.145 224.791 255.215 224.746C255.286 224.702 255.37 224.686 255.452 224.703C255.533 224.719 255.606 224.766 255.653 224.834C255.697 224.906 260.276 232.163 259.477 241.005C259.473 241.047 259.461 241.087 259.442 241.124C259.422 241.161 259.396 241.194 259.364 241.221C259.332 241.248 259.295 241.268 259.255 241.28C259.215 241.293 259.173 241.297 259.131 241.293Z" fill="#263238"/>
<path d="M262.056 246.283C261.975 246.281 261.897 246.248 261.84 246.189C260.769 245.22 259.474 244.532 258.072 244.188C256.669 243.844 255.203 243.853 253.805 244.216C253.722 244.238 253.634 244.226 253.559 244.183C253.485 244.14 253.431 244.069 253.409 243.986C253.398 243.945 253.396 243.903 253.401 243.861C253.407 243.82 253.421 243.779 253.443 243.743C253.464 243.707 253.493 243.676 253.526 243.65C253.56 243.625 253.599 243.607 253.639 243.597C255.145 243.194 256.727 243.181 258.239 243.559C259.75 243.937 261.141 244.694 262.279 245.757C262.31 245.787 262.334 245.822 262.35 245.861C262.367 245.9 262.375 245.942 262.375 245.984C262.375 246.026 262.367 246.068 262.35 246.107C262.334 246.146 262.31 246.181 262.279 246.211C262.249 246.237 262.213 246.257 262.175 246.269C262.137 246.282 262.096 246.286 262.056 246.283Z" fill="#263238"/>
<path d="M265.764 254.505C265.716 254.505 265.669 254.492 265.627 254.469C265.59 254.45 265.556 254.424 265.529 254.392C265.501 254.36 265.481 254.322 265.468 254.282C265.455 254.242 265.451 254.199 265.454 254.157C265.458 254.115 265.471 254.075 265.49 254.037C266.958 250.722 267.55 247.085 267.211 243.475C267.205 243.39 267.233 243.306 267.288 243.242C267.343 243.177 267.422 243.137 267.506 243.129C267.549 243.125 267.591 243.13 267.632 243.143C267.672 243.156 267.709 243.176 267.742 243.204C267.774 243.231 267.8 243.265 267.819 243.303C267.838 243.341 267.849 243.382 267.852 243.425C268.219 247.155 267.601 250.916 266.059 254.332C266.032 254.387 265.989 254.432 265.937 254.462C265.885 254.493 265.825 254.508 265.764 254.505Z" fill="#263238"/>
<path d="M290.088 269.51H252L255.082 296.769H287.006L290.088 269.51Z" fill="#263238"/>
</svg>
