<svg width="360" height="360" viewBox="0 0 360 360" fill="none" xmlns="http://www.w3.org/2000/svg">
<g opacity="0.2">
<path d="M156.008 54.4966H319.297V173.505H156.008V54.4966Z" fill="#D6D6D6"/>
<path d="M161.595 60.7896H313.709V167.206H161.595V60.7896Z" fill="#BAB9B9"/>
<path d="M280.979 167.213H296.941L281.908 60.7896H265.945L280.979 167.213Z" fill="#CCCBCB"/>
<path d="M241.528 167.213H257.498L242.464 60.7896H226.495L241.528 167.213Z" fill="#CCCBCB"/>
<path d="M227.49 167.213H235.475L220.441 60.7896H212.456L227.49 167.213Z" fill="#CCCBCB"/>
<path d="M262.718 60.7896H270.242V167.206H262.718V60.7896Z" fill="#EBEBEB"/>
<path d="M262.717 167.213H261.039V60.7969H262.717V167.213Z" fill="#E0E0E0"/>
<path d="M156.007 173.506H154.805L154.805 54.4971H156.007L156.007 173.506Z" fill="#CCCBCB"/>
</g>
<path d="M360 275.328H0V275.508H360V275.328Z" fill="#EBEBEB"/>
<path d="M79.8408 281.441H75.2832V281.621H79.8408V281.441Z" fill="#EBEBEB"/>
<path d="M162.11 284.479H94.6602V284.659H162.11V284.479Z" fill="#EBEBEB"/>
<path d="M179.997 307.843C257.097 307.843 319.598 304.194 319.598 299.692C319.598 295.191 257.097 291.542 179.997 291.542C102.898 291.542 40.3965 295.191 40.3965 299.692C40.3965 304.194 102.898 307.843 179.997 307.843Z" fill="#BAB9B9" fill-opacity="0.5"/>
<path d="M58.0066 123.014L57.2871 123.04L57.5171 129.466L58.2366 129.44L58.0066 123.014Z" fill="#6C5DD3"/>
<path d="M56.991 94.8854L56.2715 94.9111L57.0161 115.713L57.7356 115.687L56.991 94.8854Z" fill="#6C5DD3"/>
<path d="M75.5377 299.606H189.298C190.498 299.612 191.688 299.375 192.794 298.908C193.901 298.441 194.901 297.755 195.735 296.891C196.568 296.027 197.218 295.003 197.645 293.881C198.072 292.758 198.267 291.561 198.218 290.362L190.227 66.7727C190.116 64.2986 189.062 61.9607 187.281 60.2398C185.5 58.519 183.127 57.5459 180.65 57.5207H66.8905C65.687 57.512 64.4943 57.7476 63.3846 58.2133C62.2748 58.679 61.2712 59.3652 60.4344 60.2302C59.5977 61.0953 58.9452 62.1211 58.5166 63.2457C58.088 64.3703 57.8921 65.5702 57.9409 66.7727L65.9545 290.362C66.0667 292.836 67.1226 295.173 68.9051 296.892C70.6876 298.612 73.0611 299.583 75.5377 299.606Z" fill="#6C5DD3"/>
<path opacity="0.8" d="M77.5874 299.606H189.317C190.518 299.612 191.707 299.374 192.814 298.908C193.92 298.441 194.92 297.755 195.754 296.891C196.588 296.027 197.238 295.003 197.665 293.881C198.091 292.758 198.286 291.561 198.238 290.361L190.224 66.7726C190.114 64.2984 189.06 61.9605 187.279 60.2397C185.497 58.5188 183.125 57.5458 180.648 57.5206H68.9186C67.7173 57.5147 66.5272 57.7525 65.4204 58.2196C64.3136 58.6868 63.313 59.3735 62.4791 60.2383C61.6452 61.1032 60.9954 62.1281 60.5689 63.2512C60.1424 64.3743 59.9482 65.5723 59.9978 66.7726L68.0042 290.361C68.1199 292.834 69.1768 295.169 70.9586 296.888C72.7403 298.607 75.1119 299.58 77.5874 299.606Z" fill="white"/>
<path d="M79.5763 285.768H187.065C188.186 285.774 189.296 285.552 190.328 285.116C191.361 284.679 192.293 284.038 193.07 283.229C193.846 282.421 194.45 281.464 194.845 280.415C195.24 279.366 195.417 278.248 195.367 277.128L187.922 69.0122C187.821 66.7047 186.84 64.5236 185.181 62.9168C183.522 61.3099 181.311 60.3994 179.001 60.3722H71.5051C70.3846 60.3671 69.2749 60.5898 68.2431 61.0266C67.2113 61.4634 66.279 62.1052 65.5027 62.9131C64.7264 63.721 64.1223 64.6782 63.7271 65.7266C63.3319 66.7751 63.1537 67.8928 63.2035 69.0122L70.6627 277.157C70.7657 279.46 71.747 281.636 73.4048 283.237C75.0627 284.839 77.2712 285.745 79.5763 285.768Z" fill="white"/>
<path d="M129.426 292.917C129.471 294.033 129.945 295.088 130.751 295.861C131.556 296.634 132.63 297.065 133.746 297.064C134.285 297.068 134.819 296.962 135.316 296.753C135.812 296.544 136.261 296.236 136.636 295.848C137.01 295.46 137.302 295.001 137.493 294.497C137.684 293.993 137.772 293.456 137.749 292.917C137.706 291.8 137.232 290.744 136.427 289.969C135.621 289.194 134.547 288.762 133.429 288.763C132.889 288.758 132.354 288.864 131.857 289.073C131.359 289.282 130.909 289.591 130.534 289.979C130.16 290.368 129.868 290.829 129.678 291.334C129.487 291.839 129.401 292.378 129.426 292.917Z" fill="white"/>
<path d="M176.399 125.143H78.7457C76.8028 125.127 74.9402 124.366 73.5418 123.017C72.1433 121.668 71.3155 119.834 71.2289 117.893L69.6521 73.8867C69.6142 72.9425 69.7679 72.0003 70.1039 71.1171C70.44 70.2339 70.9514 69.4279 71.6074 68.7477C72.2634 68.0675 73.0503 67.5272 73.9208 67.1594C74.7912 66.7915 75.7272 66.6038 76.6721 66.6075H174.29C176.232 66.6241 178.094 67.3854 179.491 68.7345C180.888 70.0836 181.715 71.9175 181.799 73.8579L183.376 117.864C183.415 118.805 183.263 119.744 182.93 120.625C182.597 121.506 182.09 122.31 181.438 122.99C180.787 123.67 180.004 124.211 179.139 124.581C178.273 124.951 177.341 125.142 176.399 125.143ZM76.6721 67.3275C75.8242 67.3239 74.9843 67.4921 74.2031 67.8219C73.422 68.1518 72.7157 68.6365 72.127 69.2467C71.5382 69.857 71.0792 70.5802 70.7776 71.3727C70.476 72.1652 70.3381 73.0106 70.3721 73.8579L71.9489 117.864C72.0263 119.62 72.7744 121.279 74.0391 122.5C75.3037 123.72 76.9883 124.409 78.7457 124.423H176.399C177.247 124.428 178.087 124.261 178.869 123.931C179.65 123.601 180.356 123.117 180.944 122.506C181.533 121.895 181.991 121.172 182.291 120.379C182.592 119.586 182.728 118.74 182.692 117.893L181.115 73.8867C181.038 72.1322 180.291 70.4741 179.028 69.2539C177.765 68.0337 176.082 67.3442 174.326 67.3275H76.6721Z" fill="#6C5DD3"/>
<path d="M116.218 97.5265C117.737 95.953 114.379 90.2467 108.717 84.7811C103.055 79.3156 97.2342 76.1604 95.7152 77.7339C94.1962 79.3074 97.5546 85.0137 103.216 90.4793C108.878 95.9448 114.699 99.1 116.218 97.5265Z" fill="#263238"/>
<path d="M103.226 90.4896C97.567 85.0248 94.2046 79.3224 95.7238 77.7456L77.803 96.336C76.2838 97.9056 79.639 103.615 85.3054 109.08C90.9718 114.545 96.7822 117.72 98.2654 116.122L116.193 97.5384C114.703 99.108 108.885 95.9544 103.226 90.4896Z" fill="#6C5DD3"/>
<path opacity="0.6" d="M103.226 90.4896C97.567 85.0248 94.2046 79.3224 95.7238 77.7456L77.803 96.336C76.2838 97.9056 79.639 103.615 85.3054 109.08C90.9718 114.545 96.7822 117.72 98.2654 116.122L116.193 97.5384C114.703 99.108 108.885 95.9544 103.226 90.4896Z" fill="white"/>
<path d="M128.823 91.368C125.453 97.4304 120.269 99.1944 114.336 97.848H114.293C111.737 97.3296 107.446 94.5504 103.227 90.4824C101.069 88.4318 99.1383 86.1555 97.4668 83.6928C97.6252 81.5976 100.455 79.8624 102.953 79.6176C106.244 79.2864 110.492 79.9704 114.66 85.7448C119.657 92.6712 124.899 91.5048 125.655 88.9416C126.965 84.4488 131.861 85.9104 128.823 91.368Z" fill="#6C5DD3"/>
<path d="M124.072 87.12C124.266 85.2408 122.668 84.4992 122.79 86.3136C122.912 88.128 123.935 88.4736 124.072 87.12Z" fill="#6C5DD3"/>
<path d="M127.865 96.1922C129.254 95.7818 129.233 94.4426 127.994 95.0546C126.756 95.6666 126.864 96.4802 127.865 96.1922Z" fill="#6C5DD3"/>
<path d="M150.897 82.9094C153.087 80.6794 152.99 77.0331 150.68 74.7652C148.371 72.4973 144.723 72.4665 142.534 74.6966C140.344 76.9266 140.441 80.5729 142.75 82.8408C145.059 85.1087 148.707 85.1394 150.897 82.9094Z" fill="#6C5DD3"/>
<path opacity="0.8" d="M167.966 82.9252C170.157 80.6956 170.06 77.0493 167.751 74.781C165.442 72.5126 161.795 72.4813 159.605 74.7109C157.414 76.9406 157.511 80.5869 159.82 82.8552C162.129 85.1235 165.776 85.1549 167.966 82.9252Z" fill="#6C5DD3"/>
<path opacity="0.6" d="M151.512 99.9651C153.702 97.7351 153.605 94.0888 151.296 91.8208C148.986 89.5529 145.339 89.5222 143.149 91.7522C140.959 93.9822 141.056 97.6286 143.365 99.8965C145.675 102.164 149.322 102.195 151.512 99.9651Z" fill="#6C5DD3"/>
<path opacity="0.4" d="M168.573 99.9656C170.763 97.7356 170.666 94.0893 168.356 91.8213C166.047 89.5534 162.399 89.5227 160.209 91.7527C158.019 93.9827 158.116 97.629 160.426 99.897C162.735 102.165 166.383 102.196 168.573 99.9656Z" fill="#6C5DD3"/>
<path opacity="0.2" d="M153.707 112.939C153.74 113.687 153.621 114.434 153.357 115.134C153.092 115.834 152.688 116.473 152.168 117.012C151.649 117.55 151.026 117.978 150.336 118.268C149.646 118.558 148.904 118.705 148.156 118.699C146.612 118.688 145.132 118.084 144.021 117.012C142.91 115.94 142.254 114.482 142.187 112.939C142.154 112.192 142.273 111.445 142.538 110.745C142.802 110.045 143.206 109.406 143.726 108.867C144.245 108.328 144.869 107.901 145.558 107.611C146.248 107.32 146.99 107.174 147.738 107.179C149.282 107.191 150.762 107.795 151.873 108.867C152.984 109.939 153.641 111.397 153.707 112.939Z" fill="#6C5DD3"/>
<path opacity="0.2" d="M164.801 107.899C166.154 107.909 167.453 108.437 168.429 109.374C169.405 110.312 169.985 111.587 170.05 112.939C170.082 113.593 169.981 114.246 169.751 114.859C169.522 115.471 169.171 116.031 168.717 116.503C168.264 116.975 167.72 117.349 167.117 117.603C166.514 117.857 165.865 117.985 165.211 117.979C163.859 117.968 162.562 117.439 161.588 116.502C160.613 115.565 160.034 114.29 159.97 112.939C159.935 112.286 160.035 111.633 160.263 111.019C160.491 110.406 160.842 109.846 161.294 109.374C161.747 108.902 162.292 108.527 162.895 108.273C163.498 108.02 164.147 107.893 164.801 107.899ZM164.801 107.179C164.052 107.174 163.311 107.32 162.621 107.611C161.931 107.901 161.308 108.328 160.788 108.867C160.269 109.406 159.865 110.045 159.6 110.745C159.336 111.445 159.216 112.192 159.25 112.939C159.314 114.481 159.969 115.939 161.079 117.011C162.189 118.083 163.668 118.688 165.211 118.699C165.96 118.705 166.701 118.558 167.391 118.268C168.081 117.978 168.704 117.55 169.224 117.012C169.743 116.473 170.147 115.834 170.412 115.134C170.676 114.434 170.796 113.687 170.762 112.939C170.699 111.397 170.045 109.938 168.935 108.866C167.825 107.793 166.344 107.189 164.801 107.179Z" fill="#6C5DD3"/>
<g opacity="0.06">
<path d="M183.784 184.564C183.996 184.566 184.205 184.524 184.4 184.442C184.595 184.36 184.771 184.239 184.917 184.087C185.064 183.935 185.179 183.754 185.254 183.557C185.329 183.359 185.363 183.148 185.354 182.937L183.604 133.581C183.582 133.146 183.395 132.735 183.081 132.432C182.766 132.13 182.349 131.959 181.912 131.954C181.701 131.954 181.492 131.996 181.298 132.079C181.104 132.161 180.928 132.282 180.782 132.434C180.635 132.586 180.521 132.766 180.445 132.963C180.37 133.16 180.335 133.37 180.343 133.581L182.114 182.937C182.132 183.37 182.316 183.78 182.626 184.083C182.937 184.385 183.351 184.558 183.784 184.564Z" fill="#6C5DD3"/>
<path d="M176.057 184.564C176.268 184.566 176.477 184.524 176.672 184.442C176.867 184.36 177.043 184.239 177.19 184.087C177.336 183.935 177.451 183.754 177.526 183.557C177.601 183.359 177.635 183.148 177.626 182.937L175.855 133.581C175.835 133.146 175.649 132.735 175.336 132.433C175.023 132.13 174.606 131.959 174.17 131.954C173.959 131.954 173.75 131.996 173.556 132.079C173.362 132.161 173.186 132.282 173.04 132.434C172.893 132.586 172.779 132.766 172.703 132.963C172.628 133.16 172.593 133.37 172.601 133.581L174.372 182.937C174.389 183.373 174.573 183.786 174.887 184.09C175.201 184.393 175.62 184.563 176.057 184.564Z" fill="#6C5DD3"/>
<path d="M168.332 184.565C168.544 184.566 168.753 184.524 168.948 184.442C169.143 184.36 169.319 184.239 169.465 184.087C169.612 183.935 169.726 183.754 169.802 183.557C169.877 183.359 169.911 183.149 169.902 182.937L168.131 133.581C168.111 133.146 167.925 132.736 167.612 132.433C167.298 132.13 166.881 131.959 166.446 131.954C166.235 131.953 166.025 131.995 165.83 132.077C165.636 132.159 165.46 132.28 165.313 132.432C165.166 132.584 165.052 132.764 164.977 132.962C164.902 133.159 164.868 133.37 164.876 133.581L166.64 182.937C166.661 183.374 166.847 183.785 167.162 184.088C167.477 184.391 167.896 184.561 168.332 184.565Z" fill="#6C5DD3"/>
<path d="M160.608 184.565C160.819 184.566 161.028 184.524 161.223 184.442C161.418 184.36 161.594 184.239 161.741 184.087C161.888 183.935 162.002 183.754 162.077 183.557C162.152 183.359 162.186 183.149 162.177 182.937L160.406 133.581C160.386 133.146 160.2 132.736 159.887 132.433C159.574 132.13 159.157 131.959 158.721 131.954C158.51 131.953 158.301 131.995 158.106 132.077C157.911 132.159 157.735 132.28 157.588 132.432C157.442 132.584 157.327 132.764 157.252 132.962C157.177 133.159 157.143 133.37 157.152 133.581L158.916 182.937C158.936 183.374 159.123 183.785 159.437 184.088C159.752 184.391 160.171 184.561 160.608 184.565Z" fill="#6C5DD3"/>
<path d="M152.881 184.565C153.093 184.566 153.302 184.524 153.497 184.442C153.691 184.36 153.867 184.239 154.014 184.087C154.161 183.935 154.275 183.754 154.35 183.557C154.425 183.359 154.46 183.149 154.451 182.937L152.68 133.581C152.659 133.146 152.474 132.736 152.16 132.433C151.847 132.13 151.43 131.959 150.995 131.954C150.783 131.953 150.574 131.995 150.379 132.077C150.185 132.159 150.008 132.28 149.862 132.432C149.715 132.584 149.601 132.764 149.526 132.962C149.451 133.159 149.416 133.37 149.425 133.581L151.204 182.937C151.224 183.371 151.408 183.781 151.72 184.083C152.032 184.386 152.447 184.558 152.881 184.565Z" fill="#6C5DD3"/>
<path d="M145.147 184.565C145.359 184.567 145.569 184.526 145.764 184.444C145.959 184.362 146.136 184.241 146.283 184.089C146.43 183.937 146.544 183.756 146.619 183.558C146.693 183.36 146.727 183.149 146.717 182.937L144.953 133.581C144.933 133.146 144.747 132.736 144.434 132.433C144.121 132.13 143.704 131.959 143.268 131.954C143.057 131.953 142.847 131.995 142.653 132.077C142.458 132.159 142.282 132.28 142.135 132.432C141.988 132.584 141.874 132.764 141.799 132.962C141.724 133.159 141.69 133.37 141.699 133.581L143.463 182.937C143.483 183.372 143.669 183.783 143.982 184.086C144.295 184.388 144.712 184.559 145.147 184.565Z" fill="#6C5DD3"/>
<path d="M137.422 184.565C137.634 184.567 137.843 184.526 138.039 184.444C138.234 184.362 138.41 184.241 138.557 184.089C138.704 183.937 138.819 183.756 138.893 183.558C138.968 183.36 139.001 183.149 138.991 182.937L137.228 133.581C137.207 133.146 137.022 132.736 136.708 132.433C136.395 132.13 135.978 131.959 135.543 131.954C135.331 131.953 135.121 131.995 134.926 132.077C134.731 132.159 134.555 132.279 134.407 132.431C134.26 132.583 134.145 132.764 134.069 132.961C133.993 133.159 133.958 133.37 133.966 133.581L135.737 182.937C135.756 183.373 135.941 183.785 136.254 184.088C136.568 184.39 136.986 184.561 137.422 184.565Z" fill="#6C5DD3"/>
<path d="M129.697 184.565C129.909 184.567 130.119 184.526 130.314 184.444C130.509 184.362 130.686 184.241 130.833 184.089C130.98 183.937 131.094 183.756 131.169 183.558C131.243 183.36 131.277 183.149 131.267 182.937L129.503 133.581C129.481 133.146 129.294 132.735 128.979 132.432C128.665 132.13 128.247 131.959 127.811 131.954C127.6 131.954 127.391 131.996 127.197 132.079C127.002 132.161 126.827 132.282 126.68 132.434C126.534 132.586 126.419 132.766 126.344 132.963C126.268 133.16 126.234 133.37 126.241 133.581L128.012 182.937C128.031 183.373 128.216 183.785 128.53 184.088C128.843 184.39 129.261 184.561 129.697 184.565Z" fill="#6C5DD3"/>
<path d="M121.973 184.564C122.184 184.566 122.393 184.524 122.588 184.442C122.783 184.36 122.959 184.239 123.106 184.087C123.252 183.935 123.367 183.754 123.442 183.557C123.517 183.359 123.551 183.148 123.542 182.937L121.778 133.581C121.756 133.146 121.569 132.735 121.255 132.432C120.94 132.13 120.522 131.959 120.086 131.954C119.875 131.954 119.666 131.996 119.472 132.079C119.278 132.161 119.102 132.282 118.956 132.434C118.809 132.586 118.695 132.766 118.619 132.963C118.544 133.16 118.509 133.37 118.517 133.581L120.288 182.937C120.306 183.373 120.492 183.785 120.805 184.088C121.119 184.39 121.537 184.561 121.973 184.564Z" fill="#6C5DD3"/>
<path d="M114.244 184.564C114.456 184.566 114.665 184.524 114.86 184.442C115.054 184.36 115.23 184.239 115.377 184.087C115.524 183.935 115.638 183.754 115.713 183.557C115.788 183.359 115.823 183.148 115.814 182.937L114.043 133.581C114.024 133.146 113.839 132.734 113.525 132.431C113.212 132.128 112.794 131.957 112.358 131.954C112.147 131.954 111.938 131.996 111.744 132.079C111.549 132.161 111.374 132.282 111.227 132.434C111.08 132.586 110.966 132.766 110.891 132.963C110.815 133.16 110.78 133.37 110.788 133.581L112.559 182.937C112.578 183.373 112.763 183.785 113.077 184.088C113.39 184.39 113.808 184.561 114.244 184.564Z" fill="#6C5DD3"/>
<path d="M106.52 184.565C106.731 184.566 106.941 184.524 107.135 184.442C107.33 184.36 107.506 184.239 107.653 184.087C107.8 183.935 107.914 183.754 107.989 183.557C108.064 183.359 108.098 183.149 108.089 182.937L106.318 133.581C106.298 133.146 106.112 132.736 105.799 132.433C105.486 132.13 105.069 131.959 104.633 131.954C104.422 131.953 104.213 131.995 104.018 132.077C103.823 132.159 103.647 132.28 103.5 132.432C103.354 132.584 103.239 132.764 103.164 132.962C103.089 133.159 103.055 133.37 103.064 133.581L104.835 182.937C104.852 183.374 105.036 183.786 105.35 184.09C105.664 184.393 106.083 184.563 106.52 184.565Z" fill="#6C5DD3"/>
<path d="M98.7952 184.565C99.0066 184.566 99.216 184.524 99.4107 184.442C99.6055 184.36 99.7816 184.239 99.9283 184.087C100.075 183.935 100.189 183.754 100.264 183.557C100.339 183.359 100.374 183.149 100.365 182.937L98.5936 133.581C98.5734 133.146 98.3877 132.736 98.0745 132.433C97.7613 132.13 97.3443 131.959 96.9088 131.954C96.6975 131.953 96.4881 131.995 96.2933 132.077C96.0986 132.159 95.9225 132.28 95.7758 132.432C95.629 132.584 95.5147 132.764 95.4397 132.962C95.3646 133.159 95.3305 133.37 95.3392 133.581L97.1032 182.937C97.1235 183.374 97.3102 183.785 97.625 184.088C97.9397 184.391 98.3586 184.561 98.7952 184.565Z" fill="#6C5DD3"/>
<path d="M91.0706 184.565C91.282 184.566 91.4914 184.524 91.6861 184.442C91.8809 184.36 92.0569 184.239 92.2037 184.087C92.3504 183.935 92.4648 183.754 92.5398 183.557C92.6148 183.359 92.649 183.149 92.6402 182.937L90.869 133.581C90.8488 133.146 90.6631 132.736 90.3499 132.433C90.0367 132.13 89.6197 131.959 89.1842 131.954C88.9729 131.953 88.7635 131.995 88.5687 132.077C88.374 132.159 88.1979 132.28 88.0512 132.432C87.9044 132.584 87.7901 132.764 87.7151 132.962C87.64 133.159 87.6059 133.37 87.6146 133.581L89.3786 182.937C89.3989 183.374 89.5856 183.785 89.9004 184.088C90.2151 184.391 90.634 184.561 91.0706 184.565Z" fill="#6C5DD3"/>
<path d="M83.3349 184.565C83.5469 184.567 83.757 184.526 83.9526 184.444C84.1482 184.362 84.3252 184.242 84.4727 184.089C84.6202 183.937 84.7352 183.757 84.8107 183.559C84.8861 183.36 84.9205 183.149 84.9117 182.937L83.1405 133.581C83.1203 133.146 82.9346 132.736 82.6214 132.433C82.3082 132.13 81.8911 131.959 81.4557 131.954C81.2444 131.953 81.035 131.995 80.8402 132.077C80.6455 132.159 80.4694 132.28 80.3227 132.432C80.1759 132.584 80.0616 132.764 79.9865 132.962C79.9115 133.159 79.8773 133.37 79.8861 133.581L81.6501 182.937C81.6703 183.372 81.856 183.783 82.1692 184.086C82.4825 184.388 82.8995 184.559 83.3349 184.565Z" fill="#6C5DD3"/>
<path d="M75.6035 184.565C75.8152 184.567 76.025 184.526 76.2203 184.444C76.4155 184.362 76.592 184.241 76.7389 184.089C76.8859 183.937 77.0002 183.756 77.0748 183.558C77.1495 183.36 77.183 183.149 77.1731 182.937L75.4091 133.581C75.389 133.146 75.2032 132.736 74.89 132.433C74.5768 132.13 74.1598 131.959 73.7243 131.954C73.5127 131.953 73.303 131.995 73.1078 132.077C72.9127 132.159 72.7362 132.279 72.5889 132.431C72.4416 132.583 72.3266 132.764 72.2507 132.961C72.1749 133.159 72.1398 133.37 72.1475 133.581L73.9187 182.937C73.9372 183.373 74.1224 183.785 74.436 184.088C74.7496 184.39 75.1676 184.561 75.6035 184.565Z" fill="#6C5DD3"/>
</g>
<path d="M111.601 139.831H81.7213C81.6259 139.831 81.5343 139.793 81.4668 139.726C81.3993 139.658 81.3613 139.567 81.3613 139.471C81.3613 139.376 81.3993 139.284 81.4668 139.217C81.5343 139.149 81.6259 139.111 81.7213 139.111H111.601C111.697 139.111 111.788 139.149 111.856 139.217C111.923 139.284 111.961 139.376 111.961 139.471C111.961 139.567 111.923 139.658 111.856 139.726C111.788 139.793 111.697 139.831 111.601 139.831Z" fill="#6C5DD3"/>
<path d="M175.795 178.092C150.048 178.092 133.236 166.435 118.404 156.153C106.056 147.585 95.364 140.191 81.72 140.191C81.529 140.191 81.3459 140.115 81.2109 139.98C81.0759 139.845 81 139.662 81 139.471C81 139.28 81.0759 139.097 81.2109 138.962C81.3459 138.827 81.529 138.751 81.72 138.751C95.8392 138.751 107.201 146.628 119.225 154.965C133.92 165.132 150.48 176.652 175.795 176.652C175.986 176.652 176.169 176.728 176.304 176.863C176.439 176.998 176.515 177.181 176.515 177.372C176.515 177.563 176.439 177.746 176.304 177.881C176.169 178.016 175.986 178.092 175.795 178.092Z" fill="#6C5DD3"/>
<path d="M175.797 177.732H129.436C129.341 177.732 129.249 177.694 129.182 177.626C129.114 177.559 129.076 177.467 129.076 177.372C129.076 177.276 129.114 177.185 129.182 177.117C129.249 177.05 129.341 177.012 129.436 177.012H175.797C175.892 177.012 175.984 177.05 176.052 177.117C176.119 177.185 176.157 177.276 176.157 177.372C176.157 177.467 176.119 177.559 176.052 177.626C175.984 177.694 175.892 177.732 175.797 177.732Z" fill="#6C5DD3"/>
<path d="M127.384 177.372C127.395 177.648 127.512 177.908 127.71 178.1C127.909 178.292 128.173 178.4 128.449 178.401C128.583 178.403 128.715 178.376 128.838 178.325C128.961 178.273 129.073 178.196 129.165 178.1C129.257 178.003 129.329 177.889 129.376 177.764C129.422 177.639 129.443 177.505 129.436 177.372C129.425 177.096 129.308 176.835 129.109 176.644C128.911 176.452 128.646 176.344 128.37 176.342C128.237 176.342 128.105 176.369 127.982 176.421C127.86 176.474 127.749 176.55 127.657 176.646C127.565 176.743 127.493 176.856 127.446 176.981C127.399 177.106 127.378 177.239 127.384 177.372Z" fill="white"/>
<path d="M128.448 178.762C128.077 178.762 127.72 178.619 127.452 178.363C127.183 178.107 127.024 177.757 127.008 177.386C126.994 177.202 127.018 177.016 127.08 176.841C127.141 176.666 127.238 176.506 127.365 176.371C127.491 176.236 127.645 176.128 127.815 176.055C127.985 175.982 128.169 175.945 128.354 175.946C128.725 175.946 129.082 176.089 129.35 176.345C129.618 176.601 129.777 176.951 129.794 177.322C129.803 177.503 129.775 177.685 129.711 177.856C129.647 178.026 129.549 178.182 129.423 178.313C129.297 178.445 129.146 178.549 128.978 178.62C128.81 178.691 128.63 178.727 128.448 178.726V178.762ZM128.369 176.702C128.284 176.702 128.2 176.719 128.122 176.753C128.044 176.786 127.974 176.835 127.915 176.896C127.857 176.957 127.811 177.03 127.781 177.109C127.752 177.188 127.738 177.273 127.742 177.358C127.751 177.542 127.831 177.716 127.965 177.844C128.099 177.971 128.277 178.042 128.462 178.042C128.622 178.03 128.771 177.958 128.88 177.84C128.939 177.78 128.985 177.707 129.015 177.628C129.045 177.549 129.058 177.464 129.053 177.379C129.042 177.202 128.966 177.035 128.84 176.91C128.714 176.785 128.546 176.711 128.369 176.702Z" fill="#6C5DD3"/>
<path d="M113.37 140.207C113.76 139.81 113.743 139.161 113.331 138.757C112.919 138.353 112.27 138.348 111.88 138.745C111.49 139.142 111.507 139.792 111.919 140.196C112.331 140.599 112.98 140.605 113.37 140.207Z" fill="white"/>
<path d="M112.666 140.86C112.295 140.861 111.939 140.718 111.67 140.462C111.402 140.205 111.243 139.856 111.226 139.485C111.217 139.303 111.246 139.12 111.31 138.949C111.375 138.778 111.473 138.623 111.601 138.491C111.728 138.362 111.879 138.26 112.046 138.189C112.213 138.119 112.392 138.082 112.573 138.081C112.944 138.081 113.3 138.223 113.569 138.48C113.837 138.736 113.996 139.086 114.013 139.456C114.021 139.638 113.993 139.82 113.929 139.99C113.866 140.161 113.768 140.317 113.642 140.448C113.516 140.579 113.364 140.684 113.196 140.755C113.029 140.826 112.848 140.861 112.666 140.86ZM112.587 138.801C112.502 138.801 112.418 138.818 112.34 138.852C112.262 138.885 112.192 138.934 112.133 138.995C112.075 139.057 112.03 139.129 112 139.208C111.971 139.288 111.957 139.372 111.961 139.456C111.97 139.641 112.05 139.815 112.184 139.942C112.318 140.07 112.496 140.14 112.681 140.14C112.765 140.14 112.849 140.123 112.927 140.09C113.005 140.056 113.076 140.007 113.134 139.946C113.194 139.885 113.24 139.813 113.27 139.734C113.299 139.654 113.312 139.57 113.307 139.485C113.298 139.3 113.218 139.126 113.084 138.999C112.95 138.872 112.772 138.801 112.587 138.801Z" fill="#6C5DD3"/>
<path d="M172.521 177.372C172.557 178.249 172.93 179.078 173.561 179.688C174.193 180.297 175.034 180.641 175.912 180.648C176.338 180.651 176.76 180.568 177.152 180.403C177.545 180.238 177.9 179.995 178.195 179.688C178.491 179.382 178.721 179.019 178.872 178.62C179.023 178.222 179.091 177.797 179.073 177.372C179.036 176.495 178.663 175.666 178.032 175.056C177.401 174.446 176.559 174.102 175.681 174.096C175.256 174.092 174.833 174.176 174.441 174.341C174.048 174.506 173.693 174.749 173.398 175.055C173.102 175.362 172.872 175.725 172.721 176.123C172.57 176.522 172.502 176.946 172.521 177.372Z" fill="#263238"/>
<path d="M78.4815 139.471C78.5184 140.348 78.8911 141.177 79.5223 141.787C80.1535 142.397 80.9951 142.74 81.8727 142.747C82.2985 142.75 82.7206 142.667 83.1132 142.502C83.5058 142.337 83.8607 142.094 84.1564 141.787C84.4521 141.481 84.6823 141.118 84.8331 140.719C84.9839 140.321 85.0521 139.896 85.0335 139.471C84.9966 138.594 84.6239 137.765 83.9927 137.155C83.3615 136.545 82.5199 136.202 81.6423 136.195C81.2165 136.192 80.7944 136.275 80.4018 136.44C80.0092 136.605 79.6543 136.848 79.3586 137.154C79.0629 137.461 78.8327 137.824 78.6819 138.222C78.5311 138.621 78.4629 139.045 78.4815 139.471Z" fill="#263238"/>
<path d="M184.434 203.616H76.2688C76.0779 203.616 75.8947 203.54 75.7597 203.405C75.6247 203.27 75.5488 203.087 75.5488 202.896C75.5488 202.705 75.6247 202.522 75.7597 202.387C75.8947 202.252 76.0779 202.176 76.2688 202.176H184.434C184.625 202.176 184.809 202.252 184.944 202.387C185.079 202.522 185.154 202.705 185.154 202.896C185.154 203.087 185.079 203.27 184.944 203.405C184.809 203.54 184.625 203.616 184.434 203.616Z" fill="#6C5DD3"/>
<path d="M185.265 226.742H77.0989C76.908 226.742 76.7248 226.666 76.5898 226.531C76.4548 226.396 76.3789 226.213 76.3789 226.022C76.3789 225.831 76.4548 225.648 76.5898 225.513C76.7248 225.378 76.908 225.302 77.0989 225.302H185.265C185.455 225.302 185.639 225.378 185.774 225.513C185.909 225.648 185.985 225.831 185.985 226.022C185.985 226.213 185.909 226.396 185.774 226.531C185.639 226.666 185.455 226.742 185.265 226.742Z" fill="#6C5DD3"/>
<path d="M186.091 249.84H77.9251C77.7341 249.84 77.551 249.764 77.416 249.629C77.2809 249.494 77.2051 249.311 77.2051 249.12C77.2051 248.929 77.2809 248.746 77.416 248.611C77.551 248.476 77.7341 248.4 77.9251 248.4H186.091C186.282 248.4 186.465 248.476 186.6 248.611C186.735 248.746 186.811 248.929 186.811 249.12C186.811 249.311 186.735 249.494 186.6 249.629C186.465 249.764 186.282 249.84 186.091 249.84Z" fill="#6C5DD3"/>
<path d="M157.68 206.604H165.096L164.837 199.188H157.414L157.68 206.604Z" fill="white"/>
<path d="M165.097 206.964H157.681C157.588 206.964 157.499 206.928 157.431 206.864C157.364 206.799 157.325 206.711 157.321 206.619L157.055 199.203C157.054 199.104 157.09 199.009 157.155 198.936C157.224 198.867 157.317 198.828 157.415 198.828H164.838C164.93 198.828 165.019 198.864 165.085 198.929C165.151 198.994 165.189 199.081 165.191 199.174L165.457 206.59C165.461 206.639 165.453 206.688 165.436 206.734C165.419 206.78 165.391 206.822 165.356 206.856C165.323 206.891 165.283 206.919 165.238 206.938C165.194 206.956 165.145 206.965 165.097 206.964ZM158.027 206.244H164.73L164.485 199.548H157.789L158.027 206.244Z" fill="#6C5DD3"/>
<path d="M88.9715 229.73H96.3875L96.1211 222.314H88.7051L88.9715 229.73Z" fill="white"/>
<path d="M96.3881 230.091H88.9721C88.8791 230.091 88.7896 230.055 88.7225 229.99C88.6554 229.926 88.6158 229.838 88.6121 229.745L88.3457 222.329C88.3451 222.231 88.381 222.136 88.4465 222.063C88.5152 221.994 88.6084 221.955 88.7057 221.955H96.1217C96.168 221.954 96.2141 221.962 96.2573 221.979C96.3005 221.996 96.3399 222.021 96.3733 222.053C96.4067 222.085 96.4335 222.123 96.4521 222.166C96.4707 222.208 96.4808 222.254 96.4817 222.3L96.7481 229.716C96.7517 229.765 96.7445 229.815 96.7271 229.861C96.7097 229.907 96.6825 229.948 96.6473 229.983C96.6141 230.018 96.5738 230.046 96.5292 230.064C96.4845 230.083 96.4365 230.092 96.3881 230.091ZM89.3177 229.371H96.0209L95.7761 222.675H89.0801L89.3177 229.371Z" fill="#6C5DD3"/>
<path d="M97.0145 252.857H104.43L104.164 245.441H96.748L97.0145 252.857Z" fill="white"/>
<path d="M104.402 253.217H96.9858C96.8927 253.217 96.8033 253.181 96.7362 253.116C96.6691 253.052 96.6295 252.964 96.6258 252.871L96.3594 245.455C96.3588 245.357 96.3947 245.262 96.4602 245.189C96.4934 245.154 96.5337 245.126 96.5783 245.107C96.623 245.089 96.671 245.08 96.7194 245.081H104.135C104.228 245.081 104.318 245.117 104.385 245.181C104.452 245.245 104.492 245.333 104.495 245.426L104.762 252.842C104.765 252.891 104.758 252.941 104.741 252.987C104.723 253.033 104.696 253.074 104.661 253.109C104.628 253.144 104.587 253.172 104.543 253.19C104.498 253.209 104.45 253.218 104.402 253.217ZM97.3314 252.497H104.027L103.79 245.801H97.0938L97.3314 252.497Z" fill="#6C5DD3"/>
<path d="M82.3047 275.356H91.8951C92.3421 275.359 92.7849 275.27 93.1967 275.097C93.6085 274.923 93.9808 274.668 94.2911 274.346C94.6014 274.024 94.8432 273.643 95.0019 273.225C95.1605 272.807 95.2328 272.361 95.2143 271.915L94.8687 262.324C94.8282 261.404 94.436 260.533 93.7729 259.893C93.1099 259.253 92.2264 258.891 91.3047 258.883H81.7143C81.2676 258.882 80.8253 258.971 80.414 259.145C80.0026 259.319 79.6307 259.574 79.3206 259.896C79.0106 260.217 78.7687 260.598 78.6097 261.015C78.4506 261.433 78.3776 261.878 78.3951 262.324L78.7407 271.915C78.7812 272.836 79.1734 273.706 79.8365 274.346C80.4996 274.987 81.383 275.348 82.3047 275.356Z" fill="#6C5DD3"/>
<path d="M91.8938 275.717H82.3034C81.2886 275.709 80.3158 275.311 79.5856 274.607C78.8554 273.902 78.4236 272.944 78.3794 271.93L78.0338 262.339C78.0154 261.845 78.097 261.352 78.2736 260.889C78.4502 260.427 78.7183 260.005 79.0618 259.649C79.4053 259.293 79.8172 259.009 80.2727 258.816C80.7282 258.623 81.2181 258.523 81.713 258.523H91.3034C92.3193 258.532 93.2932 258.93 94.0236 259.637C94.754 260.343 95.1849 261.303 95.2274 262.318L95.573 271.901C95.5935 272.396 95.5133 272.89 95.3374 273.353C95.1615 273.817 94.8935 274.239 94.5496 274.596C94.2057 274.953 93.793 275.236 93.3365 275.429C92.8801 275.621 92.3893 275.719 91.8938 275.717ZM81.713 259.243C81.3142 259.242 80.9193 259.322 80.5521 259.477C80.1849 259.633 79.853 259.861 79.5764 260.148C79.2999 260.436 79.0844 260.776 78.943 261.149C78.8016 261.522 78.7373 261.919 78.7538 262.318L79.0994 271.901C79.1345 272.73 79.4866 273.513 80.0829 274.089C80.6792 274.665 81.4742 274.99 82.3034 274.997H91.8938C92.292 274.998 92.6863 274.919 93.053 274.764C93.4197 274.609 93.7513 274.381 94.0277 274.095C94.3041 273.808 94.5198 273.469 94.6616 273.097C94.8034 272.725 94.8685 272.328 94.853 271.93L94.5074 262.339C94.4723 261.511 94.1202 260.728 93.5239 260.151C92.9276 259.575 92.1326 259.25 91.3034 259.243H81.713Z" fill="#6C5DD3"/>
<path d="M174.004 275.357H183.602C184.048 275.359 184.491 275.271 184.903 275.097C185.315 274.923 185.687 274.668 185.998 274.346C186.308 274.025 186.55 273.643 186.708 273.225C186.867 272.808 186.939 272.362 186.921 271.915L186.575 262.325C186.534 261.398 186.137 260.522 185.466 259.881C184.796 259.24 183.903 258.882 182.975 258.883H173.414C172.967 258.882 172.525 258.971 172.113 259.145C171.702 259.319 171.33 259.575 171.02 259.896C170.71 260.218 170.468 260.599 170.309 261.016C170.15 261.433 170.077 261.879 170.094 262.325L170.44 271.915C170.48 272.836 170.873 273.706 171.536 274.347C172.199 274.987 173.082 275.349 174.004 275.357Z" fill="white"/>
<path d="M183.6 275.717H174.003C172.988 275.709 172.015 275.311 171.285 274.607C170.555 273.902 170.123 272.944 170.079 271.93L169.733 262.339C169.715 261.845 169.796 261.352 169.973 260.889C170.149 260.427 170.418 260.005 170.761 259.649C171.105 259.293 171.516 259.009 171.972 258.816C172.427 258.623 172.917 258.523 173.412 258.523H183.003C184.019 258.532 184.992 258.93 185.723 259.637C186.453 260.343 186.884 261.303 186.927 262.318L187.272 271.901C187.293 272.396 187.213 272.89 187.037 273.353C186.861 273.817 186.593 274.239 186.249 274.596C185.905 274.953 185.492 275.236 185.036 275.429C184.579 275.621 184.088 275.719 183.593 275.717H183.6ZM173.419 259.243C173.021 259.242 172.626 259.322 172.258 259.477C171.891 259.633 171.559 259.861 171.283 260.148C171.006 260.436 170.791 260.776 170.649 261.149C170.508 261.522 170.444 261.919 170.46 262.318L170.806 271.901C170.841 272.73 171.193 273.513 171.789 274.089C172.386 274.665 173.181 274.99 174.01 274.997H183.6C183.998 274.998 184.393 274.919 184.759 274.764C185.126 274.609 185.458 274.381 185.734 274.095C186.011 273.808 186.226 273.469 186.368 273.097C186.51 272.725 186.575 272.328 186.559 271.93L186.214 262.339C186.177 261.512 185.824 260.729 185.228 260.153C184.632 259.577 183.838 259.252 183.01 259.243H173.419Z" fill="#6C5DD3"/>
<path d="M186.74 267.48C186.658 267.482 186.577 267.454 186.513 267.403C186.449 267.352 186.404 267.28 186.387 267.199C186.031 265.177 184.979 263.344 183.414 262.015C182.414 261.27 181.751 260.159 181.571 258.926C181.565 258.879 181.569 258.831 181.583 258.785C181.596 258.74 181.618 258.697 181.648 258.66C181.708 258.585 181.795 258.537 181.891 258.527C181.986 258.516 182.082 258.544 182.157 258.604C182.232 258.664 182.28 258.752 182.291 258.847C182.435 260.107 183.083 260.719 183.903 261.489C185.576 262.916 186.703 264.877 187.093 267.041C187.104 267.087 187.105 267.135 187.097 267.182C187.089 267.229 187.072 267.273 187.046 267.314C187.021 267.354 186.988 267.388 186.949 267.416C186.91 267.443 186.866 267.462 186.819 267.473L186.74 267.48Z" fill="#6C5DD3"/>
<path d="M186.589 271.08C181.182 271.08 179.08 263.513 178.302 258.948C178.294 258.901 178.295 258.852 178.306 258.805C178.317 258.759 178.336 258.714 178.364 258.675C178.392 258.636 178.427 258.603 178.468 258.577C178.508 258.552 178.554 258.535 178.601 258.527C178.648 258.519 178.697 258.52 178.743 258.531C178.79 258.541 178.834 258.561 178.873 258.589C178.912 258.617 178.946 258.652 178.971 258.692C178.997 258.733 179.014 258.778 179.022 258.825C179.742 263.239 181.816 270.583 186.863 270.345C186.91 270.342 186.958 270.347 187.003 270.362C187.049 270.377 187.09 270.401 187.126 270.433C187.162 270.465 187.191 270.503 187.211 270.546C187.231 270.589 187.243 270.636 187.244 270.684C187.248 270.78 187.214 270.874 187.15 270.945C187.085 271.017 186.995 271.06 186.899 271.065L186.589 271.08Z" fill="#6C5DD3"/>
<path d="M182.233 275.717C182.165 275.717 182.098 275.7 182.039 275.666C181.959 275.615 181.903 275.534 181.881 275.441C181.86 275.348 181.875 275.251 181.924 275.169C181.95 275.138 181.969 275.101 181.978 275.061C181.986 275.02 181.985 274.979 181.974 274.939C181.866 274.5 180.837 273.902 179.814 273.319C177.503 271.973 174.342 270.122 175.494 266.839C177.582 260.856 174.256 259.286 174.112 259.221C174.025 259.182 173.957 259.11 173.924 259.021C173.89 258.932 173.893 258.833 173.932 258.746C173.951 258.704 173.978 258.665 174.011 258.633C174.045 258.601 174.085 258.575 174.128 258.559C174.172 258.542 174.218 258.534 174.265 258.535C174.311 258.537 174.357 258.547 174.4 258.566C174.443 258.566 178.489 260.431 176.171 267.077C175.221 269.813 177.971 271.397 180.174 272.707C181.456 273.427 182.464 274.039 182.644 274.773C182.676 274.907 182.681 275.045 182.658 275.18C182.634 275.315 182.583 275.444 182.507 275.558C182.477 275.605 182.437 275.643 182.389 275.671C182.342 275.698 182.288 275.714 182.233 275.717Z" fill="#6C5DD3"/>
<path d="M176.294 275.716C176.239 275.716 176.185 275.703 176.136 275.68C172.241 273.765 172.593 270.907 172.91 268.387C172.91 268.128 172.975 267.868 173.004 267.609C173.205 265.701 172.788 263.894 171.938 263.008C171.741 262.793 171.497 262.625 171.225 262.519C170.953 262.413 170.66 262.371 170.369 262.396C170.321 262.399 170.274 262.393 170.229 262.377C170.184 262.362 170.143 262.338 170.108 262.306C170.072 262.275 170.043 262.237 170.023 262.194C170.002 262.152 169.99 262.105 169.987 262.058C169.984 262.011 169.991 261.963 170.006 261.919C170.021 261.874 170.046 261.832 170.077 261.797C170.108 261.762 170.147 261.733 170.189 261.712C170.232 261.691 170.278 261.679 170.325 261.676C170.725 261.643 171.128 261.7 171.502 261.845C171.876 261.99 172.212 262.218 172.485 262.512C173.688 263.764 173.925 266.004 173.745 267.688C173.745 267.948 173.688 268.214 173.652 268.48C173.342 270.979 173.047 273.348 176.481 275.032C176.566 275.076 176.63 275.151 176.66 275.241C176.69 275.331 176.683 275.43 176.64 275.515C176.61 275.58 176.561 275.635 176.499 275.671C176.437 275.707 176.366 275.723 176.294 275.716Z" fill="#6C5DD3"/>
<path d="M143.438 275.357H153.021C153.468 275.359 153.911 275.271 154.323 275.097C154.734 274.924 155.107 274.668 155.417 274.346C155.727 274.025 155.969 273.643 156.128 273.225C156.286 272.808 156.359 272.362 156.34 271.915L156.002 262.325C155.961 261.398 155.564 260.522 154.893 259.881C154.222 259.24 153.33 258.882 152.402 258.883H142.847C142.4 258.881 141.958 258.969 141.546 259.143C141.134 259.317 140.762 259.572 140.451 259.894C140.141 260.216 139.899 260.597 139.741 261.015C139.582 261.433 139.51 261.878 139.528 262.325L139.874 271.915C139.914 272.836 140.307 273.706 140.97 274.347C141.633 274.987 142.516 275.349 143.438 275.357Z" fill="white"/>
<path d="M153.022 275.717H143.439C142.424 275.709 141.451 275.311 140.721 274.607C139.991 273.902 139.559 272.944 139.515 271.93L139.169 262.339C139.149 261.844 139.229 261.35 139.405 260.887C139.581 260.424 139.849 260.001 140.193 259.645C140.536 259.288 140.949 259.005 141.406 258.812C141.862 258.619 142.353 258.521 142.848 258.523H152.432C153.448 258.532 154.423 258.93 155.154 259.636C155.886 260.342 156.318 261.302 156.363 262.318L156.701 271.901C156.723 272.396 156.643 272.891 156.468 273.355C156.292 273.818 156.024 274.241 155.68 274.598C155.336 274.955 154.923 275.238 154.466 275.431C154.009 275.623 153.518 275.72 153.022 275.717ZM142.848 259.243C142.449 259.241 142.054 259.32 141.686 259.475C141.318 259.63 140.986 259.859 140.709 260.146C140.433 260.434 140.217 260.774 140.076 261.148C139.935 261.521 139.872 261.919 139.889 262.318L140.235 271.901C140.27 272.73 140.622 273.513 141.218 274.089C141.815 274.665 142.61 274.99 143.439 274.997H153.022C153.421 275 153.816 274.923 154.184 274.768C154.551 274.614 154.884 274.386 155.16 274.099C155.437 273.812 155.653 273.472 155.794 273.099C155.935 272.726 155.999 272.328 155.981 271.93L155.643 262.339C155.604 261.511 155.25 260.729 154.653 260.153C154.056 259.577 153.261 259.252 152.432 259.243H142.848Z" fill="#6C5DD3"/>
<path d="M148.004 269.345C147.412 269.34 146.844 269.108 146.418 268.697C145.992 268.285 145.74 267.726 145.714 267.135C145.704 266.844 145.752 266.555 145.855 266.284C145.959 266.012 146.117 265.765 146.318 265.556C146.52 265.347 146.762 265.181 147.029 265.067C147.296 264.954 147.584 264.895 147.874 264.896C148.468 264.9 149.038 265.133 149.465 265.546C149.893 265.959 150.145 266.52 150.171 267.113C150.181 267.403 150.132 267.691 150.028 267.962C149.924 268.232 149.766 268.479 149.565 268.687C149.363 268.895 149.122 269.061 148.855 269.174C148.588 269.287 148.301 269.345 148.011 269.345H148.004ZM147.867 265.616C147.673 265.615 147.481 265.654 147.302 265.73C147.124 265.806 146.962 265.918 146.828 266.057C146.693 266.197 146.589 266.363 146.52 266.544C146.451 266.726 146.419 266.919 146.427 267.113C146.447 267.519 146.622 267.901 146.915 268.182C147.208 268.464 147.598 268.622 148.004 268.625C148.197 268.625 148.389 268.586 148.567 268.511C148.745 268.435 148.906 268.325 149.04 268.186C149.175 268.047 149.28 267.882 149.349 267.701C149.418 267.521 149.451 267.328 149.444 267.135C149.426 266.728 149.252 266.343 148.958 266.061C148.665 265.778 148.274 265.619 147.867 265.616Z" fill="#6C5DD3"/>
<path d="M147.708 261.115C147.115 261.11 146.546 260.877 146.12 260.464C145.693 260.052 145.442 259.491 145.418 258.898C145.416 258.851 145.424 258.803 145.44 258.759C145.456 258.715 145.481 258.674 145.513 258.639C145.546 258.604 145.584 258.576 145.627 258.556C145.67 258.536 145.717 258.525 145.764 258.523C145.858 258.525 145.949 258.562 146.017 258.628C146.085 258.693 146.126 258.782 146.131 258.876C146.151 259.283 146.326 259.666 146.618 259.948C146.911 260.231 147.301 260.39 147.708 260.395C147.902 260.396 148.094 260.357 148.273 260.281C148.451 260.205 148.613 260.093 148.747 259.954C148.882 259.814 148.986 259.648 149.055 259.467C149.124 259.285 149.156 259.092 149.148 258.898C149.146 258.851 149.153 258.803 149.17 258.759C149.186 258.715 149.211 258.674 149.243 258.639C149.275 258.604 149.314 258.576 149.357 258.556C149.4 258.536 149.446 258.525 149.493 258.523C149.589 258.523 149.681 258.56 149.751 258.625C149.82 258.691 149.862 258.781 149.868 258.876C149.879 259.166 149.831 259.456 149.727 259.727C149.623 259.998 149.466 260.246 149.264 260.455C149.062 260.664 148.821 260.83 148.553 260.944C148.286 261.057 147.998 261.116 147.708 261.115Z" fill="#6C5DD3"/>
<path d="M150.101 275.717C150.008 275.717 149.918 275.681 149.851 275.616C149.784 275.552 149.745 275.464 149.741 275.371C149.722 274.964 149.549 274.58 149.255 274.297C148.962 274.014 148.571 273.855 148.164 273.852C147.971 273.852 147.779 273.891 147.601 273.966C147.423 274.042 147.262 274.152 147.128 274.291C146.993 274.43 146.888 274.595 146.819 274.776C146.749 274.956 146.717 275.149 146.724 275.342C146.726 275.39 146.719 275.437 146.702 275.481C146.686 275.526 146.661 275.566 146.629 275.601C146.597 275.636 146.558 275.664 146.515 275.684C146.472 275.704 146.426 275.715 146.378 275.717C146.331 275.719 146.285 275.711 146.241 275.695C146.197 275.678 146.156 275.653 146.122 275.621C146.088 275.589 146.061 275.55 146.041 275.507C146.022 275.464 146.012 275.418 146.011 275.371C146.001 275.081 146.049 274.791 146.152 274.52C146.256 274.249 146.414 274.001 146.615 273.792C146.817 273.583 147.059 273.417 147.326 273.303C147.593 273.19 147.881 273.132 148.171 273.132C148.764 273.137 149.333 273.369 149.76 273.78C150.187 274.191 150.44 274.75 150.468 275.342C150.47 275.39 150.462 275.438 150.446 275.483C150.429 275.528 150.403 275.569 150.37 275.604C150.337 275.638 150.298 275.666 150.254 275.686C150.21 275.705 150.163 275.716 150.115 275.717H150.101Z" fill="#6C5DD3"/>
<path d="M143.525 273.463C142.933 273.458 142.366 273.226 141.94 272.815C141.514 272.404 141.262 271.844 141.236 271.253C141.225 270.963 141.273 270.673 141.377 270.402C141.481 270.131 141.638 269.883 141.84 269.674C142.041 269.465 142.283 269.299 142.551 269.185C142.818 269.072 143.105 269.013 143.396 269.014C143.989 269.019 144.557 269.25 144.984 269.662C145.412 270.073 145.665 270.632 145.693 271.224C145.704 271.515 145.656 271.806 145.552 272.078C145.448 272.35 145.29 272.598 145.088 272.808C144.885 273.017 144.642 273.183 144.374 273.295C144.105 273.408 143.817 273.465 143.525 273.463ZM143.389 269.734C143.195 269.733 143.004 269.772 142.826 269.848C142.647 269.923 142.486 270.034 142.352 270.173C142.219 270.313 142.115 270.478 142.047 270.658C141.979 270.839 141.948 271.031 141.956 271.224C141.972 271.63 142.145 272.015 142.437 272.298C142.729 272.58 143.119 272.74 143.525 272.743C143.719 272.743 143.91 272.705 144.088 272.629C144.266 272.554 144.428 272.443 144.562 272.304C144.696 272.165 144.801 272 144.871 271.819C144.94 271.639 144.972 271.446 144.965 271.253C144.947 270.846 144.773 270.462 144.48 270.179C144.187 269.896 143.796 269.737 143.389 269.734Z" fill="#6C5DD3"/>
<path d="M143.231 265.226C142.639 265.221 142.071 264.989 141.645 264.578C141.219 264.167 140.967 263.608 140.941 263.016C140.929 262.725 140.976 262.435 141.078 262.163C141.181 261.891 141.338 261.642 141.539 261.432C141.741 261.224 141.983 261.059 142.25 260.946C142.517 260.834 142.804 260.776 143.094 260.777C143.688 260.782 144.258 261.015 144.685 261.427C145.112 261.84 145.365 262.401 145.391 262.994C145.401 263.284 145.352 263.573 145.248 263.843C145.143 264.114 144.986 264.36 144.784 264.569C144.583 264.777 144.341 264.942 144.075 265.055C143.808 265.168 143.521 265.227 143.231 265.226ZM143.094 261.497C142.901 261.497 142.709 261.535 142.531 261.611C142.353 261.686 142.192 261.797 142.057 261.936C141.923 262.077 141.819 262.243 141.751 262.425C141.683 262.607 141.653 262.8 141.661 262.994C141.68 263.399 141.853 263.782 142.145 264.063C142.437 264.345 142.826 264.503 143.231 264.506C143.424 264.507 143.616 264.468 143.794 264.392C143.972 264.317 144.133 264.206 144.267 264.067C144.402 263.928 144.507 263.763 144.576 263.583C144.645 263.402 144.678 263.209 144.671 263.016C144.653 262.609 144.479 262.225 144.185 261.942C143.892 261.659 143.501 261.5 143.094 261.497Z" fill="#6C5DD3"/>
<path d="M152.777 273.463C152.184 273.458 151.616 273.227 151.188 272.815C150.761 272.404 150.508 271.845 150.48 271.253C150.469 270.962 150.517 270.671 150.621 270.399C150.725 270.127 150.882 269.878 151.085 269.669C151.287 269.461 151.529 269.296 151.796 269.183C152.063 269.071 152.35 269.013 152.64 269.014C153.233 269.019 153.801 269.25 154.229 269.662C154.656 270.073 154.909 270.632 154.937 271.224C154.948 271.515 154.9 271.806 154.796 272.078C154.693 272.35 154.535 272.598 154.332 272.808C154.13 273.016 153.888 273.181 153.621 273.294C153.354 273.406 153.067 273.464 152.777 273.463ZM152.64 269.734C152.447 269.734 152.255 269.772 152.077 269.848C151.899 269.923 151.738 270.034 151.604 270.173C151.469 270.312 151.364 270.477 151.295 270.658C151.226 270.838 151.193 271.031 151.2 271.224C151.217 271.632 151.39 272.017 151.684 272.3C151.977 272.583 152.369 272.742 152.777 272.743C152.97 272.743 153.162 272.705 153.34 272.629C153.518 272.554 153.679 272.443 153.813 272.304C153.948 272.165 154.053 272 154.122 271.819C154.191 271.639 154.224 271.446 154.217 271.253C154.197 270.847 154.022 270.463 153.73 270.181C153.437 269.899 153.047 269.739 152.64 269.734Z" fill="#6C5DD3"/>
<path d="M152.482 265.226C151.888 265.223 151.319 264.992 150.891 264.58C150.464 264.169 150.211 263.608 150.185 263.016C150.174 262.725 150.222 262.436 150.326 262.165C150.43 261.893 150.587 261.646 150.789 261.437C150.991 261.228 151.232 261.061 151.5 260.948C151.767 260.835 152.055 260.776 152.345 260.776C152.938 260.781 153.507 261.015 153.933 261.427C154.36 261.84 154.611 262.401 154.635 262.994C154.644 263.284 154.596 263.572 154.491 263.843C154.387 264.113 154.23 264.36 154.028 264.568C153.826 264.776 153.585 264.942 153.318 265.055C153.051 265.168 152.764 265.226 152.475 265.226H152.482ZM152.345 261.496C152.151 261.496 151.959 261.535 151.78 261.611C151.602 261.687 151.44 261.798 151.306 261.938C151.171 262.078 151.067 262.244 150.998 262.425C150.929 262.607 150.897 262.8 150.905 262.994C150.925 263.4 151.1 263.782 151.393 264.063C151.686 264.344 152.076 264.503 152.482 264.506C152.675 264.506 152.867 264.467 153.045 264.392C153.223 264.316 153.384 264.206 153.518 264.067C153.653 263.927 153.758 263.763 153.827 263.582C153.896 263.402 153.929 263.209 153.922 263.016C153.902 262.609 153.727 262.226 153.434 261.944C153.141 261.661 152.752 261.501 152.345 261.496Z" fill="#6C5DD3"/>
<path d="M112.866 275.357H122.457C122.904 275.359 123.346 275.271 123.758 275.097C124.17 274.923 124.542 274.668 124.853 274.346C125.163 274.025 125.405 273.643 125.563 273.225C125.722 272.808 125.794 272.362 125.776 271.915L125.43 262.325C125.389 261.398 124.992 260.522 124.321 259.881C123.651 259.24 122.758 258.882 121.83 258.883H112.276C111.829 258.882 111.387 258.971 110.976 259.145C110.565 259.319 110.194 259.575 109.884 259.897C109.575 260.218 109.334 260.599 109.176 261.016C109.017 261.434 108.945 261.879 108.964 262.325L109.302 271.915C109.343 272.836 109.735 273.706 110.398 274.347C111.061 274.987 111.944 275.349 112.866 275.357Z" fill="white"/>
<path d="M122.459 275.717H112.869C111.855 275.707 110.883 275.309 110.153 274.605C109.423 273.9 108.991 272.943 108.945 271.93L108.607 262.339C108.586 261.845 108.666 261.352 108.842 260.889C109.017 260.426 109.284 260.004 109.628 259.647C109.971 259.291 110.382 259.007 110.838 258.814C111.294 258.621 111.784 258.522 112.279 258.523H121.869C122.885 258.532 123.859 258.93 124.589 259.637C125.32 260.343 125.751 261.303 125.793 262.318L126.139 271.901C126.16 272.396 126.081 272.891 125.905 273.355C125.73 273.818 125.462 274.241 125.118 274.598C124.773 274.955 124.36 275.238 123.903 275.431C123.446 275.623 122.955 275.72 122.459 275.717ZM112.279 259.243C111.876 259.239 111.477 259.316 111.106 259.471C110.735 259.626 110.399 259.854 110.119 260.143C109.842 260.429 109.627 260.768 109.486 261.139C109.345 261.51 109.281 261.907 109.298 262.303L109.636 271.887C109.673 272.715 110.026 273.497 110.622 274.073C111.218 274.649 112.012 274.974 112.84 274.983H122.431C122.829 274.986 123.225 274.908 123.592 274.754C123.96 274.599 124.292 274.372 124.569 274.085C124.846 273.798 125.062 273.458 125.203 273.085C125.344 272.712 125.407 272.314 125.39 271.915L125.044 262.325C125.009 261.497 124.657 260.713 124.061 260.137C123.464 259.561 122.669 259.236 121.84 259.229L112.279 259.243Z" fill="#6C5DD3"/>
<path d="M122.458 275.717C122.365 275.717 122.276 275.681 122.209 275.617C122.142 275.552 122.102 275.464 122.098 275.371L121.508 258.898C121.508 258.802 121.546 258.711 121.613 258.643C121.681 258.576 121.772 258.538 121.868 258.538C121.963 258.538 122.055 258.576 122.122 258.643C122.19 258.711 122.228 258.802 122.228 258.898L122.818 275.364C122.82 275.411 122.813 275.458 122.796 275.503C122.78 275.547 122.755 275.588 122.723 275.623C122.691 275.658 122.652 275.686 122.609 275.706C122.566 275.725 122.52 275.737 122.473 275.738L122.458 275.717Z" fill="#6C5DD3"/>
<path d="M117.663 275.717C117.57 275.717 117.481 275.681 117.414 275.617C117.347 275.552 117.307 275.464 117.303 275.371L116.713 258.898C116.713 258.802 116.751 258.711 116.818 258.643C116.886 258.576 116.977 258.538 117.073 258.538C117.168 258.538 117.26 258.576 117.327 258.643C117.395 258.711 117.433 258.802 117.433 258.898L118.023 275.364C118.025 275.411 118.018 275.458 118.001 275.503C117.985 275.547 117.96 275.588 117.928 275.623C117.896 275.658 117.857 275.686 117.814 275.706C117.771 275.725 117.725 275.737 117.678 275.738L117.663 275.717Z" fill="#6C5DD3"/>
<path d="M112.866 275.717C112.773 275.717 112.684 275.681 112.617 275.617C112.55 275.552 112.51 275.464 112.506 275.371L111.916 258.898C111.916 258.802 111.954 258.711 112.021 258.643C112.089 258.576 112.181 258.538 112.276 258.538C112.371 258.538 112.463 258.576 112.531 258.643C112.598 258.711 112.636 258.802 112.636 258.898L113.226 275.364C113.228 275.411 113.221 275.458 113.205 275.503C113.188 275.547 113.163 275.588 113.131 275.623C113.099 275.658 113.06 275.686 113.018 275.706C112.975 275.725 112.928 275.737 112.881 275.738L112.866 275.717Z" fill="#6C5DD3"/>
<path d="M227.065 88.6821L228.045 95.7957H183.405L182.425 88.6821H178.609L207.856 300.852H211.679L210.707 293.76H255.347L256.326 300.873H260.142L230.874 88.6821H227.065ZM228.455 98.8053L233.416 134.805H188.776L183.815 98.8053H228.455ZM199.54 212.76L194.579 176.76H239.219L244.18 212.76H199.54ZM244.583 215.762L249.544 251.762H204.904L199.943 215.762H244.583ZM194.183 173.772L189.222 137.772H233.862L238.823 173.772H194.183ZM210.289 290.736L205.329 254.736H249.969L254.929 290.736H210.289Z" fill="#BAB9B9"/>
<path d="M219.599 90.245C219.647 89.6972 219.82 89.1678 220.105 88.6973C220.389 88.2267 220.778 87.8276 221.241 87.5306C221.163 86.2769 220.686 85.0809 219.88 84.1178L231.306 78.8618C232.026 83.1818 232.631 86.5874 235.122 88.4882C233.185 90.2522 229.621 93.4274 224.387 93.7586C219.153 94.0898 219.52 92.0954 219.599 90.245Z" fill="#FFB573"/>
<path d="M215.28 73.5117L216.18 77.7453C216.18 77.7453 214.639 78.4653 213.537 77.9325C213.71 76.3292 214.312 74.8021 215.28 73.5117Z" fill="#ED893E"/>
<path d="M215.228 72.9362C215.278 73.4546 215.048 73.8938 214.717 73.9226C214.386 73.9514 214.062 73.5554 213.997 73.0442C213.932 72.533 214.177 72.0938 214.508 72.065C214.839 72.0362 215.178 72.425 215.228 72.9362Z" fill="#263238"/>
<path d="M213.917 69.1203C213.933 69.167 213.962 69.2085 214 69.2402C214.038 69.2719 214.084 69.2926 214.133 69.3003C214.507 69.3606 214.861 69.5098 215.166 69.7353C215.47 69.9609 215.716 70.2561 215.883 70.5963C215.898 70.6333 215.92 70.6669 215.948 70.6952C215.976 70.7236 216.009 70.7461 216.046 70.7615C216.083 70.7769 216.123 70.7849 216.162 70.7849C216.202 70.785 216.242 70.7772 216.279 70.7619C216.316 70.7469 216.349 70.7247 216.378 70.6966C216.406 70.6686 216.429 70.6352 216.444 70.5984C216.459 70.5615 216.467 70.5221 216.467 70.4822C216.467 70.4423 216.46 70.4027 216.444 70.3659C216.239 69.9331 215.932 69.5564 215.55 69.268C215.167 68.9796 214.721 68.7881 214.248 68.7099C214.17 68.6951 214.089 68.7117 214.023 68.7562C213.957 68.8007 213.911 68.8694 213.896 68.9475C213.888 69.006 213.895 69.0655 213.917 69.1203Z" fill="#263238"/>
<path d="M219.031 63.0792C219.003 63.0886 218.973 63.0886 218.945 63.0792C218.47 62.8392 218.064 62.4841 217.762 62.0464C217.46 61.6087 217.273 61.1024 217.217 60.5736C217.216 60.0378 217.347 59.51 217.598 59.0367C217.849 58.5634 218.213 58.159 218.657 57.8592C218.695 57.8306 218.743 57.8183 218.79 57.8251C218.838 57.8318 218.88 57.8571 218.909 57.8952C218.937 57.9334 218.95 57.9814 218.943 58.0287C218.936 58.076 218.911 58.1186 218.873 58.1472C218.478 58.4126 218.154 58.7719 217.932 59.1928C217.71 59.6137 217.595 60.0832 217.598 60.5592C217.655 61.0274 217.826 61.4744 218.096 61.861C218.366 62.2477 218.727 62.5622 219.146 62.7768C219.187 62.8009 219.217 62.8401 219.229 62.8859C219.241 62.9318 219.235 62.9805 219.211 63.0216C219.189 63.047 219.161 63.0658 219.129 63.076C219.098 63.0861 219.064 63.0873 219.031 63.0792Z" fill="#263238"/>
<path d="M232.401 69.4368C232.624 75.7656 232.645 80.064 229.254 83.1168C222.515 89.1072 217.828 86.0976 215.711 79.9488C213.803 74.412 213.753 64.9944 219.678 61.9488C220.989 61.2751 222.448 60.9439 223.921 60.986C225.394 61.028 226.832 61.442 228.101 62.1893C229.371 62.9367 230.431 63.9931 231.183 65.2603C231.935 66.5275 232.354 67.9642 232.401 69.4368Z" fill="#FFB573"/>
<path d="M214.407 81.9577C214.056 81.7374 213.753 81.4495 213.514 81.1108C213.276 80.7721 213.107 80.3894 213.018 79.9849C212.586 78.4873 215.178 78.0481 215.178 78.0481C215.178 78.0481 215.005 73.5121 216.697 70.9489C216.034 68.6665 216.826 63.3241 220.556 63.7489C220.167 62.7121 218.54 62.5897 218.54 62.5897C218.54 62.5897 216.654 58.5289 221.089 58.2049C225.524 57.8809 227.065 59.1985 226.806 59.7457C232.717 58.9753 238.563 64.5049 235.129 66.3337C239.578 68.9041 234.258 73.4617 233.458 76.6081C232.659 79.7545 231.86 80.9281 230.83 81.5761C228.498 83.0881 226.057 81.9217 223.292 79.7401C221.559 78.1811 220.099 76.3439 218.972 74.3041C218.968 74.3664 218.968 74.4289 218.972 74.4913C218.252 77.7241 220.858 78.6889 221.29 82.8433C221.679 86.5585 219.202 87.1057 214.544 87.0193C209.886 86.9329 214.407 81.9577 214.407 81.9577Z" fill="#263238"/>
<path d="M256.607 224.582L265.543 220.946L270.323 231.278L262.864 234.331L256.607 224.582Z" fill="#FFB573"/>
<path opacity="0.2" d="M256.607 224.589L265.55 220.946L268.221 226.728L260.114 230.04L256.607 224.589Z" fill="black"/>
<path d="M257.203 188.849C253.776 174.449 254.23 152.237 248.75 145.995L218.77 148.032C218.77 148.032 229.966 179.115 234.286 192.24C238.778 205.92 258.362 228.636 258.362 228.636L267.996 224.64C267.996 224.64 262.416 200.283 257.203 188.849Z" fill="#263238"/>
<path d="M229.887 164.974C231.507 170.734 231.276 178.279 230.967 182.491C229.858 179.273 228.648 175.81 227.432 172.368L229.887 164.974Z" fill="black"/>
<path d="M222.478 73.764C221.974 75.1536 220.261 77.112 219.08 76.8096C218.561 76.8096 218.309 75.4704 218.295 74.2392C218.295 72.6768 218.518 70.4664 220.311 70.4448C220.704 70.4471 221.09 70.5466 221.434 70.7346C221.779 70.9225 222.072 71.193 222.287 71.5218C222.502 71.8506 222.631 72.2275 222.665 72.6188C222.698 73.0101 222.634 73.4036 222.478 73.764Z" fill="#FFB573"/>
<path d="M273.397 231.84L271.813 233.208L270.827 232.942L270.553 234.31L260.977 242.59C260.267 241.886 259.755 241.007 259.494 240.041C259.494 240.041 262.129 237.305 262 234.922C261.993 234.833 262.01 234.745 262.051 234.666C262.092 234.587 262.154 234.521 262.23 234.476C263.353 233.856 267.76 231.293 269.2 228.716C269.233 228.653 269.281 228.599 269.34 228.559C269.398 228.519 269.465 228.493 269.536 228.484C269.606 228.475 269.678 228.482 269.744 228.506C269.811 228.53 269.871 228.57 269.92 228.622C270.995 229.783 272.157 230.859 273.397 231.84Z" fill="#6C5DD3"/>
<path d="M215.312 236.743L224.953 236.837L224.586 248.213L216.529 248.148L215.312 236.743Z" fill="#FFB573"/>
<path opacity="0.2" d="M215.312 236.751L224.953 236.845L224.752 243.217L215.997 243.137L215.312 236.751Z" fill="black"/>
<path d="M226.128 193.558C229.498 178.596 233.328 161.986 231.327 147.175L201.807 149.566C201.807 149.566 204.478 181.44 205.198 194.883C205.918 208.887 215.026 241.178 215.026 241.178L226.078 241.2C226.078 241.2 228.353 209.059 226.128 193.558Z" fill="#263238"/>
<path d="M226.13 251.741H223.588L222.969 250.884L221.918 251.748H207.705C207.572 250.771 207.703 249.777 208.086 248.868C208.086 248.868 213.018 248.069 214.934 246.759C215.095 246.645 215.278 246.567 215.471 246.527C215.664 246.487 215.864 246.488 216.057 246.528C217.778 246.86 222.328 247.601 224.79 246.636C224.851 246.619 224.915 246.616 224.977 246.626C225.04 246.636 225.099 246.66 225.151 246.696C225.204 246.731 225.247 246.778 225.28 246.833C225.312 246.887 225.331 246.948 225.338 247.011C225.48 248.605 225.745 250.187 226.13 251.741Z" fill="#6C5DD3"/>
<path d="M212.859 88.6898C221.67 87.043 230.635 86.3742 239.593 86.6954C240.824 86.7666 242.027 87.0884 243.128 87.6411C244.23 88.1938 245.207 88.9657 246 89.9096C246.793 90.8534 247.385 91.9492 247.739 93.1299C248.093 94.3105 248.202 95.551 248.06 96.7754C245.799 118.059 250.127 143.064 250.076 147.233C250.076 147.233 231.356 157.356 200.54 151.135C195.5 125.777 202.758 103.687 206.149 94.457C206.676 92.9992 207.571 91.7022 208.746 90.6918C209.922 89.6814 211.339 88.9918 212.859 88.6898Z" fill="#6C5DD3"/>
<path d="M176.29 98.8559L173.705 101.988C169.997 104.097 168.104 98.8631 168.104 98.8631L166.174 96.7031C165.86 96.3007 165.699 95.8002 165.718 95.2901C165.738 94.78 165.938 94.2935 166.282 93.9167L168.075 91.7135C168.417 91.2394 168.93 90.917 169.505 90.8149C170.08 90.7127 170.673 90.8388 171.157 91.1663L173.122 92.7431C173.695 93.202 174.145 93.7957 174.433 94.4711L176.29 98.8559Z" fill="#FFB573"/>
<path d="M209.519 91.0225L206.97 92.9809C206.099 93.6433 205.221 94.3057 204.335 94.9537C202.564 96.2569 200.807 97.5673 199.021 98.7913C198.129 99.4033 197.236 100.008 196.343 100.591L195.011 101.477L193.679 102.312C192.563 102.989 191.461 103.637 190.381 104.227C189.901 104.078 189.433 103.906 188.977 103.709C187.501 103.118 185.961 102.427 184.42 101.65C182.879 100.872 181.317 100.066 179.761 99.2161L177.4 97.9201L175.125 96.6241L168.645 104.717C169.408 105.48 170.085 106.157 170.805 106.805C171.525 107.453 172.245 108.13 173.008 108.77C174.505 110.052 176.053 111.29 177.681 112.478C179.351 113.704 181.086 114.839 182.879 115.877C184.892 117.07 187.032 118.035 189.258 118.757C190.552 119.163 191.943 119.133 193.218 118.67L193.737 118.483C196.187 117.58 198.577 116.522 200.893 115.315C203.14 114.185 205.213 112.961 207.309 111.715C209.404 110.47 211.398 109.174 213.378 107.827C214.367 107.15 215.346 106.466 216.316 105.775C217.309 105.055 218.224 104.393 219.261 103.615L209.519 91.0225Z" fill="#6C5DD3"/>
<path d="M274.944 128.613L272.697 132.004C271.754 136.166 277.32 136.447 277.32 136.447L279.933 137.671C280.41 137.855 280.936 137.863 281.418 137.696C281.901 137.529 282.308 137.196 282.569 136.756L284.153 134.402C284.51 133.939 284.672 133.353 284.603 132.772C284.535 132.191 284.241 131.659 283.785 131.292L281.705 129.852C281.1 129.444 280.401 129.196 279.674 129.132L274.944 128.613Z" fill="#FFB573"/>
<path d="M272.418 125.28L267.681 121.723L262.986 118.203C261.842 117.339 260.704 116.467 259.617 115.618C258.558 114.048 257.514 112.342 256.478 110.578C255.909 109.606 255.34 108.619 254.786 107.611C254.231 106.603 253.662 105.61 253.108 104.602C251.992 102.579 250.948 100.505 249.861 98.4386C248.774 96.3722 247.701 94.2554 246.7 92.2754L232.451 99.425C233.61 101.722 234.791 103.817 236.001 105.984C237.21 108.151 238.499 110.247 239.81 112.356C241.12 114.466 242.474 116.575 243.942 118.656C245.411 120.737 246.938 122.818 248.687 124.906L249.069 125.359C249.384 125.728 249.75 126.05 250.156 126.317C251.985 127.505 253.756 128.527 255.556 129.55C257.356 130.572 259.156 131.515 260.913 132.466C262.67 133.416 264.513 134.316 266.32 135.195C268.127 136.073 269.92 136.944 271.828 137.765L277.127 128.88C275.586 127.685 273.988 126.49 272.418 125.28Z" fill="#6C5DD3"/>
<path d="M295.244 278.191C295.244 278.191 299.981 267.867 294.574 257.679C289.167 247.491 287.59 245.093 291.039 243.012C294.488 240.931 296.079 251.155 296.079 251.155C296.079 251.155 298.959 244.114 296.59 236.755C294.221 229.397 292.681 217.387 295.957 216.099C299.233 214.81 296.583 231.067 299.427 236.611C300.877 232.72 301.814 228.656 302.213 224.523C302.602 218.604 301.99 209.158 304.582 206.731C307.174 204.305 308.823 206.011 306.281 219.043C304.754 226.849 303.908 234.772 303.754 242.724C303.754 242.724 309.377 225.588 313.114 225.091C316.851 224.595 316.88 230.131 313.647 234.948C310.414 239.765 304.222 248.376 303.207 252.84C303.207 252.84 309.37 239.952 314.921 243.898C320.473 247.843 310.09 255.641 305.468 258.456C300.845 261.271 297.627 278.904 297.627 278.904L295.244 278.191Z" fill="#6C5DD3"/>
<path opacity="0.2" d="M295.244 278.191C295.244 278.191 299.981 267.867 294.574 257.679C289.167 247.491 287.59 245.093 291.039 243.012C294.488 240.931 296.079 251.155 296.079 251.155C296.079 251.155 298.959 244.114 296.59 236.755C294.221 229.397 292.681 217.387 295.957 216.099C299.233 214.81 296.583 231.067 299.427 236.611C300.877 232.72 301.814 228.656 302.213 224.523C302.602 218.604 301.99 209.158 304.582 206.731C307.174 204.305 308.823 206.011 306.281 219.043C304.754 226.849 303.908 234.772 303.754 242.724C303.754 242.724 309.377 225.588 313.114 225.091C316.851 224.595 316.88 230.131 313.647 234.948C310.414 239.765 304.222 248.376 303.207 252.84C303.207 252.84 309.37 239.952 314.921 243.898C320.473 247.843 310.09 255.641 305.468 258.456C300.845 261.271 297.627 278.904 297.627 278.904L295.244 278.191Z" fill="black"/>
<path d="M298.987 282.432C298.987 282.432 294.372 272.028 299.901 261.926C305.431 251.825 307.037 249.449 303.609 247.31C300.182 245.172 298.483 255.382 298.483 255.382C298.483 255.382 295.661 248.304 298.145 240.982C300.629 233.659 302.285 221.671 299.023 220.339C295.761 219.007 298.217 235.301 295.308 240.794C293.903 236.885 293.017 232.809 292.673 228.67C292.349 222.744 293.076 213.305 290.513 210.842C287.949 208.38 286.272 210.036 288.662 223.133C290.095 230.956 290.844 238.889 290.901 246.842C290.901 246.842 285.487 229.627 281.721 229.073C277.956 228.518 277.898 234.062 281.066 238.922C284.234 243.782 290.354 252.494 291.326 256.922C291.326 256.922 285.314 243.962 279.72 247.814C274.125 251.666 284.407 259.622 288.993 262.502C293.58 265.382 296.611 283.08 296.611 283.08L298.987 282.432Z" fill="#6C5DD3"/>
<path d="M315.263 282.973C315.263 293.204 310.655 301.505 296.716 301.505C283.41 301.505 278.176 293.204 278.176 282.973C278.173 279.257 279.29 275.626 281.38 272.554H312.059C314.149 275.626 315.266 279.257 315.263 282.973Z" fill="#6C5DD3"/>
<path opacity="0.7" d="M315.267 282.968C315.267 293.199 310.659 301.501 296.72 301.501C283.414 301.501 278.18 293.199 278.18 282.968C278.177 279.252 279.293 275.622 281.384 272.55H312.063C314.153 275.622 315.27 279.252 315.267 282.968Z" fill="white"/>
</svg>
