<svg width="583" height="429" viewBox="0 0 583 429" fill="none" xmlns="http://www.w3.org/2000/svg">
<g clip-path="url(#clip0_1365_6065)">
<path d="M368.591 56.9184L368.801 63.5084C368.81 63.7365 368.874 63.9591 368.987 64.1574C369.1 64.3557 369.259 64.5241 369.451 64.6484L375.001 68.2484C375.222 68.3905 375.398 68.5914 375.511 68.8285C375.624 69.0655 375.668 69.3293 375.639 69.5902C375.61 69.8511 375.508 70.0986 375.346 70.305C375.184 70.5114 374.967 70.6684 374.721 70.7584L368.521 72.9984C368.302 73.0791 368.106 73.2125 367.951 73.387C367.795 73.5614 367.686 73.7714 367.631 73.9984L366.001 80.3084C365.933 80.5614 365.797 80.7907 365.607 80.9705C365.416 81.1503 365.18 81.2736 364.923 81.3266C364.667 81.3795 364.401 81.36 364.155 81.2703C363.909 81.1805 363.693 81.0241 363.531 80.8184L359.481 75.6084C359.339 75.4283 359.156 75.2851 358.947 75.191C358.738 75.097 358.51 75.0549 358.281 75.0684L351.701 75.4584C351.438 75.4741 351.176 75.4158 350.944 75.2901C350.713 75.1644 350.521 74.9765 350.391 74.7475C350.261 74.5184 350.198 74.2576 350.208 73.9944C350.219 73.7312 350.303 73.4763 350.451 73.2584L354.151 67.7984C354.278 67.6075 354.357 67.3892 354.383 67.1615C354.409 66.9337 354.381 66.7031 354.301 66.4884L351.901 60.3484C351.805 60.1037 351.779 59.8371 351.827 59.5787C351.875 59.3202 351.994 59.0802 352.17 58.8858C352.347 58.6913 352.575 58.5501 352.828 58.4782C353.08 58.4062 353.348 58.4063 353.601 58.4784L359.941 60.3084C360.159 60.3715 360.39 60.3808 360.613 60.3356C360.836 60.2903 361.044 60.1918 361.221 60.0484L366.321 55.8684C366.526 55.7144 366.769 55.6188 367.024 55.5919C367.279 55.5649 367.537 55.6075 367.77 55.7152C368.002 55.8229 368.202 55.9916 368.346 56.2034C368.491 56.4153 368.575 56.6624 368.591 56.9184Z" fill="#B5179E" stroke="#931080" stroke-miterlimit="10"/>
<path d="M513.001 120.249L517.841 124.729C518.011 124.882 518.215 124.993 518.435 125.052C518.656 125.111 518.888 125.117 519.111 125.069L525.541 123.619C525.803 123.554 526.078 123.565 526.333 123.652C526.588 123.738 526.813 123.896 526.982 124.106C527.15 124.317 527.255 124.571 527.283 124.839C527.311 125.107 527.262 125.378 527.141 125.619L524.381 131.619C524.285 131.825 524.239 132.053 524.25 132.281C524.26 132.509 524.326 132.731 524.441 132.929L527.811 138.599C527.946 138.825 528.014 139.084 528.009 139.348C528.003 139.611 527.924 139.867 527.781 140.088C527.637 140.308 527.435 140.484 527.196 140.596C526.958 140.707 526.693 140.75 526.431 140.719L519.891 139.949C519.664 139.92 519.432 139.948 519.218 140.03C519.003 140.112 518.812 140.245 518.661 140.419L514.311 145.369C514.14 145.569 513.915 145.717 513.663 145.796C513.411 145.874 513.142 145.88 512.887 145.812C512.632 145.744 512.401 145.605 512.221 145.412C512.042 145.218 511.92 144.978 511.871 144.719L510.581 138.249C510.533 138.028 510.433 137.821 510.288 137.647C510.144 137.473 509.96 137.336 509.751 137.249L503.751 134.639C503.508 134.538 503.297 134.37 503.145 134.155C502.992 133.94 502.904 133.686 502.889 133.423C502.874 133.159 502.934 132.897 503.062 132.666C503.19 132.436 503.38 132.246 503.611 132.119L509.371 128.899C509.571 128.785 509.739 128.624 509.863 128.431C509.987 128.238 510.062 128.017 510.081 127.789L510.691 121.229C510.71 120.97 510.8 120.721 510.951 120.51C511.102 120.299 511.308 120.134 511.547 120.033C511.786 119.932 512.048 119.898 512.305 119.936C512.561 119.974 512.802 120.082 513.001 120.249Z" fill="#B5179E" stroke="#931080" stroke-miterlimit="10"/>
<path d="M36.811 77.0587H12.131C8.93082 76.9675 5.89237 75.6321 3.66112 73.3363C1.42986 71.0405 0.181641 67.9652 0.181641 64.7637C0.181641 61.5623 1.42986 58.487 3.66112 56.1912C5.89237 53.8954 8.93082 52.56 12.131 52.4688H36.811" stroke="#BAB9B9" stroke-opacity="0.5" stroke-miterlimit="10"/>
<path d="M36.5213 292.929H31.1413C26.8899 292.929 22.8126 291.24 19.8064 288.234C16.8002 285.228 15.1113 281.151 15.1113 276.899C15.1113 272.648 16.8002 268.57 19.8064 265.564C22.8126 262.558 26.8899 260.869 31.1413 260.869H36.8113" stroke="#BAB9B9" stroke-opacity="0.5" stroke-miterlimit="10"/>
<path d="M412.48 364.479H378.34C369.636 364.479 362.58 371.534 362.58 380.238V380.789C362.58 389.493 369.636 396.548 378.34 396.548H412.48C421.184 396.548 428.24 389.493 428.24 380.789V380.238C428.24 371.534 421.184 364.479 412.48 364.479Z" stroke="#BAB9B9" stroke-opacity="0.5" stroke-miterlimit="10"/>
<path d="M565.24 384.879H515.31C512.284 384.879 509.83 387.332 509.83 390.359V390.549C509.83 393.575 512.284 396.029 515.31 396.029H565.24C568.267 396.029 570.72 393.575 570.72 390.549V390.359C570.72 387.332 568.267 384.879 565.24 384.879Z" stroke="#BAB9B9" stroke-opacity="0.5" stroke-miterlimit="10"/>
<path d="M562.941 49.1788H569.861C571.505 49.1319 573.142 49.4153 574.675 50.0121C576.208 50.6089 577.605 51.507 578.785 52.6533C579.964 53.7996 580.902 55.1709 581.542 56.6859C582.182 58.201 582.512 59.8291 582.512 61.4738C582.512 63.1186 582.182 64.7467 581.542 66.2617C580.902 67.7768 579.964 69.148 578.785 70.2944C577.605 71.4407 576.208 72.3388 574.675 72.9356C573.142 73.5324 571.505 73.8157 569.861 73.7688H562.941" stroke="#BAB9B9" stroke-opacity="0.5" stroke-miterlimit="10"/>
<path d="M531.38 350.409H68.3803C60.0133 350.398 51.9921 347.07 46.0757 341.153C40.1593 335.237 36.8309 327.216 36.8203 318.849V34.9487C36.8283 26.5809 40.1559 18.5581 46.0728 12.6412C51.9897 6.72422 60.0125 3.39661 68.3803 3.38867H531.38C539.748 3.39661 547.771 6.72422 553.688 12.6412C559.605 18.5581 562.932 26.5809 562.94 34.9487V318.849C562.932 327.216 559.605 335.239 553.688 341.156C547.771 347.073 539.748 350.401 531.38 350.409Z" stroke="#BAB9B9" stroke-opacity="0.5" stroke-width="2" stroke-linecap="round" stroke-linejoin="round"/>
<path d="M531.391 25.7783H68.3712C63.3067 25.7783 59.2012 29.8839 59.2012 34.9483V318.848C59.2012 323.913 63.3067 328.018 68.3712 328.018H531.391C536.456 328.018 540.561 323.913 540.561 318.848V34.9483C540.561 29.8839 536.456 25.7783 531.391 25.7783Z" stroke="#BAB9B9" stroke-opacity="0.5" stroke-width="2" stroke-miterlimit="10"/>
<path d="M514.16 229.789V263.209H429.58V144.059" stroke="#BAB9B9" stroke-opacity="0.5" stroke-linecap="round" stroke-linejoin="round"/>
<path d="M514.16 145.479V164.149" stroke="#BAB9B9" stroke-opacity="0.5" stroke-linecap="round" stroke-linejoin="round"/>
<path d="M444.471 128.759H509.351" stroke="#BAB9B9" stroke-opacity="0.5" stroke-linecap="round" stroke-linejoin="round"/>
<path d="M475.922 144.699H493.412" stroke="#BAB9B9" stroke-opacity="0.5" stroke-linecap="round" stroke-linejoin="round"/>
<path d="M475.922 152.889H490.072" stroke="#BAB9B9" stroke-opacity="0.5" stroke-linecap="round" stroke-linejoin="round"/>
<path d="M444.102 193.519H457.002" stroke="#BAB9B9" stroke-opacity="0.5" stroke-linecap="round" stroke-linejoin="round"/>
<path d="M444.102 204.779H451.052" stroke="#BAB9B9" stroke-opacity="0.5" stroke-linecap="round" stroke-linejoin="round"/>
<path d="M529.482 164.148H486.512V229.788H529.482V164.148Z" stroke="#BAB9B9" stroke-opacity="0.5" stroke-linecap="round" stroke-linejoin="round"/>
<path d="M502.262 175.429H514.162" stroke="#BAB9B9" stroke-opacity="0.5" stroke-linecap="round" stroke-linejoin="round"/>
<path d="M507.342 184.229H514.162" stroke="#BAB9B9" stroke-opacity="0.5" stroke-linecap="round" stroke-linejoin="round"/>
<path d="M273.831 215.798C276.371 221.728 261.121 232.798 252.491 227.658C247.561 234.968 232.721 229.948 236.261 225.658C227.011 226.468 216.591 221.658 220.801 213.708C209.331 209.258 214.801 199.078 226.191 198.838C216.351 184.838 224.191 174.268 240.291 175.308C240.121 158.308 261.071 159.038 262.721 176.608C275.001 172.248 285.191 184.888 277.001 194.838C288.231 200.248 283.551 212.168 273.831 215.798Z" stroke="#BAB9B9" stroke-opacity="0.5" stroke-linecap="round" stroke-linejoin="round"/>
<path d="M237.491 184.479H265.801C265.801 184.479 270.101 200.259 263.801 216.569L234.131 216.109C234.131 216.109 242.131 198.719 237.491 184.479Z" stroke="#BAB9B9" stroke-opacity="0.5" stroke-linecap="round" stroke-linejoin="round"/>
<path d="M243.871 192.479H258.281" stroke="#BAB9B9" stroke-opacity="0.5" stroke-linecap="round" stroke-linejoin="round"/>
<path d="M244.791 198.729H255.681" stroke="#BAB9B9" stroke-opacity="0.5" stroke-linecap="round" stroke-linejoin="round"/>
<path d="M244.08 204.699H259.19" stroke="#BAB9B9" stroke-opacity="0.5" stroke-linecap="round" stroke-linejoin="round"/>
<path d="M436.25 137.939C433.07 145.119 421.47 147.739 414.86 143.169C411.79 150.789 397.77 152.459 390.64 148.809C392.76 139.169 387.03 133.339 379.76 133.199C377.63 126.989 379.26 120.139 384.66 117.859C380 108.139 387.92 102.859 396.17 107.319C395.92 97.6889 407.92 87.3189 420.66 97.9289C430.21 90.6789 443.35 101.199 437.47 115.649C448.66 118.429 445.8 139.409 436.25 137.939Z" fill="#4CC9F0" stroke="#4895EF" stroke-miterlimit="10"/>
<path d="M142.112 51.4688H186.932C184.932 65.2487 187.932 87.8387 196.882 105.589H147.512C147.512 105.589 132.942 93.7887 142.112 51.4688Z" stroke="#BAB9B9" stroke-opacity="0.5" stroke-width="2" stroke-linecap="round" stroke-linejoin="round"/>
<path d="M307.89 86.3984L345.25 86.4784C345.25 86.4784 350.68 104.868 338.75 124.738L298.32 123.098C298.32 123.098 310.65 105.248 307.89 86.3984Z" stroke="#BAB9B9" stroke-opacity="0.5" stroke-linecap="round" stroke-linejoin="round"/>
<path d="M314.711 95.3486H339.111" stroke="#BAB9B9" stroke-opacity="0.5" stroke-linecap="round" stroke-linejoin="round"/>
<path d="M315.061 103.529H334.531" stroke="#BAB9B9" stroke-opacity="0.5" stroke-linecap="round" stroke-linejoin="round"/>
<path d="M314.711 114.238H323.911" stroke="#BAB9B9" stroke-opacity="0.5" stroke-linecap="round" stroke-linejoin="round"/>
<path d="M325.99 114.238H332.11" stroke="#BAB9B9" stroke-opacity="0.5" stroke-linecap="round" stroke-linejoin="round"/>
<path d="M208.281 38.7188L282.411 39.7188C282.411 39.7188 287.911 70.2787 276.561 110.009H200.561C200.561 110.009 213.221 75.5887 208.281 38.7188Z" stroke="#BAB9B9" stroke-opacity="0.5" stroke-linecap="round" stroke-linejoin="round"/>
<path d="M249.4 66.748L270.86 67.4081" stroke="#BAB9B9" stroke-opacity="0.5" stroke-linecap="round" stroke-linejoin="round"/>
<path d="M258.592 61.0684L271.742 61.4783" stroke="#BAB9B9" stroke-opacity="0.5" stroke-linecap="round" stroke-linejoin="round"/>
<path d="M268.561 55.748L272.731 55.8781" stroke="#BAB9B9" stroke-opacity="0.5" stroke-linecap="round" stroke-linejoin="round"/>
<path d="M265.361 48.9785L272.731 49.2085" stroke="#BAB9B9" stroke-opacity="0.5" stroke-linecap="round" stroke-linejoin="round"/>
<path d="M268.572 79.3691H247.762V98.6991H268.572V79.3691Z" fill="#4361EE" stroke="#2642C5" stroke-miterlimit="10"/>
<path d="M360.24 146.049H378.63" stroke="#BAB9B9" stroke-opacity="0.5" stroke-linecap="round" stroke-linejoin="round"/>
<path d="M356.281 154.148H374.671" stroke="#BAB9B9" stroke-opacity="0.5" stroke-linecap="round" stroke-linejoin="round"/>
<path d="M353.521 162.859H371.911" stroke="#BAB9B9" stroke-opacity="0.5" stroke-linecap="round" stroke-linejoin="round"/>
<path d="M387.33 166.629C390.69 177.299 374.49 184.409 366.98 173.549C359.27 186.779 328.98 178.479 342.47 162.979C332.94 162.099 334.54 143.619 345.47 145.179C339.75 128.499 362.87 122.389 369.19 136.999C372.189 134.565 375.928 133.225 379.79 133.199C387.06 133.339 392.79 139.199 390.67 148.809C390.53 149.469 390.35 150.139 390.13 150.809C399.58 154.579 394.24 166.039 387.33 166.629Z" stroke="#BAB9B9" stroke-opacity="0.5" stroke-linecap="round" stroke-linejoin="round"/>
<path d="M402.4 111.429H422.14" stroke="#F9F9F9" stroke-linecap="round" stroke-linejoin="round"/>
<path d="M401.91 119.629H418.14" stroke="#F9F9F9" stroke-linecap="round" stroke-linejoin="round"/>
<path d="M401.352 130.619H413.302" stroke="#F9F9F9" stroke-linecap="round" stroke-linejoin="round"/>
<path d="M466.451 147.488H442.23V180.798H466.451V147.488Z" fill="#4361EE" stroke="#2642C5" stroke-linecap="round" stroke-linejoin="round"/>
<path d="M336.791 83.7891L350.811 98.6991L355.521 92.7092L342.081 79.3691L336.791 83.7891Z" fill="#6C5DD3" stroke="#6C5DD3" stroke-miterlimit="10"/>
<path d="M300.641 91.3486L314.711 76.3486L320.131 81.3686L306.311 97.7086L300.641 91.3486Z" fill="#6C5DD3" stroke="#6C5DD3" stroke-miterlimit="10"/>
<path d="M478.682 168.638L484.132 173.328C484.132 173.328 497.452 159.158 497.202 159.158C496.952 159.158 491.142 154.818 491.142 154.818L478.682 168.638Z" fill="#6C5DD3" stroke="#6C5DD3" stroke-miterlimit="10"/>
<path d="M517.611 160.608L523.591 155.488L537.851 170.598L531.271 176.238L517.611 160.608Z" fill="#6C5DD3" stroke="#6C5DD3" stroke-miterlimit="10"/>
<path d="M519.771 86.7088C516.811 94.6477 511.192 101.316 503.87 105.581C496.549 109.845 487.976 111.443 479.61 110.102C471.244 108.761 463.6 104.564 457.978 98.2251C452.356 91.8859 449.103 83.7954 448.771 75.3288C450.684 79.3569 453.557 82.8535 457.137 85.5116C460.718 88.1697 464.896 89.9078 469.305 90.5733C473.714 91.2388 478.219 90.8113 482.425 89.3283C486.63 87.8454 490.407 85.3524 493.423 82.0683C496.44 78.7842 498.603 74.8096 499.724 70.4937C500.845 66.1778 500.889 61.6526 499.852 57.3157C498.815 52.9788 496.729 48.963 493.777 45.621C490.825 42.279 487.097 39.7131 482.921 38.1488C482.221 37.8888 481.531 37.6588 480.831 37.4688C487.094 36.6819 493.454 37.5243 499.296 39.9147C505.137 42.3051 510.263 46.1625 514.178 51.1138C518.093 56.0651 520.663 61.9429 521.641 68.1785C522.62 74.4141 521.972 80.7967 519.761 86.7088H519.771Z" fill="#4CC9F0" stroke="#4895EF" stroke-linecap="round" stroke-linejoin="round"/>
<path d="M139.141 39.2486L144.141 43.5586C144.313 43.707 144.518 43.811 144.74 43.8616C144.961 43.9121 145.192 43.9077 145.411 43.8486L151.791 42.1886C152.045 42.1213 152.314 42.1266 152.566 42.2041C152.818 42.2816 153.043 42.428 153.215 42.6268C153.388 42.8257 153.502 43.0689 153.543 43.3291C153.585 43.5892 153.553 43.8558 153.451 44.0986L150.891 50.1786C150.804 50.3887 150.769 50.6169 150.79 50.8435C150.811 51.07 150.887 51.288 151.011 51.4786L154.561 57.0386C154.701 57.2596 154.776 57.5153 154.779 57.7769C154.782 58.0385 154.712 58.2957 154.578 58.5199C154.443 58.744 154.248 58.9262 154.015 59.0461C153.783 59.166 153.522 59.2188 153.261 59.1986L146.691 58.6486C146.463 58.6273 146.233 58.6627 146.022 58.7517C145.811 58.8407 145.625 58.9805 145.481 59.1586L141.301 64.2486C141.133 64.4505 140.912 64.6017 140.663 64.6855C140.414 64.7693 140.146 64.7824 139.89 64.7234C139.634 64.6643 139.4 64.5354 139.213 64.3509C139.026 64.1665 138.893 63.9337 138.831 63.6786L137.331 57.2586C137.279 57.0348 137.174 56.8269 137.024 56.6527C136.874 56.4785 136.684 56.3433 136.471 56.2586L130.331 53.8586C130.085 53.7632 129.872 53.6011 129.714 53.3905C129.556 53.1799 129.46 52.9293 129.437 52.667C129.414 52.4048 129.465 52.1414 129.584 51.9066C129.703 51.6718 129.886 51.4751 130.111 51.3386L135.751 47.9286C135.948 47.8099 136.113 47.645 136.231 47.448C136.35 47.2511 136.418 47.0281 136.431 46.7986L136.811 40.2186C136.829 39.9571 136.919 39.7057 137.072 39.4926C137.224 39.2796 137.434 39.1133 137.676 39.0126C137.918 38.9118 138.183 38.8806 138.442 38.9222C138.701 38.9639 138.943 39.077 139.141 39.2486Z" fill="#B5179E" stroke="#931080" stroke-miterlimit="10"/>
<path d="M76.66 410.449L83 385.108H144.37L138 410.449M150.65 410.449L217.65 143.288C217.847 142.508 217.888 141.696 217.771 140.899C217.655 140.103 217.382 139.337 216.969 138.645C216.557 137.954 216.012 137.351 215.366 136.87C214.72 136.389 213.986 136.04 213.205 135.844C212.424 135.647 211.612 135.605 210.816 135.722C210.019 135.839 209.253 136.111 208.562 136.524C207.871 136.937 207.267 137.482 206.787 138.128C206.306 138.774 205.957 139.508 205.76 140.288L199.23 166.349H137.85L143.63 143.249C143.827 142.468 143.868 141.656 143.751 140.859C143.635 140.063 143.362 139.297 142.949 138.605C142.537 137.914 141.992 137.311 141.346 136.83C140.7 136.349 139.966 136 139.185 135.803C138.404 135.607 137.592 135.565 136.796 135.682C135.999 135.799 135.233 136.071 134.542 136.484C133.851 136.897 133.247 137.442 132.767 138.088C132.286 138.734 131.937 139.468 131.74 140.249L64 410.449M196.9 175.548L186.61 216.548H125.26L135.55 175.548H196.9ZM184.31 225.748L165.41 301.249H104L123 225.748H184.31ZM146.69 375.928H85.32L101.74 310.419H163.11L146.69 375.928Z" fill="#062A44"/>
<path d="M76.66 410.449L83 385.108H144.37L138 410.449M150.65 410.449L217.65 143.288C217.847 142.508 217.888 141.696 217.771 140.899C217.655 140.103 217.382 139.337 216.969 138.645C216.557 137.954 216.012 137.351 215.366 136.87C214.72 136.389 213.986 136.04 213.205 135.844C212.424 135.647 211.612 135.605 210.816 135.722C210.019 135.839 209.253 136.111 208.562 136.524C207.871 136.937 207.267 137.482 206.787 138.128C206.306 138.774 205.957 139.508 205.76 140.288L199.23 166.349H137.85L143.63 143.249C143.827 142.468 143.868 141.656 143.751 140.859C143.635 140.063 143.362 139.297 142.949 138.605C142.537 137.914 141.992 137.311 141.346 136.83C140.7 136.349 139.966 136 139.185 135.803C138.404 135.607 137.592 135.565 136.796 135.682C135.999 135.799 135.233 136.071 134.542 136.484C133.851 136.897 133.247 137.442 132.767 138.088C132.286 138.734 131.937 139.468 131.74 140.249L64 410.449M196.9 175.548L186.61 216.548H125.26L135.55 175.548H196.9ZM184.31 225.748L165.41 301.249H104L123 225.748H184.31ZM146.69 375.928H85.32L101.74 310.419H163.11L146.69 375.928Z" stroke="#032137" stroke-width="2" stroke-linecap="round" stroke-linejoin="round"/>
<path d="M568.63 323.108C569.46 328.418 563.51 333.768 559.13 335.958C559.13 335.958 554.02 324.528 554.39 324.528C554.76 324.528 563.41 319.618 568.63 323.108Z" fill="#CA0861"/>
<path d="M536.59 415.698C514.69 431.348 486.78 420.698 486.78 420.698V412.528C464.42 412.878 440.78 405.748 440.78 405.748C439.29 388.748 442.1 367.948 443.83 357.358C444.53 353.088 445.06 350.488 445.06 350.488C458.39 346.148 535.34 347.688 535.34 347.688C535.63 350.208 535.85 353.168 536.04 356.428C537.38 379.038 536.59 415.698 536.59 415.698Z" fill="#4361EE"/>
<mask id="mask0_1365_6065" style="mask-type:luminance" maskUnits="userSpaceOnUse" x="440" y="347" width="97" height="78">
<path d="M536.59 415.698C514.69 431.348 486.78 420.698 486.78 420.698V412.528C464.42 412.878 440.78 405.748 440.78 405.748C439.29 388.748 442.1 367.948 443.83 357.358C444.53 353.088 445.06 350.488 445.06 350.488C458.39 346.148 535.34 347.688 535.34 347.688C535.63 350.208 535.85 353.168 536.04 356.428C537.38 379.038 536.59 415.698 536.59 415.698Z" fill="white"/>
</mask>
<g mask="url(#mask0_1365_6065)">
<path d="M537.49 370.879H532.34V376.029H537.49V370.879Z" stroke="#4CC9F0" stroke-width="0.75" stroke-linecap="round" stroke-linejoin="round"/>
<path d="M512.4 370.879H507.25V376.029H512.4V370.879Z" stroke="#4CC9F0" stroke-width="0.75" stroke-linecap="round" stroke-linejoin="round"/>
<path d="M487.32 370.879H482.17V376.029H487.32V370.879Z" stroke="#4CC9F0" stroke-width="0.75" stroke-linecap="round" stroke-linejoin="round"/>
<path d="M462.24 370.879H457.09V376.029H462.24V370.879Z" stroke="#4CC9F0" stroke-width="0.75" stroke-linecap="round" stroke-linejoin="round"/>
<path d="M537.49 402.699H532.34V407.849H537.49V402.699Z" stroke="#4CC9F0" stroke-width="0.75" stroke-linecap="round" stroke-linejoin="round"/>
<path d="M512.4 402.699H507.25V407.849H512.4V402.699Z" stroke="#4CC9F0" stroke-width="0.75" stroke-linecap="round" stroke-linejoin="round"/>
<path d="M487.32 402.699H482.17V407.849H487.32V402.699Z" stroke="#4CC9F0" stroke-width="0.75" stroke-linecap="round" stroke-linejoin="round"/>
<path d="M462.24 402.699H457.09V407.849H462.24V402.699Z" stroke="#4CC9F0" stroke-width="0.75" stroke-linecap="round" stroke-linejoin="round"/>
<path d="M450.72 352.389H440.43V362.679H450.72V352.389Z" stroke="#4CC9F0" stroke-width="0.75" stroke-linecap="round" stroke-linejoin="round"/>
<path d="M476.421 352.389H466.131V362.679H476.421V352.389Z" stroke="#4CC9F0" stroke-width="0.75" stroke-linecap="round" stroke-linejoin="round"/>
<path d="M502.12 352.389H491.83V362.679H502.12V352.389Z" stroke="#4CC9F0" stroke-width="0.75" stroke-linecap="round" stroke-linejoin="round"/>
<path d="M527.821 352.389H517.531V362.679H527.821V352.389Z" stroke="#4CC9F0" stroke-width="0.75" stroke-linecap="round" stroke-linejoin="round"/>
<path d="M450.72 384.219H440.43V394.509H450.72V384.219Z" stroke="#4CC9F0" stroke-width="0.75" stroke-linecap="round" stroke-linejoin="round"/>
<path d="M476.421 384.219H466.131V394.509H476.421V384.219Z" stroke="#4CC9F0" stroke-width="0.75" stroke-linecap="round" stroke-linejoin="round"/>
<path d="M502.12 384.219H491.83V394.509H502.12V384.219Z" stroke="#4CC9F0" stroke-width="0.75" stroke-linecap="round" stroke-linejoin="round"/>
<path d="M527.821 384.219H517.531V394.509H527.821V384.219Z" stroke="#4CC9F0" stroke-width="0.75" stroke-linecap="round" stroke-linejoin="round"/>
<path d="M450.72 416.039H440.43V426.329H450.72V416.039Z" stroke="#4CC9F0" stroke-width="0.75" stroke-linecap="round" stroke-linejoin="round"/>
<path d="M476.421 416.039H466.131V426.329H476.421V416.039Z" stroke="#4CC9F0" stroke-width="0.75" stroke-linecap="round" stroke-linejoin="round"/>
<path d="M502.12 416.039H491.83V426.329H502.12V416.039Z" stroke="#4CC9F0" stroke-width="0.75" stroke-linecap="round" stroke-linejoin="round"/>
<path d="M527.821 416.039H517.531V426.329H527.821V416.039Z" stroke="#4CC9F0" stroke-width="0.75" stroke-linecap="round" stroke-linejoin="round"/>
</g>
<path d="M536.072 356.469C523.227 359.145 510.182 360.753 497.072 361.279C490.332 361.609 483.482 361.699 476.832 361.519C464.532 361.179 452.912 359.909 443.832 357.399C444.532 353.129 445.062 350.529 445.062 350.529C449.782 348.999 462.442 348.189 476.842 347.799C483.422 347.619 490.362 347.529 497.082 347.489C517.252 347.359 535.342 347.729 535.342 347.729C535.662 350.249 535.882 353.249 536.072 356.469Z" fill="#6C5DD3"/>
<path d="M497.111 347.488V361.248C490.371 361.578 483.521 361.668 476.871 361.488V347.798C483.451 347.618 490.391 347.528 497.111 347.488Z" fill="white"/>
<path d="M486.781 412.568L486.991 390.458" stroke="#2542C9" stroke-width="0.75" stroke-linecap="round" stroke-linejoin="round"/>
<path d="M568.631 323.108C568.631 323.108 565.631 323.668 561.181 324.988C553.901 327.09 546.888 330.026 540.281 333.738C539.061 334.438 533.741 340.088 528.431 344.918C524.501 348.498 520.561 351.628 518.311 351.918C506.912 353.613 495.396 354.412 483.871 354.308C481.738 354.308 479.678 354.251 477.691 354.138C466.744 353.805 455.842 352.584 445.091 350.488C445.711 350.488 444.771 341.728 443.881 333.208C443.661 331.028 443.441 328.858 443.241 326.858C442.931 327.068 424.011 313.858 422.381 312.668L422.271 312.588C422.271 312.588 422.361 312.098 422.561 311.208C423.671 306.208 428.061 288.518 436.811 274.918C438.697 271.931 440.886 269.147 443.341 266.608C456.151 253.608 471.241 249.408 486.511 248.228C501.781 247.048 503.591 246.678 503.591 246.678C517.291 251.428 532.591 254.268 543.591 267.468C546.008 270.536 548.114 273.835 549.881 277.318C559.331 294.918 568.631 323.108 568.631 323.108Z" fill="#F72585"/>
<path d="M451.201 286.549C448.951 295.889 444.731 311.619 444.901 328.099C444.901 327.689 424.011 313.849 422.381 312.709L422.561 311.249C429.081 308.179 433.221 310.249 436.811 311.759C444.901 315.069 440.921 288.349 451.061 286.569L451.201 286.549Z" fill="#CA0861"/>
<path d="M528.431 344.918C524.501 348.498 520.561 351.628 518.311 351.918C506.911 353.613 495.396 354.412 483.871 354.308C481.738 354.308 479.678 354.251 477.691 354.138C481.531 348.328 489.691 338.778 501.361 341.008C517.831 344.178 520.881 317.118 517.831 305.608C514.781 294.098 522.501 289.418 522.501 289.418C522.758 296.482 523.638 303.509 525.131 310.418C525.131 310.618 525.221 310.828 525.271 311.038C527.101 319.798 528.001 335.248 528.431 344.918Z" fill="#CA0861"/>
<path d="M549.901 277.359C536.071 273.989 522.491 275.099 516.541 280.899C504.421 292.759 480.881 308.789 467.291 291.579C458.491 280.429 448.841 273.429 436.811 274.959C438.697 271.972 440.885 269.188 443.341 266.649C456.151 253.649 471.241 249.449 486.511 248.269C501.781 247.089 503.591 246.719 503.591 246.719C517.291 251.469 532.591 254.309 543.591 267.509C546.014 270.576 548.127 273.875 549.901 277.359Z" fill="#F6559F"/>
<path d="M525.931 313.968C525.691 312.968 525.481 312.038 525.271 311.078C525.271 310.868 525.171 310.658 525.131 310.458C523.638 303.55 522.758 296.522 522.501 289.458C522.411 286.604 522.465 283.747 522.661 280.898" stroke="#C6065E" stroke-width="0.75" stroke-linecap="round" stroke-linejoin="round"/>
<path d="M528.741 261.398C526.71 263.932 525.253 266.877 524.471 270.028" stroke="#C6065E" stroke-width="0.75" stroke-linecap="round" stroke-linejoin="round"/>
<path d="M487.621 267.248C486.131 274.248 486.771 283.938 486.771 283.938" stroke="#C6065E" stroke-width="0.75" stroke-linecap="round" stroke-linejoin="round"/>
<path d="M444.9 326.018C444.9 306.958 452.9 279.758 452.9 279.758" stroke="#C6065E" stroke-width="0.75" stroke-linecap="round" stroke-linejoin="round"/>
<path d="M477.541 248.248C472.331 248.248 471.101 262.298 473.361 269.178C475.231 274.878 483.361 264.878 489.501 258.898L477.541 248.248Z" fill="white"/>
<path d="M486.092 258.358C492.382 264.578 498.412 271.668 500.932 270.658C503.452 269.648 509.802 251.418 507.992 247.158C507.415 245.874 506.578 244.722 505.536 243.776C504.493 242.829 503.266 242.109 501.932 241.658L486.092 258.358Z" fill="white"/>
<path d="M487.622 258.688C498.622 256.408 501.932 241.688 501.932 241.688C486.572 241.688 477.542 248.297 477.542 248.297C477.542 248.297 475.732 261.157 487.622 258.688Z" fill="white"/>
<path d="M444.901 326.018C441.971 315.528 435.391 312.568 430.091 312.018C427.501 311.758 424.884 311.992 422.381 312.708C415.591 338.648 412.861 347.428 421.911 350.138C430.961 352.848 440.261 347.408 444.911 343.338C445.371 334.298 444.901 326.018 444.901 326.018Z" fill="#FEBD9D"/>
<path d="M562.172 351.898C555.672 364.228 547.862 364.728 538.342 362.668C527.932 359.458 534.592 341.758 540.282 333.738C546.888 330.026 553.901 327.09 561.182 324.988C563.742 332.978 567.302 342.188 562.172 351.898Z" fill="#FEBD9D"/>
<path d="M501.53 281.809C497.264 279.277 492.3 278.175 487.364 278.664C482.427 279.153 477.776 281.208 474.09 284.529L475.7 277.689L467.7 275.559C459.76 299.909 465.94 321.199 488.23 320.399L510.7 307.159C510.7 307.159 515.91 289.759 501.53 281.809ZM493.16 309.119H493.06C490.967 309.104 488.932 308.433 487.24 307.201C485.549 305.968 484.287 304.236 483.632 302.248C482.977 300.26 482.962 298.117 483.59 296.12C484.218 294.124 485.456 292.374 487.13 291.119H487.24C489.332 291.135 491.366 291.808 493.056 293.041C494.746 294.274 496.006 296.007 496.66 297.994C497.314 299.981 497.327 302.124 496.7 304.119C496.072 306.115 494.834 307.863 493.16 309.119Z" fill="#F4F4F4" stroke="#BAB9B9" stroke-opacity="0.5" stroke-linecap="round" stroke-linejoin="round"/>
<path d="M493.16 309.118C491.893 310.069 490.417 310.705 488.856 310.973C487.294 311.242 485.691 311.136 484.179 310.663C482.666 310.191 481.288 309.366 480.157 308.256C479.026 307.146 478.174 305.784 477.673 304.28C477.172 302.777 477.036 301.176 477.275 299.61C477.513 298.044 478.121 296.556 479.048 295.271C479.974 293.986 481.193 292.939 482.603 292.217C484.014 291.495 485.576 291.118 487.16 291.118C485.486 292.374 484.248 294.123 483.62 296.12C482.992 298.116 483.007 300.26 483.662 302.247C484.317 304.235 485.579 305.967 487.27 307.2C488.962 308.433 490.997 309.104 493.09 309.118H493.16Z" fill="#BAB9B9" fill-opacity="0.5" stroke="#BAB9B9" stroke-opacity="0.5" stroke-linecap="round" stroke-linejoin="round"/>
<path d="M474.09 284.528C468.46 290.528 464.24 299.698 468.09 310.458" stroke="#BAB9B9" stroke-opacity="0.5" stroke-linecap="round" stroke-linejoin="round"/>
<path d="M504.371 302.249C505.081 288.499 492.451 276.249 476.371 282.769" stroke="#BAB9B9" stroke-opacity="0.5" stroke-linecap="round" stroke-linejoin="round"/>
<path d="M542.229 363.359C540.089 363.359 535.929 362.069 534.679 361.649L534.409 361.559C530.803 360.284 527.37 358.564 524.189 356.439C522.128 355.084 520.163 353.587 518.309 351.959C510.857 345.292 505.063 336.979 501.389 327.679C498.444 327.434 495.602 326.48 493.105 324.899C490.608 323.318 488.53 321.156 487.049 318.599C486.049 316.359 488.129 311.299 488.129 311.299C485.469 308.049 489.189 304.359 491.519 305.349C488.369 300.489 485.949 296.999 489.519 295.089C492.149 293.679 508.519 304.089 512.519 309.089C516.519 314.089 540.329 333.769 540.329 333.769C549.519 341.019 559.689 363.309 542.229 363.359Z" fill="#FEBD9D"/>
<path d="M540.27 333.748C547.27 340.168 548.419 345.628 548.419 345.628" stroke="#EF8A66" stroke-width="0.75" stroke-linecap="round" stroke-linejoin="round"/>
<path d="M487.049 318.599C486.049 316.359 488.129 311.299 488.129 311.299C485.469 308.049 489.189 304.359 491.519 305.349C488.369 300.489 485.949 296.999 489.519 295.089C490.649 294.479 494.339 296.089 498.519 298.459" stroke="#EF8A66" stroke-width="0.75" stroke-linecap="round" stroke-linejoin="round"/>
<path d="M508.75 205.248C508.75 205.248 507.91 215.568 508.57 217.908C508.57 217.908 500.39 223.558 497.17 222.208C497.044 222.155 496.926 222.085 496.82 221.998C493.82 219.718 492.17 204.998 492.17 204.998C492.17 204.998 480.67 203.448 478.47 198.458C478.47 198.458 469.17 199.848 471.47 192.378C470.629 192.742 469.726 192.942 468.81 192.968C468.256 193.02 467.703 192.857 467.266 192.513C466.828 192.168 466.54 191.669 466.46 191.118C465.82 187.898 474.8 187.118 474.8 187.118C472.69 182.488 478.86 179.408 484.94 185.288C482.74 182.018 485.61 179.568 491.48 181.698C497.92 184.038 503.81 190.388 502.36 194.698C502.36 194.698 508.03 194.508 511.1 198.248C514.69 202.618 510.91 204.818 508.75 205.248Z" fill="#7F542D"/>
<path d="M496.821 222.029C493.821 219.749 492.171 205.029 492.171 205.029C492.171 205.029 480.671 203.479 478.471 198.489C478.471 198.489 469.171 199.879 471.471 192.409C470.629 192.772 469.727 192.972 468.811 192.999C470.269 192.087 471.908 191.504 473.615 191.292C475.321 191.079 477.053 191.242 478.691 191.769C486.531 194.589 490.601 195.669 492.911 193.709C495.221 191.749 500.911 194.259 498.721 200.129C496.531 205.999 502.831 200.829 503.991 207.969C504.801 213.049 499.751 219.039 496.821 222.029Z" fill="#704725"/>
<path d="M499.422 199.938C502.602 199.889 505.678 201.076 508.002 203.248" stroke="#A56F42" stroke-width="0.75" stroke-linecap="round" stroke-linejoin="round"/>
<path d="M499.842 202.857C502.952 205.167 504.112 209.577 504.072 212.437" stroke="#A56F42" stroke-width="0.75" stroke-linecap="round" stroke-linejoin="round"/>
<path d="M504.801 230.378C504.801 230.378 503.801 239.578 504.801 243.168C504.801 243.168 501.411 260.488 488.671 261.368C482.161 261.808 478.971 257.748 477.431 253.658C476.514 251.156 476.011 248.522 475.941 245.858C475.941 245.858 468.331 246.558 463.531 237.598C462.051 234.818 461.341 230.858 461.441 226.068C461.506 223.563 461.753 221.067 462.181 218.598C463.887 209.427 467.018 200.58 471.461 192.378C471.611 196.088 475.541 197.488 480.461 195.268C480.461 195.268 479.801 201.558 488.461 199.118C488.461 199.118 488.121 202.978 493.651 201.268C500.171 199.268 494.291 210.748 499.861 218.268C499.861 218.268 505.461 212.168 510.321 215.978C516.431 220.748 510.061 229.118 504.801 230.378Z" fill="#FEBD9D"/>
<path d="M501.621 222.088C503.621 219.288 508.261 217.308 510.491 221.308" stroke="#EF8A66" stroke-width="0.75" stroke-linecap="round" stroke-linejoin="round"/>
<path d="M500.932 224.498C505.572 227.238 507.002 220.568 502.622 220.978" stroke="#EF8A66" stroke-width="0.75" stroke-linecap="round" stroke-linejoin="round"/>
<path d="M469.891 228.158C471.618 228.652 473.467 228.496 475.088 227.718C476.708 226.94 477.986 225.595 478.681 223.938" stroke="#EF8A66" stroke-width="0.75" stroke-linecap="round" stroke-linejoin="round"/>
<path d="M504.801 230.378C502.817 230.683 500.789 230.302 499.051 229.298" stroke="#EF8A66" stroke-width="0.75" stroke-linecap="round" stroke-linejoin="round"/>
<path d="M489.38 229.733C492.566 228.57 494.576 226.059 493.869 224.124C493.163 222.189 490.008 221.562 486.823 222.725C483.637 223.888 481.627 226.399 482.333 228.334C483.04 230.269 486.195 230.895 489.38 229.733Z" fill="#F4AF90"/>
<path d="M466.671 224.248C466.101 225.818 463.931 226.518 461.441 226.118C461.506 223.614 461.753 221.117 462.181 218.648C465.371 219.758 467.371 222.248 466.671 224.248Z" fill="#F4AF90"/>
<path d="M467.291 219.338C466.467 219.583 465.611 219.708 464.751 219.708C463.023 219.713 461.33 219.221 459.874 218.29C458.418 217.359 457.261 216.029 456.541 214.458" stroke="#683F1D" stroke-linecap="round" stroke-linejoin="round"/>
<path d="M473.602 208.958C473.706 209.529 473.76 210.108 473.762 210.688C473.766 211.272 473.709 211.856 473.592 212.428" stroke="#683F1D" stroke-linecap="round" stroke-linejoin="round"/>
<path d="M467.682 212.868C468.472 212.868 469.112 212.228 469.112 211.438C469.112 210.648 468.472 210.008 467.682 210.008C466.892 210.008 466.252 210.648 466.252 211.438C466.252 212.228 466.892 212.868 467.682 212.868Z" fill="#683F1D"/>
<path d="M477.752 214.787C477.75 215.073 477.833 215.352 477.99 215.59C478.147 215.828 478.371 216.014 478.634 216.125C478.897 216.235 479.187 216.265 479.467 216.211C479.747 216.157 480.004 216.02 480.207 215.819C480.409 215.618 480.547 215.362 480.604 215.082C480.66 214.802 480.632 214.512 480.523 214.249C480.415 213.985 480.23 213.76 479.993 213.601C479.756 213.442 479.477 213.357 479.192 213.357C479.003 213.356 478.816 213.392 478.642 213.463C478.467 213.535 478.308 213.64 478.174 213.773C478.041 213.906 477.934 214.064 477.862 214.238C477.789 214.412 477.752 214.599 477.752 214.787Z" fill="#683F1D"/>
<path d="M477.751 210.008C476.051 211.188 474.621 212.218 473.431 213.128C469.791 215.898 468.341 217.598 468.061 219.068C467.851 220.198 468.341 221.208 469.061 222.448" stroke="#EF8A66" stroke-width="0.75" stroke-linecap="round" stroke-linejoin="round"/>
<path d="M480.16 202.568C480.88 201.158 484.97 203.748 485.95 205.738C486.93 207.728 478.94 204.938 480.16 202.568Z" fill="#7F542D"/>
<path d="M468.41 200.488C467.41 201.538 473.811 202.918 474.581 201.288C475.351 199.658 470.1 198.778 468.41 200.488Z" fill="#7F542D"/>
<path d="M478.681 219.618C478.681 219.769 478.621 219.914 478.514 220.021C478.407 220.128 478.262 220.188 478.111 220.188C477.961 220.185 477.817 220.125 477.711 220.018C477.604 219.912 477.544 219.768 477.541 219.618C477.541 219.543 477.556 219.469 477.584 219.4C477.613 219.331 477.655 219.268 477.708 219.215C477.761 219.162 477.824 219.12 477.893 219.091C477.962 219.063 478.036 219.048 478.111 219.048C478.186 219.047 478.261 219.06 478.331 219.089C478.401 219.117 478.464 219.159 478.517 219.212C478.57 219.265 478.612 219.328 478.64 219.398C478.669 219.468 478.682 219.543 478.681 219.618Z" fill="#F4AF90"/>
<path d="M465.37 218.068C465.37 218.181 465.337 218.292 465.274 218.386C465.211 218.48 465.121 218.553 465.016 218.596C464.911 218.638 464.796 218.649 464.686 218.626C464.575 218.604 464.473 218.548 464.394 218.468C464.315 218.387 464.261 218.284 464.24 218.173C464.219 218.062 464.232 217.947 464.277 217.843C464.321 217.739 464.396 217.651 464.491 217.589C464.586 217.528 464.697 217.496 464.81 217.498C464.885 217.498 464.958 217.513 465.027 217.542C465.096 217.57 465.158 217.613 465.21 217.666C465.262 217.719 465.303 217.782 465.331 217.851C465.358 217.92 465.372 217.994 465.37 218.068Z" fill="#F4AF90"/>
<path d="M467.382 215.658C467.382 215.809 467.322 215.954 467.215 216.061C467.108 216.168 466.963 216.228 466.812 216.228C466.661 216.228 466.516 216.168 466.409 216.061C466.302 215.954 466.242 215.809 466.242 215.658C466.242 215.507 466.302 215.362 466.409 215.255C466.516 215.148 466.661 215.088 466.812 215.088C466.963 215.088 467.108 215.148 467.215 215.255C467.322 215.362 467.382 215.507 467.382 215.658Z" fill="#F4AF90"/>
<path d="M481.312 219.618C481.627 219.618 481.882 219.363 481.882 219.048C481.882 218.734 481.627 218.479 481.312 218.479C480.997 218.479 480.742 218.734 480.742 219.048C480.742 219.363 480.997 219.618 481.312 219.618Z" fill="#F4AF90"/>
<path d="M487.171 220.958C487.169 221.108 487.108 221.252 487.001 221.358C486.895 221.464 486.752 221.525 486.601 221.528C486.45 221.528 486.305 221.468 486.198 221.361C486.091 221.254 486.031 221.109 486.031 220.958C486.03 220.883 486.044 220.808 486.072 220.738C486.1 220.668 486.142 220.605 486.195 220.552C486.248 220.498 486.312 220.457 486.382 220.428C486.451 220.4 486.526 220.386 486.601 220.388C486.752 220.388 486.897 220.448 487.004 220.555C487.111 220.662 487.171 220.807 487.171 220.958Z" fill="#F4AF90"/>
<path d="M484.482 221.478C484.482 221.553 484.467 221.626 484.438 221.695C484.409 221.764 484.367 221.826 484.314 221.878C484.261 221.93 484.198 221.971 484.129 221.999C484.06 222.026 483.986 222.04 483.912 222.038C483.799 222.038 483.688 222.005 483.594 221.942C483.5 221.879 483.427 221.789 483.384 221.684C483.341 221.579 483.331 221.464 483.354 221.354C483.376 221.243 483.432 221.141 483.512 221.062C483.593 220.983 483.696 220.929 483.807 220.908C483.918 220.887 484.033 220.9 484.137 220.945C484.241 220.989 484.329 221.064 484.391 221.159C484.452 221.254 484.484 221.365 484.482 221.478Z" fill="#F4AF90"/>
<path d="M481.311 222.448C481.322 222.529 481.315 222.61 481.291 222.688C481.268 222.766 481.228 222.838 481.175 222.899C481.121 222.96 481.055 223.009 480.981 223.043C480.907 223.076 480.827 223.093 480.746 223.093C480.665 223.093 480.584 223.076 480.51 223.043C480.436 223.009 480.37 222.96 480.317 222.899C480.263 222.838 480.224 222.766 480.2 222.688C480.177 222.61 480.17 222.529 480.181 222.448C480.17 222.368 480.177 222.286 480.2 222.208C480.224 222.13 480.263 222.058 480.317 221.997C480.37 221.936 480.436 221.887 480.51 221.854C480.584 221.82 480.665 221.803 480.746 221.803C480.827 221.803 480.907 221.82 480.981 221.854C481.055 221.887 481.121 221.936 481.175 221.997C481.228 222.058 481.268 222.13 481.291 222.208C481.315 222.286 481.322 222.368 481.311 222.448Z" fill="#F4AF90"/>
<path d="M455.721 210.688C455.703 208.898 456.219 207.144 457.202 205.648C458.186 204.153 459.594 202.985 461.245 202.294C462.896 201.603 464.715 201.419 466.471 201.767C468.227 202.115 469.839 202.979 471.101 204.248" stroke="#683F1D" stroke-linecap="round" stroke-linejoin="round"/>
<path d="M482.782 226.518C487.763 226.518 491.802 222.48 491.802 217.499C491.802 212.517 487.763 208.479 482.782 208.479C477.8 208.479 473.762 212.517 473.762 217.499C473.762 222.48 477.8 226.518 482.782 226.518Z" stroke="#683F1D" stroke-linecap="round" stroke-linejoin="round"/>
<path d="M491.801 217.498L499.841 218.228" stroke="#683F1D" stroke-linecap="round" stroke-linejoin="round"/>
<path d="M487.641 241.348C487.641 241.348 487.381 251.348 477.431 253.658C476.515 251.156 476.011 248.521 475.941 245.858C479.211 245.708 485.811 243.398 487.641 241.348Z" fill="#F4A789"/>
<path d="M487.941 187.448C493.051 188.548 498.151 192.378 498.151 195.848" stroke="#A56F42" stroke-width="0.75" stroke-linecap="round" stroke-linejoin="round"/>
<path d="M478.682 189.488C485.252 190.348 493.742 193.648 496.682 197.818" stroke="#A56F42" stroke-width="0.75" stroke-linecap="round" stroke-linejoin="round"/>
<path d="M436.79 336.247C436.19 347.567 420.11 364.497 403.35 329.157C394.63 310.777 393.64 286.567 390.55 267.237C389.394 261.528 387.407 256.019 384.65 250.887C381.39 245.237 373.11 232.947 375.74 232.067C378.37 231.187 386.03 240.067 386.03 240.067C386.03 240.067 377.12 221.817 380.51 221.017C383.9 220.217 391.93 236.497 391.93 236.497C388.67 222.197 387.78 215.057 390.72 214.797C393.21 214.577 397.01 229.117 399.3 235.327C400.14 237.607 401.41 236.707 401.3 234.817C401.19 232.927 398.09 214.707 403.3 219.107C406.9 222.167 409.82 244.627 409.82 244.627C409.82 244.627 412 243.047 413.82 237.917C415.33 233.717 419.72 234.487 418.82 242.497C417.92 250.507 411.67 261.497 411.67 261.497C411.42 267.017 417.06 283.497 419.44 288.347C421.82 293.197 431 313.967 431 313.967C431 313.967 437.41 324.447 436.79 336.247Z" fill="#FEBD9D"/>
<path d="M381.282 245.248C377.762 239.448 373.812 232.658 375.742 232.008C378.382 231.128 386.032 240.008 386.032 240.008C386.032 240.008 377.122 221.758 380.512 220.958C383.902 220.158 391.932 236.438 391.932 236.438C388.672 222.138 387.782 214.998 390.722 214.738C393.212 214.518 397.012 229.058 399.302 235.268C400.142 237.548 401.412 236.648 401.302 234.758C401.192 232.868 398.092 214.648 403.302 219.048C406.902 222.108 409.822 244.568 409.822 244.568C409.822 244.568 412.002 242.988 413.822 237.858C415.332 233.658 419.722 234.428 418.822 242.438C418.372 246.568 416.472 251.488 414.752 255.288" stroke="#EF8A66" stroke-width="0.75" stroke-linecap="round" stroke-linejoin="round"/>
<path d="M389 239.868C392.3 237.488 398.25 237.229 398.25 237.229" stroke="#EF8A66" stroke-width="0.75" stroke-linecap="round" stroke-linejoin="round"/>
<path d="M409.741 244.568C409.741 244.568 402.931 243.568 400.891 250.328" stroke="#EF8A66" stroke-width="0.75" stroke-linecap="round" stroke-linejoin="round"/>
<path d="M437.13 331.248C435.681 325.294 433.627 319.504 431 313.968" stroke="#EF8A66" stroke-width="0.75" stroke-linecap="round" stroke-linejoin="round"/>
<path d="M410.82 238.547C410.82 238.547 417.6 242.547 417.6 242.287C417.6 242.027 426.88 225.157 426.88 225.157L417.77 220.957L410.82 238.547Z" stroke="#BAB9B9" stroke-opacity="0.5" stroke-linecap="round" stroke-linejoin="round"/>
<path d="M398.272 225.818L409.742 222.998L405.312 198.668L393.102 201.318L398.272 225.818Z" stroke="#BAB9B9" stroke-opacity="0.5" stroke-linecap="round" stroke-linejoin="round"/>
<path d="M377.631 199.708L390.311 197.218L395.411 220.048L385.011 221.808L377.631 199.708Z" stroke="#BAB9B9" stroke-opacity="0.5" stroke-linecap="round" stroke-linejoin="round"/>
<path d="M358.461 222.987L369.061 214.737L380.891 233.387L372.391 240.007L358.461 222.987Z" stroke="#BAB9B9" stroke-opacity="0.5" stroke-linecap="round" stroke-linejoin="round"/>
<path d="M273.441 368.619C267.321 380.169 261.621 406.399 259.311 418.219C259.311 418.219 279.311 426.099 311.071 425.009C342.831 423.919 349.251 418.349 349.251 418.349C349.251 418.349 353.061 380.719 343.001 364.819L273.441 368.619Z" fill="#F72585"/>
<mask id="mask1_1365_6065" style="mask-type:luminance" maskUnits="userSpaceOnUse" x="259" y="364" width="91" height="62">
<path d="M273.441 368.619C267.321 380.169 261.621 406.399 259.311 418.219C259.311 418.219 279.311 426.099 311.071 425.009C342.831 423.919 349.251 418.349 349.251 418.349C349.251 418.349 353.061 380.719 343.001 364.819L273.441 368.619Z" fill="white"/>
</mask>
<g mask="url(#mask1_1365_6065)">
<path d="M350.06 373.459H344.91V378.609H350.06V373.459Z" stroke="#EB8BB7" stroke-width="0.75" stroke-linecap="round" stroke-linejoin="round"/>
<path d="M324.98 373.459H319.83V378.609H324.98V373.459Z" stroke="#EB8BB7" stroke-width="0.75" stroke-linecap="round" stroke-linejoin="round"/>
<path d="M299.9 373.459H294.75V378.609H299.9V373.459Z" stroke="#EB8BB7" stroke-width="0.75" stroke-linecap="round" stroke-linejoin="round"/>
<path d="M274.81 373.459H269.66V378.609H274.81V373.459Z" stroke="#EB8BB7" stroke-width="0.75" stroke-linecap="round" stroke-linejoin="round"/>
<path d="M350.06 405.289H344.91V410.439H350.06V405.289Z" stroke="#EB8BB7" stroke-width="0.75" stroke-linecap="round" stroke-linejoin="round"/>
<path d="M324.98 405.289H319.83V410.439H324.98V405.289Z" stroke="#EB8BB7" stroke-width="0.75" stroke-linecap="round" stroke-linejoin="round"/>
<path d="M299.9 405.289H294.75V410.439H299.9V405.289Z" stroke="#EB8BB7" stroke-width="0.75" stroke-linecap="round" stroke-linejoin="round"/>
<path d="M274.81 405.289H269.66V410.439H274.81V405.289Z" stroke="#EB8BB7" stroke-width="0.75" stroke-linecap="round" stroke-linejoin="round"/>
<path d="M263.3 354.969H253.01V365.259H263.3V354.969Z" stroke="#EB8BB7" stroke-width="0.75" stroke-linecap="round" stroke-linejoin="round"/>
<path d="M289.001 354.969H278.711V365.259H289.001V354.969Z" stroke="#EB8BB7" stroke-width="0.75" stroke-linecap="round" stroke-linejoin="round"/>
<path d="M314.7 354.969H304.41V365.259H314.7V354.969Z" stroke="#EB8BB7" stroke-width="0.75" stroke-linecap="round" stroke-linejoin="round"/>
<path d="M340.401 354.969H330.111V365.259H340.401V354.969Z" stroke="#EB8BB7" stroke-width="0.75" stroke-linecap="round" stroke-linejoin="round"/>
<path d="M263.3 386.799H253.01V397.089H263.3V386.799Z" stroke="#EB8BB7" stroke-width="0.75" stroke-linecap="round" stroke-linejoin="round"/>
<path d="M289.001 386.799H278.711V397.089H289.001V386.799Z" stroke="#EB8BB7" stroke-width="0.75" stroke-linecap="round" stroke-linejoin="round"/>
<path d="M314.7 386.799H304.41V397.089H314.7V386.799Z" stroke="#EB8BB7" stroke-width="0.75" stroke-linecap="round" stroke-linejoin="round"/>
<path d="M340.401 386.799H330.111V397.089H340.401V386.799Z" stroke="#EB8BB7" stroke-width="0.75" stroke-linecap="round" stroke-linejoin="round"/>
<path d="M263.3 418.629H253.01V428.919H263.3V418.629Z" stroke="#EB8BB7" stroke-width="0.75" stroke-linecap="round" stroke-linejoin="round"/>
<path d="M289.001 418.629H278.711V428.919H289.001V418.629Z" stroke="#EB8BB7" stroke-width="0.75" stroke-linecap="round" stroke-linejoin="round"/>
<path d="M314.7 418.629H304.41V428.919H314.7V418.629Z" stroke="#EB8BB7" stroke-width="0.75" stroke-linecap="round" stroke-linejoin="round"/>
<path d="M340.401 418.629H330.111V428.919H340.401V418.629Z" stroke="#EB8BB7" stroke-width="0.75" stroke-linecap="round" stroke-linejoin="round"/>
</g>
<path d="M281.791 360.25C281.791 360.25 269.201 370.71 268.541 371.92C260.291 385.09 235.851 395.62 224.261 381.69C209.481 363.91 241.181 349.25 241.181 349.25C241.181 349.25 244.181 343.18 244.281 342.77L277.201 349.25L281.791 360.25Z" fill="#FEBD9D"/>
<path d="M356.382 306.018C355.512 312.528 349.982 352.149 347.232 361.199C344.482 370.249 338.292 373.009 334.762 373.009C332.632 373.009 324.192 373.289 314.162 373.659C307.582 373.889 300.312 374.179 293.712 374.439C277.042 375.099 268.542 371.909 268.542 371.909L268.922 371.199L276.162 357.879C270.983 358.937 265.654 359.028 260.442 358.148C259.092 357.914 257.757 357.603 256.442 357.219C250.512 355.499 246.042 350.488 243.342 346.578C242.207 344.951 241.204 343.236 240.342 341.449C244.78 330.793 249.849 320.411 255.522 310.358C260.052 302.448 263.612 297.419 265.282 295.749C268.592 292.449 278.632 289.469 287.382 287.669L303.242 283.389C303.242 283.389 313.732 257.239 313.732 256.909C313.732 256.579 346.502 247.979 346.502 247.979C352.632 260.464 356.257 274.029 357.172 287.909C357.521 293.956 357.257 300.024 356.382 306.018Z" fill="#4361EE"/>
<path d="M314.161 373.66C307.581 373.89 300.311 374.18 293.711 374.44C277.041 375.1 268.541 371.91 268.541 371.91L268.921 371.2L276.161 357.88C281.187 347.862 285.611 337.554 289.411 327.01C289.491 326.77 289.591 326.54 289.671 326.31C291.077 328.956 291.767 331.924 291.671 334.92C291.461 342.72 276.791 363.24 287.951 367.84C298.741 372.25 307.091 364.75 314.161 373.66Z" fill="#4895EF"/>
<path d="M357.121 287.909C351.941 292.329 346.011 298.749 344.681 305.839C342.191 319.019 324.231 331.619 305.761 316.399C290.371 303.719 278.341 300.289 255.471 310.399C260.001 302.489 263.561 297.459 265.231 295.789C268.541 292.489 278.581 289.509 287.331 287.709L303.191 283.429C303.191 283.429 306.401 227.749 306.401 227.429C306.401 227.109 342.471 235.249 342.471 235.249C350.001 250.869 356.501 277.459 357.121 287.909Z" fill="#4895EF"/>
<path d="M328.191 283.389C330.695 283.156 333.16 282.615 335.531 281.779" stroke="#2542C9" stroke-width="0.75" stroke-linecap="round" stroke-linejoin="round"/>
<path d="M276.16 357.879C281.186 347.862 285.61 337.553 289.41 327.009C289.49 326.769 289.59 326.539 289.67 326.309C290.337 324.423 291.003 322.496 291.67 320.529" stroke="#2542C9" stroke-width="0.75" stroke-linecap="round" stroke-linejoin="round"/>
<path d="M224.28 381.708C213.33 370.258 209.35 350.598 206.92 341.198C203.92 329.728 198.29 297.488 197.61 292.628C196.93 287.768 200.32 272.528 200.32 272.528C203.59 271.318 209.54 273.638 215.32 276.698L213.95 282.578C213.706 286.284 212.826 289.92 211.35 293.328C213.082 294.65 214.528 296.31 215.6 298.208L226.87 295.208C224.52 301.378 221.87 308.888 221.93 311.208C222.06 315.428 225.84 325.078 230.02 331.278C234.2 337.478 241.18 349.248 241.18 349.248C262.49 372.368 247.58 400.558 224.28 381.708Z" fill="#FEBD9D"/>
<path d="M200.29 272.498C200.29 272.498 196.92 287.748 197.59 292.598" stroke="#EF8A66" stroke-width="0.75" stroke-linecap="round" stroke-linejoin="round"/>
<path d="M203.4 250.839C203.4 250.839 207.62 278.148 209.07 287.768C197.27 289.138 192.39 271.498 201.36 265.328C193.25 260.078 193.03 244.399 203.22 242.439C200.79 234.369 213.22 224.189 222.04 229.949C224.9 219.509 240.66 219.059 246.19 227.759L206.63 238.249L207.41 249.578C206 250.008 204.63 250.429 203.4 250.839Z" fill="#B5179E"/>
<path d="M210.261 290.928L210.841 299.418L255.481 287.668C255.481 287.668 257.841 267.908 250.281 229.728C250.101 228.728 249.911 227.818 249.701 226.838L246.191 227.758L243.051 228.598L206.631 238.248L207.411 249.578" fill="#4361EE"/>
<path d="M210.261 290.928L210.841 299.418L255.481 287.668C255.481 287.668 257.841 267.908 250.281 229.728C250.101 228.728 249.911 227.818 249.701 226.838L246.191 227.758L243.051 228.598L206.631 238.248L207.411 249.578" stroke="#2642C5" stroke-linecap="round" stroke-linejoin="round"/>
<path d="M242.38 280.029C242.38 280.029 209.54 291.579 209.54 291.029C209.54 290.939 209.35 289.719 209.07 287.749C207.62 278.129 203.4 250.819 203.4 250.819C204.63 250.409 205.97 249.989 207.4 249.549C219.05 246.019 236.05 241.749 236.05 241.749L242.38 280.029Z" fill="#F6559F"/>
<path d="M211.301 258.269L228.861 253.939" stroke="white" stroke-linecap="round" stroke-linejoin="round"/>
<path d="M212.531 265.238L232.721 260.668" stroke="white" stroke-linecap="round" stroke-linejoin="round"/>
<path d="M216.391 272.168L228.861 269.168" stroke="white" stroke-linecap="round" stroke-linejoin="round"/>
<path d="M199.6 293.138C202.86 286.138 210.22 278.398 213 280.338C215.78 282.278 211.3 293.338 211.3 293.338C214.885 296.145 217.229 300.245 217.83 304.758C217.83 304.758 202.37 311.128 199.6 293.138Z" fill="#FEBD9D"/>
<path d="M199.6 293.138C202.86 286.138 210.22 278.398 213 280.338C215.78 282.278 211.3 293.338 211.3 293.338C214.885 296.145 217.229 300.245 217.83 304.758" stroke="#EF8A66" stroke-width="0.75" stroke-linecap="round" stroke-linejoin="round"/>
<path d="M285.671 156.488C282.321 145.718 280.251 138.298 278.271 133.288C275.521 126.288 278.831 122.218 283.741 132.758C285.911 137.428 288.511 143.158 288.511 143.158C288.511 143.158 296.731 141.758 300.511 144.848C304.291 147.938 307.091 155.158 308.231 167.268C308.231 167.268 316.601 184.328 319.441 190.578C322.281 196.828 335.851 224.298 342.441 235.268C348.531 252.608 311.721 266.418 306.371 227.388C306.371 227.388 299.951 207.728 298.491 200.388C297.031 193.048 291.011 172.688 291.011 172.688C291.011 172.688 280.861 162.288 279.641 160.688C278.421 159.088 273.641 146.798 275.641 145.978C277.641 145.158 280.841 147.608 283.281 155.248L285.671 156.488Z" fill="#FEBD9D"/>
<path d="M279.672 160.688C278.462 159.058 273.672 146.798 275.672 145.978C277.672 145.158 280.872 147.608 283.312 155.248L285.652 156.488C282.302 145.718 280.232 138.298 278.252 133.288C275.502 126.288 278.812 122.218 283.722 132.758C285.892 137.428 288.492 143.158 288.492 143.158C288.492 143.158 294.392 142.158 298.492 143.718" stroke="#EF8A66" stroke-width="0.75" stroke-linecap="round" stroke-linejoin="round"/>
<path d="M288.512 143.158L290.582 147.928" stroke="#EF8A66" stroke-width="0.75" stroke-linecap="round" stroke-linejoin="round"/>
<path d="M293.582 142.869L295.672 147.489" stroke="#EF8A66" stroke-width="0.75" stroke-linecap="round" stroke-linejoin="round"/>
<path d="M298.32 143.619L300.41 148.249" stroke="#EF8A66" stroke-width="0.75" stroke-linecap="round" stroke-linejoin="round"/>
<path d="M334.93 233.619C341.63 231.519 346.93 232.479 348.82 240.459C350.71 248.439 341.91 255.459 332.93 253.649L334.93 233.619Z" fill="#B57724"/>
<path d="M339.709 241.769C339.578 244.127 339.121 246.456 338.349 248.689C336.314 254.234 332.805 259.119 328.199 262.819L324.199 269.499C324.199 269.499 294.349 275.609 294.779 228.859C291.959 225.419 292.859 217.859 301.079 211.859C313.339 202.979 333.649 213.419 330.529 227.609C330.499 227.609 340.429 227.359 339.709 241.769Z" fill="#BF8228"/>
<path d="M297.32 226.749C295.57 220.749 301.13 213.949 303.06 212.979" stroke="#9B621F" stroke-width="0.75" stroke-linecap="round" stroke-linejoin="round"/>
<path d="M338.35 248.689C336.315 254.234 332.805 259.119 328.2 262.819L324.2 269.499C324.2 269.499 294.35 275.609 294.78 228.859L304.78 215.099C304.54 215.679 300.53 234.709 307.78 251.579C313.84 265.759 333.15 256.379 338.35 248.689Z" fill="#B57724"/>
<path d="M328.19 262.838C326.374 268.386 325.466 274.191 325.5 280.028C316.04 284.838 306.45 285.948 296.67 281.798C296.67 281.798 297.2 278.888 297.56 275.718C297.82 273.76 297.924 271.783 297.87 269.808C289.65 269.918 284.11 263.528 283.92 254.138C283.882 251.028 284.331 247.93 285.25 244.958C285.705 243.443 286.252 241.957 286.89 240.508C286.89 240.508 284.96 238.208 285.23 236.458C285.5 234.708 291.03 232.028 291.03 232.028C295.91 222.528 304.77 215.028 304.77 215.028C304.77 215.028 298.09 223.188 299.87 236.348C299.87 236.348 306.94 231.568 308.43 239.908C309.69 246.958 304.11 250.508 302.09 251.538C301.876 251.653 301.655 251.757 301.43 251.848C301.43 251.848 303.19 264.368 314.83 266.088C317.161 266.507 319.553 266.434 321.853 265.874C324.154 265.315 326.312 264.281 328.19 262.838Z" fill="#FEBD9D"/>
<path d="M295.33 232.809C296.12 232.809 296.76 232.169 296.76 231.379C296.76 230.589 296.12 229.949 295.33 229.949C294.541 229.949 293.9 230.589 293.9 231.379C293.9 232.169 294.541 232.809 295.33 232.809Z" fill="#683F1D"/>
<path d="M319.26 227.988C328.67 224.988 331.26 242.438 327.65 248.988C324.57 254.558 311.12 253.538 309.94 243.588C308.76 233.638 317.1 228.678 319.26 227.988Z" fill="#B57724"/>
<path d="M318.081 232.409C319.871 229.409 322.741 230.289 324.241 232.519C325.741 234.749 327.151 241.179 322.181 241.719C316.081 242.379 316.061 235.789 318.081 232.409Z" fill="#BF8228"/>
<path d="M297.6 242.439C300.09 239.179 303.73 238.999 305.05 240.809" stroke="#EF8A66" stroke-width="0.75" stroke-linecap="round" stroke-linejoin="round"/>
<path d="M298.051 241.899C303.421 240.579 302.701 249.509 296.541 246.369" stroke="#EF8A66" stroke-width="0.75" stroke-linecap="round" stroke-linejoin="round"/>
<path d="M302.1 251.578C300.17 252.251 298.09 252.362 296.1 251.898" stroke="#EF8A66" stroke-width="0.75" stroke-linecap="round" stroke-linejoin="round"/>
<path d="M317.569 228.789C317.569 228.789 308.869 239.579 315.499 244.949C322.129 250.319 326.819 243.299 326.819 243.299" stroke="#9B621F" stroke-width="0.75" stroke-linecap="round" stroke-linejoin="round"/>
<path d="M312.45 229.949C309.813 226.103 308.143 221.678 307.58 217.049" stroke="#9B621F" stroke-width="0.75" stroke-linecap="round" stroke-linejoin="round"/>
<path d="M297.669 223.869C298.909 222.189 302.439 225.599 302.439 228.449C302.439 229.889 295.739 226.489 297.669 223.869Z" fill="#BF8228"/>
<path d="M304.779 215.069C304.779 215.069 320.309 206.559 328.649 228.789" stroke="#9B621F" stroke-width="0.75" stroke-linecap="round" stroke-linejoin="round"/>
<path d="M310.359 216.568C313.809 218.748 319.009 225.568 319.009 225.568" stroke="#9B621F" stroke-width="0.75" stroke-linecap="round" stroke-linejoin="round"/>
<path d="M319.301 231.039C318.801 233.419 316.391 240.299 324.881 239.659" stroke="#9B621F" stroke-width="0.75" stroke-linecap="round" stroke-linejoin="round"/>
<path d="M338.689 247.629C338.689 247.629 347.759 243.399 345.479 236.449" stroke="#9B621F" stroke-width="0.75" stroke-linecap="round" stroke-linejoin="round"/>
<path d="M339.68 238.539C341.19 238.069 342.84 234.969 342.84 234.969" stroke="#9B621F" stroke-width="0.75" stroke-linecap="round" stroke-linejoin="round"/>
<path d="M306.051 248.559C308.411 250.559 313.491 260.949 331.791 254.669" stroke="#9B621F" stroke-width="0.75" stroke-linecap="round" stroke-linejoin="round"/>
<path d="M327.18 231.919C337.07 234.039 335.4 244.409 332.93 248.559" stroke="#9B621F" stroke-width="0.75" stroke-linecap="round" stroke-linejoin="round"/>
<path d="M288.331 244.439C288.741 246.129 290.861 247.069 293.071 246.529C295.281 245.989 296.721 244.189 296.311 242.529C295.901 240.869 293.771 239.899 291.571 240.439C289.371 240.979 287.921 242.749 288.331 244.439Z" fill="#F4AF90"/>
<path d="M309.17 260.158C315.17 263.858 325.83 263.228 332.5 258.658" stroke="#9B621F" stroke-width="0.75" stroke-linecap="round" stroke-linejoin="round"/>
<path d="M305.051 217.629C304.051 223.279 305.371 231.869 306.801 234.049" stroke="#9B621F" stroke-width="0.75" stroke-linecap="round" stroke-linejoin="round"/>
<path d="M307.58 246.329C311.12 249.949 319.74 253.799 327.3 249.549" stroke="#9B621F" stroke-width="0.75" stroke-linecap="round" stroke-linejoin="round"/>
<path d="M290.29 247.348C289.637 248.399 288.72 249.26 287.63 249.846C286.541 250.432 285.317 250.723 284.08 250.688C284.223 249.341 284.453 248.005 284.77 246.688C284.86 246.328 284.96 245.948 285.07 245.568C286.542 246.766 288.393 247.398 290.29 247.348Z" fill="white" stroke="#EF8A66" stroke-width="0.75" stroke-linecap="round" stroke-linejoin="round"/>
<path d="M286.901 240.509C286.901 240.509 284.791 237.819 285.241 236.459C285.691 235.099 289.171 232.739 291.041 232.029" stroke="#EF8A66" stroke-width="0.75" stroke-linecap="round" stroke-linejoin="round"/>
<path d="M305 267.519C304.965 269.562 304.186 271.522 302.809 273.032C301.432 274.542 299.551 275.497 297.52 275.719C297.78 273.76 297.883 271.784 297.83 269.809C301.32 270.329 305 267.519 305 267.519Z" fill="#F4A789"/>
<path d="M127.19 81.9678C126.623 81.9324 126.059 81.8623 125.5 81.7578L103.9 110.758L103.27 110.608L88.2001 106.868C83.5001 108.868 81.4801 104.288 82.9401 100.928C82.3801 101.508 78.7201 101.148 80.3701 97.3478C76.9001 98.2478 73.8801 90.5278 78.7001 88.1778C74.5601 88.6578 76.1901 79.4678 80.5901 81.1778C77.1001 78.8978 82.2001 68.9478 88.2001 72.2478C85.9701 69.9678 89.3301 64.7678 93.2001 66.4178C90.6001 62.1678 100.2 54.8178 105.55 61.4778C105.95 58.4778 109.86 57.4278 111.55 60.6878C111.42 56.8978 118.49 55.9778 117.96 62.1278C120.29 59.1278 126.04 64.0378 123.11 68.0078C126.43 64.1978 133.98 69.5778 129.88 74.0978C134.51 75.7678 134.1 82.3378 127.19 81.9678Z" fill="#604730"/>
<path d="M127.19 81.9678C126.623 81.9324 126.058 81.8623 125.5 81.7578L103.9 110.758L103.27 110.608L99.8198 104.838C90.0698 105.578 87.3798 98.9178 91.2298 93.7778C88.2298 92.3378 89.3198 82.1878 95.5298 82.7778C93.8398 79.4278 98.0398 70.0578 107.03 74.3678C108.03 70.4978 114.03 68.8878 117.76 74.3678C119.31 70.9878 128.72 70.8278 127.19 81.9678Z" fill="#473526"/>
<path d="M118.669 128.458C117.279 142.458 96.2392 139.558 97.1492 130.198C97.1669 125.636 96.7821 121.082 95.9992 116.588C90.9992 116.338 88.0792 114.278 88.2492 108.998C88.4192 103.718 94.8492 99.5177 101.779 104.218C102.452 102.49 102.669 100.618 102.408 98.7824C102.147 96.9468 101.417 95.2093 100.289 93.7377C96.3992 88.2477 102.089 81.2477 107.369 81.2477C112.649 81.2477 123.369 81.4977 123.209 75.6377C127.217 82.3597 130.317 89.5823 132.429 97.1177C132.519 97.4277 132.599 97.7377 132.679 98.0477C133.139 99.8277 133.539 101.668 133.849 103.528C133.909 103.868 133.959 104.218 134.019 104.528C134.079 104.838 134.099 105.018 134.129 105.268C136.359 120.368 133.449 129.648 118.669 128.458Z" fill="#B25E47"/>
<path d="M114.9 95.2484C114.898 95.534 114.981 95.8138 115.139 96.0521C115.296 96.2905 115.521 96.4766 115.785 96.5868C116.048 96.6971 116.339 96.7264 116.619 96.6712C116.899 96.6159 117.157 96.4786 117.359 96.2766C117.561 96.0746 117.698 95.8171 117.753 95.5368C117.808 95.2566 117.779 94.9662 117.669 94.7027C117.559 94.4392 117.373 94.2144 117.134 94.0569C116.896 93.8994 116.616 93.8164 116.33 93.8184C115.952 93.821 115.59 93.9725 115.322 94.2401C115.055 94.5077 114.903 94.8699 114.9 95.2484Z" fill="#683F1D"/>
<path d="M124.55 92.3475C124.533 92.546 124.558 92.7458 124.623 92.9342C124.687 93.1227 124.79 93.2957 124.925 93.4423C125.06 93.5889 125.224 93.7059 125.406 93.786C125.589 93.866 125.786 93.9073 125.985 93.9073C126.184 93.9073 126.381 93.866 126.564 93.786C126.746 93.7059 126.91 93.5889 127.045 93.4423C127.18 93.2957 127.283 93.1227 127.347 92.9342C127.412 92.7458 127.437 92.546 127.42 92.3475C127.39 91.9876 127.226 91.6521 126.96 91.4076C126.694 91.1631 126.346 91.0273 125.985 91.0273C125.624 91.0273 125.276 91.1631 125.01 91.4076C124.744 91.6521 124.58 91.9876 124.55 92.3475Z" fill="#683F1D"/>
<path d="M99.8202 112.247C95.7202 114.417 93.5502 108.967 98.4702 108.147C97.8923 107.75 97.2373 107.479 96.5477 107.351C95.8581 107.223 95.1494 107.242 94.4675 107.406C93.7856 107.57 93.1459 107.876 92.5899 108.304C92.0339 108.731 91.5741 109.271 91.2402 109.887" stroke="#934735" stroke-width="0.75" stroke-linecap="round" stroke-linejoin="round"/>
<path d="M121.18 84.7383C120.78 88.0883 120.7 91.8283 121.18 92.3483C121.66 92.8683 127.64 96.9583 128.4 97.4683C129.16 97.9783 127.6 100.198 125.19 101.048" stroke="#934735" stroke-width="0.75" stroke-linecap="round" stroke-linejoin="round"/>
<path d="M107.019 85.9666C111.625 82.1697 116.838 82.641 116.83 84.6332C116.82 88.4184 103.248 89.074 107.019 85.9666Z" fill="#604730"/>
<path d="M123.475 87.9469C122.288 86.4125 127.632 85.1485 128.934 85.9492C130.236 86.7498 125.095 90.107 123.475 87.9469Z" fill="#604730"/>
<path d="M119.05 105.328C118.55 107.438 115.62 108.558 112.51 107.828C109.4 107.098 107.27 104.828 107.76 102.678C108.25 100.528 111.19 99.4485 114.3 100.178C117.41 100.908 119.54 103.248 119.05 105.328Z" fill="#A0503D"/>
<path d="M134.001 104.518C133.365 104.646 132.706 104.603 132.093 104.392C131.48 104.181 130.933 103.81 130.511 103.318C129.281 101.668 130.161 98.9584 132.411 97.0684C132.501 97.3784 132.581 97.6884 132.661 97.9984C133.121 99.7784 133.521 101.618 133.831 103.478C133.911 103.818 134.001 104.168 134.001 104.518Z" fill="#A0503D"/>
<path d="M131.703 108.248C130.862 118.166 120.943 118.892 119 113.57C119 113.57 127.381 112.192 131.703 108.248Z" fill="white" stroke="#934735" stroke-width="1.08755" stroke-linecap="round" stroke-linejoin="round"/>
<path d="M152.308 374.519H152.358C152.358 374.519 156.528 365.689 150.008 361.199C145.118 357.829 134.308 358.489 132.548 355.369C132.088 354.559 136.318 347.069 141.998 337.739C149.538 325.409 159.638 309.869 164.858 302.379C173.998 289.249 179.078 274.989 163.308 258.249C154.188 250.519 140.738 259.999 132.628 281.749C129.708 289.599 119.088 317.529 114.568 329.349C110.568 339.819 107.808 346.649 106.618 348.639C106.428 348.969 106.198 349.369 105.968 349.799C103.188 355.029 97.9676 367.519 100.508 372.919" fill="#B25E47"/>
<path d="M152.358 374.509C152.358 374.509 104.189 378.579 100.509 372.939C96.9785 367.529 104.119 352.939 106.619 348.659C107.809 346.659 110.539 339.839 114.569 329.369C123.249 327.969 133.849 328.689 141.999 337.729C136.319 347.059 132.089 354.549 132.549 355.359C134.309 358.479 145.119 357.819 150.009 361.189C156.529 365.679 152.358 374.509 152.358 374.509Z" fill="#683F1D"/>
<path d="M133.358 356.249C129.658 354.72 126.072 352.929 122.628 350.889C118.138 348.159 111.768 347.969 105.998 349.789C106.218 349.369 106.438 349.009 106.618 348.699C107.808 346.699 110.538 339.879 114.568 329.409C123.248 328.009 133.848 328.729 141.998 337.769C136.318 347.099 132.088 354.589 132.548 355.399C132.75 355.74 133.027 356.03 133.358 356.249Z" fill="white"/>
<path d="M135.299 359.929C140.589 352.579 148.809 348.929 148.919 353.309C149.029 357.689 136.659 361.999 136.659 361.999" stroke="#683F1D" stroke-width="0.75" stroke-linecap="round" stroke-linejoin="round"/>
<path d="M135.299 357.868C134.869 351.718 141.979 342.388 145.089 343.448C149.349 344.908 139.869 355.448 133.959 360.238" stroke="#683F1D" stroke-width="0.75" stroke-linecap="round" stroke-linejoin="round"/>
<path d="M219.73 60.1889C222.31 51.1889 223.02 41.0889 225.73 40.7089C228.44 40.3289 227.46 48.0389 227.46 48.0389L230.05 51.1089L220.94 62.2489L219.73 60.1889Z" fill="#B25E47"/>
<path d="M221.301 53.7587C222.761 46.9487 223.671 40.9987 225.761 40.7587C228.511 40.3787 227.491 48.0887 227.491 48.0887" stroke="#934735" stroke-width="0.75" stroke-linecap="round" stroke-linejoin="round"/>
<path d="M255.15 55.9082C253.248 57.3475 251.243 58.6444 249.15 59.7882C249.15 59.7882 243.51 71.9582 236.4 74.2482C236.4 74.2482 230.6 91.5582 223.4 108.408C216.2 125.258 197.17 141.608 197.17 141.608C171.06 157.508 149.63 126.248 180.87 107.248C184.091 105.139 187.105 102.728 189.87 100.048C207.21 82.8982 234.57 36.3782 237.3 32.1782C240.03 27.9782 242.59 28.8982 240.4 35.2782C238.29 41.4682 236.68 46.2782 236.59 46.5882C237.02 46.1482 248.19 34.9382 250.59 32.9082C252.83 31.0482 256.25 32.7282 252.23 38.7482C256.23 33.5482 260.06 34.1282 256.23 41.4882C253.86 46.0382 248.34 53.0882 248 53.4882C248.53 53.2182 257.46 48.5482 260 49.0782C262.54 49.6082 259.11 53.0482 255.15 55.9082Z" fill="#B25E47"/>
<path d="M225.619 50.9985C231.759 41.2785 236.259 33.7285 237.289 32.1485C240.029 27.9585 242.579 28.8685 240.389 35.2485C238.279 41.4385 236.669 46.2485 236.579 46.5585C237.009 46.1185 248.179 34.9085 250.579 32.8785C252.819 31.0185 256.239 32.6985 252.219 38.7185C256.219 33.5185 260.049 34.0985 256.219 41.4585C253.849 46.0085 248.329 53.0585 247.989 53.4585C248.519 53.1885 257.449 48.5185 259.989 49.0485C262.529 49.5785 258.989 53.0485 255.049 55.8585C253.147 57.2979 251.142 58.5947 249.049 59.7385" stroke="#934735" stroke-width="0.75" stroke-linecap="round" stroke-linejoin="round"/>
<path d="M252.25 38.7188C247.96 44.7188 241.76 51.8288 241.76 51.8288" stroke="#934735" stroke-width="0.75" stroke-linecap="round" stroke-linejoin="round"/>
<path d="M33.1583 314.728C32.4883 318.108 36.5583 324.318 47.0483 327.078L49.7283 308.148C43.718 308.829 37.998 311.1 33.1583 314.728Z" fill="#2542C9"/>
<path d="M43.7095 308.148C43.3395 328.388 42.2095 336.458 42.2095 337.768C42.2095 337.768 28.7095 372.468 24.7695 400.418C24.7695 400.418 32.6495 414.298 55.9095 408.488C55.9095 408.488 72.9795 360.488 76.5395 347.898C80.0995 335.308 80.6695 317.608 80.6695 317.608L43.7095 308.148Z" fill="#B25E47"/>
<path d="M24.7285 183.669C25.258 185.251 26.1013 186.711 27.2078 187.96C28.3143 189.209 29.6614 190.222 31.1685 190.939L36.5285 182.799C32.6013 181.843 28.4731 182.148 24.7285 183.669Z" fill="#CA0861"/>
<path d="M33.0492 180.089C23.8692 193.279 14.1592 208.689 18.2692 221.139C22.3792 233.589 44.7592 236.219 58.4692 221.139L63.4692 186.599L33.0492 180.089Z" fill="#B25E47"/>
<path d="M55.8802 211.559C50.1402 225.559 40.3702 263.919 33.1602 314.729C33.1602 314.729 65.5301 312.729 81.4001 324.609C81.8501 323.859 89.7902 277.609 90.6902 275.939C91.5902 274.269 97.1301 273.999 98.4801 274.889C99.8301 275.779 130.13 294.339 133.48 295.409C152.09 301.249 173 269.879 163.32 258.249C159.19 253.249 147.74 242.379 130.67 213.179L55.8802 211.559Z" fill="#4361EE"/>
<mask id="mask2_1365_6065" style="mask-type:luminance" maskUnits="userSpaceOnUse" x="33" y="211" width="133" height="114">
<path d="M55.8802 211.559C50.1402 225.559 40.3702 263.919 33.1602 314.729C33.1602 314.729 65.5301 312.729 81.4001 324.609C81.8501 323.859 89.7902 277.609 90.6902 275.939C91.5902 274.269 97.1301 273.999 98.4801 274.889C99.8301 275.779 130.13 294.339 133.48 295.409C152.09 301.249 173 269.879 163.32 258.249C159.19 253.249 147.74 242.379 130.67 213.179L55.8802 211.559Z" fill="white"/>
</mask>
<g mask="url(#mask2_1365_6065)">
<path d="M164.42 233.119H159.27V238.269H164.42V233.119Z" stroke="#4CC9F0" stroke-width="0.75" stroke-linecap="round" stroke-linejoin="round"/>
<path d="M139.33 233.119H134.18V238.269H139.33V233.119Z" stroke="#4CC9F0" stroke-width="0.75" stroke-linecap="round" stroke-linejoin="round"/>
<path d="M114.25 233.119H109.1V238.269H114.25V233.119Z" stroke="#4CC9F0" stroke-width="0.75" stroke-linecap="round" stroke-linejoin="round"/>
<path d="M89.1695 233.119H84.0195V238.269H89.1695V233.119Z" stroke="#4CC9F0" stroke-width="0.75" stroke-linecap="round" stroke-linejoin="round"/>
<path d="M64.0797 233.119H58.9297V238.269H64.0797V233.119Z" stroke="#4CC9F0" stroke-width="0.75" stroke-linecap="round" stroke-linejoin="round"/>
<path d="M38.9996 233.119H33.8496V238.269H38.9996V233.119Z" stroke="#4CC9F0" stroke-width="0.75" stroke-linecap="round" stroke-linejoin="round"/>
<path d="M164.42 264.939H159.27V270.089H164.42V264.939Z" stroke="#4CC9F0" stroke-width="0.75" stroke-linecap="round" stroke-linejoin="round"/>
<path d="M139.33 264.939H134.18V270.089H139.33V264.939Z" stroke="#4CC9F0" stroke-width="0.75" stroke-linecap="round" stroke-linejoin="round"/>
<path d="M114.25 264.939H109.1V270.089H114.25V264.939Z" stroke="#4CC9F0" stroke-width="0.75" stroke-linecap="round" stroke-linejoin="round"/>
<path d="M89.1695 264.939H84.0195V270.089H89.1695V264.939Z" stroke="#4CC9F0" stroke-width="0.75" stroke-linecap="round" stroke-linejoin="round"/>
<path d="M64.0797 264.939H58.9297V270.089H64.0797V264.939Z" stroke="#4CC9F0" stroke-width="0.75" stroke-linecap="round" stroke-linejoin="round"/>
<path d="M38.9996 264.939H33.8496V270.089H38.9996V264.939Z" stroke="#4CC9F0" stroke-width="0.75" stroke-linecap="round" stroke-linejoin="round"/>
<path d="M164.42 296.77H159.27V301.92H164.42V296.77Z" stroke="#4CC9F0" stroke-width="0.75" stroke-linecap="round" stroke-linejoin="round"/>
<path d="M139.33 296.77H134.18V301.92H139.33V296.77Z" stroke="#4CC9F0" stroke-width="0.75" stroke-linecap="round" stroke-linejoin="round"/>
<path d="M114.25 296.77H109.1V301.92H114.25V296.77Z" stroke="#4CC9F0" stroke-width="0.75" stroke-linecap="round" stroke-linejoin="round"/>
<path d="M89.1695 296.77H84.0195V301.92H89.1695V296.77Z" stroke="#4CC9F0" stroke-width="0.75" stroke-linecap="round" stroke-linejoin="round"/>
<path d="M64.0797 296.77H58.9297V301.92H64.0797V296.77Z" stroke="#4CC9F0" stroke-width="0.75" stroke-linecap="round" stroke-linejoin="round"/>
<path d="M38.9996 296.77H33.8496V301.92H38.9996V296.77Z" stroke="#4CC9F0" stroke-width="0.75" stroke-linecap="round" stroke-linejoin="round"/>
<path d="M53.1806 214.629H42.8906V224.919H53.1806V214.629Z" stroke="#4CC9F0" stroke-width="0.75" stroke-linecap="round" stroke-linejoin="round"/>
<path d="M78.8799 214.629H68.5898V224.919H78.8799V214.629Z" stroke="#4CC9F0" stroke-width="0.75" stroke-linecap="round" stroke-linejoin="round"/>
<path d="M104.579 214.629H94.2891V224.919H104.579V214.629Z" stroke="#4CC9F0" stroke-width="0.75" stroke-linecap="round" stroke-linejoin="round"/>
<path d="M130.28 214.629H119.99V224.919H130.28V214.629Z" stroke="#4CC9F0" stroke-width="0.75" stroke-linecap="round" stroke-linejoin="round"/>
<path d="M155.979 214.629H145.689V224.919H155.979V214.629Z" stroke="#4CC9F0" stroke-width="0.75" stroke-linecap="round" stroke-linejoin="round"/>
<path d="M53.1806 246.459H42.8906V256.749H53.1806V246.459Z" stroke="#4CC9F0" stroke-width="0.75" stroke-linecap="round" stroke-linejoin="round"/>
<path d="M78.8799 246.459H68.5898V256.749H78.8799V246.459Z" stroke="#4CC9F0" stroke-width="0.75" stroke-linecap="round" stroke-linejoin="round"/>
<path d="M104.579 246.459H94.2891V256.749H104.579V246.459Z" stroke="#4CC9F0" stroke-width="0.75" stroke-linecap="round" stroke-linejoin="round"/>
<path d="M130.28 246.459H119.99V256.749H130.28V246.459Z" stroke="#4CC9F0" stroke-width="0.75" stroke-linecap="round" stroke-linejoin="round"/>
<path d="M155.979 246.459H145.689V256.749H155.979V246.459Z" stroke="#4CC9F0" stroke-width="0.75" stroke-linecap="round" stroke-linejoin="round"/>
<path d="M53.1806 278.279H42.8906V288.569H53.1806V278.279Z" stroke="#4CC9F0" stroke-width="0.75" stroke-linecap="round" stroke-linejoin="round"/>
<path d="M78.8799 278.279H68.5898V288.569H78.8799V278.279Z" stroke="#4CC9F0" stroke-width="0.75" stroke-linecap="round" stroke-linejoin="round"/>
<path d="M104.579 278.279H94.2891V288.569H104.579V278.279Z" stroke="#4CC9F0" stroke-width="0.75" stroke-linecap="round" stroke-linejoin="round"/>
<path d="M130.28 278.279H119.99V288.569H130.28V278.279Z" stroke="#4CC9F0" stroke-width="0.75" stroke-linecap="round" stroke-linejoin="round"/>
<path d="M155.979 278.279H145.689V288.569H155.979V278.279Z" stroke="#4CC9F0" stroke-width="0.75" stroke-linecap="round" stroke-linejoin="round"/>
<path d="M53.1806 310.109H42.8906V320.399H53.1806V310.109Z" stroke="#4CC9F0" stroke-width="0.75" stroke-linecap="round" stroke-linejoin="round"/>
<path d="M78.8799 310.108H68.5898V320.398H78.8799V310.108Z" stroke="#4CC9F0" stroke-width="0.75" stroke-linecap="round" stroke-linejoin="round"/>
<path d="M104.579 310.109H94.2891V320.399H104.579V310.109Z" stroke="#4CC9F0" stroke-width="0.75" stroke-linecap="round" stroke-linejoin="round"/>
<path d="M130.28 310.108H119.99V320.398H130.28V310.108Z" stroke="#4CC9F0" stroke-width="0.75" stroke-linecap="round" stroke-linejoin="round"/>
<path d="M155.979 310.109H145.689V320.399H155.979V310.109Z" stroke="#4CC9F0" stroke-width="0.75" stroke-linecap="round" stroke-linejoin="round"/>
</g>
<path d="M88.2285 136.539C96.0185 126.309 106.849 120.859 124.549 130.219C124.549 130.249 100.719 141.469 88.2285 136.539Z" fill="white"/>
<path d="M197.849 149.618C197.849 149.618 156.659 164.618 154.169 167.618C151.679 170.618 144.869 193.418 141.529 205.198C138.189 216.978 135.159 219.828 135.159 219.828C135.159 219.828 106.359 215.608 85.7195 217.238C65.0795 218.868 54.9195 218.358 52.5195 217.328C50.1195 216.298 49.6794 212.428 51.0594 208.218C51.1894 207.818 51.3395 207.358 51.4995 206.838C53.1395 201.838 56.4995 191.698 56.4995 191.698C48.8051 188.934 40.9425 186.663 32.9595 184.898C30.2304 184.309 27.4689 183.882 24.6895 183.618C31.5133 174.368 38.8027 165.47 46.5294 156.958C49.3394 153.958 52.3194 151.038 55.3094 148.378C64.3094 140.378 73.3095 134.378 77.8295 133.378C83.8295 131.998 92.0995 133.488 104.209 132.208C127.849 129.708 160.879 120.458 180.829 107.148C183.363 110.808 185.7 114.6 187.829 118.508C191.82 125.785 194.945 133.505 197.139 141.508C197.139 141.508 198.189 146.688 197.849 149.618Z" fill="#F72585"/>
<path d="M67.8397 155.088L56.4697 191.748C48.7753 188.984 40.9127 186.713 32.9297 184.948C35.9897 180.278 41.0097 177.218 46.9297 179.118C56.5097 182.248 57.6997 155.808 67.8397 155.088Z" fill="#CA0861"/>
<path d="M187.769 118.578C170.439 119.508 141.879 134.068 129.229 151.728C114.389 172.448 93.0393 169.728 83.1493 155.088C75.7893 144.238 67.8393 145.618 55.2793 148.428C64.2793 140.428 73.2793 134.428 77.7993 133.428C83.7993 132.048 92.0693 133.538 104.179 132.258C127.819 129.758 160.849 120.508 180.799 107.198C183.324 110.865 185.65 114.664 187.769 118.578Z" fill="#F6559F"/>
<path d="M69.3587 150.168L67.8387 155.088L56.4688 191.748" stroke="#C6065E" stroke-width="0.75" stroke-linecap="round" stroke-linejoin="round"/>
<path d="M103 241.769C110.854 242.661 118.795 242.418 126.58 241.049" stroke="#2542C9" stroke-width="0.75" stroke-linecap="round" stroke-linejoin="round"/>
</g>
<defs>
<clipPath id="clip0_1365_6065">
<rect width="583" height="429" fill="white"/>
</clipPath>
</defs>
</svg>
