<svg width="199" height="101" viewBox="0 0 199 101" fill="none" xmlns="http://www.w3.org/2000/svg">
<path d="M15.5739 21.6819C14.3521 18.5769 14.8825 15.0067 16.0079 12.004C17.1919 8.84443 19.2537 5.69347 22.3352 4.03174C22.4881 7.36135 21.4709 10.651 20.3596 13.6173C19.3602 16.2854 18.1339 19.1279 16.1089 21.3344C15.7977 23.0064 15.5592 24.6737 15.3916 26.3333C16.0627 24.58 17.151 22.9819 18.5089 21.6969C20.2571 20.0423 22.8577 18.7656 25.2988 19.5206C24.5838 22.219 22.954 24.8058 21.0238 26.6204C19.5046 28.0487 17.4991 29.8789 15.1367 29.9508C15.0394 32.3931 15.0944 34.8131 15.2954 37.2002C15.6287 35.4533 16.3427 33.8083 17.3744 32.5833C18.7917 30.9 20.8932 28.8435 23.5771 29.1875C23.4306 31.9187 22.3411 34.7169 20.824 36.8196C19.6184 38.4906 18.0269 40.6202 15.7679 41.1704C16.1296 43.516 16.6335 45.8227 17.2727 48.0798C17.2789 46.3515 17.6606 44.6552 18.4179 43.2946C19.4852 41.376 21.1475 38.9833 23.8344 38.7962C24.2282 41.4756 23.6946 44.4046 22.6181 46.7342C21.7577 48.5964 20.6106 50.971 18.5196 51.9535C19.3977 54.3819 20.4367 56.7425 21.6281 59.021C21.2098 57.0571 21.2265 54.9877 21.7215 53.1258C22.4036 50.5589 24.0969 47.8625 26.8154 47.08C27.7763 49.9139 27.6438 53.0765 27.0856 55.9569C26.6261 58.3285 25.7234 61.1139 23.7 62.6544C25.0229 64.7892 26.4863 66.8381 28.0823 68.7875C27.2248 66.8756 26.7986 64.7846 27.0273 62.8702C27.3604 60.0814 28.144 57.0979 30.9927 55.611C32.6088 58.3994 32.9832 61.5277 33.1206 64.6175C33.2315 67.1154 32.8717 70.1964 31.1369 72.2285C33.0452 74.2125 35.1042 76.0694 37.3034 77.7817C35.8836 75.9604 34.8894 73.8231 34.6788 71.7094C34.3815 68.7231 34.5269 65.4356 37.1771 63.244C39.4436 65.6114 40.7961 69.0977 41.459 72.1258C42.0452 74.8031 42.6571 77.9719 41.2615 80.6067C44.0604 82.4337 47.0482 84.0433 50.2073 85.4064C47.9844 83.8223 46.1648 81.649 45.2979 79.4052C44.1619 76.4639 43.4592 72.959 45.6721 70.0133C48.6369 71.9123 50.8159 75.1523 52.5327 78.1073C54.0057 80.6429 55.5306 84.1425 54.774 87.1623C56.5231 87.7558 58.3173 88.2769 60.1544 88.7215L60.0452 89.1725C58.2011 88.7262 56.4 88.2033 54.6438 87.6081C53.4134 91.244 49.3829 92.4452 46.1232 92.9756C41.4788 93.7312 35.9486 92.2671 31.9836 89.3179C34.0763 86.3604 38.3461 86.0604 41.5657 85.8341L41.6077 85.8312C45.1348 85.5833 48.9496 85.9144 52.4965 86.836C48.399 85.2762 44.565 83.315 41.0296 81.0094L40.9775 81.0917C39.0402 84.2331 35.1506 84.3556 32.0975 84.1569C27.9546 83.8873 23.1715 81.3683 20.4032 77.8862C23.0071 75.6015 26.8531 76.241 29.8331 76.7364L29.8475 76.7387C33.1734 77.2915 36.8079 78.4977 39.8586 80.3548C39.5681 80.126 39.2836 79.8839 39.0073 79.63C36.0411 77.5152 33.305 75.1496 30.8221 72.5704C30.7932 72.5992 30.764 72.6279 30.7346 72.6564C28.3204 75.085 24.8042 74.4491 22.0602 73.6587C18.3881 72.601 14.5798 69.41 12.7548 65.7467C15.5829 64.1621 18.9641 65.4679 21.594 66.5008C24.4806 67.6344 27.5346 69.4479 29.8829 71.7596C29.6407 71.4542 29.4098 71.1352 29.1915 70.805C27.0088 68.3415 25.0454 65.7037 23.3192 62.9208L23.2327 62.975C20.5015 64.7375 17.4071 63.4612 14.9546 62.206C11.6294 60.5042 8.95732 56.7642 7.80271 53.0862C10.7525 52.1414 13.6669 53.9958 15.9325 55.4644C18.4104 57.0706 20.9204 59.3614 22.6432 61.9885C22.5167 61.7296 22.3988 61.465 22.2902 61.1954C20.6348 58.3073 19.2285 55.2754 18.09 52.1302L18.0314 52.1502L18.0266 52.1519C15.5433 53.096 12.7779 51.6283 10.975 50.0187C8.46925 47.7817 6.70309 44.3427 6.28905 40.9829C8.87809 40.6475 11.3173 42.6506 12.985 44.359C14.9046 46.3254 16.6275 48.6494 17.6867 51.2308C17.6094 50.9504 17.5431 50.6656 17.4873 50.3779C16.5235 47.4223 15.7933 44.3742 15.3119 41.2581L15.2744 41.2627L15.2617 41.2648C12.6364 41.7031 10.2091 39.7071 8.75886 37.77C6.72425 35.0517 5.6754 31.2896 5.93829 27.8798C8.55348 28.0627 10.5448 30.5506 11.8362 32.5631C13.3308 34.8929 14.5702 37.5296 15.1131 40.2881C15.0966 40.0687 15.0867 39.8479 15.0833 39.6265C14.6846 36.455 14.5425 33.2185 14.6725 29.9419L14.665 29.9415C11.9958 29.8454 10.0231 27.3671 9.00463 25.1689C7.54732 22.0231 7.31271 18.0467 8.2854 14.6956C10.8294 15.4096 12.2477 18.3279 13.0848 20.5742C14.05 23.1642 14.7237 25.989 14.7291 28.7975C14.8679 26.4414 15.1475 24.0665 15.5739 21.6819Z" fill="#6C5DD3"/>
<path d="M68.143 15.8691V27.1188C68.143 32.0666 63.6619 34.4472 56.8701 34.4472C50.5219 34.4472 45.9707 32.0901 45.9707 26.5353V15.8691H52.2957V26.5353C52.2957 28.5191 53.9994 29.7561 57.1269 29.7561C60.1144 29.7561 61.8882 28.4724 61.8882 26.5586V15.8691H68.143Z" fill="#6C5DD3"/>
<path d="M89.2116 29.3126V34.1905H71.7305V15.8691H78.0555V29.3126H89.2116Z" fill="#6C5DD3"/>
<path d="M108.008 20.467V15.8691H86.1387V20.467H93.8641V34.1905H100.259V20.467H108.008Z" fill="#6C5DD3"/>
<path fill-rule="evenodd" clip-rule="evenodd" d="M130.442 17.7364C131.283 18.5999 131.681 19.7903 131.681 21.4472C131.681 22.8711 131.331 24.0847 130.746 24.9014C130.092 25.7884 129.089 26.5353 127.852 26.722L133.385 34.1905H126.429L121.877 27.7255H116.206V34.1905H109.975V15.8691H124.562C127.456 15.8691 129.346 16.5693 130.442 17.7364ZM125.402 22.9878C125.566 22.7076 125.612 22.3341 125.612 22.0309C125.612 21.6807 125.566 21.3072 125.402 21.0739C125.075 20.467 124.421 20.3038 123.441 20.3038H116.23V23.6413H123.558C124.562 23.6413 125.169 23.4545 125.402 22.9878Z" fill="#6C5DD3"/>
<path fill-rule="evenodd" clip-rule="evenodd" d="M141.806 30.8064H151.702L153.312 34.1905H160.058L150.815 15.8691H143.277L133.498 34.1905H140.102L141.806 30.8064ZM149.717 26.6986H143.86L146.171 22.2876L146.871 20.607L147.525 22.2641L149.717 26.6986Z" fill="#6C5DD3"/>
<path fill-rule="evenodd" clip-rule="evenodd" d="M129.776 37.6411C125.86 37.6411 123.801 39.4969 123.801 42.2238C123.801 45.3017 125.962 46.863 129.776 46.863C133.974 46.863 135.739 45.0527 135.739 42.2238C135.739 39.3498 133.747 37.6411 129.776 37.6411ZM129.776 44.5888C127.547 44.5888 126.901 43.6723 126.901 42.2578C126.901 40.8661 127.603 39.9496 129.764 39.9496C132.13 39.9496 132.66 40.9792 132.66 42.2578C132.66 43.6157 132.016 44.5888 129.776 44.5888Z" fill="#6C5DD3"/>
<path d="M117.998 46.7273V41.4658H112.092V43.3781H115.248C115.226 43.5252 115.113 43.8081 114.966 43.9777C114.637 44.3625 113.766 44.7019 112.635 44.7019C111.458 44.7019 110.7 44.3963 110.292 43.9211C110.021 43.5704 109.862 43.0725 109.862 42.3258C109.862 41.545 110.021 41.0133 110.326 40.6625C110.768 40.1646 111.514 39.9496 112.612 39.9496C113.597 39.9496 114.275 40.1758 114.592 40.4586C114.796 40.6284 114.954 40.8661 114.988 41.0244H117.919C117.908 40.7415 117.817 40.289 117.659 39.9609C116.957 38.5352 115.328 37.6865 112.556 37.6865C110.145 37.6865 108.527 38.4219 107.633 39.5309C107.045 40.289 106.773 41.2394 106.773 42.3031C106.773 43.48 107.09 44.4869 107.611 45.1546C108.493 46.2975 110.066 46.8631 111.956 46.8631C113.619 46.8631 114.762 46.4671 115.486 45.8675L115.565 46.7273H117.998Z" fill="#6C5DD3"/>
<path d="M87.1734 41.3524C89.4703 41.6013 90.4548 42.4161 90.4548 43.9663C90.4548 45.8446 88.6217 46.8628 85.0121 46.8628C81.6515 46.8628 80.2032 45.9124 79.6486 44.6678C79.5242 44.3736 79.4676 44.0115 79.4336 43.7851H82.6924C82.7151 43.9209 82.7944 44.1246 82.9074 44.2603C83.179 44.5886 83.9371 44.7809 85.2271 44.7809C86.8905 44.7809 87.2865 44.5432 87.2865 44.1021C87.2865 43.6267 86.8792 43.5249 85.3742 43.3665C84.7746 43.3099 83.824 43.2194 83.428 43.1855C80.554 42.9251 79.4903 42.0313 79.4903 40.5038C79.4903 38.9196 81.3686 37.709 84.7971 37.709C87.8409 37.709 89.2553 38.6142 89.8438 39.7457C90.0247 40.0851 90.1378 40.4698 90.1719 40.7413H86.913C86.9017 40.6169 86.8565 40.4924 86.7321 40.334C86.483 40.0059 85.8494 39.7909 84.7178 39.7909C83.1224 39.7909 82.7038 39.9832 82.7038 40.3905C82.7038 40.8432 83.2357 40.9451 85.0121 41.1374C85.7023 41.194 86.7999 41.3071 87.1734 41.3524Z" fill="#6C5DD3"/>
<path fill-rule="evenodd" clip-rule="evenodd" d="M54.6884 38.6028C55.288 39.078 55.6274 39.8815 55.6274 41.0468C55.6274 41.9974 55.3899 42.7101 54.9372 43.208C54.3263 43.9095 53.3192 44.2265 52.0067 44.2378C51.5992 44.2491 48.1142 44.2378 48.1142 44.2378V46.727H45.0703V37.8447H51.9613C53.1834 37.8447 54.1113 38.0936 54.6884 38.6028ZM52.4367 41.737C52.527 41.5788 52.5724 41.3749 52.5724 41.092C52.5724 40.798 52.5157 40.549 52.414 40.4132C52.2217 40.1303 51.8595 39.9945 51.2711 39.9945H48.0915V42.167H51.2484C51.882 42.167 52.2555 42.0199 52.4367 41.737Z" fill="#6C5DD3"/>
<path fill-rule="evenodd" clip-rule="evenodd" d="M66.7613 38.7499C67.1688 39.1686 67.3612 39.7457 67.3612 40.549C67.3612 41.2392 67.1913 41.8276 66.9085 42.2236C66.5917 42.6536 66.1052 43.0157 65.5054 43.1063L68.1871 46.727H64.8152L62.6087 43.5928H59.859V46.727H56.8379V37.8447H63.91C65.3131 37.8447 66.2296 38.1841 66.7613 38.7499ZM64.3173 41.2959C64.3965 41.1601 64.419 40.979 64.419 40.8318C64.419 40.6622 64.3965 40.4811 64.3173 40.368C64.1589 40.0738 63.8421 39.9945 63.3669 39.9945H59.8704V41.6126H63.4235C63.91 41.6126 64.2042 41.522 64.3173 41.2959Z" fill="#6C5DD3"/>
<path d="M78.5198 46.727V44.5207H72.1494V43.3665H78.2596V41.2053H72.1494V40.0624H78.4406V37.8447H69.1621V46.727H78.5198Z" fill="#6C5DD3"/>
<path d="M101.466 40.0738V37.8447H90.8633V40.0738H94.6085V46.727H97.7089V40.0738H101.466Z" fill="#6C5DD3"/>
<path d="M105.543 37.8447V46.727H102.432V37.8447H105.543Z" fill="#6C5DD3"/>
<path d="M122.569 37.8447V46.727H119.457V37.8447H122.569Z" fill="#6C5DD3"/>
<path d="M147.744 37.8447V43.2986C147.744 45.6974 145.571 46.8516 142.279 46.8516C139.202 46.8516 136.994 45.7088 136.994 43.0157V37.8447H140.061V43.0157C140.061 43.9774 140.886 44.5772 142.404 44.5772C143.852 44.5772 144.711 43.9549 144.711 43.027V37.8447H147.744Z" fill="#6C5DD3"/>
<path d="M159.961 43.9663C159.961 42.4161 158.976 41.6013 156.68 41.3524C156.305 41.3071 155.209 41.194 154.518 41.1374C152.741 40.9451 152.209 40.8432 152.209 40.3905C152.209 39.9832 152.628 39.7909 154.224 39.7909C155.355 39.7909 155.989 40.0059 156.238 40.334C156.363 40.4924 156.407 40.6169 156.418 40.7413H159.678C159.643 40.4698 159.53 40.0851 159.349 39.7457C158.761 38.6142 157.347 37.709 154.303 37.709C150.874 37.709 148.995 38.9196 148.995 40.5038C148.995 42.0313 150.061 42.9251 152.934 43.1855L153.118 43.2019L153.426 43.2299L154.88 43.3665C156.386 43.5249 156.791 43.6267 156.791 44.1021C156.791 44.5432 156.397 44.7809 154.734 44.7809C153.443 44.7809 152.686 44.5886 152.413 44.2603C152.301 44.1246 152.22 43.9209 152.199 43.7851H148.939C148.974 44.0115 149.03 44.3736 149.155 44.6678C149.709 45.9124 151.157 46.8628 154.518 46.8628C158.128 46.8628 159.961 45.8446 159.961 43.9663Z" fill="#6C5DD3"/>
<path fill-rule="evenodd" clip-rule="evenodd" d="M80.8341 50.1279C78.2896 50.1279 76.9512 51.3341 76.9512 53.1064C76.9512 55.1066 78.3558 56.1214 80.8341 56.1214C83.5625 56.1214 84.7096 54.9449 84.7096 53.1064C84.7096 51.2385 83.4154 50.1279 80.8341 50.1279ZM80.8341 54.6433C79.3854 54.6433 78.9662 54.0475 78.9662 53.1283C78.9662 52.2239 79.4221 51.6281 80.8268 51.6281C82.3637 51.6281 82.7094 52.2974 82.7094 53.1283C82.7094 54.0108 82.2902 54.6433 80.8341 54.6433Z" fill="#6C5DD3"/>
<path d="M66.6863 54.2391C66.6863 53.2316 66.0465 52.702 64.5536 52.5402C64.3109 52.5108 63.5977 52.4374 63.149 52.4006C61.9944 52.2754 61.6488 52.2093 61.6488 51.9153C61.6488 51.6504 61.9209 51.5254 62.9579 51.5254C63.6932 51.5254 64.105 51.6651 64.2669 51.8783C64.3477 51.9814 64.3771 52.0622 64.3846 52.1431H66.5025C66.4804 51.9666 66.4069 51.7166 66.2892 51.496C65.9067 50.7606 64.9875 50.1724 63.0092 50.1724C60.7811 50.1724 59.5604 50.9591 59.5604 51.9887C59.5604 52.9816 60.2515 53.5626 62.1194 53.7316C62.3769 53.7537 62.9946 53.8126 63.3844 53.8493C64.3625 53.9522 64.6271 54.0185 64.6271 54.3274C64.6271 54.6141 64.3698 54.7685 63.2888 54.7685C62.4504 54.7685 61.9577 54.6435 61.7811 54.4302C61.7077 54.342 61.6561 54.2097 61.6415 54.1214H59.5234C59.5456 54.2685 59.5823 54.5037 59.6632 54.6951C60.0236 55.5039 60.965 56.1216 63.149 56.1216C65.495 56.1216 66.6863 55.4599 66.6863 54.2391Z" fill="#6C5DD3"/>
<path fill-rule="evenodd" clip-rule="evenodd" d="M52.0015 54.4006C52.0015 54.7978 51.8911 55.1876 51.6705 55.4449C51.3322 55.8568 50.6997 56.0331 49.8836 56.0331H44.7578V50.2603H49.7438C50.538 50.2603 51.0455 50.4516 51.3249 50.7383C51.5749 50.9883 51.6853 51.3193 51.6853 51.6943C51.6853 52.0695 51.597 52.3783 51.4059 52.6062C51.2513 52.7976 50.9867 52.9445 50.7072 52.9814C51.119 53.0328 51.5088 53.2387 51.7294 53.5254C51.9132 53.7387 52.0015 54.0624 52.0015 54.4006ZM49.5232 52.3783C49.5967 52.2974 49.6409 52.1797 49.6409 52.0401C49.6409 51.9003 49.5967 51.7826 49.5011 51.7018C49.3982 51.606 49.2069 51.5693 48.9274 51.5693H46.6845V52.5106H48.979C49.229 52.5106 49.4203 52.4739 49.5232 52.3783ZM49.1922 54.7243C49.5378 54.7243 49.7438 54.6801 49.8615 54.5699C49.9349 54.4962 49.9643 54.386 49.9643 54.2462C49.9643 54.0991 49.9276 53.9889 49.8394 53.9006C49.7292 53.8051 49.5378 53.7608 49.2144 53.7608H46.6845V54.7243H49.1922Z" fill="#6C5DD3"/>
<path d="M58.9274 54.5993V56.0331H52.8457V50.2603H58.8759V51.7018H54.7871V52.4445H58.7582V53.8491H54.7871V54.5993H58.9274Z" fill="#6C5DD3"/>
<path d="M73.8398 50.2603V51.7091H71.3983V56.0331H69.3835V51.7091H66.9492V50.2603H73.8398Z" fill="#6C5DD3"/>
<path d="M91.4389 50.2603V51.7237H87.5193V52.5401H91.2551V53.9889H87.5193V56.0331H85.541V50.2603H91.4389Z" fill="#6C5DD3"/>
<path d="M101.404 51.7091V50.2603H94.5137V51.7091H96.9479V56.0331H98.9629V51.7091H101.404Z" fill="#6C5DD3"/>
<path d="M108.922 50.2603V56.0331H106.951V53.9374H103.994V56.0331H102.023V50.2603H103.994V52.3635H106.951V50.2603H108.922Z" fill="#6C5DD3"/>
<path d="M116.168 56.0331V54.5993H112.027V53.8491H115.998V52.4445H112.027V51.7018H116.116V50.2603H110.086V56.0331H116.168Z" fill="#6C5DD3"/>
<path d="M128.362 50.2603H130.266L128.156 56.0331H125.994C125.994 56.0331 124.839 52.5843 124.831 52.4885C124.825 52.5843 123.662 56.0331 123.662 56.0331H121.508L119.346 50.2603H121.485C121.485 50.2603 122.737 53.8931 122.737 53.9814C122.737 53.8931 123.891 50.2603 123.891 50.2603H125.958C125.958 50.2603 127.119 53.8931 127.119 53.9814C127.119 53.8931 128.362 50.2603 128.362 50.2603Z" fill="#6C5DD3"/>
<path fill-rule="evenodd" clip-rule="evenodd" d="M134.041 50.1284C131.497 50.1284 130.158 51.3346 130.158 53.1069C130.158 55.1071 131.562 56.1219 134.041 56.1219C136.77 56.1219 137.916 54.9453 137.916 53.1069C137.916 51.239 136.622 50.1284 134.041 50.1284ZM134.041 54.6438C132.593 54.6438 132.174 54.048 132.174 53.1288C132.174 52.2244 132.629 51.6286 134.033 51.6286C135.572 51.6286 135.916 52.2978 135.916 53.1288C135.916 54.0113 135.497 54.6438 134.041 54.6438Z" fill="#6C5DD3"/>
<path fill-rule="evenodd" clip-rule="evenodd" d="M145.198 50.8487C145.462 51.1208 145.587 51.4958 145.587 52.0179C145.587 52.4666 145.477 52.8489 145.292 53.1064C145.087 53.3858 144.771 53.6212 144.381 53.6799L146.123 56.0331H143.933L142.498 53.9962H140.712V56.0331H138.748V50.2603H143.344C144.256 50.2603 144.852 50.481 145.198 50.8487ZM143.61 52.5033C143.66 52.4151 143.675 52.2974 143.675 52.2018C143.675 52.0914 143.66 51.9739 143.61 51.9003C143.506 51.7091 143.3 51.6576 142.99 51.6576H140.719V52.7093H143.027C143.344 52.7093 143.535 52.6504 143.61 52.5033Z" fill="#6C5DD3"/>
<path d="M152.264 56.0331V54.4962H148.748V50.2603H146.756V56.0331H152.264Z" fill="#6C5DD3"/>
<path fill-rule="evenodd" clip-rule="evenodd" d="M160.064 53.0401C160.064 53.9374 159.976 54.4228 159.712 54.8787C159.314 55.6066 158.528 56.0331 157.137 56.0331H153.049V50.2603H157.093C158.476 50.2603 159.293 50.6501 159.697 51.3193C159.983 51.7679 160.064 52.2458 160.064 53.0401ZM156.762 54.6139C157.387 54.6139 157.741 54.4668 157.955 54.1433C158.087 53.9447 158.124 53.4814 158.124 53.077C158.116 52.7093 158.072 52.3195 157.955 52.1429C157.726 51.7974 157.382 51.6724 156.778 51.6724H155.02V54.6139H156.762Z" fill="#6C5DD3"/>
<path d="M81.1758 84.1094H78.1285C78.1285 84.1094 76.14 89.9219 76.14 90.063C76.14 89.9219 74.281 84.1094 74.281 84.1094H70.9747C70.9747 84.1094 69.1274 89.9219 69.1274 90.063C69.1274 89.9219 67.1272 84.1094 67.1272 84.1094H63.7031L67.1624 93.3457H70.6099C70.6099 93.3457 72.4689 87.8275 72.4806 87.6746C72.4925 87.8275 74.3397 93.3457 74.3397 93.3457H77.7989L81.1758 84.1094Z" fill="#6C5DD3"/>
<path d="M85.3471 93.3457V84.1094H82.1113V93.3457H85.3471Z" fill="#6C5DD3"/>
<path d="M97.9339 84.1094V93.3457H94.7805L90.2035 88.204V93.3457H87.168V84.1094H90.4859L94.9216 89.1336V84.1094H97.9339Z" fill="#6C5DD3"/>
<path d="M110.539 93.3457V84.1094H107.527V89.1336L103.092 84.1094H99.7734V93.3457H102.809V88.204L107.386 93.3457H110.539Z" fill="#6C5DD3"/>
<path d="M122.108 91.0513V93.3457H112.377V84.1094H122.026V86.4155H115.483V87.604H121.837V89.8513H115.483V91.0513H122.108Z" fill="#6C5DD3"/>
<path fill-rule="evenodd" clip-rule="evenodd" d="M134.544 86.9215C134.544 86.0861 134.344 85.4861 133.921 85.0507C133.367 84.4625 132.415 84.1094 130.955 84.1094H123.602V93.3457H126.744V90.0865H129.603L131.898 93.3457H135.403L132.615 89.5807C133.238 89.4865 133.744 89.11 134.075 88.6628C134.367 88.2511 134.544 87.6392 134.544 86.9215ZM131.484 87.2157C131.484 87.3686 131.461 87.5569 131.378 87.698C131.261 87.9334 130.955 88.0275 130.45 88.0275H126.755V86.345H130.39C130.884 86.345 131.215 86.4273 131.378 86.7332C131.461 86.8509 131.484 87.0392 131.484 87.2157Z" fill="#6C5DD3"/>
<path d="M71.7831 67.814L70.5071 63.8867L69.231 67.814H65.1016L68.4423 70.2411L67.1664 74.1685L70.5071 71.7413L73.8477 74.1685L72.5718 70.2411L75.9125 67.814H71.7831Z" fill="#6C5DD3"/>
<path d="M85.2384 63.8843L86.5405 67.8116H90.7542L87.3453 70.2389L88.6475 74.166L85.2384 71.7389L81.8296 74.166L83.1317 70.2389L79.7227 67.8116H83.9363L85.2384 63.8843Z" fill="#6C5DD3"/>
<path d="M101.156 67.8116L99.8538 63.8843L98.5517 67.8116H94.3379L97.7469 70.2389L96.4448 74.166L99.8538 71.7389L103.263 74.166L101.961 70.2389L105.37 67.8116H101.156Z" fill="#6C5DD3"/>
<path d="M114.469 63.8843L115.771 67.8116H119.985L116.576 70.2389L117.878 74.166L114.469 71.7389L111.06 74.166L112.362 70.2389L108.953 67.8116H113.167L114.469 63.8843Z" fill="#6C5DD3"/>
<path d="M130.476 67.8116L129.199 63.8843L127.922 67.8116H123.793L127.133 70.2389L125.858 74.166L129.199 71.7389L132.539 74.166L131.264 70.2389L134.605 67.8116H130.476Z" fill="#6C5DD3"/>
<path d="M184.048 21.7673C185.269 18.6625 184.738 15.0919 183.613 12.0892C182.428 8.92978 180.367 5.77843 177.286 4.1167C177.132 7.44651 178.149 10.7359 179.261 13.7023C180.261 16.3702 181.486 19.2125 183.511 21.4188C183.823 23.0904 184.061 24.7573 184.228 26.4165C183.557 24.664 182.471 23.0667 181.113 21.7821C179.365 20.1273 176.763 18.8507 174.323 19.6057C175.038 22.304 176.667 24.8909 178.598 26.7055C180.117 28.1338 182.123 29.9638 184.484 30.0359C184.582 32.4784 184.526 34.8986 184.324 37.2859C183.992 35.539 183.278 33.894 182.246 32.669C180.828 30.9855 178.726 28.9292 176.044 29.2732C176.19 32.0044 177.28 34.8027 178.798 36.9054C180.001 38.5763 181.594 40.7061 183.853 41.2563C183.492 43.6015 182.988 45.9079 182.348 48.1648C182.342 46.4367 181.961 44.7404 181.203 43.3798C180.136 41.4613 178.473 39.0684 175.786 38.8813C175.392 41.5607 175.926 44.4898 177.003 46.8194C177.863 48.6815 179.011 51.0561 181.101 52.0386C180.223 54.4675 179.184 56.8286 177.992 59.1073C178.411 57.143 178.394 55.0732 177.899 53.2107C177.217 50.6438 175.524 47.9473 172.805 47.165C171.844 49.9992 171.976 53.1615 172.536 56.0419C172.996 58.4136 173.898 61.199 175.921 62.7396C174.598 64.8755 173.134 66.9254 171.536 68.8757C172.396 66.963 172.821 64.8709 172.592 62.9557C172.259 60.1665 171.476 57.1832 168.628 55.6967C167.011 58.4852 166.636 61.6134 166.499 64.7032C166.388 67.2013 166.748 70.2825 168.484 72.3148C166.574 74.2982 164.517 76.1546 162.319 77.8665C163.738 76.0452 164.732 73.908 164.942 71.7946C165.24 68.8082 165.096 65.5209 162.444 63.3292C160.178 65.6965 158.824 69.1828 158.163 72.2109C157.576 74.888 156.965 78.0571 158.359 80.6919C155.561 82.5192 152.573 84.129 149.413 85.4925C151.636 83.9082 153.455 81.7346 154.323 79.4903C155.459 76.5492 156.161 73.0442 153.949 70.0984C150.984 71.9975 148.805 75.2373 147.088 78.1925C145.615 80.7282 144.09 84.228 144.848 87.2479C143.098 87.8413 141.303 88.3625 139.467 88.8071L139.576 89.258C141.419 88.8117 143.221 88.2888 144.976 87.6936C146.207 91.3294 150.238 92.5309 153.498 93.0611C158.142 93.8167 163.673 92.3529 167.638 89.4034C165.544 86.4459 161.274 86.1459 158.055 85.9196L158.013 85.9167C154.486 85.6688 150.671 86 147.124 86.9217C151.221 85.3619 155.055 83.4004 158.592 81.0946L158.64 81.1715C160.576 84.318 164.469 84.4411 167.523 84.2423C171.667 83.9727 176.449 81.4536 179.217 77.9715C176.613 75.6873 172.769 76.3263 169.788 76.8215L169.773 76.8242C166.448 77.3769 162.815 78.5825 159.765 80.439C160.055 80.2104 160.338 79.9686 160.615 79.715C163.58 77.6005 166.315 75.2354 168.798 72.6565C168.832 72.6909 168.867 72.7248 168.901 72.7584C171.317 75.1682 174.823 74.5325 177.561 73.7438C181.234 72.6861 185.042 69.4952 186.867 65.8319C184.038 64.2473 180.657 65.5528 178.028 66.5859C175.138 67.7205 172.082 69.5361 169.732 71.8509C169.974 71.5452 170.207 71.2255 170.426 70.8948C172.609 68.43 174.574 65.7905 176.301 63.0059L176.376 63.0523L176.396 63.0644C179.124 64.8205 182.217 63.5454 184.667 62.2911C187.992 60.5894 190.665 56.8494 191.819 53.1713C188.869 52.2265 185.955 54.0809 183.69 55.5496C181.209 57.1567 178.698 59.449 176.974 62.078C177.101 61.8186 177.221 61.5532 177.33 61.283C178.986 58.394 180.392 55.3613 181.53 52.2154L181.59 52.2354L181.599 52.2392C184.082 53.179 186.846 51.7123 188.648 50.1038C191.151 47.8669 192.919 44.4279 193.332 41.068C190.744 40.7327 188.303 42.7357 186.636 44.444C184.717 46.4117 182.992 48.7373 181.932 51.3207C182.011 51.0388 182.078 50.7525 182.134 50.463C183.098 47.5077 183.828 44.4598 184.309 41.344L184.382 41.3536C186.998 41.7771 189.417 39.7869 190.863 37.8552C192.898 35.1369 193.946 31.3748 193.682 27.9648C191.069 28.1479 189.076 30.6355 187.786 32.6482C186.29 34.9792 185.049 37.6175 184.507 40.3777C184.524 40.1569 184.534 39.935 184.538 39.7123C184.936 36.5405 185.078 33.3038 184.948 30.0273C187.619 29.9336 189.598 27.4536 190.617 25.2544C192.073 22.1088 192.307 18.1323 191.336 14.7813C188.792 15.4954 187.373 18.4132 186.536 20.6596C185.571 23.2496 184.898 26.0748 184.892 28.8832C184.753 26.5271 184.473 24.1521 184.048 21.7673Z" fill="#6C5DD3"/>
</svg>
