<svg width="125" height="101" viewBox="0 0 125 101" fill="none" xmlns="http://www.w3.org/2000/svg">
<path d="M41.7043 34.554C41.7043 34.3 41.7043 30.6045 41.7043 30.6045H39.5083C39.5083 30.6045 39.5083 34.2427 39.5083 34.3575C39.5083 35.0293 38.8856 35.48 37.8368 35.48C36.7388 35.48 36.1406 35.0457 36.1406 34.3492C36.1406 34.2345 36.1406 30.6045 36.1406 30.6045H33.9199C33.9199 30.6045 33.9199 34.0542 33.9199 34.3492C33.9199 36.2993 35.5178 37.127 37.7466 37.127C40.1311 37.127 41.7043 36.2912 41.7043 34.554Z" fill="#438AA7"/>
<path d="M49.1002 37.0368V35.3243H45.1836V30.6045H42.9629V37.0368H49.1002Z" fill="#438AA7"/>
<path d="M55.6993 32.2188V30.6045H48.0215V32.2188H50.7337V37.0368H52.9788V32.2188H55.6993Z" fill="#438AA7"/>
<path d="M58.6498 37.0368V30.6045H56.3965V37.0368H58.6498Z" fill="#438AA7"/>
<path d="M68.9888 37.0368V30.6045H66.211L64.4575 34.464L62.786 30.6045H59.918V37.0368H62.0075V33.5627L63.5151 37.0368H65.3835L66.9075 33.5627V37.0368H68.9888Z" fill="#438AA7"/>
<path d="M72.4717 35.8487H75.946L76.5115 37.0368H78.8795L75.6347 30.6045H72.988L69.5547 37.0368H71.8735L72.4717 35.8487ZM75.2495 34.4065H73.1929L74.004 32.8578L74.2499 32.268L74.4794 32.8497L75.2495 34.4065Z" fill="#438AA7"/>
<path d="M85.8416 32.2188V30.6045H78.1641V32.2188H80.8762V37.0368H83.1216V32.2188H85.8416Z" fill="#438AA7"/>
<path d="M93.3082 37.0368V35.439H88.6965V34.6032H93.1199V33.0382H88.6965V32.2105H93.2515V30.6045H86.5332V37.0368H93.3082Z" fill="#438AA7"/>
<path d="M50.6683 40.4561H48.546C48.546 40.4561 47.1612 44.5039 47.1612 44.6022C47.1612 44.5039 45.8665 40.4561 45.8665 40.4561H43.564C43.564 40.4561 42.2775 44.5039 42.2775 44.6022C42.2775 44.5039 40.8845 40.4561 40.8845 40.4561H38.5L40.9092 46.8884H43.31C43.31 46.8884 44.6047 43.0454 44.6128 42.9389C44.621 43.0454 45.9075 46.8884 45.9075 46.8884H48.3165L50.6683 40.4561Z" fill="#438AA7"/>
<path d="M53.5717 46.8884V40.4561H51.3184V46.8884H53.5717Z" fill="#438AA7"/>
<path d="M62.3356 46.8884V40.4561H60.2379V43.9549L57.1487 40.4561H54.8379V46.8884H56.9521V43.3076L60.1396 46.8884H62.3356Z" fill="#438AA7"/>
<path d="M71.1147 46.8884V40.4561H69.017V43.9549L65.9279 40.4561H63.6172V46.8884H65.7312V43.3076L68.9187 46.8884H71.1147Z" fill="#438AA7"/>
<path d="M79.1691 46.8884V45.2906H74.5559V44.4547H78.9806V42.8897H74.5559V42.0621H79.1117V40.4561H72.3926V46.8884H79.1691Z" fill="#438AA7"/>
<path d="M87.8336 42.4144C87.8336 41.8327 87.6936 41.4147 87.3986 41.1116C87.0136 40.7019 86.3502 40.4561 85.3336 40.4561H80.2129V46.8884H82.4007V44.6187H84.3919L85.9902 46.8884H88.4319L86.4902 44.2662C86.9236 44.2007 87.2769 43.9386 87.5052 43.6272C87.7102 43.3404 87.8336 42.9142 87.8336 42.4144ZM85.7036 42.6192C85.7036 42.7259 85.6869 42.8569 85.6286 42.9552C85.5469 43.1191 85.3336 43.1847 84.9819 43.1847H82.4089V42.0129H84.9402C85.2852 42.0129 85.5152 42.0702 85.6286 42.2834C85.6869 42.3652 85.7036 42.4964 85.7036 42.6192Z" fill="#438AA7"/>
<path d="M42.6282 53.2169C42.6282 53.1117 42.6282 50.0737 42.6282 50.0737H41.861C41.861 50.0737 41.861 53.0992 41.861 53.1674C41.861 53.8974 41.1742 54.3121 40.1842 54.3121C39.0148 54.3121 38.4394 53.8666 38.4394 53.1612C38.4394 53.0931 38.4394 50.0737 38.4394 50.0737H37.666C37.666 50.0737 37.666 53.0189 37.666 53.1364C37.666 54.4234 38.6683 54.9926 40.1533 54.9926C41.6877 54.9926 42.6282 54.3862 42.6282 53.2169Z" fill="#438AA7"/>
<path d="M48.1343 54.9307V54.2192H44.787V50.0737H44.0137V54.9307H48.1343Z" fill="#438AA7"/>
<path d="M52.5275 50.7791V50.0737H47.3672V50.7791H49.5575V54.9307H50.3372V50.7791H52.5275Z" fill="#438AA7"/>
<path d="M58.0269 51.4472C58.0269 51.1007 57.9526 50.8471 57.8227 50.6429C57.5937 50.3026 57.1544 50.0737 56.4244 50.0737H53.2812V54.9307H54.0423V52.8827H56.2572L57.6122 54.9307H58.5033L57.0369 52.7527C57.4081 52.7096 57.6989 52.4991 57.8536 52.2269C57.9651 52.0412 58.0269 51.7691 58.0269 51.4472ZM57.2596 51.5091C57.2596 51.6452 57.2288 51.8124 57.1731 51.9237C57.0741 52.1031 56.8451 52.1959 56.4739 52.2021H54.0484C54.0484 52.1897 54.0484 50.7667 54.0484 50.7667H56.3316C56.7956 50.7667 57.0431 50.8781 57.1731 51.0884C57.2288 51.1874 57.2596 51.3544 57.2596 51.5091Z" fill="#438AA7"/>
<path d="M60.2268 53.7304H63.2525L63.8712 54.9307H64.7003L62.2377 50.0737H61.3282L58.7852 54.9307H59.5957L60.2268 53.7304ZM62.9307 53.0436H60.561L61.5447 51.1812L61.7613 50.7296L61.9778 51.1812L62.9307 53.0436Z" fill="#438AA7"/>
<path d="M72.5489 54.4667C72.7407 54.2439 72.8274 53.9284 72.8274 53.5881C72.8274 53.2664 72.7346 52.9446 72.5427 52.7466C72.3509 52.5611 72.0415 52.4064 71.7012 52.3754C71.8992 52.3444 72.0539 52.2207 72.159 52.0907C72.3262 51.8989 72.425 51.5896 72.425 51.2802C72.425 50.9522 72.3262 50.6552 72.1157 50.4511C71.8869 50.2222 71.497 50.0737 70.9525 50.0737H67.6855V54.9307H71.1939C71.8497 54.9307 72.3076 54.7637 72.5489 54.4667ZM71.6269 51.4349C71.6269 51.6514 71.5589 51.8432 71.4414 51.9546C71.3237 52.0846 71.1257 52.1402 70.9154 52.1402H68.4404V50.7419H70.773C71.0577 50.7419 71.2742 50.7976 71.4227 50.9337C71.5527 51.0574 71.6269 51.2369 71.6269 51.4349ZM71.8744 53.9964C71.7197 54.1697 71.4537 54.2564 71.0639 54.2564H68.4404V52.8147H71.0825C71.4414 52.8147 71.6889 52.8889 71.8374 53.0312C71.9734 53.1612 72.0292 53.3282 72.0292 53.5201C72.0292 53.7181 71.9859 53.8851 71.8744 53.9964Z" fill="#438AA7"/>
<path d="M78.4452 54.9307V54.2192H74.671V52.8332H78.2967V52.1279H74.671V50.7791H78.4019V50.0737H73.916V54.9307H78.4452Z" fill="#438AA7"/>
<path d="M84.4906 53.4951C84.4906 52.7031 83.9656 52.2948 82.6723 52.1463C82.4551 52.1154 81.9848 52.0659 81.7311 52.0349C80.5308 51.8926 80.1658 51.7318 80.1658 51.3173C80.1658 50.9151 80.5679 50.6861 81.7806 50.6861C82.7206 50.6861 83.2039 50.8718 83.4456 51.2058C83.5139 51.2986 83.5506 51.4101 83.5689 51.4966H84.3973C84.3739 51.3543 84.3173 51.1563 84.2306 50.9954C83.8973 50.4201 83.2106 50.0054 81.7806 50.0054C80.0729 49.9993 79.3676 50.6181 79.3676 51.3853C79.3676 52.1524 79.9183 52.5423 81.3476 52.7094C81.5951 52.7403 82.0343 52.7898 82.2509 52.8146C83.3589 52.9506 83.7056 53.1178 83.7056 53.5818C83.7056 54.0088 83.3089 54.3181 82.0404 54.3181C81.0011 54.3181 80.4441 54.1324 80.2214 53.7736C80.1534 53.6746 80.1101 53.5199 80.1039 53.4148H79.2871C79.3058 53.6374 79.3676 53.8788 79.4789 54.0706C79.8008 54.6584 80.5556 54.9988 82.0158 54.9988C83.7606 54.9988 84.4906 54.4356 84.4906 53.4951Z" fill="#438AA7"/>
<path d="M90.037 50.7791V50.0737H84.877V50.7791H87.067V54.9307H87.8469V50.7791H90.037Z" fill="#438AA7"/>
<path d="M35.4766 59.1524C35.4766 58.6574 35.3776 58.3232 35.2104 58.0695C34.9754 57.7044 34.5174 57.5127 33.7192 57.5127H30.6504V62.3697H31.4176V60.7857C31.4176 60.7857 33.5832 60.7857 33.6884 60.7857C34.4371 60.7795 34.9506 60.6064 35.2229 60.2104C35.3961 59.969 35.4766 59.6225 35.4766 59.1524ZM34.6969 59.1524C34.6969 59.3997 34.6721 59.5854 34.5917 59.7092C34.4494 59.938 34.1586 60.0804 33.5584 60.0804C33.5027 60.0804 31.4176 60.0804 31.4176 60.0804V58.2057H33.5832C34.1462 58.2057 34.4371 58.3355 34.5917 58.5892C34.6659 58.7005 34.6969 58.9049 34.6969 59.1524Z" fill="#438AA7"/>
<path d="M41.076 62.3697V61.6582H37.3017V60.2722H40.9275V59.5669H37.3017V58.218H41.0327V57.5127H36.5469V62.3697H41.076Z" fill="#438AA7"/>
<path d="M46.9781 58.8862C46.9781 58.5397 46.9039 58.286 46.7739 58.0819C46.5449 57.7415 46.1058 57.5127 45.3756 57.5127H42.2324V62.3697H42.9934V60.3217H45.2086L46.5636 62.3697H47.4546L45.9881 60.1917C46.3594 60.1485 46.6503 59.938 46.8049 59.6659C46.9163 59.4802 46.9781 59.208 46.9781 58.8862ZM46.2109 58.948C46.2109 59.0842 46.1799 59.2514 46.1243 59.3627C46.0253 59.542 45.7963 59.6349 45.4251 59.641H42.9996C42.9996 59.6287 42.9996 58.2057 42.9996 58.2057H45.2828C45.7468 58.2057 45.9943 58.317 46.1243 58.5274C46.1799 58.6264 46.2109 58.7934 46.2109 58.948Z" fill="#438AA7"/>
<path d="M52.7134 58.218V57.5127H48.3945V62.3697H49.1617V60.3032H52.5525V59.5792H49.1617V58.218H52.7134Z" fill="#438AA7"/>
<path d="M56.2379 57.4258C55.2045 57.4258 54.493 57.6794 53.9855 58.2116C53.5587 58.6261 53.373 59.2016 53.373 59.9255C53.373 60.7175 53.6144 61.3114 54.0599 61.7136C54.5364 62.1901 55.2664 62.4374 56.2379 62.4374C57.2402 62.4374 58.0197 62.1901 58.4839 61.6888C58.886 61.2804 59.0964 60.699 59.0964 59.9193C59.0964 59.1645 58.9169 58.5889 58.4901 58.1806C58.0012 57.6733 57.271 57.4258 56.2379 57.4258ZM56.2379 61.7446C55.5572 61.7446 55.0745 61.5961 54.7095 61.2991C54.3384 60.996 54.1589 60.5318 54.1589 59.9378C54.1589 59.3809 54.3135 58.9169 54.6105 58.6384C54.9509 58.3168 55.4705 58.1249 56.2317 58.1249C57.0174 58.1249 57.5062 58.3106 57.8712 58.6323C58.1807 58.9046 58.3167 59.3871 58.3167 59.9316C58.3167 60.4823 58.1745 60.9526 57.8589 61.2371C57.4939 61.5774 56.9804 61.7446 56.2379 61.7446Z" fill="#438AA7"/>
<path d="M64.898 58.8862C64.898 58.5397 64.8237 58.286 64.6938 58.0819C64.4648 57.7415 64.0255 57.5127 63.2955 57.5127H60.1523V62.3697H60.9133V60.3217H63.1283L64.4835 62.3697H65.3743L63.908 60.1917C64.2792 60.1485 64.57 59.938 64.7247 59.6659C64.8362 59.4802 64.898 59.208 64.898 58.8862ZM64.1307 58.948C64.1307 59.0842 64.0998 59.2514 64.0442 59.3627C63.9452 59.542 63.7162 59.6349 63.345 59.641H60.9195C60.9195 59.6287 60.9195 58.2057 60.9195 58.2057H63.2027C63.6667 58.2057 63.9142 58.317 64.0442 58.5274C64.0998 58.6264 64.1307 58.7934 64.1307 58.948Z" fill="#438AA7"/>
<path d="M72.3015 62.3697V57.5127H71.2992L69.3007 61.5097L67.3392 57.5127H66.3184V62.3697H67.0547V58.6325L68.886 62.3697H69.6904L71.5652 58.6325V62.3697H72.3015Z" fill="#438AA7"/>
<path d="M74.4729 61.1694H77.4986L78.1173 62.3697H78.9464L76.4838 57.5127H75.5743L73.0312 62.3697H73.8418L74.4729 61.1694ZM77.1768 60.4825H74.8071L75.7908 58.6202L76.0074 58.1685L76.2239 58.6202L77.1768 60.4825Z" fill="#438AA7"/>
<path d="M84.5192 62.3697V57.5127H83.7825V61.2869L80.5659 57.5127H79.6934V62.3697H80.442V58.5707L83.6842 62.3697H84.5192Z" fill="#438AA7"/>
<path d="M91.1942 60.5566H90.3892C90.3642 60.7793 90.2775 61.0021 90.1225 61.1691C89.7892 61.5589 89.2575 61.7259 88.4408 61.7259C87.7542 61.7259 87.0175 61.5341 86.6642 61.0329C86.4792 60.7979 86.3608 60.4514 86.3608 59.9316C86.3608 59.4676 86.4425 59.1211 86.6208 58.8859C86.9175 58.4096 87.5425 58.1621 88.4225 58.1621C89.2758 58.1621 89.8142 58.3971 90.0992 58.7251C90.2592 58.8983 90.3525 59.1026 90.3825 59.3438H91.1875C91.1625 59.0716 91.0758 58.7498 90.8908 58.4776C90.4942 57.8898 89.7642 57.4258 88.4275 57.4258C87.1542 57.4258 86.3925 57.8341 85.9708 58.4466C85.6992 58.7993 85.5625 59.2943 85.5625 59.9255C85.5625 60.6308 85.7308 61.1506 86.0208 61.5156C86.4425 62.0911 87.2525 62.4374 88.4775 62.4374C89.7342 62.4374 90.4825 62.0601 90.8542 61.46C91.0642 61.1691 91.1692 60.8226 91.1942 60.5566Z" fill="#438AA7"/>
<path d="M96.7331 62.3697V61.6582H92.9581V60.2722H96.5848V59.5669H92.9581V58.218H96.6898V57.5127H92.2031V62.3697H96.7331Z" fill="#438AA7"/>
<path d="M40.1464 67.1943L41.0717 70.0423H44.0662L41.6437 71.8025L42.5691 74.6503L40.1464 72.8903L37.7237 74.6503L38.6492 71.8025L36.2266 70.0423H39.2211L40.1464 67.1943Z" fill="#438AA7"/>
<path d="M50.8299 67.1948L51.7741 70.0427H54.8297L52.3577 71.8028L53.3019 74.6508L50.8299 72.8907L48.3579 74.6508L49.3021 71.8028L46.8301 70.0427H49.8857L50.8299 67.1948Z" fill="#438AA7"/>
<path d="M61.4276 67.1948L62.3719 70.0427H65.4274L62.9554 71.8028L63.8997 74.6508L61.4276 72.8907L58.9556 74.6508L59.8997 71.8028L57.4277 70.0427H60.4834L61.4276 67.1948Z" fill="#438AA7"/>
<path d="M72.0272 67.1948L72.9713 70.0427H76.027L73.555 71.8028L74.4992 74.6508L72.0272 72.8907L69.5552 74.6508L70.4993 71.8028L68.0273 70.0427H71.083L72.0272 67.1948Z" fill="#438AA7"/>
<path d="M82.7091 67.1948L83.6341 70.0427H86.6291L84.2057 71.8028L85.1307 74.6508L82.7091 72.8907L80.2862 74.6508L81.2117 71.8028L78.7891 70.0427H81.7836L82.7091 67.1948Z" fill="#438AA7"/>
<path d="M45.3367 19.146L46.0364 21.2993H48.3005L46.4689 22.6302L47.1685 24.7833L45.3367 23.4527L43.505 24.7833L44.2047 22.6302L42.373 21.2993H44.6372L45.3367 19.146Z" fill="#438AA7"/>
<path d="M53.415 19.1431L54.129 21.2964H56.4391L54.5701 22.6272L55.284 24.7804L53.415 23.4496L51.5458 24.7804L52.2598 22.6272L50.3906 21.2964H52.701L53.415 19.1431Z" fill="#438AA7"/>
<path d="M61.4286 19.1431L62.1425 21.2964H64.4528L62.5838 22.6272L63.2976 24.7804L61.4286 23.4496L59.5595 24.7804L60.2735 22.6272L58.4043 21.2964H60.7146L61.4286 19.1431Z" fill="#438AA7"/>
<path d="M69.4403 19.1431L70.1542 21.2964H72.4645L70.5955 22.6272L71.3094 24.7804L69.4403 23.4496L67.5712 24.7804L68.2852 22.6272L66.416 21.2964H68.7263L69.4403 19.1431Z" fill="#438AA7"/>
<path d="M77.5184 19.1431L78.218 21.2964H80.4822L78.6505 22.6272L79.3502 24.7804L77.5184 23.4496L75.6867 24.7804L76.3864 22.6272L74.5547 21.2964H76.8187L77.5184 19.1431Z" fill="#438AA7"/>
<path fill-rule="evenodd" clip-rule="evenodd" d="M13.0878 57.903C10.0001 38.5848 19.0114 19.4718 37.0516 11.2642L37.2181 11.6302C19.3594 19.7552 10.4226 38.6812 13.4848 57.8395C16.8726 79.035 33.9716 91.7467 54.9108 92.3595L54.8989 92.7615C33.7966 92.1438 16.5104 79.3172 13.0878 57.903Z" fill="#438AA7"/>
<path d="M33.1415 16.1943C29.8077 16.2703 25.9058 18.1503 23.6035 20.8809C25.4498 22.5954 28.4205 21.9616 30.5583 21.6109C33.6095 21.1106 36.8542 20.1413 39.7333 18.7691C38.5495 16.2491 35.3605 16.1438 33.1415 16.1943Z" fill="#438AA7"/>
<path d="M30.5186 12.0813C28.5439 15.1573 26.1906 18.2145 23.6296 20.9067C21.4869 18.8953 22.7803 15.5482 23.6548 13.4667C25.2389 9.69499 29.0371 6.44249 33.0079 4.77832C34.0978 7.25782 31.7306 10.1933 30.5186 12.0813Z" fill="#438AA7"/>
<path d="M23.4928 24.8198C20.3711 25.9294 17.6886 29.0531 16.3418 32.1891C18.5865 33.2328 21.1383 31.7256 23.0051 30.7221C25.5685 29.3441 28.1836 27.4428 30.2413 25.2424C28.3821 23.2808 25.5591 24.0854 23.4928 24.8198Z" fill="#438AA7"/>
<path d="M19.7078 21.7461C19.0245 25.2544 17.8788 28.8908 16.3741 32.2051C13.7478 30.9664 13.8478 27.4188 13.9603 25.1611C14.1523 21.3076 16.3081 16.9133 19.3096 14.1206C21.1471 16.0906 20.1431 19.5113 19.7078 21.7461Z" fill="#438AA7"/>
<path d="M17.4864 35.9562C14.8852 38.0082 13.3085 41.8111 12.9434 45.2069C15.404 45.4894 17.3709 43.2501 18.8344 41.7137C20.8269 39.6219 22.713 36.9982 23.9109 34.2534C21.5652 32.9737 19.1807 34.6196 17.4864 35.9562Z" fill="#438AA7"/>
<path d="M12.9801 34.224C13.444 37.7668 13.445 41.5997 12.981 45.2117C10.1193 44.8602 9.17012 41.4242 8.60945 39.2687C7.64145 35.548 8.29045 30.742 10.1761 27.125C12.5326 28.4295 12.6838 31.9595 12.9801 34.224Z" fill="#438AA7"/>
<path d="M15.4467 48.1119C13.3884 51.1271 12.6645 55.8522 13.5902 59.6502C16.3102 59.0062 17.6585 55.9267 18.7412 53.7519C20.18 50.8614 21.3962 47.4892 21.8315 44.1807C18.8814 43.5667 16.8025 46.1256 15.4467 48.1119Z" fill="#438AA7"/>
<path d="M10.0413 47.8072C11.645 51.52 12.8965 55.6065 13.6288 59.6412C10.5093 60.3114 8.26418 57.0357 6.95985 54.8637C4.63768 50.9974 3.96118 45.6375 4.81185 41.0122C7.66701 41.5847 9.06418 45.5455 10.0413 47.8072Z" fill="#438AA7"/>
<path d="M16.8866 61.2309C15.7814 64.8886 16.5496 69.8611 18.7873 73.2997C21.2463 71.6987 21.5866 68.1751 21.9351 65.6486C22.3946 62.3146 22.6109 58.6212 22.0401 55.1641C18.8949 55.5656 17.6248 58.7874 16.8866 61.2309Z" fill="#438AA7"/>
<path d="M11.419 62.7968C14.1783 65.9629 16.7236 69.5729 18.8228 73.2761C15.9758 75.0534 12.635 72.6253 10.6088 70.9069C7.01429 67.8588 4.68029 62.6779 4.12695 57.7936C7.11829 57.3916 9.75445 60.8866 11.419 62.7968Z" fill="#438AA7"/>
<path d="M22.6854 73.6802C22.9226 77.9377 25.6944 82.4052 29.3851 84.9481C31.1674 82.5079 30.0502 78.7691 29.4422 76.1592C28.6237 72.6454 27.4909 68.9864 25.8074 65.7397C22.8717 67.2911 22.5292 70.8764 22.6854 73.6802Z" fill="#438AA7"/>
<path d="M17.7216 77.2764C21.7201 79.4983 25.7071 82.1201 29.4141 84.9099C27.1941 87.8333 22.7567 86.6676 20.0061 85.7279C15.1587 84.0721 10.8372 79.7071 8.58008 74.8576C11.4419 73.3834 15.3596 75.9639 17.7216 77.2764Z" fill="#438AA7"/>
<path d="M34.0729 84.0814C36.4728 88.4611 41.9416 91.3183 47.0916 92.0061C47.6459 88.8221 44.2008 85.6696 42.3234 83.6073C39.6506 80.6711 36.8654 77.6241 33.7428 75.0854C31.4033 77.8018 32.6401 81.4666 34.0729 84.0814Z" fill="#438AA7"/>
<path d="M30.6467 89.6319C36.1019 90.199 41.6495 91.0155 47.1015 91.957C46.581 95.9744 40.2059 96.6227 37.3117 96.8599C31.3775 97.3462 24.7762 94.9609 20.1797 90.9452C22.4627 88.2589 27.7409 89.3299 30.6467 89.6319Z" fill="#438AA7"/>
<path d="M41.1513 7.89238C37.4888 8.93721 33.2018 10.9194 31.084 14.5784C34.9282 14.1594 38.7063 12.7915 42.4012 11.7494C46.5398 10.5819 50.8977 9.70871 54.9047 8.09721C50.5163 6.34154 45.3433 6.69638 41.1513 7.89238Z" fill="#438AA7"/>
<path fill-rule="evenodd" clip-rule="evenodd" d="M112.008 57.8395C115.069 38.6812 106.133 19.7555 88.2744 11.6302L88.441 11.2642C106.481 19.472 115.493 38.5848 112.404 57.903C108.983 79.3172 91.696 92.1438 70.5937 92.7615L70.582 92.3595C91.521 91.7467 108.619 79.035 112.008 57.8395Z" fill="#438AA7"/>
<path d="M92.3534 16.1943C95.6867 16.2703 99.5884 18.1503 101.892 20.8809C100.045 22.5954 97.0734 21.9616 94.9367 21.6109C91.8851 21.1106 88.6401 20.1413 85.7617 18.7691C86.9451 16.2491 90.1334 16.1438 92.3534 16.1943Z" fill="#438AA7"/>
<path d="M94.9725 12.0818C96.9475 15.1578 99.3008 18.215 101.861 20.9071C104.004 18.8958 102.711 15.5486 101.836 13.4671C100.252 9.69548 96.4542 6.44298 92.4825 4.77881C91.3925 7.25831 93.7608 10.1938 94.9725 12.0818Z" fill="#438AA7"/>
<path d="M102.002 24.8198C105.124 25.9294 107.806 29.0531 109.152 32.1891C106.907 33.2328 104.356 31.7256 102.489 30.7221C99.9256 29.3441 97.3106 27.4428 95.2539 25.2424C97.1122 23.2808 99.9356 24.0854 102.002 24.8198Z" fill="#438AA7"/>
<path d="M105.785 21.7461C106.468 25.2544 107.613 28.8908 109.118 32.2051C111.745 30.9664 111.645 27.4188 111.531 25.1611C111.34 21.3076 109.185 16.9133 106.183 14.1206C104.345 16.0906 105.35 19.5113 105.785 21.7461Z" fill="#438AA7"/>
<path d="M108.005 35.9562C110.607 38.0082 112.184 41.8111 112.549 45.2069C110.089 45.4894 108.122 43.2501 106.659 41.7137C104.665 39.6219 102.779 36.9982 101.582 34.2534C103.927 32.9737 106.312 34.6196 108.005 35.9562Z" fill="#438AA7"/>
<path d="M112.513 34.224C112.048 37.7665 112.048 41.5997 112.511 45.2117C115.373 44.8602 116.323 41.4242 116.883 39.2687C117.851 35.548 117.201 30.742 115.316 27.125C112.96 28.4295 112.808 31.9595 112.513 34.224Z" fill="#438AA7"/>
<path d="M110.047 48.1119C112.105 51.1271 112.829 55.8522 111.904 59.6502C109.184 59.0062 107.835 55.9269 106.752 53.7519C105.314 50.8614 104.097 47.4892 103.662 44.1807C106.612 43.5667 108.692 46.1256 110.047 48.1119Z" fill="#438AA7"/>
<path d="M115.452 47.8072C113.849 51.52 112.597 55.6065 111.865 59.6412C114.984 60.3114 117.229 57.0357 118.534 54.8637C120.855 50.9974 121.532 45.6375 120.682 41.0122C117.827 41.5847 116.429 45.5455 115.452 47.8072Z" fill="#438AA7"/>
<path d="M108.607 61.2309C109.712 64.8886 108.945 69.8611 106.707 73.2997C104.249 71.6987 103.907 68.1751 103.559 65.6486C103.1 62.3146 102.884 58.6212 103.454 55.1641C106.599 55.5656 107.869 58.7874 108.607 61.2309Z" fill="#438AA7"/>
<path d="M114.073 62.7968C111.315 65.9631 108.77 69.5729 106.67 73.2761C109.517 75.0534 112.858 72.6253 114.885 70.9069C118.478 67.8588 120.813 62.6779 121.367 57.7936C118.375 57.3916 115.738 60.8866 114.073 62.7968Z" fill="#438AA7"/>
<path d="M102.809 73.6802C102.572 77.9377 99.8002 82.4052 96.1102 84.9481C94.3269 82.5079 95.4452 78.7692 96.0519 76.1592C96.8702 72.6454 98.0035 68.9864 99.6869 65.7397C102.624 67.2911 102.965 70.8764 102.809 73.6802Z" fill="#438AA7"/>
<path d="M107.772 77.2764C103.773 79.4983 99.7867 82.1201 96.0801 84.9099C98.3001 87.8333 102.737 86.6676 105.487 85.7279C110.335 84.0721 114.657 79.7071 116.913 74.8576C114.052 73.3834 110.133 75.9639 107.772 77.2764Z" fill="#438AA7"/>
<path d="M91.4224 84.081C89.0224 88.4606 83.554 91.3178 78.4034 92.0056C77.849 88.8216 81.294 85.6691 83.1724 83.6068C85.844 80.6706 88.629 77.6236 91.7524 75.085C94.0924 77.8013 92.854 81.4661 91.4224 84.081Z" fill="#438AA7"/>
<path d="M94.8472 89.6319C89.3922 90.199 83.8456 91.0155 78.3926 91.957C78.9132 95.9744 85.2889 96.6227 88.1822 96.8599C94.1172 97.3462 100.719 94.9609 105.314 90.9452C103.032 88.2589 97.7539 89.3299 94.8472 89.6319Z" fill="#438AA7"/>
<path d="M84.3394 7.89238C88.0011 8.93721 92.2894 10.9194 94.4061 14.5784C90.5628 14.1594 86.7844 12.7915 83.0894 11.7494C78.9508 10.5819 74.5929 9.70871 70.5859 8.09721C74.9744 6.34154 80.1473 6.69638 84.3394 7.89238Z" fill="#438AA7"/>
<path d="M65.1264 5.99855L63.2472 1.85205L61.4034 5.92138L57.1152 3.26272L59.8707 9.05322H66.7234L69.3794 3.26272L65.1264 5.99855Z" fill="#438AA7"/>
<path d="M66.6819 9.95312H59.8184V10.966H66.6819V9.95312Z" fill="#438AA7"/>
<path d="M63.7413 88.3052L64.8473 91.7088H68.4261L65.5308 93.8123L66.6366 97.216L63.7413 95.1125L60.846 97.216L61.952 93.8123L59.0566 91.7088H62.6355L63.7413 88.3052Z" fill="#438AA7"/>
</svg>
