<svg width="360" height="360" viewBox="0 0 360 360" fill="none" xmlns="http://www.w3.org/2000/svg">
<path d="M360 275.328H0V275.508H360V275.328Z" fill="#EBEBEB"/>
<g opacity="0.2">
<path d="M118.433 47.3398H67.1328V221.371H118.433V47.3398Z" fill="#BAB9B9"/>
<path d="M110.793 47.3398H107.798L89.9062 221.371H92.9014L110.793 47.3398Z" fill="#CCCBCB"/>
<path d="M117.525 48.0098H66.8008V49.5434H117.525V48.0098Z" fill="#CAC8C8"/>
<path d="M68.7537 48.0097H116.684V222.984H119.557V45.8569H65.8809V222.984H68.7537V48.0097Z" fill="#D6D6D6"/>
<path d="M175.521 47.3398H124.221V221.371H175.521V47.3398Z" fill="#BAB9B9"/>
<path d="M161.286 47.3398H144.935L127.043 221.371H143.394L161.286 47.3398Z" fill="#CCCBCB"/>
<path d="M176.055 48.0098H123.891V49.5434H176.055V48.0098Z" fill="#CAC8C8"/>
<path d="M176.055 219.845H123.891V223.128H176.055V219.845Z" fill="#D6D6D6"/>
<path d="M125.84 48.0092H173.77V222.984H176.636V45.8564H122.967V222.984H125.84V48.0092Z" fill="#D6D6D6"/>
<path d="M231.163 47.3398H181.303V221.371H231.163V47.3398Z" fill="#BAB9B9"/>
<path d="M209.555 47.3398H206.56L188.668 221.371H191.663L209.555 47.3398Z" fill="#CCCBCB"/>
<path d="M231.704 48.0098H180.98V49.5434H231.704V48.0098Z" fill="#CAC8C8"/>
<path d="M231.704 219.845H180.98V223.128H231.704V219.845Z" fill="#D6D6D6"/>
<path d="M182.931 48.0097H230.855V222.984H233.727V45.8569H180.059V222.984H182.931V48.0097Z" fill="#D6D6D6"/>
<path d="M289.693 47.3398H238.393V221.371H289.693V47.3398Z" fill="#BAB9B9"/>
<path d="M284.672 47.3398H268.321L250.422 221.371H266.78L284.672 47.3398Z" fill="#CCCBCB"/>
<path d="M288.786 48.0098H238.062V49.5434H288.786V48.0098Z" fill="#CAC8C8"/>
<path d="M288.786 219.845H238.062V223.128H288.786V219.845Z" fill="#D6D6D6"/>
<path d="M240.01 48.0092H287.941V222.984H290.813V45.8564H237.145V222.984H240.01V48.0092Z" fill="#D6D6D6"/>
</g>
<path d="M287.942 222.984H240.012V223.128H287.942V222.984Z" fill="#EBEBEB"/>
<path d="M85.3207 185.616H88.1719V182.765H85.3207V185.616Z" fill="#F0F0F0"/>
<path d="M85.3207 190.793H88.1719V187.942H85.3207V190.793Z" fill="#FAFAFA"/>
<path d="M90.8422 195.977H93.6934V193.125H90.8422V195.977Z" fill="#FAFAFA"/>
<path d="M85.3207 195.977H88.1719V193.126H85.3207V195.977Z" fill="#F0F0F0"/>
<path d="M90.8422 201.161H93.6934V198.31H90.8422V201.161Z" fill="#F0F0F0"/>
<path d="M85.3207 201.161H88.1719V198.31H85.3207V201.161Z" fill="#FAFAFA"/>
<path d="M101.881 206.345H104.732V203.494H101.881V206.345Z" fill="#F0F0F0"/>
<path d="M90.8422 206.345H93.6934V203.494H90.8422V206.345Z" fill="#FAFAFA"/>
<path d="M85.3207 206.345H88.1719V203.494H85.3207V206.345Z" fill="#F0F0F0"/>
<path d="M101.881 211.521H104.732V208.67H101.881V211.521Z" fill="#F0F0F0"/>
<path d="M96.3637 211.521H99.2148V208.67H96.3637V211.521Z" fill="#FAFAFA"/>
<path d="M90.8422 211.521H93.6934V208.67H90.8422V211.521Z" fill="#F0F0F0"/>
<path d="M85.3207 211.521H88.1719V208.67H85.3207V211.521Z" fill="#FAFAFA"/>
<path d="M101.881 216.706H104.732V213.854H101.881V216.706Z" fill="#FAFAFA"/>
<path d="M96.3637 216.706H99.2148V213.854H96.3637V216.706Z" fill="#FAFAFA"/>
<path d="M90.8422 216.706H93.6934V213.854H90.8422V216.706Z" fill="#F0F0F0"/>
<path d="M85.3207 216.706H88.1719V213.854H85.3207V216.706Z" fill="#F0F0F0"/>
<path d="M149.941 208.857H152.26V206.539H149.941V208.857Z" fill="#FAFAFA"/>
<path d="M149.941 213.07H152.26V210.751H149.941V213.07Z" fill="#E6E6E6"/>
<path d="M149.941 217.289H152.26V214.971H149.941V217.289Z" fill="#E6E6E6"/>
<path d="M136.168 211.414H129.35V217.951H136.168V211.414Z" fill="#FAFAFA"/>
<path d="M79.8408 281.441H75.2832V281.621H79.8408V281.441Z" fill="#EBEBEB"/>
<path d="M360 275H0V275.18H360V275Z" fill="#EBEBEB"/>
<g opacity="0.75">
<path d="M307.506 270.145H238.977V178.957H307.506V270.145Z" fill="#BAB9B9"/>
<path d="M320.581 270.145H307.506V178.957H320.581V270.145Z" fill="#D2D2D2"/>
<path d="M303.057 207.872H243.779V185.725H303.057V207.872Z" fill="#D2D2D2"/>
<path d="M265.688 185.725L265.947 188.677C265.987 189.147 266.202 189.585 266.551 189.904C266.899 190.223 267.354 190.399 267.826 190.397H279.008C279.48 190.399 279.936 190.223 280.284 189.904C280.632 189.585 280.847 189.147 280.887 188.677L281.146 185.725H265.688Z" fill="#BAB9B9"/>
<path d="M303.057 232.432H243.779V210.284H303.057V232.432Z" fill="#D2D2D2"/>
<path d="M265.688 210.291L265.947 213.243C265.989 213.713 266.205 214.15 266.552 214.469C266.9 214.787 267.355 214.964 267.826 214.964H279.008C279.48 214.964 279.934 214.787 280.282 214.469C280.63 214.15 280.846 213.713 280.887 213.243L281.146 210.291H265.688Z" fill="#BAB9B9"/>
<path d="M303.057 256.998H243.779V234.851H303.057V256.998Z" fill="#D2D2D2"/>
<path d="M265.688 234.851L265.947 237.803C265.987 238.273 266.202 238.711 266.551 239.03C266.899 239.349 267.354 239.525 267.826 239.523H279.008C279.48 239.525 279.936 239.349 280.284 239.03C280.632 238.711 280.847 238.273 280.887 237.803L281.146 234.851H265.688Z" fill="#BAB9B9"/>
<path d="M243 275H315.113L316 270H243V275Z" fill="#D2D2D2"/>
<path d="M315.298 274.703H303.058V270.138H316.018L315.298 274.703Z" fill="#BAB9B9"/>
</g>
<g opacity="0.5">
<path d="M90.07 157.304C85.5324 152.501 84.5323 146.041 87.8503 142.904C91.1683 139.767 97.5575 141.125 102.102 145.931C106.646 150.737 107.639 157.194 104.321 160.331C101.003 163.469 94.6143 162.11 90.07 157.304ZM98.9142 148.929C96.7518 146.663 93.7926 146.037 92.2376 147.509C90.6826 148.982 91.1509 152.002 93.2784 154.222C95.4058 156.441 98.4 157.113 99.955 155.641C101.51 154.169 101.032 151.207 98.9142 148.929Z" fill="#BAB9B9"/>
<path d="M100.939 150.077L98.7818 147.798L130.659 117.637C130.809 117.495 130.985 117.384 131.178 117.31C131.371 117.236 131.576 117.201 131.783 117.207C131.989 117.213 132.192 117.26 132.38 117.346C132.569 117.431 132.738 117.552 132.879 117.703C133.02 117.853 133.131 118.028 133.205 118.22C133.278 118.413 133.313 118.617 133.307 118.823C133.301 119.029 133.255 119.231 133.17 119.419C133.086 119.606 132.966 119.776 132.816 119.916L100.939 150.077Z" fill="#BAB9B9"/>
<path d="M133.422 124.415L129.286 120.011L131.571 117.857L135.702 122.258L133.422 124.415Z" fill="#BAB9B9"/>
<path d="M128.726 125.911L125.763 122.77L128.045 120.607L131.008 123.748L128.726 125.911Z" fill="#BAB9B9"/>
<path d="M124.394 125.029L122.113 127.186L125.438 130.701L127.719 128.544L124.394 125.029Z" fill="#BAB9B9"/>
<path d="M103.657 146.565L102.47 145.312C102.187 145.011 102.036 144.61 102.048 144.197C102.061 143.784 102.236 143.393 102.537 143.109C102.838 142.824 103.239 142.671 103.652 142.682C104.066 142.694 104.458 142.869 104.743 143.169L105.93 144.421C106.213 144.723 106.364 145.124 106.352 145.537C106.339 145.95 106.163 146.341 105.863 146.625C105.562 146.909 105.161 147.063 104.747 147.051C104.334 147.04 103.941 146.865 103.657 146.565Z" fill="#BAB9B9"/>
</g>
<g opacity="0.5">
<path d="M296.478 106.705C298.284 107.845 299.709 109.498 300.571 111.452C301.433 113.407 301.693 115.574 301.318 117.676C300.942 119.779 299.948 121.722 298.463 123.257C296.978 124.793 295.069 125.85 292.98 126.295C290.891 126.74 288.716 126.552 286.735 125.755C284.753 124.958 283.054 123.589 281.854 121.821C280.654 120.054 280.009 117.969 280 115.833C279.991 113.697 280.619 111.607 281.804 109.83C283.338 107.472 285.744 105.819 288.495 105.233C291.246 104.647 294.116 105.176 296.478 106.705ZM287.73 119.83C288.549 120.408 289.523 120.727 290.525 120.748C291.527 120.769 292.513 120.491 293.356 119.948C294.2 119.406 294.862 118.625 295.259 117.704C295.656 116.784 295.769 115.766 295.584 114.78C295.399 113.795 294.925 112.887 294.222 112.173C293.518 111.458 292.618 110.97 291.635 110.77C290.653 110.57 289.633 110.668 288.707 111.051C287.78 111.433 286.989 112.084 286.434 112.918C285.69 114.007 285.408 115.347 285.651 116.643C285.894 117.939 286.642 119.085 287.73 119.83Z" fill="#BAB9B9"/>
<path d="M285.991 119.159L288.972 121.146L267.646 153.777C267.382 154.172 266.972 154.446 266.506 154.539C266.041 154.632 265.557 154.537 265.162 154.274C264.966 154.144 264.799 153.976 264.668 153.782C264.537 153.587 264.446 153.368 264.4 153.138C264.354 152.908 264.354 152.671 264.399 152.441C264.444 152.211 264.535 151.992 264.665 151.797L285.991 119.159Z" fill="#BAB9B9"/>
<path d="M264.01 144.335L270.288 148.547L267.156 153.249L260.87 149.03C260.438 148.739 260.139 148.288 260.038 147.777C259.936 147.265 260.042 146.735 260.33 146.301L261.274 144.861C261.568 144.431 262.021 144.134 262.533 144.036C263.046 143.937 263.576 144.045 264.01 144.335Z" fill="#BAB9B9"/>
</g>
<g opacity="0.5">
<path d="M123.374 65.6074L120.062 74.1754C119.991 74.3593 119.884 74.5275 119.748 74.6702C119.613 74.813 119.45 74.9276 119.27 75.0075C119.089 75.0874 118.895 75.131 118.698 75.1359C118.501 75.1408 118.305 75.1068 118.121 75.0358C117.937 74.9649 117.769 74.8585 117.626 74.7226C117.484 74.5867 117.369 74.424 117.289 74.2438C117.209 74.0637 117.166 73.8695 117.161 73.6725C117.156 73.4754 117.19 73.2793 117.261 73.0954L120.573 64.5274C121.085 63.1953 121.048 61.7146 120.471 60.4095C119.893 59.1045 118.822 58.0816 117.491 57.565L114.424 56.377C113.094 55.8641 111.615 55.8988 110.31 56.4736C109.005 57.0484 107.981 58.1165 107.462 59.4442L106.108 62.9434L103.314 61.8634L104.668 58.3642C105.064 57.3374 105.659 56.3986 106.418 55.6016C107.177 54.8045 108.085 54.1647 109.091 53.7188C110.098 53.2728 111.182 53.0294 112.282 53.0025C113.382 52.9756 114.477 53.1656 115.504 53.5618L118.571 54.7426C119.6 55.1402 120.541 55.7367 121.339 56.4981C122.138 57.2594 122.778 58.1707 123.224 59.1797C123.67 60.1887 123.913 61.2758 123.939 62.3787C123.964 63.4816 123.772 64.5788 123.374 65.6074Z" fill="#BAB9B9"/>
<path d="M122.848 66.9538C122.62 66.6603 122.316 66.4339 121.97 66.2986L105.266 59.8186C104.759 59.6276 104.197 59.6435 103.701 59.8631C103.205 60.0826 102.816 60.4881 102.616 60.9922L96.1364 77.7034C95.9417 78.2094 95.9559 78.7721 96.176 79.2676C96.3961 79.7631 96.804 80.1509 97.31 80.3458L114.014 86.8258C114.265 86.9233 114.533 86.9703 114.802 86.964C115.071 86.9578 115.336 86.8984 115.583 86.7894C115.829 86.6803 116.051 86.5237 116.236 86.3286C116.422 86.1334 116.567 85.9036 116.664 85.6522L123.144 68.9482C123.272 68.6187 123.312 68.2616 123.26 67.9119C123.208 67.5622 123.066 67.232 122.848 66.9538ZM110.162 79.8634L104.87 77.8186L107.671 72.9298C107.454 72.4921 107.349 72.0071 107.367 71.5188C107.384 71.0305 107.523 70.5543 107.771 70.1333C108.019 69.7124 108.369 69.3599 108.787 69.1079C109.206 68.8558 109.681 68.7122 110.169 68.69C110.657 68.6677 111.143 68.7676 111.583 68.9805C112.022 69.1934 112.402 69.5126 112.687 69.9093C112.973 70.306 113.154 70.7675 113.216 71.2522C113.278 71.7369 113.218 72.2293 113.042 72.685C112.897 73.0657 112.674 73.4114 112.386 73.6993C112.098 73.9873 111.752 74.2109 111.372 74.3554L110.162 79.8634Z" fill="#BAB9B9"/>
</g>
<path d="M179.997 307.447C257.097 307.447 319.598 303.798 319.598 299.297C319.598 294.796 257.097 291.146 179.997 291.146C102.898 291.146 40.3965 294.796 40.3965 299.297C40.3965 303.798 102.898 307.447 179.997 307.447Z" fill="#BAB9B9" fill-opacity="0.5"/>
<path d="M211.75 290.779L218.921 289.735L217.114 272.959L209.936 274.003L211.75 290.779Z" fill="#E8BFBF"/>
<path d="M224.436 289.987C225.058 289.94 225.646 289.686 226.107 289.267C226.203 289.145 226.269 289.001 226.297 288.848C226.326 288.695 226.318 288.538 226.272 288.389C226.251 288.297 226.207 288.211 226.144 288.141C226.081 288.07 226.001 288.017 225.912 287.986C224.955 287.64 222.312 289.577 222.039 289.793C222.01 289.815 221.988 289.845 221.976 289.88C221.964 289.915 221.964 289.952 221.974 289.987C221.986 290.019 222.008 290.047 222.036 290.066C222.064 290.086 222.098 290.096 222.132 290.095C222.902 290.128 223.673 290.092 224.436 289.987ZM225.444 288.302C225.551 288.278 225.662 288.278 225.768 288.302C225.806 288.314 225.84 288.336 225.866 288.365C225.893 288.394 225.911 288.429 225.92 288.468C225.949 288.567 225.955 288.671 225.936 288.773C225.917 288.874 225.875 288.97 225.812 289.051C225.444 289.505 224.271 289.771 222.644 289.771C223.496 289.134 224.45 288.647 225.466 288.331L225.444 288.302Z" fill="#355DFF"/>
<path d="M222.176 290.102H222.234C223.033 289.577 224.466 287.748 224.192 286.963C224.136 286.825 224.033 286.711 223.901 286.641C223.77 286.571 223.618 286.55 223.472 286.581C223.3 286.586 223.13 286.627 222.974 286.7C222.818 286.773 222.679 286.877 222.565 287.006C221.794 287.899 221.946 289.886 221.946 289.944C221.946 289.973 221.953 290.001 221.965 290.027C221.978 290.053 221.995 290.076 222.018 290.095C222.042 290.107 222.069 290.114 222.096 290.116C222.123 290.117 222.151 290.112 222.176 290.102ZM223.378 286.92L223.479 286.869C223.796 286.869 223.832 286.977 223.839 287.013C224.012 287.496 223.054 288.9 222.262 289.548C222.191 288.719 222.385 287.89 222.817 287.179C222.969 287.022 223.174 286.927 223.393 286.913L223.378 286.92Z" fill="#355DFF"/>
<path d="M218.16 286.761L211.802 288.281C211.664 288.309 211.541 288.387 211.458 288.5C211.374 288.613 211.335 288.753 211.348 288.893L211.557 298.101C211.578 298.254 211.629 298.401 211.708 298.534C211.786 298.667 211.889 298.783 212.012 298.876C212.135 298.969 212.275 299.037 212.425 299.076C212.574 299.115 212.729 299.124 212.882 299.102C212.927 299.106 212.973 299.106 213.019 299.102C215.769 298.382 217.072 297.95 220.572 297.137C222.732 296.647 229.521 296.129 232.308 294.89C235.094 293.652 234.007 290.829 232.74 291.096C228.65 291.974 223.38 290.225 220.42 287.561C220.046 287.337 218.628 286.653 218.16 286.761Z" fill="#263238"/>
<path opacity="0.2" d="M217.114 272.959L218.043 281.606L210.872 282.657L209.936 274.01L217.114 272.959Z" fill="black"/>
<path d="M220.944 278.05L207.674 280.526C207.674 280.526 201.23 271.325 200.013 264.794C198.746 257.99 200.1 234.835 200.013 234.554C196.262 221.882 186.06 189.05 181.142 176.954C178.413 170.258 176.498 165.751 176.498 165.751L177.873 165.442L188.709 161.006L196.629 162.49C196.629 162.49 220.612 210.996 223.125 229.241C224.976 242.849 220.944 278.05 220.944 278.05Z" fill="#355DFF"/>
<path opacity="0.3" d="M220.944 278.05L207.674 280.526C207.674 280.526 201.23 271.325 200.013 264.794C198.746 257.99 200.1 234.835 200.013 234.554C196.262 221.882 186.06 189.05 181.142 176.954C178.413 170.258 176.498 165.751 176.498 165.751L177.873 165.442L188.709 161.006L196.629 162.49C196.629 162.49 220.612 210.996 223.125 229.241C224.976 242.849 220.944 278.05 220.944 278.05Z" fill="white"/>
<path opacity="0.2" d="M196.89 223.553C193.139 210.881 185.565 191.664 180.64 179.582L177.378 168.062L176.752 165.845L177.897 167.94L190.749 196.409C196.422 207.36 196.977 223.862 196.89 223.553Z" fill="black"/>
<path d="M138.648 286.834L145.042 289.527L151.86 274.889L145.474 272.196L138.648 286.834Z" fill="#E8BFBF"/>
<path d="M149.204 292.586C149.711 292.903 150.31 293.038 150.904 292.968C151.048 292.93 151.181 292.856 151.29 292.755C151.399 292.653 151.482 292.526 151.53 292.385C151.567 292.302 151.581 292.212 151.573 292.122C151.564 292.033 151.532 291.947 151.48 291.873C150.932 291.067 147.815 291.074 147.469 291.074C147.435 291.078 147.402 291.09 147.375 291.11C147.347 291.131 147.325 291.158 147.311 291.189C147.302 291.222 147.303 291.256 147.313 291.288C147.323 291.32 147.342 291.348 147.368 291.369C147.942 291.831 148.556 292.238 149.204 292.586ZM150.932 291.866C151.032 291.908 151.119 291.975 151.184 292.061C151.202 292.093 151.211 292.129 151.211 292.165C151.211 292.202 151.202 292.237 151.184 292.269C151.151 292.362 151.096 292.445 151.025 292.512C150.954 292.58 150.868 292.63 150.774 292.658C150.227 292.802 149.183 292.341 147.894 291.42C148.921 291.397 149.944 291.55 150.918 291.873L150.932 291.866Z" fill="#355DFF"/>
<path d="M147.398 291.399H147.455C148.37 291.449 150.508 290.844 150.746 290.088C150.784 289.948 150.772 289.798 150.709 289.666C150.647 289.534 150.54 289.428 150.407 289.368C150.273 289.274 150.12 289.209 149.959 289.178C149.797 289.147 149.631 289.151 149.471 289.188C148.363 289.433 147.376 291.039 147.311 291.103C147.299 291.128 147.293 291.155 147.293 291.183C147.293 291.21 147.299 291.237 147.311 291.262C147.313 291.29 147.322 291.318 147.337 291.341C147.352 291.365 147.373 291.385 147.398 291.399ZM150.127 289.62H150.227C150.479 289.786 150.436 289.901 150.422 289.937C150.285 290.398 148.759 290.945 147.779 291.003C148.188 290.322 148.803 289.789 149.536 289.483C149.746 289.448 149.962 289.491 150.141 289.606L150.127 289.62Z" fill="#355DFF"/>
<path d="M146.202 286.56L140.442 284.141C140.317 284.078 140.173 284.065 140.039 284.106C139.905 284.146 139.792 284.236 139.722 284.357L134.682 291.557C134.611 291.687 134.567 291.829 134.551 291.977C134.536 292.124 134.549 292.272 134.591 292.414C134.634 292.556 134.703 292.688 134.797 292.803C134.89 292.918 135.005 293.013 135.135 293.083L135.258 293.141C137.771 294.17 139.038 294.545 142.199 295.898C144.135 296.734 149.679 300.182 152.531 300.794C155.382 301.406 156.131 298.634 155.007 298.109C151.357 296.474 148.29 292.154 147.491 288.418C147.311 288.058 146.605 286.726 146.202 286.56Z" fill="#263238"/>
<path opacity="0.2" d="M152.142 275.062L148.448 282.514L142.119 279.677L145.806 272.218L152.142 275.062Z" fill="black"/>
<path d="M153.473 283.183L140.743 276.401C140.743 276.401 138.302 267.336 140.743 261.554C145.437 250.43 157.663 234.072 157.742 233.762C161.004 220.961 166.721 185.889 168.679 172.994C169.759 165.845 170.4 164.304 170.4 164.304L171.746 164.743L191.186 164.779C191.186 164.779 194.858 194.299 180.775 239.947C177.276 251.309 171.415 260.755 161.745 273.535C159.156 276.892 156.395 280.112 153.473 283.183Z" fill="#355DFF"/>
<path opacity="0.3" d="M153.473 283.183L140.743 276.401C140.743 276.401 138.302 267.336 140.743 261.554C145.437 250.43 157.663 234.072 157.742 233.762C161.004 220.961 166.721 185.889 168.679 172.994C169.759 165.845 170.4 164.304 170.4 164.304L171.746 164.743L191.186 164.779C191.186 164.779 194.858 194.299 180.775 239.947C177.276 251.309 171.415 260.755 161.745 273.535C159.156 276.892 156.395 280.112 153.473 283.183Z" fill="white"/>
<path d="M208.48 140.681C208.775 138.341 209.766 136.143 211.324 134.373C211.72 133.956 213.24 133.322 214.104 132.761C218.33 129.989 226.797 126.525 226.797 126.525L229.411 128.801C229.411 128.801 224.256 133.783 221.188 136.173C220.584 136.649 219.885 137.217 219.151 137.822C217.812 138.931 211.533 143.071 210.338 144.115L208.48 140.681Z" fill="#E8BFBF"/>
<path d="M234.243 125.237L229.412 128.837L226.705 126.842C227.4 125.963 228.148 125.126 228.944 124.337C229.189 124.099 229.384 123.815 229.518 123.501C229.651 123.187 229.721 122.849 229.722 122.508C229.667 121.394 229.916 120.287 230.442 119.304C230.441 119.285 230.441 119.265 230.442 119.246C230.688 118.9 231.028 118.63 231.422 118.47C231.815 118.309 232.247 118.264 232.665 118.34C233.083 118.415 233.471 118.608 233.784 118.896C234.097 119.184 234.321 119.556 234.431 119.966L235.151 122.544C235.283 123.032 235.267 123.549 235.106 124.028C234.944 124.507 234.644 124.928 234.243 125.237Z" fill="#E8BFBF"/>
<path d="M210.023 141.646L208.748 142.812C208.352 142.495 207.726 141.984 206.934 141.322C200.728 136.174 185.168 123.674 191.368 120.11C196.688 117.05 202.333 126.403 205.148 129.218C206.47 130.627 207.616 132.192 208.561 133.877C209.886 136.267 210.865 139.154 210.023 141.646Z" fill="#263238"/>
<path d="M208.554 132.761C206.346 134.376 204.479 136.412 203.061 138.751C203.58 140.453 204.459 142.023 205.636 143.357C206.813 144.691 208.262 145.757 209.886 146.484C211.691 142.392 212.464 137.92 212.14 133.459C211.017 133.2 209.677 133.006 208.554 132.761Z" fill="#263238"/>
<path d="M174.39 119.383C172.165 120.103 169.624 119.52 168.198 121.37C166.772 123.221 166.348 125.647 166.348 127.98C166.479 131.225 166.976 134.444 167.831 137.577C168.724 141.417 169.619 145.245 170.516 149.061C171.128 151.682 170.48 163.857 171.136 164.059C171.136 164.059 191.49 163.663 196.595 162.943C196.595 162.943 197.034 150.429 197.444 146.167C197.538 145.224 198.971 141.206 199.136 140.198C199.936 135.446 198.373 132.098 196.732 127.562C196.732 127.562 193.132 120.312 191.368 120.11C188.236 119.757 180.575 117.36 174.39 119.383Z" fill="#263238"/>
<path d="M173.519 125.381C173.447 124.963 169.832 117.662 166.369 122.767C161.552 129.866 161.228 138.78 161.228 138.78C161.228 138.78 158.269 147.42 160.328 149.335C162.387 151.25 164.648 152.445 166.088 151.373C167.105 150.485 167.915 149.387 168.464 148.154C168.464 148.154 174.8 132.811 173.519 125.381Z" fill="#263238"/>
<path d="M173.295 116.676C172.943 116.992 172.669 117.384 172.493 117.823C172.317 118.261 172.243 118.734 172.278 119.205C172.313 119.676 172.455 120.133 172.693 120.541C172.932 120.949 173.261 121.296 173.655 121.558C173.443 122.298 173.445 123.083 173.66 123.822C173.875 124.561 174.295 125.225 174.87 125.736C175.446 126.248 176.154 126.586 176.913 126.713C177.672 126.84 178.452 126.75 179.163 126.454C178.558 127.548 179.242 128.995 180.3 129.672C181.417 130.249 182.645 130.578 183.9 130.637C185.161 130.697 186.37 131.153 187.356 131.94L191.201 126.403C191.766 125.726 192.132 124.906 192.259 124.034C192.295 123.163 191.633 122.198 190.762 122.263C191.198 121.792 191.442 121.173 191.443 120.531C191.444 119.888 191.204 119.269 190.769 118.796C190.334 118.323 189.737 118.031 189.096 117.978C188.456 117.926 187.819 118.116 187.313 118.512C187.375 118.134 187.324 117.747 187.168 117.398C187.012 117.048 186.757 116.752 186.435 116.546C185.78 116.152 185.038 115.926 184.275 115.891L173.295 116.676Z" fill="#263238"/>
<path d="M175.607 107.28C176.608 110.952 177.825 117.727 175.398 120.406C179.845 122.325 183.848 125.142 187.156 128.679C188.03 127.875 188.629 126.817 188.87 125.654C189.11 124.492 188.979 123.283 188.495 122.199C188.212 121.51 187.794 120.886 187.264 120.362C186.735 119.839 186.105 119.428 185.414 119.153C182.735 118.015 182.714 115.387 183.16 112.86L175.607 107.28Z" fill="#E8BFBF"/>
<path opacity="0.2" d="M177.119 113.537L179.646 114.221C180.73 114.515 181.862 114.581 182.973 114.415C182.88 115.194 182.961 115.983 183.21 116.726C182.364 117.053 181.442 117.127 180.555 116.939C179.668 116.751 178.854 116.309 178.214 115.668C177.746 115.015 177.377 114.297 177.119 113.537Z" fill="black"/>
<path d="M170.702 104.148C173.374 109.793 174.389 112.241 178.507 114.041C184.714 116.755 191.05 112.219 190.114 105.89C189.264 100.195 185.03 91.9081 178.442 91.8793C176.992 91.8658 175.562 92.2229 174.289 92.9168C173.015 93.6107 171.939 94.6183 171.164 95.8442C170.389 97.0701 169.94 98.4736 169.859 99.9218C169.778 101.37 170.068 102.815 170.702 104.119V104.148Z" fill="#E8BFBF"/>
<path d="M173.639 93.3622C171.688 92.455 169.269 93.1966 167.642 94.6222C166.015 96.0478 164.985 98.107 164.042 100.087C163.474 101.14 163.038 102.26 162.746 103.421C162.455 104.595 162.614 105.836 163.192 106.898C163.501 107.395 163.923 107.811 164.423 108.113C164.924 108.414 165.489 108.593 166.072 108.633C166.431 108.656 166.777 108.775 167.072 108.979C167.368 109.184 167.602 109.465 167.75 109.793C167.898 110.398 167.898 111.03 167.75 111.636C167.613 112.223 167.613 112.834 167.75 113.421C167.946 113.883 168.268 114.281 168.679 114.568C169.09 114.856 169.574 115.022 170.075 115.049C171.078 115.076 172.077 114.915 173.02 114.573C173.307 114.475 173.616 114.456 173.913 114.516C174.211 114.577 174.486 114.716 174.712 114.919C174.828 115.025 174.925 115.149 175 115.286C175.074 115.411 175.18 115.513 175.308 115.581C175.436 115.649 175.58 115.681 175.725 115.672C175.87 115.663 176.009 115.614 176.128 115.531C176.246 115.447 176.339 115.333 176.397 115.2C177.268 113.126 176.001 109.821 174.115 107.28C173.114 105.941 173.164 106.279 172.775 104.652C172.444 103.298 172.941 101.887 173.546 100.634C174.359 98.9566 175.396 97.3294 175.072 95.3278C175.011 94.9084 174.849 94.5101 174.599 94.1676C174.349 93.8251 174.02 93.5486 173.639 93.3622Z" fill="#263238"/>
<path d="M170.868 109.93C171.757 110.873 172.984 111.425 174.28 111.463C176.001 111.507 176.44 109.865 175.605 108.461C174.885 107.201 173.056 105.667 171.501 106.301C169.946 106.935 169.788 108.72 170.868 109.93Z" fill="#E8BFBF"/>
<path d="M181.438 103.147C181.639 103.637 182.035 103.903 182.345 103.773C182.655 103.644 182.734 103.176 182.561 102.693C182.388 102.211 181.971 101.973 181.654 102.067C181.337 102.161 181.272 102.672 181.438 103.147Z" fill="#263238"/>
<path d="M186.731 100.872C186.925 101.369 187.321 101.628 187.631 101.506C187.941 101.383 188.02 100.908 187.847 100.426C187.674 99.9434 187.257 99.7058 186.947 99.7994C186.637 99.893 186.544 100.404 186.731 100.872Z" fill="#263238"/>
<path d="M186.811 99.8854L187.811 99.1006C187.811 99.1006 187.595 100.217 186.811 99.8854Z" fill="#263238"/>
<path d="M185.361 101.931C186.585 103.14 187.521 103.371 188.832 104.191C188.819 104.522 188.701 104.84 188.495 105.099C188.289 105.358 188.006 105.544 187.687 105.631L185.361 101.931Z" fill="#ED847E"/>
<path d="M187.127 107.942C187.356 107.858 187.578 107.755 187.789 107.633C187.822 107.614 187.847 107.584 187.858 107.547C187.869 107.511 187.865 107.472 187.847 107.438C187.826 107.406 187.794 107.382 187.757 107.371C187.72 107.361 187.68 107.364 187.645 107.381C187.094 107.701 186.475 107.884 185.839 107.917C185.203 107.95 184.568 107.83 183.987 107.568C183.952 107.55 183.911 107.547 183.873 107.559C183.836 107.571 183.804 107.598 183.786 107.633C183.776 107.65 183.769 107.668 183.767 107.688C183.764 107.707 183.766 107.727 183.771 107.746C183.777 107.765 183.786 107.782 183.798 107.798C183.811 107.813 183.826 107.825 183.844 107.834C184.356 108.07 184.91 108.202 185.474 108.22C186.038 108.239 186.6 108.144 187.127 107.942Z" fill="#263238"/>
<path d="M181.266 99.2231C181.263 99.2891 181.239 99.3524 181.197 99.404C181.156 99.4557 181.1 99.4931 181.036 99.5111C179.654 99.9215 179.042 101.671 179.042 101.671C179.029 101.71 179.008 101.746 178.982 101.777C178.955 101.808 178.923 101.833 178.886 101.851C178.85 101.87 178.81 101.881 178.77 101.884C178.729 101.887 178.688 101.882 178.649 101.869C178.61 101.856 178.575 101.836 178.544 101.809C178.513 101.783 178.487 101.75 178.469 101.714C178.45 101.677 178.439 101.638 178.436 101.597C178.433 101.556 178.438 101.515 178.451 101.477C178.502 101.405 179.171 99.3959 180.856 98.8919C180.936 98.8715 181.021 98.8824 181.093 98.9226C181.166 98.9628 181.22 99.029 181.245 99.1079C181.262 99.1438 181.269 99.1834 181.266 99.2231Z" fill="#263238"/>
<path d="M187.639 98.3737C187.585 98.4118 187.521 98.4323 187.455 98.4323C187.389 98.4323 187.325 98.4118 187.271 98.3737C186.148 97.4665 184.355 97.9633 184.348 97.9705C184.309 97.9827 184.268 97.9869 184.227 97.9829C184.186 97.979 184.146 97.967 184.11 97.9475C184.074 97.9281 184.042 97.9017 184.016 97.8697C183.99 97.8378 183.971 97.8011 183.959 97.7617C183.937 97.6825 183.946 97.5975 183.985 97.525C184.024 97.4524 184.09 97.3978 184.168 97.3729C184.255 97.3729 186.328 96.7825 187.66 97.8769C187.723 97.9301 187.763 98.005 187.772 98.0866C187.781 98.1681 187.759 98.2501 187.711 98.3161C187.69 98.3394 187.666 98.3589 187.639 98.3737Z" fill="#263238"/>
<path d="M181.553 102.147L182.554 101.369C182.554 101.369 182.323 102.485 181.553 102.147Z" fill="#263238"/>
<path d="M174.073 92.4191C173.285 92.4885 172.523 92.7359 171.844 93.1424C171.166 93.549 170.589 94.1043 170.156 94.7663C169.58 95.6591 169.378 97.0127 170.228 97.6463C170.661 97.9107 171.16 98.048 171.668 98.0423C173.828 98.2367 176.557 96.5447 176.557 96.5447C175.714 92.9447 183.224 90.1943 186.925 95.7383C188.012 97.3655 187.717 98.5463 189.524 99.3023C190.374 99.6551 191.497 99.5543 192.044 100.303C192.944 101.534 191.209 103.622 192.31 104.681C193.066 105.401 194.78 105.127 194.888 106.171C194.931 106.661 194.614 107.366 195.082 107.51C195.342 107.59 195.586 107.352 195.752 107.136C196.202 106.653 196.532 106.071 196.717 105.437C196.805 105.12 196.785 104.783 196.661 104.478C196.538 104.173 196.317 103.918 196.033 103.752C195.572 103.543 194.355 103.752 194.434 104.27C194.248 103.128 194.187 101.969 194.254 100.814C194.456 99.8495 195.378 99.0071 195.097 98.0567C194.816 97.1063 193.599 96.6167 192.555 96.4871C191.511 96.3575 190.323 96.2063 189.675 95.3711C189.027 94.5359 189.286 93.0959 189.056 91.9367C188.863 91.2123 188.502 90.5436 188.001 89.9855C187.501 89.4274 186.875 88.9957 186.176 88.7255C181.964 86.9183 175.506 87.1775 174.073 92.4191Z" fill="#263238"/>
<path d="M185.933 111.6L171.533 118.836C169.243 119.983 167.466 121.946 166.552 124.338C165.638 126.73 165.653 129.378 166.593 131.76L173.52 149.472C174.454 151.851 176.243 153.797 178.536 154.927C180.829 156.058 183.462 156.292 185.918 155.585L201.398 151.121C202.771 150.727 204.046 150.051 205.143 149.135C206.239 148.22 207.132 147.086 207.764 145.805C208.397 144.525 208.755 143.127 208.815 141.7C208.876 140.273 208.638 138.849 208.116 137.52L200.088 117.057C199.57 115.726 198.781 114.518 197.77 113.51C196.759 112.501 195.548 111.715 194.216 111.202C192.883 110.688 191.459 110.458 190.032 110.526C188.606 110.595 187.21 110.961 185.933 111.6ZM183.549 142.013C182.4 142.463 181.142 142.563 179.936 142.299C178.73 142.035 177.629 141.419 176.773 140.529C175.917 139.639 175.344 138.515 175.126 137.3C174.909 136.084 175.057 134.831 175.551 133.7C176.046 132.569 176.865 131.609 177.905 130.944C178.945 130.278 180.159 129.935 181.394 129.96C182.628 129.984 183.828 130.374 184.841 131.08C185.854 131.786 186.635 132.777 187.085 133.927C187.388 134.692 187.536 135.509 187.522 136.331C187.509 137.153 187.332 137.965 187.004 138.719C186.675 139.473 186.201 140.155 185.608 140.725C185.015 141.295 184.316 141.742 183.549 142.041V142.013Z" fill="#355DFF"/>
<path d="M185.933 111.6L171.533 118.836C169.243 119.983 167.466 121.946 166.552 124.338C165.638 126.73 165.653 129.378 166.593 131.76L173.52 149.472C174.454 151.851 176.243 153.797 178.536 154.927C180.829 156.058 183.462 156.292 185.918 155.585L201.398 151.121C202.771 150.727 204.046 150.051 205.143 149.135C206.239 148.22 207.132 147.086 207.764 145.805C208.397 144.525 208.755 143.127 208.815 141.7C208.876 140.273 208.638 138.849 208.116 137.52L200.088 117.057C199.57 115.726 198.781 114.518 197.77 113.51C196.759 112.501 195.548 111.715 194.216 111.202C192.883 110.688 191.459 110.458 190.032 110.526C188.606 110.595 187.21 110.961 185.933 111.6ZM183.549 142.013C182.4 142.463 181.142 142.563 179.936 142.299C178.73 142.035 177.629 141.419 176.773 140.529C175.917 139.639 175.344 138.515 175.126 137.3C174.909 136.084 175.057 134.831 175.551 133.7C176.046 132.569 176.865 131.609 177.905 130.944C178.945 130.278 180.159 129.935 181.394 129.96C182.628 129.984 183.828 130.374 184.841 131.08C185.854 131.786 186.635 132.777 187.085 133.927C187.388 134.692 187.536 135.509 187.522 136.331C187.509 137.153 187.332 137.965 187.004 138.719C186.675 139.473 186.201 140.155 185.608 140.725C185.015 141.295 184.316 141.742 183.549 142.041V142.013Z" fill="#355DFF"/>
<path opacity="0.1" d="M208.116 137.52L200.088 117.057C199.57 115.726 198.781 114.518 197.77 113.51C196.759 112.501 195.548 111.715 194.216 111.202C192.883 110.688 191.458 110.458 190.032 110.526C188.606 110.595 187.209 110.961 185.933 111.6L181.749 113.76L178.941 115.2L171.54 118.922C169.269 120.067 167.506 122.015 166.591 124.387C165.677 126.76 165.678 129.388 166.593 131.76L173.52 149.472C174.454 151.851 176.243 153.797 178.536 154.927C180.829 156.058 183.461 156.292 185.918 155.585L201.405 151.121C202.631 150.767 203.779 150.186 204.789 149.407C205.548 148.835 206.22 148.156 206.784 147.391C207.829 145.996 208.5 144.356 208.733 142.629C208.966 140.901 208.754 139.142 208.116 137.52ZM183.549 142.027C182.4 142.476 181.144 142.574 179.939 142.309C178.734 142.045 177.635 141.429 176.779 140.54C175.924 139.651 175.352 138.528 175.134 137.314C174.916 136.1 175.063 134.848 175.556 133.717C176.049 132.586 176.867 131.627 177.904 130.96C178.942 130.293 180.155 129.949 181.388 129.971C182.621 129.993 183.821 130.379 184.835 131.082C185.849 131.785 186.631 132.772 187.085 133.92C187.389 134.685 187.538 135.503 187.525 136.326C187.512 137.149 187.336 137.961 187.007 138.716C186.678 139.471 186.204 140.153 185.61 140.724C185.017 141.295 184.316 141.743 183.549 142.041V142.027Z" fill="white"/>
<path d="M186.076 112.983L172.576 119.765C170.435 120.84 168.772 122.677 167.914 124.915C167.056 127.152 167.065 129.63 167.94 131.861L174.456 148.464C175.326 150.701 177.002 152.532 179.153 153.598C181.304 154.664 183.776 154.887 186.084 154.224L200.599 150.034C201.884 149.663 203.077 149.029 204.103 148.17C205.129 147.312 205.964 146.249 206.556 145.05C207.148 143.85 207.482 142.541 207.539 141.204C207.595 139.868 207.372 138.535 206.884 137.29L199.36 118.08C198.873 116.833 198.13 115.701 197.18 114.757C196.23 113.814 195.094 113.078 193.844 112.598C192.594 112.119 191.257 111.905 189.92 111.971C188.582 112.037 187.273 112.382 186.076 112.983ZM175.456 138.507C175.006 137.357 174.907 136.1 175.171 134.894C175.436 133.688 176.052 132.588 176.941 131.732C177.831 130.876 178.954 130.303 180.169 130.086C181.384 129.868 182.637 130.016 183.768 130.51C184.899 131.004 185.858 131.823 186.525 132.862C187.191 133.901 187.534 135.115 187.51 136.349C187.487 137.583 187.098 138.783 186.393 139.796C185.688 140.809 184.698 141.591 183.549 142.042C182.786 142.342 181.971 142.489 181.15 142.474C180.33 142.459 179.521 142.282 178.769 141.954C178.017 141.625 177.338 141.152 176.769 140.56C176.201 139.969 175.755 139.271 175.456 138.507Z" fill="#355DFF"/>
<path opacity="0.1" d="M186.076 112.983L172.576 119.765C170.435 120.84 168.772 122.677 167.914 124.915C167.056 127.152 167.065 129.63 167.94 131.861L174.456 148.464C175.326 150.701 177.002 152.532 179.153 153.598C181.304 154.664 183.776 154.887 186.084 154.224L200.599 150.034C201.884 149.663 203.077 149.029 204.103 148.17C205.129 147.312 205.964 146.249 206.556 145.05C207.148 143.85 207.482 142.541 207.539 141.204C207.595 139.868 207.372 138.535 206.884 137.29L199.36 118.08C198.873 116.833 198.13 115.701 197.18 114.757C196.23 113.814 195.094 113.078 193.844 112.598C192.594 112.119 191.257 111.905 189.92 111.971C188.582 112.037 187.273 112.382 186.076 112.983ZM175.456 138.507C175.006 137.357 174.907 136.1 175.171 134.894C175.436 133.688 176.052 132.588 176.941 131.732C177.831 130.876 178.954 130.303 180.169 130.086C181.384 129.868 182.637 130.016 183.768 130.51C184.899 131.004 185.858 131.823 186.525 132.862C187.191 133.901 187.534 135.115 187.51 136.349C187.487 137.583 187.098 138.783 186.393 139.796C185.688 140.809 184.698 141.591 183.549 142.042C182.786 142.342 181.971 142.489 181.15 142.474C180.33 142.459 179.521 142.282 178.769 141.954C178.017 141.625 177.338 141.152 176.769 140.56C176.201 139.969 175.755 139.271 175.456 138.507Z" fill="#355DFF"/>
<path d="M253.164 106.56L252.754 107.28L252.523 107.697L251.868 108.885L252.142 111.931C252.156 112.06 252.141 112.19 252.098 112.313C252.054 112.445 251.981 112.566 251.886 112.668C251.79 112.77 251.673 112.85 251.544 112.903L245.856 115.128C245.726 115.18 245.586 115.201 245.446 115.191C245.307 115.181 245.171 115.14 245.05 115.07C244.969 115.03 244.896 114.976 244.834 114.912L241.615 111.636L237.036 113.429L237.698 115.121L233.126 116.906L234.214 119.693L230.851 121.01C230.717 121.062 230.573 121.085 230.429 121.078C230.285 121.07 230.144 121.033 230.016 120.967C229.928 120.925 229.848 120.869 229.778 120.801L227.842 118.98L223.262 120.765L224.357 123.552L219.547 125.438L220.642 128.232C220.685 128.34 220.706 128.457 220.704 128.573C220.702 128.69 220.676 128.806 220.63 128.913C220.583 129.02 220.515 129.117 220.431 129.197C220.346 129.278 220.247 129.342 220.138 129.384L206.969 134.539L201.252 119.959L248.902 101.304L249.622 101.685L252.034 102.931C252.352 103.089 252.635 103.31 252.865 103.58C253.096 103.85 253.269 104.164 253.375 104.504C253.48 104.843 253.516 105.2 253.48 105.553C253.444 105.907 253.336 106.249 253.164 106.56Z" fill="#355DFF"/>
<g opacity="0.1">
<path d="M253.164 106.56L252.754 107.28L252.523 107.698L251.868 108.886L252.142 111.931C252.156 112.06 252.141 112.191 252.098 112.313C252.054 112.445 251.981 112.567 251.886 112.669C251.79 112.771 251.673 112.851 251.544 112.903L245.856 115.128C245.726 115.18 245.586 115.202 245.446 115.192C245.307 115.182 245.171 115.14 245.05 115.071C244.969 115.03 244.896 114.977 244.834 114.912L241.615 111.636L237.036 113.429L237.698 115.121L233.126 116.907L234.214 119.693L230.851 121.011C230.717 121.063 230.573 121.086 230.429 121.078C230.285 121.071 230.144 121.033 230.016 120.967C229.928 120.926 229.848 120.87 229.778 120.802L227.842 118.98L223.262 120.766L224.357 123.552L219.547 125.439L220.642 128.232C220.685 128.341 220.706 128.457 220.704 128.574C220.702 128.691 220.676 128.806 220.63 128.913C220.583 129.02 220.515 129.117 220.431 129.198C220.346 129.279 220.247 129.342 220.138 129.384L206.969 134.539L201.252 119.959L248.902 101.304L249.622 101.686L252.034 102.931C252.352 103.089 252.635 103.31 252.865 103.58C253.096 103.851 253.269 104.165 253.375 104.504C253.48 104.843 253.516 105.2 253.48 105.554C253.444 105.907 253.336 106.25 253.164 106.56Z" fill="white"/>
</g>
<path d="M252.977 104.919L202.03 124.863L200.547 121.119L249.118 102.104L251.537 103.342C252.459 103.817 252.984 104.256 252.977 104.919Z" fill="#355DFF"/>
<path opacity="0.1" d="M252.977 104.919L202.03 124.863L200.547 121.119L249.118 102.104L251.537 103.342C252.459 103.817 252.984 104.256 252.977 104.919Z" fill="black"/>
<path d="M251.998 107.726L251.508 108.835C251.504 108.854 251.504 108.874 251.508 108.893L251.789 111.902C251.807 112.009 251.807 112.119 251.789 112.226C251.784 112.244 251.775 112.261 251.763 112.275C251.75 112.288 251.734 112.299 251.717 112.305L245.532 114.739C245.517 114.748 245.499 114.752 245.482 114.752C245.464 114.752 245.447 114.748 245.431 114.739C245.37 114.702 245.314 114.656 245.266 114.602L241.723 111.045C241.705 111.033 241.684 111.026 241.662 111.026C241.64 111.026 241.619 111.033 241.601 111.045L236.561 113.018C236.533 113.031 236.511 113.053 236.499 113.081C236.487 113.109 236.486 113.141 236.496 113.169L237.094 114.689C237.1 114.703 237.103 114.718 237.102 114.733C237.102 114.749 237.099 114.764 237.093 114.778C237.087 114.792 237.078 114.805 237.067 114.815C237.056 114.826 237.043 114.834 237.029 114.84L232.745 116.525C232.731 116.53 232.718 116.538 232.707 116.549C232.696 116.56 232.687 116.572 232.681 116.587C232.675 116.601 232.672 116.616 232.671 116.631C232.671 116.646 232.674 116.662 232.68 116.676L233.71 119.289C233.717 119.303 233.721 119.319 233.721 119.334C233.721 119.35 233.718 119.366 233.712 119.38C233.706 119.394 233.697 119.407 233.685 119.418C233.674 119.428 233.66 119.436 233.645 119.441L230.506 120.679C230.49 120.688 230.473 120.692 230.455 120.692C230.438 120.692 230.42 120.688 230.405 120.679C230.339 120.642 230.279 120.596 230.225 120.542L227.921 118.425C227.903 118.415 227.884 118.41 227.863 118.41C227.843 118.41 227.823 118.415 227.806 118.425L222.816 120.391C222.801 120.396 222.787 120.403 222.776 120.414C222.764 120.424 222.755 120.437 222.749 120.452C222.743 120.466 222.74 120.481 222.74 120.497C222.741 120.513 222.744 120.528 222.751 120.542L223.803 123.221C223.81 123.235 223.813 123.25 223.814 123.266C223.814 123.281 223.811 123.297 223.805 123.311C223.799 123.325 223.79 123.338 223.778 123.349C223.766 123.359 223.753 123.367 223.738 123.372L204.579 130.91C204.551 130.92 204.52 130.918 204.494 130.906C204.467 130.894 204.446 130.872 204.435 130.845L202.462 126C202.452 125.971 202.453 125.94 202.465 125.912C202.477 125.884 202.499 125.861 202.527 125.849L252.451 106.2C252.473 106.192 252.496 106.19 252.519 106.196C252.541 106.201 252.562 106.213 252.577 106.23C252.593 106.247 252.603 106.268 252.606 106.291C252.609 106.314 252.605 106.337 252.595 106.358L251.998 107.726Z" fill="#355DFF"/>
<path opacity="0.1" d="M251.998 107.726L251.508 108.835C251.504 108.854 251.504 108.874 251.508 108.893L251.789 111.902C251.807 112.009 251.807 112.119 251.789 112.226C251.784 112.244 251.775 112.261 251.763 112.275C251.75 112.288 251.734 112.299 251.717 112.305L245.532 114.739C245.517 114.748 245.499 114.752 245.482 114.752C245.464 114.752 245.447 114.748 245.431 114.739C245.37 114.702 245.314 114.656 245.266 114.602L241.723 111.045C241.705 111.033 241.684 111.026 241.662 111.026C241.64 111.026 241.619 111.033 241.601 111.045L236.561 113.018C236.533 113.031 236.511 113.053 236.499 113.081C236.487 113.109 236.486 113.141 236.496 113.169L237.094 114.689C237.1 114.703 237.103 114.718 237.102 114.733C237.102 114.749 237.099 114.764 237.093 114.778C237.087 114.792 237.078 114.805 237.067 114.815C237.056 114.826 237.043 114.834 237.029 114.84L232.745 116.525C232.731 116.53 232.718 116.538 232.707 116.549C232.696 116.56 232.687 116.572 232.681 116.587C232.675 116.601 232.672 116.616 232.671 116.631C232.671 116.646 232.674 116.662 232.68 116.676L233.71 119.289C233.717 119.303 233.721 119.319 233.721 119.334C233.721 119.35 233.718 119.366 233.712 119.38C233.706 119.394 233.697 119.407 233.685 119.418C233.674 119.428 233.66 119.436 233.645 119.441L230.506 120.679C230.49 120.688 230.473 120.692 230.455 120.692C230.438 120.692 230.42 120.688 230.405 120.679C230.339 120.642 230.279 120.596 230.225 120.542L227.921 118.425C227.903 118.415 227.884 118.41 227.863 118.41C227.843 118.41 227.823 118.415 227.806 118.425L222.816 120.391C222.801 120.396 222.787 120.403 222.776 120.414C222.764 120.424 222.755 120.437 222.749 120.452C222.743 120.466 222.74 120.481 222.74 120.497C222.741 120.513 222.744 120.528 222.751 120.542L223.803 123.221C223.81 123.235 223.813 123.25 223.814 123.266C223.814 123.281 223.811 123.297 223.805 123.311C223.799 123.325 223.79 123.338 223.778 123.349C223.766 123.359 223.753 123.367 223.738 123.372L204.579 130.91C204.551 130.92 204.52 130.918 204.494 130.906C204.467 130.894 204.446 130.872 204.435 130.845L202.462 126C202.452 125.971 202.453 125.94 202.465 125.912C202.477 125.884 202.499 125.861 202.527 125.849L252.451 106.2C252.473 106.192 252.496 106.19 252.519 106.196C252.541 106.201 252.562 106.213 252.577 106.23C252.593 106.247 252.603 106.268 252.606 106.291C252.609 106.314 252.605 106.337 252.595 106.358L251.998 107.726Z" fill="black"/>
<path opacity="0.3" d="M178.61 128.88C177.17 129.446 175.93 130.426 175.047 131.696C174.164 132.966 173.677 134.47 173.648 136.017C173.619 137.564 174.049 139.085 174.884 140.388C175.719 141.69 176.922 142.716 178.34 143.336C179.758 143.955 181.327 144.14 182.85 143.868C184.373 143.596 185.782 142.878 186.897 141.806C188.013 140.733 188.785 139.354 189.117 137.843C189.449 136.332 189.326 134.756 188.762 133.315C188.389 132.355 187.83 131.479 187.117 130.736C186.405 129.993 185.552 129.399 184.609 128.986C183.665 128.574 182.649 128.353 181.62 128.334C180.591 128.316 179.568 128.501 178.61 128.88ZM183.55 142.056C182.4 142.506 181.142 142.606 179.936 142.342C178.73 142.078 177.629 141.462 176.773 140.572C175.917 139.682 175.344 138.558 175.126 137.343C174.909 136.127 175.057 134.874 175.552 133.743C176.046 132.612 176.865 131.652 177.905 130.987C178.945 130.321 180.159 129.978 181.394 130.003C182.629 130.027 183.828 130.417 184.841 131.123C185.854 131.829 186.635 132.82 187.085 133.97C187.683 135.509 187.647 137.223 186.984 138.736C186.322 140.249 185.087 141.437 183.55 142.041V142.056Z" fill="white"/>
<path opacity="0.1" d="M206.79 147.384C206.229 148.149 205.56 148.828 204.803 149.4L178.934 115.135C178.934 115.135 181.216 113.99 181.734 113.645C181.738 113.683 181.751 113.72 181.77 113.753C182.879 116.15 203.212 142.56 206.79 147.384Z" fill="white"/>
<path opacity="0.1" d="M203.039 150.48C202.88 150.552 195.342 152.849 195.342 152.849L186.939 141.725C188.207 140.457 189.002 138.793 189.19 137.011C189.378 135.228 188.948 133.435 187.973 131.931C186.998 130.427 185.535 129.303 183.831 128.748C182.127 128.192 180.283 128.239 178.609 128.88C178.261 129.01 177.926 129.171 177.608 129.362L170.178 119.52C170.178 119.52 176.708 116.41 177.428 115.92C177.623 117.31 203.039 150.192 203.039 150.48Z" fill="white"/>
<path d="M172.217 96.4369C171.795 96.9382 171.493 97.5297 171.335 98.1659C171.177 98.8021 171.167 99.466 171.307 100.107C171.446 100.747 171.73 101.347 172.137 101.861C172.545 102.374 173.065 102.787 173.657 103.068C174.276 103.356 174.953 103.493 175.558 103.788C175.874 103.916 176.152 104.12 176.369 104.383C176.585 104.646 176.732 104.959 176.796 105.293C176.868 106.013 176.314 106.733 176.371 107.453C176.433 107.79 176.564 108.111 176.756 108.394C176.949 108.678 177.197 108.919 177.487 109.102C178.071 109.466 178.563 109.959 178.927 110.542C179.009 110.69 179.06 110.853 179.076 111.022C179.092 111.19 179.073 111.36 179.02 111.521C178.967 111.682 178.882 111.83 178.769 111.956C178.657 112.083 178.519 112.184 178.366 112.255C178.288 112.393 178.247 112.548 178.247 112.705C178.247 112.863 178.288 113.018 178.366 113.155C178.458 113.249 178.579 113.309 178.71 113.326C178.84 113.343 178.973 113.316 179.086 113.249C179.598 112.929 180.023 112.487 180.323 111.964C180.623 111.44 180.789 110.85 180.807 110.247C180.8 109.649 180.625 109.065 180.301 108.562C179.978 108.059 179.519 107.657 178.978 107.403C178.909 107.187 178.885 106.96 178.906 106.735C178.927 106.51 178.993 106.291 179.1 106.092C179.424 105.271 179.755 104.443 180.087 103.623C180.14 103.421 180.149 103.211 180.113 103.006C180.077 102.801 179.996 102.606 179.878 102.435C179.632 102.187 179.335 101.998 179.007 101.88L176.883 100.973C176.083 100.627 173.7 97.4449 176.523 96.5161C176.353 96.1559 176.087 95.8495 175.754 95.631C175.421 95.4124 175.034 95.2902 174.636 95.2777C174.168 95.2551 173.702 95.3492 173.28 95.5515C172.858 95.7539 172.492 96.0582 172.217 96.4369Z" fill="#263238"/>
<path d="M176.068 93.0098L175.852 95.5226C176.572 94.3706 177.86 92.1314 177.817 92.2178C177.263 92.5202 176.622 92.7074 176.068 93.0098Z" fill="#263238"/>
<path d="M177.018 94.3849L179.97 91.6561C179.585 91.523 179.171 91.5011 178.775 91.5928C178.379 91.6845 178.017 91.8861 177.73 92.1745C177.752 92.1097 177.291 93.5065 177.018 94.3849Z" fill="#263238"/>
<path d="M171.021 162.504C167.183 167.271 168.457 170.921 163.158 179.359C169.847 184.313 177.177 185.119 186.285 184.399C187.365 182.491 187.905 180.504 188.985 178.596C190.525 180.511 191.764 182.117 193.305 184.039C198.078 183.319 203.752 181.944 207.525 179.511C204.191 175.687 202.117 170.914 199.986 166.702C198.985 164.722 199.403 163.894 196.746 161.302C188.286 161.691 179.898 161.892 171.445 162.288C171.676 162.324 170.797 162.49 171.021 162.504Z" fill="#263238"/>
<path d="M172.08 161.705L171.554 163.93C171.475 164.11 171.684 164.276 171.964 164.254L195.285 163.224C195.374 163.235 195.464 163.214 195.539 163.166C195.614 163.117 195.669 163.043 195.696 162.958L195.818 160.748C195.818 160.604 195.624 160.474 195.379 160.496L172.476 161.504C172.398 161.5 172.321 161.517 172.251 161.553C172.182 161.588 172.123 161.64 172.08 161.705Z" fill="#355DFF"/>
<path d="M172.08 161.705L171.554 163.93C171.475 164.11 171.684 164.276 171.964 164.254L195.285 163.224C195.374 163.235 195.464 163.214 195.539 163.166C195.614 163.117 195.669 163.043 195.696 162.958L195.818 160.748C195.818 160.604 195.624 160.474 195.379 160.496L172.476 161.504C172.398 161.5 172.321 161.517 172.251 161.553C172.182 161.588 172.123 161.64 172.08 161.705Z" fill="#355DFF"/>
<path d="M177.214 164.261H176.537C176.408 164.261 176.3 164.203 176.307 164.124L176.487 161.244C176.487 161.158 176.609 161.086 176.739 161.086L177.423 161.05C177.545 161.05 177.653 161.107 177.646 161.194L177.466 164.074C177.459 164.16 177.344 164.254 177.214 164.261Z" fill="#263238"/>
<path d="M194.046 163.533H193.369C193.24 163.533 193.132 163.476 193.139 163.397L193.319 160.517C193.319 160.43 193.441 160.351 193.571 160.351H194.248C194.377 160.351 194.478 160.409 194.471 160.488L194.291 163.368C194.291 163.44 194.183 163.526 194.046 163.533Z" fill="#263238"/>
<path d="M180.223 150.279C180.266 150.488 182.073 153.368 183.499 153.159C183.701 153.131 183.908 153.157 184.097 153.234C184.287 153.311 184.453 153.436 184.579 153.598C185.147 154.318 185.493 154.764 185.875 155.254C186.177 155.64 186.602 155.912 187.08 156.025C187.558 156.137 188.059 156.084 188.503 155.873C188.769 155.751 189.035 155.614 189.302 155.47C189.732 155.245 190.074 154.882 190.272 154.439C190.471 153.997 190.515 153.5 190.396 153.029C190.132 151.968 189.723 150.948 189.179 149.998C189.019 149.66 188.77 149.371 188.459 149.163C186.963 148.59 185.396 148.222 183.801 148.068C182.577 148.119 181.382 149.76 180.223 150.279Z" fill="#E8BFBF"/>
<path d="M183.872 147.982C183.872 147.982 164.734 142.186 160.602 146.045C158.175 148.313 159.32 150.459 160.681 151.805C161.689 152.835 163.885 152.583 165.325 152.525L180.402 151.042L183.872 147.982Z" fill="#E8BFBF"/>
<path d="M172.871 145.332C172.785 144.817 172.572 144.331 172.252 143.919C171.931 143.507 171.513 143.181 171.035 142.97C170.077 142.564 169.057 142.321 168.018 142.25L160.818 141.336C159.524 142.932 158.798 144.912 158.752 146.966C158.803 148.953 159.529 150.862 160.811 152.381C161.963 150.156 163.482 147.866 165.729 146.758C167.975 145.649 170.409 144.886 172.871 145.332Z" fill="#263238"/>
<path opacity="0.1" d="M167.939 110.376C167.939 110.333 167.939 110.311 167.939 110.304C168.091 110.261 168.069 110.29 167.939 110.376Z" fill="white"/>
<path d="M86.9622 271.274C86.8444 271.267 86.7342 271.214 86.6548 271.126C86.5755 271.039 86.5334 270.924 86.5374 270.806C87.0702 249.645 88.1574 214.934 88.215 214.74C88.2531 214.624 88.3341 214.528 88.4412 214.47C88.5484 214.413 88.6736 214.398 88.791 214.43C88.9076 214.467 89.0052 214.548 89.0631 214.655C89.1209 214.763 89.1344 214.889 89.1006 215.006C89.1006 215.049 87.9846 249.883 87.4518 270.828C87.4508 270.888 87.4379 270.947 87.4138 271.003C87.3897 271.058 87.3549 271.108 87.3113 271.149C87.2677 271.191 87.2163 271.223 87.1601 271.245C87.1039 271.266 87.0439 271.276 86.9838 271.274H86.9622Z" fill="#263238"/>
<path d="M84.1162 200.613C84.2962 202.241 86.2762 207.893 87.8746 207.72C89.473 207.547 90.2002 201.6 90.0346 199.973C89.9497 199.19 89.5571 198.473 88.9435 197.979C88.3298 197.486 87.5451 197.256 86.7622 197.341C85.9793 197.426 85.2622 197.819 84.7687 198.432C84.2752 199.046 84.0457 199.831 84.1306 200.613H84.1162Z" fill="#355DFF"/>
<path d="M92.0316 218.441C91.8516 216.806 89.8716 211.154 88.2732 211.334C86.6748 211.514 85.9548 217.447 86.1132 219.081C86.1982 219.864 86.5907 220.582 87.2044 221.075C87.8181 221.569 88.6027 221.798 89.3856 221.713C90.1685 221.628 90.8856 221.236 91.3792 220.622C91.8727 220.008 92.1022 219.224 92.0172 218.441H92.0316Z" fill="#355DFF"/>
<path d="M79.1999 213.48C80.8271 213.307 86.4791 211.356 86.2991 209.721C86.1191 208.087 80.1863 207.403 78.5591 207.561C78.1714 207.603 77.7959 207.721 77.4538 207.909C77.1117 208.096 76.8099 208.349 76.5656 208.652C76.3212 208.956 76.1391 209.305 76.0296 209.68C75.9201 210.054 75.8854 210.446 75.9275 210.834C75.9696 211.221 76.0876 211.597 76.2748 211.939C76.462 212.281 76.7148 212.583 77.0187 212.827C77.3225 213.072 77.6716 213.254 78.0458 213.363C78.4201 213.473 78.8122 213.507 79.1999 213.465V213.48Z" fill="#355DFF"/>
<path d="M96.9843 205.574C95.3571 205.747 89.7051 207.734 89.8851 209.333C90.0651 210.931 95.9979 211.651 97.6251 211.493C98.0183 211.458 98.4007 211.346 98.7499 211.162C99.099 210.977 99.4079 210.725 99.6585 210.42C99.909 210.115 100.096 209.763 100.209 209.385C100.322 209.007 100.358 208.61 100.315 208.217C100.272 207.825 100.152 207.445 99.9605 207.1C99.7691 206.754 99.5108 206.451 99.2006 206.207C98.8904 205.962 98.5345 205.783 98.154 205.678C97.7734 205.573 97.3757 205.545 96.9843 205.596V205.574Z" fill="#355DFF"/>
<path d="M78.9763 206.021C80.2507 207.051 85.6291 209.664 86.6587 208.39C87.6883 207.115 83.9731 202.421 82.6987 201.391C82.3975 201.125 82.0452 200.922 81.6633 200.795C81.2813 200.668 80.8776 200.621 80.4767 200.655C80.0757 200.689 79.6858 200.804 79.3306 200.993C78.9754 201.182 78.6622 201.441 78.4101 201.754C78.158 202.068 77.9721 202.429 77.8637 202.817C77.7554 203.204 77.7268 203.61 77.7798 204.009C77.8327 204.408 77.966 204.792 78.1717 205.138C78.3774 205.483 78.6511 205.784 78.9763 206.021Z" fill="#355DFF"/>
<path d="M97.1973 213.033C95.9229 212.003 90.5445 209.39 89.5221 210.664C88.4997 211.939 92.2005 216.633 93.4821 217.655C93.784 217.913 94.1345 218.107 94.5128 218.226C94.8911 218.346 95.2895 218.388 95.6845 218.351C96.0794 218.313 96.4629 218.197 96.8122 218.009C97.1615 217.821 97.4695 217.565 97.718 217.256C97.9665 216.946 98.1505 216.591 98.259 216.209C98.3676 215.827 98.3985 215.428 98.3499 215.034C98.3014 214.641 98.1744 214.261 97.9764 213.917C97.7784 213.573 97.5135 213.273 97.1973 213.033Z" fill="#355DFF"/>
<path d="M84.5699 218.621C85.5995 217.346 88.2131 211.968 86.9315 210.945C85.6499 209.923 80.9699 213.624 79.9403 214.905C79.4476 215.519 79.219 216.304 79.3048 217.086C79.3905 217.869 79.7836 218.585 80.3975 219.078C81.0114 219.57 81.7959 219.799 82.5784 219.713C83.3609 219.628 84.0772 219.235 84.5699 218.621Z" fill="#355DFF"/>
<path d="M91.5764 200.427C90.554 201.708 87.9332 207.079 89.2148 208.109C90.4964 209.139 95.1763 205.423 96.2059 204.149C96.4727 203.848 96.6755 203.495 96.8021 203.113C96.9288 202.732 96.9766 202.328 96.9426 201.927C96.9087 201.526 96.7937 201.136 96.6047 200.781C96.4157 200.426 96.1565 200.112 95.8429 199.86C95.5293 199.608 95.1678 199.422 94.7803 199.314C94.3928 199.206 93.9873 199.177 93.5884 199.23C93.1895 199.283 92.8055 199.416 92.4597 199.622C92.1138 199.828 91.8133 200.101 91.5764 200.427Z" fill="#355DFF"/>
<g opacity="0.6">
<path d="M84.1162 200.613C84.2962 202.241 86.2762 207.893 87.8746 207.72C89.473 207.547 90.2002 201.6 90.0346 199.973C89.9497 199.19 89.5571 198.473 88.9435 197.979C88.3298 197.486 87.5451 197.256 86.7622 197.341C85.9793 197.426 85.2622 197.819 84.7687 198.432C84.2752 199.046 84.0457 199.831 84.1306 200.613H84.1162Z" fill="white"/>
<path d="M92.0297 218.441C91.8497 216.806 89.8697 211.154 88.2713 211.334C86.6729 211.514 85.9529 217.447 86.1113 219.081C86.1962 219.864 86.5888 220.582 87.2024 221.075C87.8161 221.569 88.6007 221.798 89.3837 221.713C90.1666 221.628 90.8837 221.236 91.3772 220.622C91.8707 220.008 92.1002 219.224 92.0153 218.441H92.0297Z" fill="white"/>
<path d="M79.1999 213.48C80.8271 213.307 86.4791 211.356 86.2991 209.721C86.1191 208.087 80.1863 207.403 78.5591 207.561C78.1714 207.603 77.7959 207.721 77.4538 207.909C77.1117 208.096 76.8099 208.349 76.5656 208.652C76.3212 208.956 76.1391 209.305 76.0296 209.68C75.9201 210.054 75.8854 210.446 75.9275 210.834C75.9696 211.221 76.0876 211.597 76.2748 211.939C76.462 212.281 76.7148 212.583 77.0187 212.827C77.3225 213.072 77.6716 213.254 78.0458 213.363C78.4201 213.473 78.8122 213.507 79.1999 213.465V213.48Z" fill="white"/>
<path d="M96.9823 205.574C95.3551 205.747 89.7031 207.734 89.8831 209.333C90.0631 210.931 95.9959 211.651 97.6231 211.493C98.0164 211.458 98.3988 211.346 98.7479 211.162C99.0971 210.977 99.406 210.725 99.6565 210.42C99.907 210.115 100.094 209.763 100.207 209.385C100.32 209.007 100.356 208.61 100.313 208.217C100.27 207.825 100.15 207.445 99.9586 207.1C99.7672 206.754 99.5088 206.451 99.1986 206.207C98.8884 205.962 98.5326 205.783 98.152 205.678C97.7714 205.573 97.3738 205.545 96.9823 205.596V205.574Z" fill="white"/>
<path d="M78.9763 206.021C80.2507 207.051 85.6291 209.664 86.6587 208.39C87.6883 207.115 83.9731 202.421 82.6987 201.391C82.3975 201.125 82.0452 200.922 81.6633 200.795C81.2813 200.668 80.8776 200.621 80.4767 200.655C80.0757 200.689 79.6858 200.804 79.3306 200.993C78.9754 201.182 78.6622 201.441 78.4101 201.754C78.158 202.068 77.9721 202.429 77.8637 202.817C77.7554 203.204 77.7268 203.61 77.7798 204.009C77.8327 204.408 77.966 204.792 78.1717 205.138C78.3774 205.483 78.6511 205.784 78.9763 206.021Z" fill="white"/>
<path d="M97.2012 213.033C95.9268 212.004 90.5484 209.39 89.526 210.665C88.5036 211.939 92.2044 216.633 93.486 217.656C93.788 217.913 94.1384 218.107 94.5167 218.227C94.895 218.346 95.2934 218.388 95.6884 218.351C96.0833 218.314 96.4668 218.198 96.8161 218.01C97.1654 217.822 97.4734 217.565 97.7219 217.256C97.9704 216.947 98.1544 216.591 98.2629 216.21C98.3715 215.828 98.4024 215.429 98.3539 215.035C98.3053 214.641 98.1783 214.261 97.9803 213.917C97.7823 213.574 97.5174 213.273 97.2012 213.033Z" fill="white"/>
<path d="M84.5699 218.621C85.5995 217.347 88.2131 211.968 86.9315 210.946C85.6499 209.924 80.9699 213.624 79.9403 214.906C79.4476 215.52 79.219 216.304 79.3048 217.087C79.3905 217.869 79.7836 218.586 80.3975 219.078C81.0114 219.571 81.7959 219.8 82.5784 219.714C83.3609 219.628 84.0772 219.235 84.5699 218.621Z" fill="white"/>
<path d="M91.5783 200.427C90.5559 201.708 87.9351 207.079 89.2167 208.109C90.4983 209.139 95.1783 205.423 96.2079 204.149C96.4746 203.848 96.6775 203.495 96.8041 203.113C96.9307 202.732 96.9785 202.328 96.9446 201.927C96.9106 201.526 96.7957 201.136 96.6067 200.781C96.4176 200.426 96.1585 200.112 95.8449 199.86C95.5313 199.608 95.1698 199.422 94.7822 199.314C94.3947 199.206 93.9892 199.177 93.5904 199.23C93.1915 199.283 92.8075 199.416 92.4616 199.622C92.1158 199.828 91.8153 200.101 91.5783 200.427Z" fill="white"/>
</g>
<path d="M84.578 209.909C84.6546 210.599 84.9339 211.251 85.3807 211.782C85.8275 212.314 86.4218 212.701 87.0885 212.895C87.7553 213.089 88.4645 213.081 89.1268 212.872C89.789 212.664 90.3746 212.263 90.8094 211.722C91.2443 211.181 91.509 210.523 91.5702 209.831C91.6313 209.139 91.4862 208.445 91.153 207.836C90.8198 207.226 90.3136 206.73 89.6983 206.408C89.083 206.086 88.3861 205.954 87.6956 206.028C87.2358 206.077 86.7902 206.217 86.3844 206.439C85.9787 206.661 85.6207 206.96 85.331 207.321C85.0414 207.681 84.8258 208.096 84.6966 208.54C84.5674 208.984 84.5271 209.449 84.578 209.909Z" fill="#355DFF"/>
<path d="M84.9584 255.772C80.9048 255.859 73.964 252.115 71.2352 248.457C68.5064 244.8 76.232 247.017 75.4256 244.137C74.6192 241.257 65.0504 243.417 63.272 239.227C61.4936 235.036 68.4056 235.994 68.1248 233.856C67.844 231.717 60.6872 232.171 58.376 227.736C56.0648 223.3 62.372 225.763 61.3784 223.927C60.3848 222.091 52.472 214.351 55.7696 212.724C59.0672 211.096 66.4832 219.153 68.9672 220.053C71.4512 220.953 72.0128 215.366 75.2384 218.023C78.464 220.68 76.0952 232.358 79.8968 233.863C82.7264 235 81.5096 229.665 84.764 230.983C90.4376 233.337 86.5712 255.736 84.9584 255.772Z" fill="#355DFF"/>
<g opacity="0.2">
<path d="M84.9584 255.772C80.9048 255.859 73.964 252.115 71.2352 248.457C68.5064 244.8 76.232 247.017 75.4256 244.137C74.6192 241.257 65.0504 243.417 63.272 239.227C61.4936 235.036 68.4056 235.994 68.1248 233.856C67.844 231.717 60.6872 232.171 58.376 227.736C56.0648 223.3 62.372 225.763 61.3784 223.927C60.3848 222.091 52.472 214.351 55.7696 212.724C59.0672 211.096 66.4832 219.153 68.9672 220.053C71.4512 220.953 72.0128 215.366 75.2384 218.023C78.464 220.68 76.0952 232.358 79.8968 233.863C82.7264 235 81.5096 229.665 84.764 230.983C90.4376 233.337 86.5712 255.736 84.9584 255.772Z" fill="white"/>
</g>
<path d="M90.7541 250.625C90.8189 250.74 90.2141 251.345 92.1941 251.395C97.1261 251.597 105.874 251.266 109.121 246.78C113.801 240.379 103.016 240.97 104.081 237.42C105.147 233.87 116.717 236.772 118.978 231.732C121.239 226.692 112.808 227.678 113.218 225.079C113.628 222.48 122.448 225.85 125.364 220.5C128.28 215.15 120.555 218.016 121.764 215.798C122.974 213.581 132.852 204.379 128.878 202.32C124.904 200.261 115.695 209.894 112.656 210.96C109.618 212.026 108.912 202.55 104.924 205.711C100.935 208.872 103.549 223.121 98.8901 224.892C95.4197 226.21 97.3133 221.098 93.0293 221.292C87.2189 221.53 85.3037 241.517 90.7541 250.625Z" fill="#355DFF"/>
<g opacity="0.3">
<path d="M90.7541 250.625C90.8189 250.74 90.2141 251.345 92.1941 251.395C97.1261 251.597 105.874 251.266 109.121 246.78C113.801 240.379 103.016 240.97 104.081 237.42C105.147 233.87 116.717 236.772 118.978 231.732C121.239 226.692 112.808 227.678 113.218 225.079C113.628 222.48 122.448 225.85 125.364 220.5C128.28 215.15 120.555 218.016 121.764 215.798C122.974 213.581 132.852 204.379 128.878 202.32C124.904 200.261 115.695 209.894 112.656 210.96C109.618 212.026 108.912 202.55 104.924 205.711C100.935 208.872 103.549 223.121 98.8901 224.892C95.4197 226.21 97.3133 221.098 93.0293 221.292C87.2189 221.53 85.3037 241.517 90.7541 250.625Z" fill="white"/>
</g>
<path d="M87.0613 268.077C87.0189 268.073 86.9779 268.06 86.9406 268.039C86.9033 268.019 86.8706 267.991 86.8443 267.957C86.8181 267.923 86.799 267.885 86.788 267.844C86.777 267.803 86.7745 267.76 86.7805 267.717C90.8269 234.597 109.914 221.119 110.109 220.989C110.143 220.966 110.182 220.949 110.223 220.94C110.264 220.932 110.306 220.931 110.347 220.939C110.388 220.947 110.427 220.962 110.462 220.985C110.497 221.008 110.528 221.038 110.551 221.072C110.575 221.107 110.592 221.145 110.6 221.186C110.609 221.227 110.609 221.27 110.602 221.311C110.594 221.352 110.578 221.391 110.555 221.426C110.533 221.461 110.503 221.491 110.469 221.515C110.281 221.652 91.4317 234.972 87.4285 267.797C87.4232 267.839 87.4095 267.88 87.3881 267.918C87.3666 267.955 87.338 267.988 87.3038 268.014C87.2696 268.04 87.2306 268.059 87.189 268.07C87.1473 268.081 87.1039 268.083 87.0613 268.077Z" fill="#263238"/>
<path d="M105.733 225.59C105.668 225.589 105.606 225.567 105.554 225.528C105.503 225.49 105.464 225.436 105.445 225.374C105.417 225.293 105.423 225.204 105.461 225.127C105.499 225.05 105.565 224.992 105.646 224.964C105.769 224.928 108.613 224.028 113.264 225.014C113.347 225.033 113.42 225.083 113.467 225.154C113.513 225.226 113.531 225.312 113.516 225.396C113.499 225.48 113.449 225.553 113.377 225.601C113.306 225.648 113.218 225.665 113.134 225.648C108.656 224.697 105.877 225.569 105.848 225.576C105.811 225.588 105.772 225.593 105.733 225.59Z" fill="#263238"/>
<path d="M102.239 229.615C102.156 229.613 102.077 229.579 102.019 229.52C101.961 229.46 101.929 229.381 101.929 229.298C101.828 219.276 107.631 211.449 107.689 211.37C107.741 211.305 107.817 211.262 107.899 211.25C107.982 211.238 108.067 211.258 108.135 211.305C108.169 211.331 108.198 211.363 108.22 211.399C108.242 211.436 108.256 211.477 108.262 211.519C108.268 211.561 108.265 211.604 108.255 211.645C108.244 211.686 108.226 211.725 108.2 211.759C108.143 211.831 102.44 219.499 102.57 229.291C102.57 229.376 102.537 229.457 102.477 229.518C102.418 229.578 102.338 229.613 102.253 229.615H102.239Z" fill="#263238"/>
<path d="M96.5225 238.097C96.4815 238.096 96.4411 238.086 96.4039 238.069C96.3667 238.052 96.3336 238.027 96.3065 237.996C96.2763 237.966 96.2522 237.931 96.2358 237.892C96.2194 237.853 96.2109 237.811 96.2109 237.769C96.2109 237.727 96.2194 237.685 96.2358 237.646C96.2522 237.607 96.2763 237.572 96.3065 237.542C96.3497 237.506 100.627 233.532 106.271 235.548C106.341 235.584 106.395 235.644 106.424 235.717C106.453 235.79 106.454 235.871 106.428 235.945C106.401 236.018 106.349 236.08 106.281 236.119C106.212 236.157 106.132 236.169 106.055 236.153C100.799 234.266 96.7889 237.974 96.7529 238.01C96.7225 238.04 96.6863 238.062 96.6467 238.077C96.6071 238.092 96.5648 238.099 96.5225 238.097Z" fill="#263238"/>
<path d="M93.5501 244.015C93.49 244.011 93.4322 243.991 93.3827 243.956C93.3332 243.922 93.294 243.875 93.2693 243.82C91.846 239.839 91.4911 235.554 92.2397 231.393C92.2458 231.351 92.2602 231.311 92.2821 231.275C92.304 231.239 92.3329 231.207 92.3671 231.182C92.4014 231.158 92.4402 231.14 92.4814 231.13C92.5225 231.121 92.5652 231.119 92.6069 231.127C92.6905 231.141 92.7653 231.187 92.8151 231.256C92.8649 231.325 92.8858 231.41 92.8733 231.494C92.1611 235.537 92.5008 239.695 93.8597 243.568C93.8764 243.607 93.8853 243.648 93.886 243.689C93.8867 243.731 93.8791 243.773 93.8637 243.811C93.8483 243.85 93.8254 243.886 93.7963 243.916C93.7672 243.946 93.7325 243.969 93.6941 243.986C93.6487 244.006 93.5996 244.015 93.5501 244.015Z" fill="#263238"/>
<path d="M87.1848 279.914C87.1045 279.911 87.0286 279.877 86.9725 279.819C86.9163 279.762 86.8841 279.685 86.8824 279.605L86.4648 270.828C85.2336 241.646 65.2248 221.803 65.0232 221.609C64.9753 221.547 64.9513 221.47 64.9556 221.392C64.9598 221.314 64.9921 221.241 65.0464 221.185C65.1007 221.128 65.1734 221.094 65.2511 221.087C65.3289 221.08 65.4064 221.102 65.4696 221.148C65.6712 221.349 85.8672 241.358 87.1056 270.828L87.5232 279.605C87.5251 279.689 87.4938 279.772 87.436 279.833C87.3781 279.895 87.2982 279.932 87.2136 279.936L87.1848 279.914Z" fill="#263238"/>
<path d="M73.2725 232.56H73.2221C73.188 232.557 73.1554 232.545 73.1285 232.524L73.0205 232.488C70.4174 231.4 67.6192 230.856 64.7981 230.889C64.7133 230.891 64.6312 230.86 64.5693 230.802C64.5074 230.744 64.4706 230.664 64.4669 230.58C64.4659 230.537 64.4734 230.495 64.4888 230.455C64.5042 230.416 64.5272 230.379 64.5567 230.349C64.5861 230.318 64.6213 230.293 64.6602 230.276C64.6992 230.259 64.7411 230.25 64.7837 230.249C67.7 230.214 70.5929 230.773 73.2869 231.89L73.3877 231.933H73.4453C73.5091 231.964 73.5604 232.016 73.5906 232.08C73.6207 232.145 73.6279 232.217 73.6109 232.286C73.6001 232.366 73.559 232.439 73.4961 232.49C73.4332 232.541 73.3532 232.566 73.2725 232.56Z" fill="#263238"/>
<path d="M76.1018 236.325C76.0597 236.323 76.0187 236.311 75.9811 236.292C75.9436 236.273 75.9103 236.247 75.8833 236.215C75.8564 236.182 75.8363 236.145 75.8243 236.104C75.8124 236.064 75.8088 236.022 75.8138 235.98C76.5842 227.34 72.1274 220.277 72.077 220.212C72.0361 220.139 72.0247 220.054 72.045 219.973C72.0653 219.893 72.1158 219.823 72.1861 219.779C72.2564 219.734 72.3411 219.719 72.4226 219.735C72.5042 219.751 72.5763 219.798 72.6242 219.866C72.6674 219.938 77.2466 227.196 76.4474 236.037C76.4437 236.079 76.4319 236.12 76.4126 236.157C76.3932 236.194 76.3667 236.227 76.3346 236.253C76.3024 236.28 76.2653 236.3 76.2254 236.313C76.1854 236.325 76.1434 236.329 76.1018 236.325Z" fill="#263238"/>
<path d="M79.0269 241.315C78.9454 241.313 78.8678 241.28 78.8109 241.221C77.7401 240.252 76.4451 239.565 75.0425 239.22C73.6399 238.876 72.1736 238.886 70.7757 239.249C70.6927 239.271 70.6043 239.259 70.53 239.215C70.4558 239.172 70.4017 239.101 70.3797 239.018C70.3689 238.978 70.3664 238.935 70.3721 238.893C70.3779 238.852 70.392 238.812 70.4134 238.775C70.4348 238.739 70.4633 238.708 70.4971 238.683C70.5308 238.658 70.5693 238.639 70.6101 238.629C72.1152 238.227 73.6981 238.214 75.2096 238.591C76.7211 238.969 78.1116 239.726 79.2501 240.789C79.2804 240.819 79.3044 240.854 79.3209 240.893C79.3373 240.932 79.3457 240.974 79.3457 241.016C79.3457 241.058 79.3373 241.1 79.3209 241.139C79.3044 241.178 79.2804 241.213 79.2501 241.243C79.2196 241.269 79.1841 241.289 79.1458 241.302C79.1075 241.314 79.0671 241.318 79.0269 241.315Z" fill="#263238"/>
<path d="M82.7347 249.538C82.6869 249.537 82.6399 249.524 82.5979 249.502C82.5602 249.483 82.5267 249.456 82.4994 249.424C82.472 249.392 82.4514 249.355 82.4386 249.314C82.4259 249.274 82.4213 249.232 82.4252 249.19C82.429 249.148 82.4413 249.107 82.4611 249.07C83.9287 245.754 84.5212 242.117 84.1819 238.507C84.1759 238.422 84.2035 238.339 84.2588 238.274C84.314 238.209 84.3924 238.169 84.4771 238.162C84.5193 238.158 84.5619 238.162 84.6023 238.175C84.6427 238.188 84.6801 238.209 84.7123 238.236C84.7446 238.264 84.7709 238.297 84.7899 238.335C84.8089 238.373 84.82 238.414 84.8227 238.457C85.1902 242.187 84.572 245.948 83.0299 249.365C83.0024 249.419 82.96 249.464 82.9077 249.494C82.8553 249.525 82.7953 249.54 82.7347 249.538Z" fill="#263238"/>
<path d="M105.234 281.296C105.234 291.528 100.626 299.829 86.6865 299.829C73.3809 299.829 68.1465 291.528 68.1465 281.296C68.1438 277.581 69.2603 273.95 71.3505 270.878H102.03C104.12 273.95 105.236 277.581 105.234 281.296Z" fill="#355DFF"/>
<path opacity="0.7" d="M105.234 281.296C105.234 291.528 100.626 299.829 86.6865 299.829C73.3809 299.829 68.1465 291.528 68.1465 281.296C68.1438 277.581 69.2603 273.95 71.3505 270.878H102.03C104.12 273.95 105.236 277.581 105.234 281.296Z" fill="white"/>
</svg>
