<svg width="360" height="360" viewBox="0 0 360 360" fill="none" xmlns="http://www.w3.org/2000/svg">
<path d="M360 275.328H0V275.508H360V275.328Z" fill="#EBEBEB"/>
<g opacity="0.2">
<path d="M118.433 47.3398H67.1328V221.371H118.433V47.3398Z" fill="#BAB9B9"/>
<path d="M110.793 47.3398H107.798L89.9062 221.371H92.9014L110.793 47.3398Z" fill="#CCCBCB"/>
<path d="M117.525 48.0098H66.8008V49.5434H117.525V48.0098Z" fill="#CAC8C8"/>
<path d="M68.7537 48.0097H116.684V222.984H119.557V45.8569H65.8809V222.984H68.7537V48.0097Z" fill="#D6D6D6"/>
<path d="M175.521 47.3398H124.221V221.371H175.521V47.3398Z" fill="#BAB9B9"/>
<path d="M161.286 47.3398H144.935L127.043 221.371H143.394L161.286 47.3398Z" fill="#CCCBCB"/>
<path d="M176.055 48.0098H123.891V49.5434H176.055V48.0098Z" fill="#CAC8C8"/>
<path d="M176.055 219.845H123.891V223.128H176.055V219.845Z" fill="#D6D6D6"/>
<path d="M125.84 48.0092H173.77V222.984H176.636V45.8564H122.967V222.984H125.84V48.0092Z" fill="#D6D6D6"/>
<path d="M231.163 47.3398H181.303V221.371H231.163V47.3398Z" fill="#BAB9B9"/>
<path d="M209.555 47.3398H206.56L188.668 221.371H191.663L209.555 47.3398Z" fill="#CCCBCB"/>
<path d="M231.704 48.0098H180.98V49.5434H231.704V48.0098Z" fill="#CAC8C8"/>
<path d="M231.704 219.845H180.98V223.128H231.704V219.845Z" fill="#D6D6D6"/>
<path d="M182.931 48.0097H230.855V222.984H233.727V45.8569H180.059V222.984H182.931V48.0097Z" fill="#D6D6D6"/>
<path d="M289.693 47.3398H238.393V221.371H289.693V47.3398Z" fill="#BAB9B9"/>
<path d="M284.672 47.3398H268.321L250.422 221.371H266.78L284.672 47.3398Z" fill="#CCCBCB"/>
<path d="M288.786 48.0098H238.062V49.5434H288.786V48.0098Z" fill="#CAC8C8"/>
<path d="M288.786 219.845H238.062V223.128H288.786V219.845Z" fill="#D6D6D6"/>
<path d="M240.01 48.0092H287.941V222.984H290.813V45.8564H237.145V222.984H240.01V48.0092Z" fill="#D6D6D6"/>
</g>
<path d="M287.942 222.984H240.012V223.128H287.942V222.984Z" fill="#EBEBEB"/>
<path d="M85.3207 185.616H88.1719V182.765H85.3207V185.616Z" fill="#F0F0F0"/>
<path d="M85.3207 190.793H88.1719V187.942H85.3207V190.793Z" fill="#FAFAFA"/>
<path d="M90.8422 195.977H93.6934V193.125H90.8422V195.977Z" fill="#FAFAFA"/>
<path d="M85.3207 195.977H88.1719V193.126H85.3207V195.977Z" fill="#F0F0F0"/>
<path d="M90.8422 201.161H93.6934V198.31H90.8422V201.161Z" fill="#F0F0F0"/>
<path d="M85.3207 201.161H88.1719V198.31H85.3207V201.161Z" fill="#FAFAFA"/>
<path d="M101.881 206.345H104.732V203.494H101.881V206.345Z" fill="#F0F0F0"/>
<path d="M90.8422 206.345H93.6934V203.494H90.8422V206.345Z" fill="#FAFAFA"/>
<path d="M85.3207 206.345H88.1719V203.494H85.3207V206.345Z" fill="#F0F0F0"/>
<path d="M101.881 211.521H104.732V208.67H101.881V211.521Z" fill="#F0F0F0"/>
<path d="M96.3637 211.521H99.2148V208.67H96.3637V211.521Z" fill="#FAFAFA"/>
<path d="M90.8422 211.521H93.6934V208.67H90.8422V211.521Z" fill="#F0F0F0"/>
<path d="M85.3207 211.521H88.1719V208.67H85.3207V211.521Z" fill="#FAFAFA"/>
<path d="M101.881 216.706H104.732V213.854H101.881V216.706Z" fill="#FAFAFA"/>
<path d="M96.3637 216.706H99.2148V213.854H96.3637V216.706Z" fill="#FAFAFA"/>
<path d="M90.8422 216.706H93.6934V213.854H90.8422V216.706Z" fill="#F0F0F0"/>
<path d="M85.3207 216.706H88.1719V213.854H85.3207V216.706Z" fill="#F0F0F0"/>
<path d="M149.941 208.857H152.26V206.539H149.941V208.857Z" fill="#FAFAFA"/>
<path d="M149.941 213.07H152.26V210.751H149.941V213.07Z" fill="#E6E6E6"/>
<path d="M149.941 217.289H152.26V214.971H149.941V217.289Z" fill="#E6E6E6"/>
<path d="M136.168 211.414H129.35V217.951H136.168V211.414Z" fill="#FAFAFA"/>
<path d="M179.997 307.843C257.097 307.843 319.598 304.194 319.598 299.692C319.598 295.191 257.097 291.542 179.997 291.542C102.898 291.542 40.3965 295.191 40.3965 299.692C40.3965 304.194 102.898 307.843 179.997 307.843Z" fill="#F5F5F5" fill-opacity="0.5"/>
<path d="M289.368 275.191C289.368 275.191 284.63 264.867 290.037 254.679C295.444 244.491 297.021 242.093 293.572 240.012C290.124 237.931 288.532 248.155 288.532 248.155C288.532 248.155 285.652 241.114 288.021 233.755C290.39 226.397 291.931 214.387 288.655 213.099C285.379 211.81 288.028 228.067 285.184 233.611C283.734 229.72 282.798 225.656 282.398 221.523C282.009 215.604 282.621 206.158 280.029 203.731C277.437 201.305 275.788 203.011 278.33 216.043C279.858 223.849 280.703 231.772 280.857 239.724C280.857 239.724 275.234 222.588 271.497 222.091C267.76 221.595 267.732 227.131 270.964 231.948C274.197 236.765 280.389 245.376 281.404 249.84C281.404 249.84 275.241 236.952 269.69 240.898C264.139 244.843 274.521 252.641 279.144 255.456C283.766 258.271 286.984 275.904 286.984 275.904L289.368 275.191Z" fill="#4FBF67"/>
<path opacity="0.2" d="M289.368 275.191C289.368 275.191 284.63 264.867 290.037 254.679C295.444 244.491 297.021 242.093 293.572 240.012C290.124 237.931 288.532 248.155 288.532 248.155C288.532 248.155 285.652 241.114 288.021 233.755C290.39 226.397 291.931 214.387 288.655 213.099C285.379 211.81 288.028 228.067 285.184 233.611C283.734 229.72 282.798 225.656 282.398 221.523C282.009 215.604 282.621 206.158 280.029 203.731C277.437 201.305 275.788 203.011 278.33 216.043C279.858 223.849 280.703 231.772 280.857 239.724C280.857 239.724 275.234 222.588 271.497 222.091C267.76 221.595 267.732 227.131 270.964 231.948C274.197 236.765 280.389 245.376 281.404 249.84C281.404 249.84 275.241 236.952 269.69 240.898C264.139 244.843 274.521 252.641 279.144 255.456C283.766 258.271 286.984 275.904 286.984 275.904L289.368 275.191Z" fill="black"/>
<path d="M285.624 279.432C285.624 279.432 290.239 269.028 284.71 258.926C279.18 248.825 277.575 246.449 281.002 244.31C284.429 242.172 286.128 252.382 286.128 252.382C286.128 252.382 288.951 245.304 286.467 237.982C283.983 230.659 282.327 218.671 285.588 217.339C288.85 216.007 286.395 232.301 289.303 237.794C290.708 233.885 291.594 229.809 291.939 225.67C292.263 219.744 291.535 210.305 294.099 207.842C296.662 205.38 298.339 207.036 295.949 220.133C294.516 227.956 293.767 235.889 293.71 243.842C293.71 243.842 299.124 226.627 302.89 226.073C306.655 225.518 306.713 231.062 303.545 235.922C300.377 240.782 294.257 249.494 293.285 253.922C293.285 253.922 299.297 240.962 304.891 244.814C310.486 248.666 300.204 256.622 295.618 259.502C291.031 262.382 288 280.08 288 280.08L285.624 279.432Z" fill="#4FBF67"/>
<path d="M306.893 272.017H268.805L271.886 299.276H303.811L306.893 272.017Z" fill="#263238"/>
<path d="M112.055 100.62H86.9199C85.9518 100.62 85.0233 101.005 84.3387 101.689C83.6541 102.374 83.2695 103.302 83.2695 104.271V128.707C83.2695 129.675 83.6541 130.604 84.3387 131.289C85.0233 131.973 85.9518 132.358 86.9199 132.358H94.9623L89.5479 139.716L98.9079 132.358H112.048C113.016 132.358 113.945 131.973 114.629 131.289C115.314 130.604 115.698 129.675 115.698 128.707V104.271C115.698 103.304 115.315 102.376 114.632 101.692C113.949 101.007 113.022 100.622 112.055 100.62Z" fill="#4FBF67"/>
<path opacity="0.6" d="M112.055 100.62H86.9199C85.9518 100.62 85.0233 101.005 84.3387 101.689C83.6541 102.374 83.2695 103.302 83.2695 104.271V128.707C83.2695 129.675 83.6541 130.604 84.3387 131.289C85.0233 131.973 85.9518 132.358 86.9199 132.358H94.9623L89.5479 139.716L98.9079 132.358H112.048C113.016 132.358 113.945 131.973 114.629 131.289C115.314 130.604 115.698 129.675 115.698 128.707V104.271C115.698 103.304 115.315 102.376 114.632 101.692C113.949 101.007 113.022 100.622 112.055 100.62Z" fill="white"/>
<path d="M99.4901 127.901C105.793 127.901 110.902 122.792 110.902 116.489C110.902 110.186 105.793 105.077 99.4901 105.077C93.1874 105.077 88.0781 110.186 88.0781 116.489C88.0781 122.792 93.1874 127.901 99.4901 127.901Z" fill="#4FBF67"/>
<path opacity="0.2" d="M109.009 118.729C110.25 113.47 106.993 108.2 101.733 106.958C96.4738 105.717 91.2039 108.974 89.9625 114.234C88.7212 119.493 91.9785 124.763 97.238 126.005C102.497 127.246 107.767 123.989 109.009 118.729Z" fill="black"/>
<path d="M98.2728 121.162C98.1402 121.164 98.0084 121.141 97.8849 121.093C97.7613 121.045 97.6485 120.973 97.5528 120.881L93.3984 116.813C93.2075 116.628 93.0979 116.374 93.0939 116.108C93.0898 115.842 93.1916 115.585 93.3768 115.394C93.5621 115.203 93.8156 115.094 94.0816 115.09C94.3476 115.086 94.6043 115.188 94.7952 115.373L98.2008 118.706L104.09 112.133C104.271 111.951 104.515 111.845 104.771 111.837C105.027 111.83 105.277 111.921 105.468 112.092C105.659 112.262 105.777 112.5 105.798 112.756C105.819 113.011 105.741 113.265 105.581 113.465L98.9928 120.816C98.902 120.918 98.7911 121 98.6673 121.057C98.5434 121.113 98.4091 121.144 98.2728 121.147V121.162Z" fill="white"/>
<path d="M66.8893 282.902L87.6325 280.857V257.464H95.8549V280.85L116.685 282.902C117.683 282.999 118.609 283.464 119.283 284.207C119.956 284.95 120.329 285.917 120.328 286.92V290.037H63.2461V286.92C63.245 285.917 63.6176 284.95 64.2913 284.207C64.9649 283.464 65.8912 282.999 66.8893 282.902Z" fill="#263238"/>
<path opacity="0.1" d="M66.8893 282.902L87.6325 280.857V257.464H95.8549V280.85L116.685 282.902C117.683 282.999 118.609 283.464 119.283 284.207C119.956 284.95 120.329 285.917 120.328 286.92V290.037H63.2461V286.92C63.245 285.917 63.6176 284.95 64.2913 284.207C64.9649 283.464 65.8912 282.999 66.8893 282.902Z" fill="white"/>
<path d="M118.13 299.275C121.101 299.275 123.509 296.867 123.509 293.897C123.509 290.927 121.101 288.519 118.13 288.519C115.16 288.519 112.752 290.927 112.752 293.897C112.752 296.867 115.16 299.275 118.13 299.275Z" fill="#263238"/>
<path d="M65.4409 299.275C68.4113 299.275 70.8193 296.867 70.8193 293.896C70.8193 290.926 68.4113 288.518 65.4409 288.518C62.4705 288.518 60.0625 290.926 60.0625 293.896C60.0625 296.867 62.4705 299.275 65.4409 299.275Z" fill="#263238"/>
<path d="M94.292 263.729H89.1656C88.377 263.729 87.6206 263.415 87.063 262.858C86.5053 262.3 86.192 261.544 86.192 260.755V237.758H97.2656V260.755C97.2656 261.544 96.9523 262.3 96.3947 262.858C95.837 263.415 95.0807 263.729 94.292 263.729Z" fill="#263238"/>
<path opacity="0.2" d="M94.292 263.729H89.1656C88.377 263.729 87.6206 263.415 87.063 262.858C86.5053 262.3 86.192 261.544 86.192 260.755V237.758H97.2656V260.755C97.2656 261.544 96.9523 262.3 96.3947 262.858C95.837 263.415 95.0807 263.729 94.292 263.729Z" fill="white"/>
<path d="M63.0293 192.686C63.0293 192.686 69.1925 231.119 81.3605 237.765H68.9909C68.9909 237.765 56.7509 224.661 53.0645 192.686H63.0293Z" fill="#263238"/>
<path opacity="0.1" d="M63.0293 192.686C63.0293 192.686 69.1925 231.119 81.3605 237.765H68.9909C68.9909 237.765 56.7509 224.661 53.0645 192.686H63.0293Z" fill="white"/>
<path d="M68.4008 232.329H116.583C117.538 232.329 118.454 232.708 119.129 233.384C119.804 234.059 120.183 234.974 120.183 235.929V240.746H64.8008V235.929C64.8008 234.974 65.1801 234.059 65.8552 233.384C66.5303 232.708 67.446 232.329 68.4008 232.329Z" fill="#4FBF67"/>
<path d="M121.017 236.534H63.914C63.1147 236.534 62.4668 237.182 62.4668 237.981V239.292C62.4668 240.091 63.1147 240.739 63.914 240.739H121.017C121.816 240.739 122.464 240.091 122.464 239.292V237.981C122.464 237.182 121.816 236.534 121.017 236.534Z" fill="#263238"/>
<path opacity="0.6" d="M121.017 236.534H63.914C63.1147 236.534 62.4668 237.182 62.4668 237.981V239.292C62.4668 240.091 63.1147 240.739 63.914 240.739H121.017C121.816 240.739 122.464 240.091 122.464 239.292V237.981C122.464 237.182 121.816 236.534 121.017 236.534Z" fill="white"/>
<path d="M51.6032 200.506H71.396C77.1992 200.506 80.9648 195.854 79.8128 190.116L78.272 182.455C77.12 176.695 71.4824 172.073 65.6864 172.073H45.8936C40.0904 172.073 36.3248 176.724 37.4768 182.455L39.0176 190.116C40.1696 195.84 45.8 200.506 51.6032 200.506Z" fill="#4FBF67"/>
<path d="M156.629 264.881L152.093 266.659L148.832 260.51L145.865 254.916L150.891 251.906L153.929 258.768L156.629 264.881Z" fill="#E4897B"/>
<path opacity="0.2" d="M153.929 258.768L148.832 260.51L145.865 254.916L150.891 251.906L153.929 258.768Z" fill="black"/>
<path d="M152.987 255.412L146.816 258.724C146.816 258.724 123.496 217.72 119.91 218.066C116.324 218.412 82.3045 240.084 71.9293 232.077C61.5541 224.071 71.6485 199.965 71.6485 199.965C71.6485 199.965 93.1117 193.831 95.4085 198.525C96.0138 199.931 96.5285 201.374 96.9493 202.845C97.4029 204.321 97.7485 205.567 97.7485 205.567C98.4037 205.3 119.6 196.61 129.061 201.247C138.716 206.013 152.987 255.412 152.987 255.412Z" fill="#263238"/>
<path opacity="0.3" d="M152.987 255.412L146.816 258.724C146.816 258.724 123.496 217.72 119.91 218.066C116.324 218.412 82.3045 240.084 71.9293 232.077C61.5541 224.071 71.6485 199.965 71.6485 199.965C71.6485 199.965 93.1117 193.831 95.4085 198.525C96.0138 199.931 96.5285 201.374 96.9493 202.845C97.4029 204.321 97.7485 205.567 97.7485 205.567C98.4037 205.3 119.6 196.61 129.061 201.247C138.716 206.013 152.987 255.412 152.987 255.412Z" fill="white"/>
<path d="M119.464 288.849L114.626 288.295L114.597 281.469L114.59 275.205L120.443 274.932L119.925 282.297L119.464 288.849Z" fill="#E4897B"/>
<path opacity="0.2" d="M119.908 282.448L114.58 281.598V275.27L120.434 274.96L119.908 282.448Z" fill="black"/>
<path d="M143.797 256.687L152.826 252.166L153.769 255.996L146.929 259.524L143.797 256.687Z" fill="#4FBF67"/>
<path d="M87.9551 232.143C87.9551 232.143 89.4383 231.977 112.255 227.75C112.255 227.75 112.773 256.925 113.853 278.676L120.881 278.899C120.881 278.899 130.961 230.659 129.773 223.344C128.585 216.029 119.916 215.071 119.916 215.071C119.916 215.071 104.861 226.8 87.9551 232.143Z" fill="#263238"/>
<path opacity="0.4" d="M87.9551 232.143C87.9551 232.143 89.4383 231.977 112.255 227.75C112.255 227.75 112.773 256.925 113.853 278.676L120.881 278.899C120.881 278.899 130.961 230.659 129.773 223.344C128.585 216.029 119.916 215.071 119.916 215.071C119.916 215.071 104.861 226.8 87.9551 232.143Z" fill="white"/>
<path opacity="0.3" d="M87.9551 232.143C87.9551 232.143 89.4383 231.977 112.255 227.75C112.255 227.75 112.773 256.925 113.853 278.676L120.881 278.899C120.881 278.899 130.961 230.659 129.773 223.344C128.585 216.029 119.916 215.071 119.916 215.071C119.916 215.071 104.861 226.8 87.9551 232.143Z" fill="black"/>
<path d="M112.564 276.732L122.148 276.509L120.837 280.454L113.061 280.526L112.564 276.732Z" fill="#4FBF67"/>
<path opacity="0.3" d="M97.7762 205.581L85.3418 210.009C85.3418 210.009 91.8794 205.128 96.977 202.86C97.4306 204.336 97.7762 205.581 97.7762 205.581Z" fill="black"/>
<path d="M70.209 198.482L70.6698 201.931L93.9762 196.984L93.4362 192.909L70.209 198.482Z" fill="#263238"/>
<path opacity="0.2" d="M70.209 198.482L70.6698 201.931L93.9762 196.984L93.4362 192.909L70.209 198.482Z" fill="black"/>
<path d="M77.9305 195.977L76.7695 196.192L77.8662 202.103L79.0272 201.888L77.9305 195.977Z" fill="#263238"/>
<path d="M88.0931 194.48L83.0078 195.626L83.8768 199.483L88.9621 198.337L88.0931 194.48Z" fill="white"/>
<path d="M91.3623 192.072L90.2051 192.285L91.2872 198.176L92.4444 197.964L91.3623 192.072Z" fill="#263238"/>
<path opacity="0.3" d="M77.9305 195.977L76.7695 196.192L77.8662 202.103L79.0272 201.888L77.9305 195.977Z" fill="white"/>
<path opacity="0.3" d="M91.3623 192.072L90.2051 192.285L91.2872 198.176L92.4444 197.964L91.3623 192.072Z" fill="white"/>
<path d="M165.644 272.93C164.887 272.698 164.093 272.607 163.304 272.664C163.304 272.664 160.373 271.44 156.824 265.615L153.8 266.011C153.291 266.087 152.818 266.318 152.444 266.672C152.071 267.026 151.815 267.487 151.712 267.991C151.69 268.134 151.69 268.28 151.712 268.423C151.842 269.154 152.02 269.875 152.244 270.583C153.02 272.923 153.936 275.214 154.988 277.444L155.477 277.243L153.915 272.88C153.396 271.389 155.204 272.649 156.161 274.089C157.119 275.529 158.48 276.926 161.712 275.702C165.471 274.233 166.961 273.456 165.644 272.93Z" fill="#263238"/>
<path d="M156.067 264.067C156.067 264.067 160.92 271.44 163.303 272.664C163.303 272.664 160.632 274.824 157.068 271.353C152.467 266.896 151.697 268.423 151.697 268.423C151.656 267.55 151.697 266.675 151.819 265.809C152.187 264.117 156.067 264.067 156.067 264.067Z" fill="#E4897B"/>
<path d="M126.721 297.432C126.031 297.034 125.275 296.766 124.489 296.64C124.489 296.64 121.933 294.761 119.881 288.266L116.849 287.935C116.335 287.886 115.818 287.999 115.371 288.257C114.923 288.515 114.567 288.905 114.351 289.375C114.286 289.504 114.243 289.643 114.221 289.785C114.171 290.521 114.171 291.26 114.221 291.996C114.417 294.453 114.763 296.896 115.258 299.311L115.784 299.232L115.316 294.609C115.165 293.04 116.626 294.696 117.217 296.323C117.807 297.95 118.793 299.628 122.221 299.203C126.224 298.663 127.851 298.26 126.721 297.432Z" fill="#263238"/>
<path d="M119.521 286.56C119.521 286.56 122.487 294.876 124.51 296.64C124.51 296.64 121.407 298.08 118.75 293.889C115.33 288.468 114.229 289.771 114.229 289.771C114.39 288.915 114.631 288.076 114.949 287.265C115.712 285.681 119.521 286.56 119.521 286.56Z" fill="#E4897B"/>
<path d="M65.1329 139.68L59.0417 140.904C58.8038 141.104 58.5227 141.247 58.2204 141.32C57.9181 141.394 57.6029 141.397 57.2994 141.328C55.485 140.608 52.8714 138.499 52.5402 137.728C52.0506 136.641 52.5401 133.452 53.8217 132.876C55.1033 132.3 59.517 137.628 59.517 137.628L66.0617 136.152L65.1329 139.68Z" fill="#E4897B"/>
<path d="M84.3409 159.926C84.3409 159.926 83.7865 140.191 81.5041 139.348C79.2217 138.506 62.0641 140.86 62.0641 140.86L61.6465 136.353C61.6465 136.353 81.6121 133.279 85.4785 135.1C89.3449 136.922 90.6193 166.334 89.9137 172L84.3409 159.926Z" fill="#4FBF67"/>
<path opacity="0.6" d="M84.3409 159.926C84.3409 159.926 83.7865 140.191 81.5041 139.348C79.2217 138.506 62.0641 140.86 62.0641 140.86L61.6465 136.353C61.6465 136.353 81.6121 133.279 85.4785 135.1C89.3449 136.922 90.6193 166.334 89.9137 172L84.3409 159.926Z" fill="white"/>
<path d="M62.3593 141.293L61.1641 136.339L62.8777 135.72L63.9649 141.444L62.3593 141.293Z" fill="#4FBF67"/>
<path opacity="0.7" d="M62.3593 141.293L61.1641 136.339L62.8777 135.72L63.9649 141.444L62.3593 141.293Z" fill="white"/>
<path d="M84.2398 157.464C84.2398 157.464 82.7062 163.469 75.319 165.384C67.9318 167.299 59.7598 162.295 59.7598 162.295L61.387 176.623L70.4302 199.195L93.5422 193.169C93.5422 193.169 92.1598 166.91 84.2398 157.464Z" fill="#4FBF67"/>
<path opacity="0.7" d="M84.2398 157.464C84.2398 157.464 82.7062 163.469 75.319 165.384C67.9318 167.299 59.7598 162.295 59.7598 162.295L61.387 176.623L70.4302 199.195L93.5422 193.169C93.5422 193.169 92.1598 166.91 84.2398 157.464Z" fill="white"/>
<path opacity="0.6" d="M88.2581 181.274L90.9634 180.42C91.263 180.326 91.4292 180.006 91.3347 179.707L89.723 174.598C89.6285 174.298 89.309 174.132 89.0094 174.227L86.3041 175.08C86.0045 175.175 85.8382 175.494 85.9328 175.794L87.5445 180.902C87.639 181.202 87.9585 181.368 88.2581 181.274Z" fill="#4FBF67"/>
<path opacity="0.2" d="M87.7051 179.717L90.7812 178.746L89.4533 174.537L86.3772 175.507L87.7051 179.717Z" fill="black"/>
<path d="M87.6036 173.015L86.9238 173.229L87.7059 175.708L88.3856 175.494L87.6036 173.015Z" fill="#263238"/>
<path d="M68.5312 135.036C62.836 135.036 59.0776 141.069 60.4096 150.638C61.7416 160.207 67.0768 162.964 67.0768 162.964L66.7384 160.653C72.6612 161.997 78.7676 162.338 84.8032 161.661C84.8032 161.661 82.0528 153.856 82.9456 145.886C82.9456 145.886 84.7528 135.021 68.5312 135.036Z" fill="#263238"/>
<path opacity="0.2" d="M79.842 163.44L82.1676 172.08L78.078 168.962C78.078 168.962 82.0596 178.063 83.118 183.362C83.118 183.362 79.6764 174.34 76.71 169.394L74.9748 174.348L67.998 167.241C67.998 167.241 74.1612 162.518 79.842 163.44Z" fill="black"/>
<path d="M76.4435 166.226L69.3443 166.442C72.4907 162.417 66.8027 155.404 66.8027 155.404L73.8155 156.923C75.4859 163.864 78.3731 164.073 78.3731 164.073L76.4435 166.226Z" fill="#E4897B"/>
<path opacity="0.2" d="M75.7739 161.906C73.065 161.68 70.5455 160.425 68.7323 158.4C68.1721 157.36 67.5267 156.367 66.8027 155.434L73.8155 156.96C74.1869 158.707 74.8489 160.379 75.7739 161.906Z" fill="black"/>
<path d="M73.8086 137.966C79.9214 138.477 81.6206 141.912 81.5414 148.255C81.4478 156.175 79.2302 161.625 71.7278 159.307C61.5326 156.16 63.6494 137.116 73.8086 137.966Z" fill="#E4897B"/>
<path d="M77.6164 147.6C78.0303 148.554 78.5573 149.456 79.186 150.285C78.9847 150.521 78.7227 150.698 78.4282 150.796C78.1337 150.893 77.8181 150.909 77.5156 150.84L77.6164 147.6Z" fill="#DE5753"/>
<path d="M73.4766 146.578L74.8014 146.146C74.8014 146.146 74.0958 147.197 73.4766 146.578Z" fill="#263238"/>
<path d="M73.938 146.426C73.6917 146.305 73.4098 146.278 73.1448 146.35C72.8799 146.421 72.65 146.587 72.498 146.815C72.7241 146.712 72.9696 146.659 73.218 146.659C73.4665 146.659 73.712 146.712 73.938 146.815V146.426Z" fill="#263238"/>
<path d="M71.4762 143.51C71.4081 143.508 71.3435 143.48 71.2962 143.431C71.2711 143.407 71.2511 143.379 71.2375 143.347C71.2238 143.316 71.2168 143.282 71.2168 143.247C71.2168 143.213 71.2238 143.179 71.2375 143.147C71.2511 143.116 71.2711 143.087 71.2962 143.064C71.6977 142.712 72.1753 142.459 72.6914 142.324C73.2074 142.189 73.7478 142.176 74.2698 142.286C74.3376 142.3 74.3969 142.341 74.4347 142.399C74.4725 142.457 74.4857 142.528 74.4714 142.596C74.4571 142.663 74.4164 142.723 74.3583 142.76C74.3003 142.798 74.2296 142.811 74.1618 142.797C73.7261 142.708 73.2761 142.718 72.8449 142.827C72.4137 142.935 72.0123 143.139 71.6706 143.424C71.6464 143.451 71.6165 143.473 71.5829 143.488C71.5494 143.503 71.5129 143.511 71.4762 143.51Z" fill="#263238"/>
<path d="M81.0659 143.618C81.0088 143.62 80.9528 143.602 80.9075 143.567C80.6194 143.303 80.276 143.107 79.9023 142.992C79.5286 142.878 79.1341 142.848 78.7475 142.905C78.7144 142.914 78.6799 142.916 78.6458 142.912C78.6118 142.908 78.579 142.897 78.5493 142.88C78.5195 142.863 78.4934 142.84 78.4724 142.813C78.4515 142.786 78.4361 142.755 78.4271 142.721C78.4181 142.688 78.4157 142.654 78.4201 142.62C78.4245 142.586 78.4355 142.553 78.4525 142.523C78.4696 142.493 78.4923 142.467 78.5195 142.446C78.5466 142.425 78.5776 142.41 78.6107 142.401C79.0774 142.319 79.5568 142.344 80.0122 142.475C80.4677 142.606 80.8872 142.839 81.2387 143.157C81.292 143.201 81.3263 143.263 81.3344 143.332C81.3424 143.4 81.3236 143.469 81.2819 143.524C81.2558 143.556 81.2227 143.581 81.1851 143.597C81.1476 143.613 81.1067 143.62 81.0659 143.618Z" fill="#263238"/>
<path d="M66.2394 147.715C66.2394 147.715 69.5154 142.934 69.4074 139.017C69.4074 139.017 81.9426 135.071 81.5178 147.427C81.5178 147.427 83.6058 136.627 73.1154 135.482C62.625 134.337 61.4082 149.759 66.4554 154.799C66.4554 154.799 64.2306 150.71 66.2394 147.715Z" fill="#263238"/>
<path d="M67.1546 149.09C67.1546 148.377 66.8719 147.693 66.3685 147.189C65.865 146.684 65.182 146.399 64.469 146.397C62.5538 146.448 61.3298 150.264 65.9666 151.596C66.629 151.783 67.0682 151.157 67.1546 149.09Z" fill="#E4897B"/>
<path d="M77.5672 152.639C77.1189 153.242 76.7169 153.877 76.3648 154.54C76.2424 154.497 76.1128 154.461 75.9904 154.41C74.2984 153.813 73.708 152.97 73.5712 152.25C73.5067 151.885 73.534 151.509 73.6504 151.156C73.7104 150.953 73.7976 150.759 73.9096 150.58C74.7894 151.416 75.8411 152.05 76.9912 152.438C77.3368 152.567 77.5672 152.639 77.5672 152.639Z" fill="#263238"/>
<path d="M76.9892 152.424L76.622 152.978C75.0236 152.409 73.9796 151.797 73.6484 151.142C73.7084 150.939 73.7956 150.745 73.9076 150.566C74.7874 151.402 75.8391 152.036 76.9892 152.424Z" fill="white"/>
<path d="M75.9895 154.411C74.2975 153.813 73.7071 152.971 73.5703 152.251C74.2104 152.487 74.803 152.835 75.3199 153.281C75.6551 153.579 75.8891 153.974 75.9895 154.411Z" fill="#DE5753"/>
<path d="M73.6417 138.42C73.6417 138.42 70.3369 148.276 64.0153 147.6C57.6937 146.923 68.5297 135.014 68.5297 135.014C68.5297 135.014 79.1929 131.968 83.8369 137.894C88.4809 143.82 81.5401 147.412 81.5401 147.412C81.5401 147.412 82.5769 139.68 73.6417 138.42Z" fill="#263238"/>
<path d="M68.6018 146.808C68.5652 146.806 68.5298 146.794 68.4994 146.774C68.469 146.754 68.4446 146.726 68.429 146.693C68.4125 146.647 68.4146 146.596 68.4347 146.552C68.4549 146.507 68.4916 146.473 68.537 146.455C73.577 144.533 73.4618 137.772 73.4618 137.7C73.4597 137.676 73.4627 137.652 73.4705 137.63C73.4784 137.608 73.4909 137.588 73.5073 137.57C73.5236 137.553 73.5435 137.54 73.5654 137.531C73.5874 137.523 73.611 137.519 73.6346 137.52C73.6814 137.521 73.726 137.539 73.7604 137.571C73.7948 137.603 73.8166 137.646 73.8218 137.693C73.8218 137.765 73.937 144.777 68.6666 146.793L68.6018 146.808Z" fill="#263238"/>
<path d="M79.6836 147.175L81.0084 146.75C81.0084 146.75 80.2956 147.794 79.6836 147.175Z" fill="#263238"/>
<path d="M80.1451 147.024C79.8982 146.902 79.6152 146.875 79.3497 146.948C79.0843 147.021 78.8548 147.189 78.7051 147.42C78.9277 147.309 79.1717 147.248 79.4203 147.24C79.6689 147.233 79.9162 147.279 80.1451 147.377V147.024Z" fill="#263238"/>
<path d="M70.3441 163.533L75.6937 166.255L75.6073 171.676L67.9609 167.22L70.3441 163.533Z" fill="#4FBF67"/>
<path d="M76.5078 162.511L76.8246 165.801L80.3166 169.495L79.8414 163.418L76.5078 162.511Z" fill="#4FBF67"/>
<path d="M51.7919 125.28L49.5599 119.52C49.6006 119.212 49.5691 118.899 49.4679 118.605C49.3667 118.311 49.1985 118.045 48.9767 117.828C47.4215 116.669 44.2103 115.617 43.4039 115.74C42.2303 115.913 39.8039 118.037 40.0127 119.426C40.2215 120.816 47.0759 121.673 47.0759 121.673L49.3511 127.987L51.7919 125.28Z" fill="#E4897B"/>
<path d="M61.4014 176.623C61.4014 176.623 65.7214 173.188 64.0006 165.6L59.3566 144.604L51.379 122.918L47.4766 124.891C47.4766 124.891 54.0286 146.08 54.6334 147.513C54.943 148.233 56.1742 159.228 57.8518 166.593C59.3926 173.376 61.4014 176.623 61.4014 176.623Z" fill="#4FBF67"/>
<path opacity="0.6" d="M61.4014 176.623C61.4014 176.623 65.7214 173.188 64.0006 165.6L59.3566 144.604L51.379 122.918L47.4766 124.891C47.4766 124.891 54.0286 146.08 54.6334 147.513C54.943 148.233 56.1742 159.228 57.8518 166.593C59.3926 173.376 61.4014 176.623 61.4014 176.623Z" fill="white"/>
<path d="M46.7949 124.272L51.3525 121.989L52.3461 123.508L47.0181 125.87L46.7949 124.272Z" fill="#4FBF67"/>
<path opacity="0.7" d="M46.7949 124.272L51.3525 121.989L52.3461 123.508L47.0181 125.87L46.7949 124.272Z" fill="white"/>
<path opacity="0.6" d="M70.3441 163.533L75.6937 166.255L75.6073 171.676L67.9609 167.22L70.3441 163.533Z" fill="white"/>
<path opacity="0.6" d="M76.5078 162.511L76.8246 165.801L80.3166 169.495L79.8414 163.418L76.5078 162.511Z" fill="white"/>
<path d="M228.429 152.215H206.857V168.976H228.429V152.215Z" fill="white"/>
<path opacity="0.1" d="M228.428 152.215H222.898V168.976H228.428V152.215Z" fill="black"/>
<path d="M205.619 183.779H230.006V153.359H222.15L205.619 161.272V183.779Z" fill="#4FBF67"/>
<path opacity="0.2" d="M230.006 153.359H222.15V183.779H230.006V153.359Z" fill="black"/>
<path opacity="0.7" d="M219.552 167.271H208.133V172.743H219.552V167.271Z" fill="white"/>
<path opacity="0.7" d="M219.552 174.571H208.133V175.356H219.552V174.571Z" fill="white"/>
<path opacity="0.7" d="M229.242 176.868H222.898V181.512H229.242V176.868Z" fill="white"/>
<path d="M219.263 151.301H197.691V168.977H219.263V151.301Z" fill="white"/>
<path opacity="0.1" d="M219.264 151.301H213.734V168.977H219.264V151.301Z" fill="black"/>
<path d="M196.453 183.78H220.84V153.36H212.984L196.453 161.273V183.78Z" fill="#4FBF67"/>
<path opacity="0.2" d="M220.84 153.359H212.984V183.779H220.84V153.359Z" fill="black"/>
<path opacity="0.7" d="M210.384 167.271H198.965V172.743H210.384V167.271Z" fill="white"/>
<path opacity="0.7" d="M210.386 174.571H198.967V175.356H210.386V174.571Z" fill="white"/>
<path opacity="0.7" d="M220.078 176.868H213.734V181.512H220.078V176.868Z" fill="white"/>
<path d="M181.305 299.276H185.718L193.638 188.936H187.785L181.305 299.276Z" fill="#263238"/>
<path opacity="0.1" d="M181.305 299.275H185.718L193.249 194.414L193.638 189.115H187.785L187.475 194.414L181.305 299.275Z" fill="white"/>
<path opacity="0.2" d="M187.475 194.155H193.249L193.638 189.115H187.784L187.475 194.155Z" fill="black"/>
<path d="M148.931 299.276H153.345L154.065 188.936H148.211L148.931 299.276Z" fill="#263238"/>
<path opacity="0.1" d="M148.205 189.115L148.327 206.914L148.925 299.275H153.339L153.943 206.914L154.059 189.115H148.205Z" fill="white"/>
<path opacity="0.2" d="M148.205 189.115L148.327 207.115H153.943L154.059 189.115H148.205Z" fill="black"/>
<path d="M102.105 299.275H106.519L114.439 188.935H108.585L102.105 299.275Z" fill="#263238"/>
<path opacity="0.1" d="M102.105 299.275H106.519L114.057 194.414L114.439 189.115H108.585L108.276 194.414L102.105 299.275Z" fill="white"/>
<path opacity="0.2" d="M108.273 194.155H114.055L114.437 189.115H108.583L108.273 194.155Z" fill="black"/>
<path d="M231.763 299.275H236.177L229.69 188.935H223.836L231.763 299.275Z" fill="#263238"/>
<path opacity="0.1" d="M223.836 189.115L224.232 194.414L231.763 299.275H236.17L230.006 194.414L229.69 189.115H223.836Z" fill="white"/>
<path opacity="0.2" d="M229.69 189.115H223.836L224.232 194.155H230.006L229.69 189.115Z" fill="black"/>
<path d="M232.777 191.7L105.51 191.7C105.305 191.7 105.103 191.66 104.914 191.582C104.726 191.504 104.554 191.389 104.41 191.245C104.266 191.1 104.151 190.929 104.073 190.74C103.995 190.551 103.954 190.349 103.954 190.145V186.178L234.332 186.178V190.145C234.332 190.349 234.292 190.551 234.214 190.74C234.135 190.929 234.021 191.1 233.877 191.245C233.732 191.389 233.561 191.504 233.372 191.582C233.183 191.66 232.981 191.7 232.777 191.7Z" fill="#4FBF67"/>
<path opacity="0.4" d="M232.777 191.7L105.51 191.7C105.305 191.7 105.103 191.66 104.914 191.582C104.726 191.504 104.554 191.389 104.41 191.245C104.266 191.1 104.151 190.929 104.073 190.74C103.995 190.551 103.954 190.349 103.954 190.145V186.178L234.332 186.178V190.145C234.332 190.349 234.292 190.551 234.214 190.74C234.135 190.929 234.021 191.1 233.877 191.245C233.732 191.389 233.561 191.504 233.372 191.582C233.183 191.66 232.981 191.7 232.777 191.7Z" fill="white"/>
<path opacity="0.2" d="M103.954 188.935L234.332 188.935V186.17L103.954 186.17V188.935Z" fill="black"/>
<path d="M101.219 186.89H237.061C237.266 186.891 237.468 186.852 237.657 186.774C237.846 186.696 238.018 186.581 238.163 186.437C238.307 186.292 238.422 186.12 238.5 185.931C238.578 185.742 238.617 185.539 238.616 185.335C238.616 184.923 238.452 184.527 238.161 184.235C237.869 183.944 237.474 183.78 237.061 183.78H101.219C100.806 183.78 100.409 183.943 100.116 184.235C99.8236 184.526 99.6582 184.922 99.6563 185.335C99.6562 185.54 99.6967 185.743 99.7753 185.932C99.8539 186.121 99.9691 186.293 100.114 186.437C100.259 186.582 100.432 186.696 100.621 186.774C100.811 186.852 101.014 186.891 101.219 186.89Z" fill="#4FBF67"/>
<path opacity="0.4" d="M101.219 186.89H237.061C237.266 186.891 237.468 186.852 237.657 186.774C237.846 186.696 238.018 186.581 238.163 186.437C238.307 186.292 238.422 186.12 238.5 185.931C238.578 185.742 238.617 185.539 238.616 185.335C238.616 184.923 238.452 184.527 238.161 184.235C237.869 183.944 237.474 183.78 237.061 183.78H101.219C100.806 183.78 100.409 183.943 100.116 184.235C99.8236 184.526 99.6582 184.922 99.6563 185.335C99.6562 185.54 99.6967 185.743 99.7753 185.932C99.8539 186.121 99.9691 186.293 100.114 186.437C100.259 186.582 100.432 186.696 100.621 186.774C100.811 186.852 101.014 186.891 101.219 186.89Z" fill="white"/>
<path d="M207.871 183.766V181.332H209.506L207.871 180.382H209.095L207.461 179.316H205.913V178.092H207.713L205.913 177.379V174.722H207.713V172.987H209.506L207.713 172.382V171.144H208.995L207.943 170.1L207.036 169.186H179.215V170.431H177.379L179.424 171.353V172.382H175.673V174.298H174.01L175.673 175.133V177.271H176.854V178.294H179.215V181.332H177.891L178.978 182.419V183.78L207.871 183.766Z" fill="#4FBF67"/>
<path opacity="0.7" d="M207.871 183.766V181.332H209.506L207.871 180.382H209.095L207.461 179.316H205.913V178.092H207.713L205.913 177.379V174.722H207.713V172.987H209.506L207.713 172.382V171.144H208.995L207.943 170.1L207.036 169.186H179.215V170.431H177.379L179.424 171.353V172.382H175.673V174.298H174.01L175.673 175.133V177.271H176.854V178.294H179.215V181.332H177.891L178.978 182.419V183.78L207.871 183.766Z" fill="white"/>
<path opacity="0.1" d="M207.872 183.766V181.332H209.506L207.872 180.382H209.096L207.461 179.316H205.913V178.092H207.713L205.913 177.379V174.722H207.713V172.987H209.506L207.713 172.382V171.144H208.995L207.944 170.1L207.037 169.186H192.385V170.431H190.549L192.586 171.353V172.382H188.835V174.298H187.172L188.835 175.133V177.271H190.016V178.294H192.385V181.332H191.06L192.14 182.419V183.78L207.872 183.766Z" fill="black"/>
<path opacity="0.1" d="M179.424 172.382H192.585L179.424 171.907V172.382Z" fill="black"/>
<path opacity="0.1" d="M179.217 178.294H192.386L192.443 179.216L179.217 178.294Z" fill="black"/>
<path opacity="0.1" d="M176.855 177.271H190.017L176.855 177.732V177.271Z" fill="black"/>
<path opacity="0.1" d="M179.217 181.332H192.386L179.217 180.85V181.332Z" fill="black"/>
<path opacity="0.1" d="M178.979 182.419H192.14V182.923L178.979 182.419Z" fill="black"/>
<path opacity="0.1" d="M175.674 174.297H188.835L175.674 173.88V174.297Z" fill="black"/>
<path opacity="0.1" d="M179.217 170.432H192.386L179.217 169.971V170.432Z" fill="black"/>
<path opacity="0.1" d="M207.713 171.144H194.357L207.713 171.554V171.144Z" fill="black"/>
<path opacity="0.1" d="M192.586 172.382H207.713L193.997 172.829L192.586 172.382Z" fill="black"/>
<path opacity="0.1" d="M188.836 174.298L207.714 174.723V174.298H188.836Z" fill="black"/>
<path opacity="0.1" d="M188.836 175.133H198.174L188.836 175.586V175.133Z" fill="black"/>
<path opacity="0.1" d="M205.914 177.379L192.385 177.271L205.914 176.969V177.379Z" fill="black"/>
<path opacity="0.1" d="M205.914 178.092H192.141L205.914 178.553V178.092Z" fill="black"/>
<path opacity="0.1" d="M207.872 180.382H192.586V180.85L207.872 180.382Z" fill="black"/>
<path opacity="0.1" d="M207.87 181.332H196.797L207.87 181.642V181.332Z" fill="black"/>
<path d="M172.45 180.626V182.938C172.45 183.528 171.73 183.773 171.161 183.773H124.995C124.404 183.773 123.691 183.528 123.691 182.938V180.626H172.45Z" fill="#263238"/>
<path opacity="0.4" d="M172.45 180.626V182.938C172.45 183.528 171.73 183.773 171.161 183.773H124.995C124.404 183.773 123.691 183.528 123.691 182.938V180.626H172.45Z" fill="white"/>
<path opacity="0.2" d="M172.45 180.626V182.937C172.45 183.528 171.73 183.772 171.161 183.772H140.712C140.122 183.772 139.416 183.528 139.416 182.937V180.626H172.45Z" fill="black"/>
<path d="M180.174 156.636L174.673 181.57C174.578 181.974 174.351 182.336 174.028 182.597C173.704 182.857 173.303 183.003 172.887 183.01H142.871C142.684 183.005 142.501 182.958 142.335 182.871C142.17 182.785 142.027 182.661 141.917 182.509C141.808 182.358 141.735 182.183 141.704 181.999C141.673 181.815 141.686 181.626 141.74 181.447L147.227 156.708C147.339 156.33 147.578 156.003 147.903 155.78C148.228 155.557 148.619 155.453 149.012 155.484H179.036C179.843 155.455 180.347 155.822 180.174 156.636Z" fill="#263238"/>
<path opacity="0.4" d="M180.174 156.635L174.673 181.569C174.579 181.974 174.352 182.335 174.028 182.596C173.705 182.857 173.303 183.002 172.888 183.009H143.886C143.699 183.005 143.516 182.958 143.351 182.871C143.185 182.784 143.042 182.66 142.933 182.509C142.823 182.357 142.75 182.183 142.72 181.998C142.689 181.814 142.701 181.625 142.756 181.447L148.249 156.707C148.361 156.329 148.599 156.001 148.924 155.778C149.25 155.555 149.642 155.451 150.035 155.483H179.037C179.843 155.455 180.347 155.822 180.174 156.635Z" fill="white"/>
<path opacity="0.2" d="M165.369 169.308C165.369 171.468 163.08 173.174 161.402 173.174C159.724 173.174 158.731 171.439 159.242 169.308C159.753 167.177 161.402 165.514 163.029 165.449C162.554 167.609 163.576 169.308 165.247 169.308H165.369Z" fill="black"/>
</svg>
