<svg width="1920" height="800" viewBox="0 0 1920 800" fill="none" xmlns="http://www.w3.org/2000/svg">
<g clip-path="url(#clip0_1291_3126)">
<path d="M-549.793 795.165C-641.583 707.313 -632.767 559.536 -534.933 478.467C-509.18 457.124 -484.617 426.246 -466.133 381.64C-400.409 223.052 -83.5771 90.4375 35.9281 371.375C155.433 652.312 279.394 766.363 510.702 716.626C741.997 666.901 853.946 898.014 801.215 1111.02C748.483 1324.03 244.73 1674.21 -1.54626 1425.8C-247.822 1177.38 -154.695 824.743 -387.96 851.078C-456.295 858.798 -509.162 834.034 -549.78 795.166L-549.793 795.165Z" fill="url(#paint0_linear_1291_3126)"/>
<path d="M175.198 830.655C137.142 567.498 -117.619 392.817 -379.129 443.75C-526.75 472.505 -654.877 555.012 -625.049 763.237C-560.637 1212.8 -208.577 1299.9 71.6514 1101.17C169.231 1031.97 189.811 931.813 175.185 830.654L175.198 830.655Z" fill="url(#paint1_linear_1291_3126)"/>
<path d="M838.726 990.46C920.634 908.335 547.804 655.092 294.248 693.276C40.693 731.459 -24.0202 681.705 -145.684 579.962C-267.348 478.219 -403.263 679.103 -352.861 844.39C-302.46 1009.68 60.2958 1129.18 207.618 1072.02C285.674 1041.73 771.186 1058.19 838.725 990.472L838.726 990.46Z" fill="url(#paint2_linear_1291_3126)"/>
<path d="M1851.97 1419.31C2169.75 1427.23 2425.48 1162.58 2416.46 844.833C2411.36 665.465 2339.06 498.262 2087.67 491.658C1544.9 477.416 1373.47 874.027 1553.14 1243.38C1615.71 1371.99 1729.81 1416.24 1851.97 1419.29L1851.97 1419.31Z" fill="url(#paint3_linear_1291_3126)"/>
<path d="M1945.73 444.571C2019.94 389.848 2126.28 414.564 2174.1 494.647C2186.68 515.738 2206.33 537.158 2236.64 555.932C2344.4 622.715 2404.87 865.904 2187.27 916.397C1969.66 966.89 1872.79 1041.37 1882.74 1213.05C1892.67 1384.72 1712.12 1436.01 1563.37 1371.75C1414.61 1307.49 1217.26 903.455 1425.59 758.206C1633.91 612.957 1879.53 723.514 1886.8 553.347C1888.92 503.493 1912.9 468.752 1945.72 444.538L1945.73 444.571Z" fill="url(#paint4_linear_1291_3126)"/>
<path d="M2259.17 410.096C2231.68 254.247 2036.76 188.995 1925.07 299.838C1902.91 321.83 1885.98 349.108 1877.83 382.953C1834.4 563.473 1684.36 731.896 1508.05 763.732C1331.74 795.569 1347.18 1161.11 1572.74 1239.53C1798.31 1317.95 2219.46 1018.04 2271.74 810.855C2299.44 701.083 2281.85 538.608 2259.16 410.093L2259.17 410.096Z" fill="url(#paint5_linear_1291_3126)"/>
</g>
<defs>
<linearGradient id="paint0_linear_1291_3126" x1="-73.1355" y1="271.45" x2="205.152" y2="788.434" gradientUnits="userSpaceOnUse">
<stop stop-color="#4361EE"/>
<stop offset="1" stop-color="#0B28AF"/>
</linearGradient>
<linearGradient id="paint1_linear_1291_3126" x1="-45.6305" y1="552.121" x2="30.9293" y2="749.93" gradientUnits="userSpaceOnUse">
<stop stop-color="#6C5DD3"/>
<stop offset="1" stop-color="#3C2E9E"/>
</linearGradient>
<linearGradient id="paint2_linear_1291_3126" x1="657.526" y1="585.254" x2="-147.733" y2="886.643" gradientUnits="userSpaceOnUse">
<stop stop-color="#F72585"/>
<stop offset="1" stop-color="#62022E"/>
</linearGradient>
<linearGradient id="paint3_linear_1291_3126" x1="1691.55" y1="622.636" x2="1571.55" y2="1370.64" gradientUnits="userSpaceOnUse">
<stop stop-color="#4361EE"/>
<stop offset="1" stop-color="#0C28B0"/>
</linearGradient>
<linearGradient id="paint4_linear_1291_3126" x1="1913.93" y1="688.099" x2="1467.45" y2="734.056" gradientUnits="userSpaceOnUse">
<stop stop-color="#2B2073"/>
<stop offset="1" stop-color="#6C5DD3"/>
</linearGradient>
<linearGradient id="paint5_linear_1291_3126" x1="1871.44" y1="376.008" x2="1721.01" y2="1286.46" gradientUnits="userSpaceOnUse">
<stop stop-color="#F72585"/>
<stop offset="1" stop-color="#62022E"/>
</linearGradient>
<clipPath id="clip0_1291_3126">
<rect width="1920" height="800" fill="white"/>
</clipPath>
</defs>
</svg>
