<svg width="1920" height="800" viewBox="0 0 1920 800" fill="none" xmlns="http://www.w3.org/2000/svg">
<g clip-path="url(#clip0_1291_3087)">
<path d="M-549.787 795.165C-641.577 707.313 -632.761 559.536 -534.928 478.467C-509.174 457.124 -484.611 426.246 -466.127 381.64C-400.404 223.052 -83.5713 90.4375 35.9339 371.375C155.439 652.312 279.399 766.363 510.708 716.626C742.003 666.901 853.952 898.014 801.22 1111.02C748.489 1324.03 244.735 1674.21 -1.54046 1425.8C-247.816 1177.38 -154.689 824.743 -387.954 851.078C-456.29 858.798 -509.156 834.034 -549.774 795.166L-549.787 795.165Z" fill="url(#paint0_linear_1291_3087)"/>
<path d="M175.187 830.669C137.145 567.521 -117.597 392.837 -379.099 443.758C-526.715 472.507 -654.841 555.006 -625.024 763.225C-560.635 1212.78 -208.594 1299.88 71.6324 1101.17C169.212 1031.98 189.795 931.824 175.174 830.669L175.187 830.669Z" fill="url(#paint1_linear_1291_3087)"/>
<path d="M838.711 990.473C920.622 908.361 547.816 655.125 294.264 693.293C40.7119 731.461 -23.9968 681.709 -145.652 579.97C-267.307 478.231 -403.231 679.088 -352.84 844.361C-302.45 1009.63 60.2902 1129.14 207.612 1071.99C285.668 1041.71 771.169 1058.2 838.71 990.485L838.711 990.473Z" fill="url(#paint2_linear_1291_3087)"/>
<path d="M1851.97 1419.31C2169.75 1427.23 2425.48 1162.58 2416.46 844.833C2411.36 665.465 2339.06 498.262 2087.67 491.658C1544.9 477.416 1373.47 874.027 1553.14 1243.38C1615.71 1371.99 1729.81 1416.24 1851.97 1419.29L1851.97 1419.31Z" fill="url(#paint3_linear_1291_3087)"/>
<path d="M1946.15 444.915C2020.36 390.287 2126.58 415.083 2174.27 495.167C2186.82 516.258 2206.42 537.684 2236.69 556.475C2344.28 623.317 2404.42 866.433 2186.94 916.707C1969.46 966.982 1872.58 1041.34 1882.33 1212.93C1892.06 1384.53 1711.6 1435.63 1563.05 1371.28C1414.48 1306.92 1217.76 902.918 1426.08 757.928C1634.4 612.939 1879.68 723.654 1887.14 553.583C1889.32 503.756 1913.32 469.055 1946.14 444.882L1946.15 444.915Z" fill="url(#paint4_linear_1291_3087)"/>
<path d="M2259.16 410.604C2231.88 254.799 2037.22 189.404 1925.52 300.098C1903.36 322.061 1886.4 349.312 1878.23 383.134C1834.63 563.536 1684.54 731.751 1508.37 763.418C1332.2 795.084 1347.2 1160.47 1572.45 1239.06C1797.7 1317.65 2218.79 1018.24 2271.26 811.196C2299.06 701.498 2281.66 539.078 2259.15 410.6L2259.16 410.604Z" fill="url(#paint5_linear_1291_3087)"/>
</g>
<defs>
<linearGradient id="paint0_linear_1291_3087" x1="-73.1297" y1="271.45" x2="205.157" y2="788.434" gradientUnits="userSpaceOnUse">
<stop stop-color="#1D4BB1"/>
<stop offset="1" stop-color="#031E56"/>
</linearGradient>
<linearGradient id="paint1_linear_1291_3087" x1="-554.458" y1="724.992" x2="525.64" y2="1051.34" gradientUnits="userSpaceOnUse">
<stop stop-color="#A243C4"/>
<stop offset="1" stop-color="#340F42"/>
</linearGradient>
<linearGradient id="paint2_linear_1291_3087" x1="657.54" y1="585.3" x2="-239.742" y2="1062.91" gradientUnits="userSpaceOnUse">
<stop stop-color="#C93EA5"/>
<stop offset="1" stop-color="#480935"/>
</linearGradient>
<linearGradient id="paint3_linear_1291_3087" x1="2118.97" y1="582.256" x2="1521.89" y2="1786.58" gradientUnits="userSpaceOnUse">
<stop stop-color="#1D4BB1"/>
<stop offset="1" stop-color="#041E57"/>
</linearGradient>
<linearGradient id="paint4_linear_1291_3087" x1="2069.87" y1="641.468" x2="1423.93" y2="1240.62" gradientUnits="userSpaceOnUse">
<stop stop-color="#33143E"/>
<stop offset="1" stop-color="#742E8E"/>
</linearGradient>
<linearGradient id="paint5_linear_1291_3087" x1="1918.13" y1="221.898" x2="1763.68" y2="1271.11" gradientUnits="userSpaceOnUse">
<stop stop-color="#BB3899"/>
<stop offset="1" stop-color="#681651"/>
</linearGradient>
<clipPath id="clip0_1291_3087">
<rect width="1920" height="800" fill="white"/>
</clipPath>
</defs>
</svg>
